<?xml version="1.0" encoding="utf-8"?>
<!-- Generator: Adobe Illustrator 16.0.3, SVG Export Plug-In . SVG Version: 6.00 Build 0)  -->
<!DOCTYPE svg PUBLIC "-//W3C//DTD SVG 1.1//EN" "http://www.w3.org/Graphics/SVG/1.1/DTD/svg11.dtd">
<svg version="1.1" id="Capa_1" xmlns="http://www.w3.org/2000/svg" xmlns:xlink="http://www.w3.org/1999/xlink" x="0px" y="0px"
	 width="69.968px" height="21.5px" viewBox="0 0 69.968 21.5" enable-background="new 0 0 69.968 21.5" xml:space="preserve">
<g>
	<path fill="#FFFFFF" d="M10.904,0.486c-5.689,0-10.301,4.611-10.301,10.3s4.611,10.3,10.301,10.3c5.688,0,10.299-4.611,10.299-10.3
		S16.592,0.486,10.904,0.486z M15.023,15.746l-2.67,2.67l-7.629-7.629l7.629-7.63l2.67,2.67l-4.959,4.96L15.023,15.746z"/>
	<rect x="24.797" y="0.486" fill="#FFFFFF" width="45.171" height="20.193"/>
	<g>
		<path fill="#807F7F" d="M34.201,15.347h-2.199V5.683h2.199c1.625,0,3.418,0.266,3.418,2.311c0,1.106-0.645,1.905-1.694,2.199
			v0.027c1.345,0.253,2.157,1.065,2.157,2.48C38.082,15.082,36.093,15.347,34.201,15.347z M34.201,6.607h-0.658v3.18h0.658
			c1.177,0,1.877-0.406,1.877-1.681C36.078,6.817,35.322,6.607,34.201,6.607z M34.201,10.71h-0.658v3.713h0.658
			c1.359,0,2.34-0.238,2.34-1.85C36.541,11.089,35.504,10.71,34.201,10.71z"/>
		<path fill="#807F7F" d="M45.852,15.347l-0.883-2.871h-3.334l-0.883,2.871h-1.358l3.222-9.664h1.597l3.236,9.664H45.852z
			 M43.33,7.07h-0.028l-1.373,4.482h2.76L43.33,7.07z"/>
		<path fill="#807F7F" d="M54.013,8.302c0-0.995-0.42-1.934-1.555-1.934c-1.778,0-2.045,2.381-2.045,3.712
			c0,1.793,0.351,4.413,2.676,4.413c0.938,0,1.61-0.365,2.325-0.925v1.316c-0.771,0.462-1.695,0.616-2.578,0.616
			c-3.025,0-4.062-2.521-4.062-5.168c0-2.494,0.952-4.805,3.81-4.805c1.766,0,3.222,0.868,3.222,2.773H54.013z"/>
		<path fill="#807F7F" d="M62.427,15.347l-3.264-4.691h-0.028v4.691h-1.541V5.683h1.541v4.271h0.028l3.166-4.271h1.555l-3.404,4.412
			l3.782,5.252H62.427z"/>
	</g>
</g>
</svg>
