<?xml version="1.0" encoding="utf-8"?>
<!-- Generator: Adobe Illustrator 16.0.3, SVG Export Plug-In . SVG Version: 6.00 Build 0)  -->
<!DOCTYPE svg PUBLIC "-//W3C//DTD SVG 1.1//EN" "http://www.w3.org/Graphics/SVG/1.1/DTD/svg11.dtd">
<svg version="1.1" id="Capa_1" xmlns="http://www.w3.org/2000/svg" xmlns:xlink="http://www.w3.org/1999/xlink" x="0px" y="0px"
	 width="246.749px" height="91.558px" viewBox="0 0 246.749 91.558" enable-background="new 0 0 246.749 91.558"
	 xml:space="preserve">
<path fill="#8DB4AE" d="M246.749,91.1c0,0.253-0.215,0.458-0.479,0.458H0.479C0.214,91.558,0,91.353,0,91.1V0.458
	C0,0.205,0.214,0,0.479,0H246.27c0.264,0,0.479,0.205,0.479,0.458V91.1z"/>
<g>
	<g>
		<circle fill="none" stroke="#FFFFFF" stroke-miterlimit="10" cx="34.324" cy="44.873" r="22.21"/>
	</g>
	<path fill="#FFFFFF" d="M29.233,37.571c0.147,0.222,0.368,0.368,0.589,0.368c0.147,0,0.221,0,0.368-0.073
		c0.37-0.22,0.443-0.662,0.296-0.957l-1.694-2.946c-0.222-0.369-0.664-0.441-0.958-0.294c-0.369,0.221-0.442,0.662-0.295,0.958
		L29.233,37.571z"/>
	<path fill="#FFFFFF" d="M26.139,44.863c0-0.368-0.295-0.736-0.735-0.736h-3.391c-0.367,0-0.736,0.296-0.736,0.736
		c0,0.368,0.295,0.736,0.736,0.736h3.391C25.771,45.599,26.139,45.231,26.139,44.863z"/>
	<path fill="#FFFFFF" d="M26.949,39.854l-2.947-1.693c-0.368-0.222-0.811-0.074-0.956,0.294c-0.221,0.368-0.074,0.812,0.294,0.958
		l2.947,1.694c0.147,0.073,0.221,0.073,0.368,0.073c0.22,0,0.515-0.147,0.588-0.368C27.392,40.444,27.244,40.002,26.949,39.854z"/>
	<path fill="#FFFFFF" d="M26.213,48.693l-2.947,1.694c-0.369,0.222-0.441,0.663-0.294,0.958c0.146,0.221,0.368,0.368,0.589,0.368
		c0.148,0,0.22,0,0.367-0.075l2.947-1.693c0.368-0.22,0.441-0.663,0.294-0.956C27.023,48.619,26.581,48.472,26.213,48.693z"/>
	<path fill="#FFFFFF" d="M41.902,41.18c0.146,0,0.221,0,0.366-0.073l2.947-1.694c0.367-0.221,0.441-0.663,0.295-0.958
		c-0.221-0.368-0.664-0.441-0.958-0.294l-2.947,1.693c-0.367,0.223-0.441,0.663-0.296,0.958C41.385,41.033,41.68,41.18,41.902,41.18
		z"/>
	<path fill="#FFFFFF" d="M34.242,36.761c0.367,0,0.736-0.296,0.736-0.736v-3.388c0-0.368-0.295-0.737-0.736-0.737
		c-0.369,0-0.737,0.295-0.737,0.737v3.388C33.505,36.392,33.873,36.761,34.242,36.761z"/>
	<path fill="#FFFFFF" d="M38.292,37.866c0.147,0.073,0.222,0.073,0.368,0.073c0.22,0,0.516-0.146,0.59-0.368l1.694-2.944
		c0.222-0.37,0.074-0.812-0.295-0.958c-0.367-0.221-0.81-0.075-0.958,0.294l-1.694,2.946C37.849,37.204,37.923,37.646,38.292,37.866
		z"/>
	<path fill="#FFFFFF" d="M46.468,44.126h-3.388c-0.369,0-0.738,0.296-0.738,0.736c0,0.368,0.295,0.736,0.738,0.736h3.388
		c0.368,0,0.736-0.294,0.736-0.736C47.205,44.495,46.836,44.126,46.468,44.126z"/>
	<path fill="none" stroke="#FFFFFF" stroke-width="2" stroke-miterlimit="10" d="M34.242,51.713c3.755,0,6.85-3.095,6.85-6.851
		s-3.095-6.85-6.85-6.85c-3.756,0-6.85,3.094-6.85,6.85S30.485,51.713,34.242,51.713z"/>
	<path fill="#FFFFFF" d="M45.215,50.387l-2.947-1.694c-0.366-0.221-0.809-0.074-0.958,0.296c-0.219,0.367-0.071,0.808,0.296,0.956
		l2.947,1.693c0.147,0.075,0.221,0.075,0.367,0.075c0.221,0,0.517-0.147,0.59-0.368C45.656,50.976,45.511,50.534,45.215,50.387z"/>
	<path fill="#FFFFFF" d="M30.189,51.934c-0.368-0.221-0.81-0.073-0.957,0.293l-1.695,2.947c-0.222,0.368-0.074,0.81,0.295,0.958
		c0.147,0.073,0.22,0.073,0.367,0.073c0.222,0,0.517-0.147,0.591-0.368l1.694-2.945C30.633,52.524,30.485,52.081,30.189,51.934z"/>
	<path fill="#FFFFFF" d="M39.25,52.154c-0.222-0.366-0.664-0.44-0.958-0.293c-0.369,0.22-0.443,0.663-0.295,0.956l1.694,2.947
		c0.148,0.22,0.369,0.368,0.591,0.368c0.146,0,0.221,0,0.367-0.074c0.369-0.221,0.443-0.662,0.295-0.957L39.25,52.154z"/>
	<path fill="#FFFFFF" d="M34.242,53.039c-0.369,0-0.737,0.294-0.737,0.736v3.389c0,0.367,0.294,0.735,0.737,0.735
		c0.367,0,0.736-0.294,0.736-0.735v-3.389C34.978,53.333,34.609,53.039,34.242,53.039z"/>
</g>
<g>
	<path fill="#FFFFFF" d="M91.52,57.66h-3.153l-5.781-23.348h-0.075L76.768,57.66h-3.191l-4.429-25.9h2.327l3.866,23.123h0.075
		l5.855-23.123h2.815l5.743,23.123h0.075l3.979-23.123h2.103L91.52,57.66z"/>
	<path fill="#FFFFFF" d="M100.831,57.66v-25.9h11.486v1.727h-9.159v9.76h8.708v1.727h-8.708v10.886h9.497v1.802H100.831z"/>
	<path fill="#FFFFFF" d="M131.724,57.66l-2.815-8.596h-9.647l-2.814,8.596h-1.877l8.408-25.9h2.665l8.408,25.9H131.724z
		 M124.141,34.162h-0.074l-4.242,13.176h8.521L124.141,34.162z"/>
	<path fill="#FFFFFF" d="M142.198,33.486V57.66h-2.327V33.486h-6.118v-1.727h14.564v1.727H142.198z"/>
	<path fill="#FFFFFF" d="M164.946,57.66V45.123h-10.998V57.66h-2.328v-25.9h2.328v11.637h10.998V31.759h2.327v25.9H164.946z"/>
	<path fill="#FFFFFF" d="M173.879,57.66v-25.9h11.486v1.727h-9.158v9.76h8.708v1.727h-8.708v10.886h9.496v1.802H173.879z"/>
	<path fill="#FFFFFF" d="M202.483,57.66c-0.449-2.215-0.9-4.43-1.351-6.644c-0.825-4.055-2.215-5.256-6.382-5.256h-1.839V57.66
		h-2.327v-25.9h5.18c4.617,0,8.596,1.576,8.596,6.832c0,3.565-2.59,5.893-6.006,6.269v0.075c3.754,0.487,4.43,2.402,5.105,5.743
		l1.426,6.981H202.483z M195.577,33.486h-2.665v10.548h1.464c3.529,0,7.433-1.051,7.433-5.33
		C201.808,34.725,199.143,33.486,195.577,33.486z"/>
</g>
</svg>
