<?xml version="1.0" encoding="utf-8"?>
<!-- Generator: Adobe Illustrator 16.0.3, SVG Export Plug-In . SVG Version: 6.00 Build 0)  -->
<!DOCTYPE svg PUBLIC "-//W3C//DTD SVG 1.1//EN" "http://www.w3.org/Graphics/SVG/1.1/DTD/svg11.dtd">
<svg version="1.1" id="Capa_1" xmlns="http://www.w3.org/2000/svg" xmlns:xlink="http://www.w3.org/1999/xlink" x="0px" y="0px"
	 width="246.728px" height="91.559px" viewBox="0 0 246.728 91.559" enable-background="new 0 0 246.728 91.559"
	 xml:space="preserve">
<path fill="#8D94A6" d="M246.728,91.101c0,0.253-0.215,0.458-0.48,0.458H0c-0.265,0-0.479-0.205-0.479-0.458V0.459
	C-0.479,0.205-0.265,0,0,0h246.247c0.266,0,0.48,0.205,0.48,0.459V91.101z"/>
<polygon fill="#FFFFFF" points="226.585,0 246.728,0 246.498,19.685 "/>
<g>
	<path fill="#FFFFFF" d="M93.393,22.7c0-3.19-1.689-5.706-5.067-5.706c-5.48,0-6.531,6.457-6.531,10.698
		c0,4.917,1.276,12.575,7.62,12.575c2.402,0,4.054-0.938,5.818-2.44v2.44c-1.764,1.238-3.979,1.727-6.118,1.727
		c-7.845,0-9.872-7.545-9.872-14.001c0-5.894,2.064-12.726,9.159-12.726c4.354,0,7.845,2.928,7.845,7.433H93.393z"/>
	<path fill="#FFFFFF" d="M113.438,41.581V29.044H102.44v12.537h-2.327v-25.9h2.327v11.637h10.999V15.681h2.327v25.9H113.438z"/>
	<path fill="#FFFFFF" d="M122.41,41.581v-25.9h2.327v25.9H122.41z"/>
	<path fill="#FFFFFF" d="M131.419,41.581v-25.9h2.328v24.099h9.121v1.802H131.419z"/>
	<path fill="#FFFFFF" d="M146.021,41.581v-25.9h11.486v1.727h-9.159v9.76h8.709v1.727h-8.709v10.886h9.497v1.802H146.021z"/>
	<path fill="#FFFFFF" d="M185.962,41.581l-2.815-8.596h-9.647l-2.814,8.596h-1.877l8.408-25.9h2.665l8.408,25.9H185.962z
		 M178.38,18.083h-0.076l-4.241,13.176h8.521L178.38,18.083z"/>
	<path fill="#FFFFFF" d="M196.437,17.407v24.174h-2.328V17.407h-6.118v-1.727h14.563v1.727H196.437z"/>
	<path fill="#FFFFFF" d="M94.819,75.457l-2.815-8.596h-9.647l-2.815,8.596h-1.877l8.408-25.9h2.665l8.408,25.9H94.819z
		 M87.237,51.959h-0.075L82.92,65.135h8.521L87.237,51.959z"/>
	<path fill="#FFFFFF" d="M123.649,56.613c0.038-3.528-2.177-5.743-5.706-5.743c-5.781,0-6.907,6.645-6.907,11.148
		c0,4.955,1.314,12.125,7.62,12.125c1.839,0,3.716-0.563,5.03-1.877v-9.459h-6.456V61.08h8.783v12.275
		c-1.839,1.876-5.143,2.515-7.695,2.515c-7.958,0-9.834-7.395-9.834-13.964c0-6.156,2.14-12.763,9.421-12.763
		c3.303,0,6.344,1.239,7.845,4.354c0.488,0.976,0.751,2.027,0.751,3.115H123.649z"/>
	<path fill="#FFFFFF" d="M132.133,75.457v-25.9h2.327v24.099h9.121v1.802H132.133z"/>
	<path fill="#FFFFFF" d="M160.924,75.457l-2.815-8.596h-9.646l-2.815,8.596h-1.877l8.408-25.9h2.665l8.408,25.9H160.924z
		 M153.341,51.959h-0.074l-4.242,13.176h8.521L153.341,51.959z"/>
	<path fill="#FFFFFF" d="M180.219,75.457l-11.073-23.048h-0.075v23.048h-2.14v-25.9h2.891l11.261,23.235h0.075V49.557h2.14v25.9
		H180.219z"/>
	<path fill="#FFFFFF" d="M202.667,56.576c0-3.19-1.689-5.706-5.068-5.706c-5.479,0-6.531,6.457-6.531,10.698
		c0,4.917,1.277,12.575,7.621,12.575c2.402,0,4.053-0.938,5.817-2.44v2.44c-1.765,1.238-3.979,1.727-6.118,1.727
		c-7.846,0-9.872-7.545-9.872-14.001c0-5.894,2.064-12.726,9.159-12.726c4.354,0,7.845,2.928,7.845,7.433H202.667z"/>
	<path fill="#FFFFFF" d="M209.387,75.457v-25.9h11.486v1.727h-9.159v9.76h8.709v1.727h-8.709v10.886h9.497v1.802H209.387z"/>
</g>
<g>
	<circle fill="none" stroke="#FFFFFF" stroke-miterlimit="10" cx="37.735" cy="46.182" r="22.436"/>
	<g>
		<path fill="#FFFFFF" d="M41.349,46.341c-0.127-0.126-0.437-0.07-0.62,0.111c-0.157,0.157-0.45,0.45-0.732,0.732
			c-0.282,0.283-0.574,0.574-0.731,0.731c-0.184,0.183-0.239,0.493-0.112,0.622c0.577,0.576,1.677,1.31,2.726,2.359
			c2.657,2.657,5.976,6.341,6.938,7.306c0.127,0.126,0.438,0.069,0.62-0.113c0.137-0.136,0.425-0.424,0.733-0.731
			c0.308-0.309,0.595-0.597,0.732-0.732c0.183-0.183,0.239-0.493,0.111-0.621c-0.963-0.962-4.647-4.28-7.305-6.938
			C42.66,48.019,41.926,46.918,41.349,46.341z"/>
		<path fill="#FFFFFF" d="M39.188,35.353c-3.256-3.255-8.536-3.255-11.792,0c-3.256,3.256-3.256,8.534,0,11.792
			c3.256,3.255,8.535,3.255,11.792,0C42.445,43.887,42.445,38.608,39.188,35.353z M37.636,45.592c-2.399,2.397-6.288,2.397-8.686,0
			c-2.399-2.399-2.399-6.287,0-8.687c2.398-2.397,6.287-2.397,8.686,0C40.034,39.305,40.034,43.192,37.636,45.592z"/>
	</g>
</g>
</svg>
