<?xml version="1.0" encoding="utf-8"?>
<!-- Generator: Adobe Illustrator 16.0.3, SVG Export Plug-In . SVG Version: 6.00 Build 0)  -->
<!DOCTYPE svg PUBLIC "-//W3C//DTD SVG 1.1//EN" "http://www.w3.org/Graphics/SVG/1.1/DTD/svg11.dtd">
<svg version="1.1" id="Capa_1" xmlns="http://www.w3.org/2000/svg" xmlns:xlink="http://www.w3.org/1999/xlink" x="0px" y="0px"
	 width="246.248px" height="91.558px" viewBox="0 0 246.248 91.558" enable-background="new 0 0 246.248 91.558"
	 xml:space="preserve">
<path fill="#7E9CB0" d="M246.727,91.1c0,0.253-0.214,0.458-0.479,0.458H0c-0.265,0-0.479-0.205-0.479-0.458V0.458
	C-0.479,0.205-0.265,0,0,0h246.248c0.265,0,0.479,0.205,0.479,0.458V91.1z"/>
<g>
	<path fill="#FFFFFF" d="M81.313,57.355l-2.815-8.596h-9.647l-2.815,8.596h-1.877l8.408-25.9h2.665l8.408,25.9H81.313z
		 M73.73,33.857h-0.075l-4.242,13.175h8.521L73.73,33.857z"/>
	<path fill="#FFFFFF" d="M101.096,38.512c0.038-3.528-2.177-5.743-5.706-5.743c-5.781,0-6.907,6.644-6.907,11.148
		c0,4.955,1.314,12.124,7.62,12.124c1.839,0,3.716-0.563,5.03-1.876v-9.459h-6.457v-1.727h8.784v12.274
		c-1.839,1.877-5.143,2.515-7.695,2.515c-7.958,0-9.834-7.395-9.834-13.964c0-6.156,2.139-12.762,9.421-12.762
		c3.303,0,6.344,1.238,7.845,4.354c0.488,0.976,0.751,2.027,0.751,3.116H101.096z"/>
	<path fill="#FFFFFF" d="M109.58,57.355v-25.9h11.486v1.727h-9.159v9.759h8.708v1.727h-8.708v10.886h9.497v1.802H109.58z"/>
	<path fill="#FFFFFF" d="M139.572,57.355l-11.073-23.047h-0.075v23.047h-2.14v-25.9h2.89l11.261,23.235h0.075V31.455h2.14v25.9
		H139.572z"/>
	<path fill="#FFFFFF" d="M154.138,57.355h-4.88v-25.9h4.429c8.934,0,11.899,4.467,11.899,12.95
		C165.586,52.438,162.809,57.355,154.138,57.355z M158.079,33.819c-1.464-0.525-3.041-0.638-4.58-0.638h-1.915v22.372h1.915
		c7.583,0,9.534-3.829,9.534-10.848C163.034,40.614,162.471,35.471,158.079,33.819z"/>
	<path fill="#FFFFFF" d="M184.994,57.355l-2.815-8.596h-9.647l-2.815,8.596h-1.877l8.408-25.9h2.665l8.408,25.9H184.994z
		 M177.411,33.857h-0.075l-4.242,13.175h8.521L177.411,33.857z"/>
</g>
<g>
	<path fill="none" stroke="#FFFFFF" stroke-miterlimit="10" d="M54.055,43.957c0,12.266-9.945,22.209-22.214,22.209
		c-12.264,0-22.207-9.943-22.207-22.209c0-12.267,9.942-22.209,22.207-22.209C44.11,21.748,54.055,31.69,54.055,43.957z"/>
	<g>
		<g>
			<path fill="#FFFFFF" d="M40.777,31.484h-3.573c0-0.821-0.669-1.488-1.491-1.488H27.97c-0.819,0-1.487,0.667-1.487,1.488h-3.577
				c-0.984,0-1.785,0.801-1.785,1.788v19.953c0,0.985,0.801,1.787,1.785,1.787h17.871c0.987,0,1.785-0.802,1.785-1.787V33.272
				C42.563,32.286,41.764,31.484,40.777,31.484z M28.269,31.783h7.147v1.191h-7.147V31.783z M40.777,53.225H22.906V33.272h3.577
				c0,0.821,0.667,1.489,1.487,1.489h7.744c0.822,0,1.491-0.668,1.491-1.489h3.573V53.225z"/>
		</g>
		<rect x="32.14" y="38.036" fill="#FFFFFF" width="6.255" height="1.49"/>
		<rect x="32.14" y="42.802" fill="#FFFFFF" width="6.255" height="1.488"/>
		<rect x="32.14" y="47.568" fill="#FFFFFF" width="6.255" height="1.487"/>
		<polygon fill="#FFFFFF" points="25.289,38.631 27.077,41.014 30.65,36.25 27.077,39.526 		"/>
		<polygon fill="#FFFFFF" points="25.289,43.397 27.077,45.779 30.65,41.014 27.077,44.291 		"/>
		<polygon fill="#FFFFFF" points="25.289,48.162 27.077,50.544 30.65,45.779 27.077,49.055 		"/>
	</g>
</g>
<path fill="#8E95A7" d="M510.413,91.1c0,0.253-0.213,0.458-0.479,0.458H263.687c-0.266,0-0.479-0.205-0.479-0.458V0.458
	c0-0.253,0.213-0.458,0.479-0.458h246.248c0.266,0,0.479,0.205,0.479,0.458V91.1z"/>
<path fill="#8DB4AE" d="M509.956,200.97c0,0.253-0.215,0.458-0.479,0.458H263.687c-0.266,0-0.479-0.205-0.479-0.458v-90.642
	c0-0.254,0.213-0.459,0.479-0.459h245.791c0.264,0,0.479,0.205,0.479,0.459V200.97z"/>
<g>
	<path fill="#FFFFFF" d="M353.249,168.141h-3.152l-5.781-23.348h-0.074l-5.743,23.348h-3.19l-4.43-25.9h2.327l3.866,23.123h0.075
		l5.855-23.123h2.815l5.743,23.123h0.075l3.979-23.123h2.103L353.249,168.141z"/>
	<path fill="#FFFFFF" d="M375.886,168.141v-12.537h-10.998v12.537h-2.327v-25.9h2.327v11.637h10.998V142.24h2.328v25.9H375.886z"/>
	<path fill="#FFFFFF" d="M384.82,168.141v-25.9h11.486v1.727h-9.159v9.76h8.709v1.727h-8.709v10.886h9.497v1.802H384.82z"/>
	<path fill="#FFFFFF" d="M415.714,168.141l-2.815-8.596h-9.647l-2.814,8.596h-1.877l8.408-25.9h2.665l8.408,25.9H415.714z
		 M408.132,144.643h-0.076l-4.241,13.176h8.521L408.132,144.643z"/>
	<path fill="#FFFFFF" d="M426.188,143.967v24.174h-2.328v-24.174h-6.118v-1.727h14.563v1.727H426.188z"/>
	<path fill="#FFFFFF" d="M448.936,168.141v-12.537h-10.999v12.537h-2.326v-25.9h2.326v11.637h10.999V142.24h2.327v25.9H448.936z"/>
	<path fill="#FFFFFF" d="M457.87,168.141v-25.9h11.486v1.727h-9.16v9.76h8.709v1.727h-8.709v10.886h9.498v1.802H457.87z"/>
	<path fill="#FFFFFF" d="M486.474,168.141c-0.451-2.215-0.901-4.43-1.352-6.644c-0.826-4.055-2.215-5.256-6.381-5.256h-1.84v11.899
		h-2.327v-25.9h5.181c4.616,0,8.596,1.576,8.596,6.832c0,3.565-2.59,5.893-6.006,6.269v0.075c3.754,0.487,4.429,2.402,5.104,5.743
		l1.427,6.981H486.474z M479.566,143.967h-2.665v10.548h1.464c3.528,0,7.433-1.051,7.433-5.33
		C485.798,145.206,483.133,143.967,479.566,143.967z"/>
</g>
<path fill="#967B53" d="M246.727,200.97c0,0.253-0.215,0.458-0.479,0.458H0c-0.265,0-0.479-0.205-0.479-0.458v-90.642
	c0-0.254,0.215-0.459,0.479-0.459h246.248c0.265,0,0.479,0.205,0.479,0.459V200.97z"/>
<g>
	<path fill="#FFFFFF" d="M85.956,166.762v-12.537H74.958v12.537H72.63v-25.9h2.327v11.637h10.999v-11.637h2.327v25.9H85.956z"/>
	<path fill="#FFFFFF" d="M102.435,167.175c-7.47,0-8.934-7.433-8.934-13.4c0-5.894,1.576-13.326,8.934-13.326
		c7.245,0,8.784,7.545,8.784,13.326C111.219,159.78,110.055,167.175,102.435,167.175z M102.322,142.175
		c-5.668,0-6.269,7.583-6.269,11.749c0,4.129,0.976,11.524,6.457,11.524c5.706,0,6.156-7.357,6.156-11.524
		C108.666,149.833,107.803,142.175,102.322,142.175z"/>
	<path fill="#FFFFFF" d="M120.942,142.588v24.174h-2.328v-24.174h-6.118v-1.727h14.564v1.727H120.942z"/>
	<path fill="#FFFFFF" d="M130.364,166.762v-25.9h11.486v1.727h-9.159v9.76h8.708v1.727h-8.708v10.886h9.497v1.802H130.364z"/>
	<path fill="#FFFFFF" d="M147.068,166.762v-25.9h2.327v24.099h9.122v1.802H147.068z"/>
</g>
<g>
	<circle fill="none" stroke="#FFFFFF" stroke-miterlimit="10" cx="36.735" cy="153.361" r="22.436"/>
	<g id="Your_Icon_1_">
		<path fill="#FFFFFF" d="M50.822,157.147c-1.059-0.186-1.651-2.147-1.679-2.243c-3.981,0.947-8.136,1.449-12.407,1.449
			c-4.271,0-8.424-0.502-12.407-1.449c-0.027,0.096-0.62,2.058-1.679,2.243c0,0-1.235,0.325-1.235,1.303v1.354
			c4.853,1.449,9.997,2.23,15.321,2.23c5.324,0,10.467-0.781,15.322-2.23v-1.355C52.057,157.473,50.822,157.147,50.822,157.147z"/>
		<g>
			<path fill="#FFFFFF" d="M48.56,151.202c-1.013-0.361-0.797-1.879-0.797-1.879c0-6.68-8.453-7.235-10.558-7.268v-1.45
				c0.906-0.063,1.602-0.303,1.719-0.602h0.018v-0.479c0-0.389-0.989-0.705-2.206-0.705c-1.219,0-2.205,0.316-2.205,0.705v0.419
				h0.006c0.035,0.326,0.763,0.596,1.729,0.662v1.45c-2.102,0.032-10.557,0.588-10.557,7.268c0,0,0.217,1.518-0.795,1.879
				c0,0-0.649,0.969-0.578,2.057c3.98,0.946,8.131,1.447,12.399,1.447c4.27,0,8.421-0.501,12.401-1.447
				C49.206,152.171,48.56,151.202,48.56,151.202z M45.605,150.642c-0.262,0-0.475-0.213-0.475-0.476c0-1.907-0.802-3.352-2.38-4.295
				c-1.204-0.72-2.411-0.867-2.423-0.868c-0.261-0.03-0.446-0.266-0.416-0.526c0.029-0.262,0.268-0.446,0.527-0.418
				c0.056,0.009,5.643,0.72,5.643,6.107C46.079,150.429,45.869,150.642,45.605,150.642z"/>
		</g>
	</g>
</g>
<g>
	<path fill="#FFFFFF" d="M334.852,57.774c-1.914,0-3.866-0.15-5.743-0.601v-2.666c1.803,0.864,3.904,1.464,5.894,1.464
		c3.266,0,5.894-1.614,5.894-5.143c0-6.606-11.938-5.255-11.938-13.363c0-4.542,3.792-6.418,7.846-6.418
		c1.727,0,3.453,0.188,5.143,0.601v2.59c-1.802-0.826-3.717-1.464-5.705-1.464c-2.591,0-4.993,1.351-4.993,4.204
		c0,2.928,2.027,3.904,4.317,5.105c1.201,0.601,2.439,1.239,3.604,1.952c2.777,1.652,4.279,3.116,4.279,6.532
		C343.448,55.634,339.431,57.774,334.852,57.774z"/>
	<path fill="#FFFFFF" d="M361.691,57.361l-2.815-8.596h-9.646l-2.815,8.596h-1.877l8.408-25.9h2.665l8.408,25.9H361.691z
		 M354.108,33.863h-0.074l-4.242,13.175h8.521L354.108,33.863z"/>
	<path fill="#FFFFFF" d="M380.311,57.361l-11.073-23.047h-0.075v23.047h-2.14v-25.9h2.891l11.261,23.235h0.075V31.46h2.14v25.9
		H380.311z"/>
	<path fill="#FFFFFF" d="M402.835,45.537h-2.816v11.824h-2.326v-25.9h5.143c4.842,0,8.783,1.577,8.783,7.095
		C411.618,44.148,407.714,45.537,402.835,45.537z M401.972,33.188h-1.953V43.81h1.953c3.753,0,7.094-0.638,7.094-5.18
		S405.837,33.188,401.972,33.188z"/>
	<path fill="#FFFFFF" d="M415.109,57.361v-25.9h11.486v1.727h-9.159v9.759h8.709v1.727h-8.709v10.886h9.497v1.802H415.109z"/>
	<path fill="#FFFFFF" d="M436.019,57.361h-4.881v-25.9h4.43c8.934,0,11.899,4.467,11.899,12.95
		C447.467,52.443,444.688,57.361,436.019,57.361z M439.96,33.825c-1.465-0.525-3.041-0.638-4.58-0.638h-1.914v22.372h1.914
		c7.582,0,9.534-3.829,9.534-10.848C444.914,40.62,444.351,35.477,439.96,33.825z"/>
	<path fill="#FFFFFF" d="M463.908,57.361c-0.45-2.215-0.901-4.429-1.351-6.644c-0.826-4.054-2.215-5.255-6.382-5.255h-1.839v11.899
		h-2.328v-25.9h5.181c4.616,0,8.596,1.577,8.596,6.832c0,3.566-2.59,5.894-6.006,6.269v0.075c3.754,0.488,4.429,2.402,5.104,5.743
		l1.427,6.982H463.908z M457.001,33.188h-2.664v10.547h1.463c3.529,0,7.434-1.051,7.434-5.33
		C463.233,34.426,460.567,33.188,457.001,33.188z"/>
	<path fill="#FFFFFF" d="M479.074,57.774c-7.47,0-8.934-7.433-8.934-13.401c0-5.893,1.576-13.325,8.934-13.325
		c7.245,0,8.784,7.545,8.784,13.325C487.858,50.379,486.694,57.774,479.074,57.774z M478.962,32.774
		c-5.668,0-6.27,7.583-6.27,11.749c0,4.129,0.977,11.523,6.457,11.523c5.705,0,6.156-7.357,6.156-11.523
		C485.306,40.432,484.442,32.774,478.962,32.774z"/>
</g>
<g>
	<g>
		<path fill="#FFFFFF" d="M284.265,34.51h1.268c0.846,0,0.846-2.114,1.691-2.114h0.846h0.002h0.006h0.012h0.007h0.008h0.017h0.01
			h0.013h0.021h0.006h0.028l0,0h0.032l0,0h0.032h0.005h0.027h0.012h0.021h0.022h0.008h0.029h0.008h0.021h0.025h0.002h0.029h0.02
			h0.009h0.027h0.016h0.009h0.025h0.022h0.003h0.023h0.022h0.011h0.012h0.021h0.021h0.004h0.016h0.019h0.017h0.012h0.004h0.018
			h0.016h0.014h0.012h0.002h0.01h0.012h0.01h0.008h0.01h0.006h0.006h0.004h0.002l0,0h0.003l0,0h2.958
			c0.847,0,0.847,2.114,1.692,2.114h8.03c0-0.466,0.379-0.846,0.847-0.846h0.845c0.467,0,0.846,0.379,0.846,0.846h1.268
			c1.168,0,2.114,0.946,2.114,2.114v12.681c0,1.168-0.946,2.114-2.114,2.114h-21.135c-1.166,0-2.113-0.946-2.113-2.114V36.624
			C282.151,35.456,283.099,34.51,284.265,34.51L284.265,34.51z M299.059,36.624c-3.501,0-6.34,2.839-6.34,6.34s2.839,6.34,6.34,6.34
			c3.502,0,6.342-2.839,6.342-6.34C305.399,39.462,302.561,36.624,299.059,36.624L299.059,36.624z M287.224,38.737h2.537
			c0.466,0,0.844-0.379,0.844-0.845v-0.423c0-0.466-0.378-0.845-0.844-0.845h-2.537c-0.467,0-0.846,0.378-0.846,0.845v0.423
			C286.378,38.358,286.757,38.737,287.224,38.737z"/>
		<path fill="none" stroke="#FFFFFF" stroke-miterlimit="10" d="M299.059,38.313c-2.566,0-4.649,2.083-4.649,4.65
			c0,2.568,2.083,4.65,4.649,4.65c2.569,0,4.651-2.083,4.651-4.65C303.71,40.396,301.628,38.313,299.059,38.313L299.059,38.313z"/>
	</g>
	<g>
		<circle fill="none" stroke="#FFFFFF" stroke-miterlimit="10" cx="295.155" cy="42.783" r="22.162"/>
	</g>
</g>
<g>
	<g>
		<circle fill="none" stroke="#FFFFFF" stroke-miterlimit="10" cx="295.531" cy="154.742" r="22.21"/>
	</g>
	<path fill="#FFFFFF" d="M290.44,147.44c0.146,0.222,0.368,0.368,0.589,0.368c0.147,0,0.221,0,0.368-0.073
		c0.369-0.22,0.443-0.662,0.295-0.957l-1.693-2.946c-0.223-0.369-0.664-0.441-0.958-0.294c-0.369,0.221-0.442,0.662-0.296,0.958
		L290.44,147.44z"/>
	<path fill="#FFFFFF" d="M287.347,154.732c0-0.368-0.295-0.736-0.735-0.736h-3.391c-0.366,0-0.735,0.296-0.735,0.736
		c0,0.368,0.295,0.736,0.735,0.736h3.391C286.978,155.469,287.347,155.101,287.347,154.732z"/>
	<path fill="#FFFFFF" d="M288.157,149.724l-2.947-1.693c-0.367-0.222-0.811-0.074-0.956,0.294c-0.221,0.368-0.074,0.812,0.294,0.958
		l2.947,1.694c0.146,0.073,0.221,0.073,0.367,0.073c0.221,0,0.516-0.147,0.589-0.368
		C288.599,150.313,288.451,149.872,288.157,149.724z"/>
	<path fill="#FFFFFF" d="M287.421,158.563l-2.947,1.694c-0.368,0.222-0.44,0.663-0.294,0.958c0.146,0.221,0.368,0.368,0.589,0.368
		c0.148,0,0.221,0,0.367-0.075l2.947-1.693c0.368-0.22,0.441-0.663,0.295-0.956C288.231,158.488,287.788,158.342,287.421,158.563z"
		/>
	<path fill="#FFFFFF" d="M303.109,151.05c0.146,0,0.222,0,0.366-0.073l2.947-1.694c0.367-0.221,0.441-0.663,0.295-0.958
		c-0.221-0.368-0.664-0.441-0.957-0.294l-2.947,1.693c-0.367,0.223-0.44,0.663-0.295,0.958
		C302.593,150.902,302.888,151.05,303.109,151.05z"/>
	<path fill="#FFFFFF" d="M295.449,146.631c0.367,0,0.736-0.296,0.736-0.736v-3.388c0-0.368-0.295-0.737-0.736-0.737
		c-0.368,0-0.737,0.295-0.737,0.737v3.388C294.712,146.262,295.081,146.631,295.449,146.631z"/>
	<path fill="#FFFFFF" d="M299.499,147.735c0.148,0.073,0.223,0.073,0.369,0.073c0.22,0,0.516-0.146,0.59-0.368l1.693-2.944
		c0.222-0.37,0.074-0.812-0.295-0.958c-0.367-0.221-0.811-0.075-0.958,0.294l-1.694,2.946
		C299.057,147.073,299.13,147.516,299.499,147.735z"/>
	<path fill="#FFFFFF" d="M307.676,153.996h-3.388c-0.369,0-0.738,0.296-0.738,0.736c0,0.368,0.295,0.736,0.738,0.736h3.388
		c0.368,0,0.736-0.294,0.736-0.736C308.412,154.364,308.044,153.996,307.676,153.996z"/>
	<path fill="none" stroke="#FFFFFF" stroke-width="2" stroke-miterlimit="10" d="M295.449,161.583c3.755,0,6.851-3.095,6.851-6.851
		s-3.096-6.85-6.851-6.85c-3.757,0-6.851,3.094-6.851,6.85S291.692,161.583,295.449,161.583z"/>
	<path fill="#FFFFFF" d="M306.423,160.257l-2.947-1.694c-0.366-0.221-0.809-0.074-0.957,0.296c-0.219,0.367-0.072,0.808,0.295,0.956
		l2.947,1.693c0.147,0.075,0.221,0.075,0.367,0.075c0.221,0,0.517-0.147,0.59-0.368
		C306.864,160.846,306.718,160.403,306.423,160.257z"/>
	<path fill="#FFFFFF" d="M291.397,161.804c-0.368-0.221-0.811-0.073-0.957,0.293l-1.695,2.947c-0.221,0.368-0.073,0.81,0.296,0.958
		c0.147,0.073,0.22,0.073,0.366,0.073c0.223,0,0.518-0.147,0.592-0.368l1.693-2.945C291.841,162.394,291.692,161.95,291.397,161.804
		z"/>
	<path fill="#FFFFFF" d="M300.458,162.023c-0.223-0.366-0.664-0.44-0.959-0.293c-0.369,0.22-0.442,0.663-0.295,0.956l1.694,2.947
		c0.147,0.22,0.368,0.368,0.591,0.368c0.146,0,0.221,0,0.367-0.074c0.369-0.221,0.443-0.662,0.295-0.957L300.458,162.023z"/>
	<path fill="#FFFFFF" d="M295.449,162.908c-0.368,0-0.737,0.294-0.737,0.736v3.389c0,0.367,0.295,0.735,0.737,0.735
		c0.367,0,0.736-0.294,0.736-0.735v-3.389C296.186,163.202,295.816,162.908,295.449,162.908z"/>
</g>
<polygon fill="#FFFFFF" points="226.584,0.229 246.727,0.229 246.498,19.914 "/>
<polygon fill="#FFFFFF" points="226.584,109.869 246.727,109.869 246.498,129.554 "/>
<polygon fill="#FFFFFF" points="490.042,0.229 510.185,0.229 509.956,19.914 "/>
<polygon fill="#FFFFFF" points="490.042,109.869 510.185,109.869 509.956,129.554 "/>
</svg>
