<?xml version="1.0" encoding="utf-8"?>
<!-- Generator: Adobe Illustrator 16.0.3, SVG Export Plug-In . SVG Version: 6.00 Build 0)  -->
<!DOCTYPE svg PUBLIC "-//W3C//DTD SVG 1.1//EN" "http://www.w3.org/Graphics/SVG/1.1/DTD/svg11.dtd">
<svg version="1.1" id="Capa_1" xmlns="http://www.w3.org/2000/svg" xmlns:xlink="http://www.w3.org/1999/xlink" x="0px" y="0px"
	 width="246.977px" height="91.559px" viewBox="0 0 246.977 91.559" enable-background="new 0 0 246.977 91.559"
	 xml:space="preserve">
<path fill="#8D94A6" d="M246.749,91.101c0,0.253-0.215,0.458-0.479,0.458H0.479C0.214,91.559,0,91.354,0,91.101V0.459
	C0,0.205,0.214,0,0.479,0H246.27c0.264,0,0.479,0.205,0.479,0.459V91.101z"/>
<g>
	<path fill="#FFFFFF" d="M75.314,44.271h-4.88v-25.9h4.429c8.934,0,11.899,4.467,11.899,12.95
		C86.763,39.354,83.985,44.271,75.314,44.271z M79.256,20.736c-1.464-0.525-3.041-0.639-4.58-0.639h-1.915V42.47h1.915
		c7.583,0,9.534-3.829,9.534-10.848C84.21,27.53,83.647,22.388,79.256,20.736z"/>
	<path fill="#FFFFFF" d="M91.981,44.271v-25.9h11.486v1.727h-9.159v9.76h8.708v1.727h-8.708V42.47h9.497v1.802H91.981z"/>
	<path fill="#FFFFFF" d="M108.686,44.271v-25.9h2.327V42.47h9.122v1.802H108.686z"/>
	<path fill="#FFFFFF" d="M123.288,44.271v-25.9h11.486v1.727h-9.158v9.76h8.708v1.727h-8.708V42.47h9.496v1.802H123.288z"/>
	<path fill="#FFFFFF" d="M153.768,25.428c0.038-3.528-2.177-5.743-5.705-5.743c-5.781,0-6.906,6.645-6.906,11.148
		c0,4.955,1.313,12.125,7.619,12.125c1.84,0,3.717-0.563,5.03-1.877v-9.459h-6.456v-1.728h8.783V42.17
		c-1.84,1.876-5.143,2.515-7.695,2.515c-7.957,0-9.834-7.395-9.834-13.964c0-6.156,2.14-12.763,9.422-12.763
		c3.303,0,6.344,1.239,7.845,4.354c0.488,0.976,0.751,2.027,0.751,3.115H153.768z"/>
	<path fill="#FFFFFF" d="M176.442,44.271l-2.816-8.596h-9.646l-2.814,8.596h-1.877l8.408-25.9h2.664l8.408,25.9H176.442z
		 M168.859,20.773h-0.075l-4.242,13.176h8.521L168.859,20.773z"/>
	<path fill="#FFFFFF" d="M186.916,20.098v24.174h-2.327V20.098h-6.119v-1.727h14.564v1.727H186.916z"/>
	<path fill="#FFFFFF" d="M196.337,44.271v-25.9h11.486v1.727h-9.159v9.76h8.709v1.727h-8.709V42.47h9.497v1.802H196.337z"/>
	<path fill="#FFFFFF" d="M217.096,44.685c-1.914,0-3.867-0.15-5.743-0.601v-2.665c1.802,0.863,3.903,1.464,5.894,1.464
		c3.266,0,5.893-1.614,5.893-5.143c0-6.606-11.937-5.255-11.937-13.363c0-4.542,3.791-6.419,7.845-6.419
		c1.727,0,3.454,0.188,5.143,0.601v2.59c-1.801-0.825-3.716-1.464-5.705-1.464c-2.59,0-4.992,1.352-4.992,4.204
		c0,2.929,2.027,3.904,4.316,5.105c1.201,0.601,2.439,1.238,3.604,1.952c2.777,1.651,4.279,3.115,4.279,6.531
		C225.692,42.545,221.675,44.685,217.096,44.685z"/>
	<path fill="#FFFFFF" d="M70.435,76.271v-25.9h2.327V74.47h9.122v1.802H70.435z"/>
	<path fill="#FFFFFF" d="M85.074,76.271v-25.9h2.327v25.9H85.074z"/>
	<path fill="#FFFFFF" d="M98.137,76.685c-1.914,0-3.866-0.15-5.743-0.601v-2.665c1.802,0.863,3.904,1.464,5.893,1.464
		c3.266,0,5.893-1.614,5.893-5.143c0-6.606-11.937-5.255-11.937-13.363c0-4.542,3.792-6.419,7.845-6.419
		c1.727,0,3.453,0.188,5.143,0.601v2.59c-1.802-0.825-3.716-1.464-5.706-1.464c-2.59,0-4.993,1.352-4.993,4.204
		c0,2.929,2.027,3.904,4.317,5.105c1.201,0.601,2.44,1.238,3.604,1.952c2.778,1.651,4.279,3.115,4.279,6.531
		C106.733,74.545,102.717,76.685,98.137,76.685z"/>
	<path fill="#FFFFFF" d="M116.644,52.098v24.174h-2.327V52.098h-6.119v-1.727h14.564v1.727H116.644z"/>
</g>
<polygon fill="#FFFFFF" points="226.834,0 246.977,0 246.749,19.685 "/>
<g>
	<g>
		<circle fill="none" stroke="#FFFFFF" stroke-miterlimit="10" cx="35.324" cy="44.873" r="22.21"/>
	</g>
	<g>
		<path fill="#FFFFFF" d="M48.859,30.312c-3.172,1.205-14.652,17.823-14.652,17.823l-4.052-6.537l-3.493,2.102l6.149,9.447h2.728
			c0,0,9.335-13.222,13.32-16.492V30.312z"/>
		<path fill="#FFFFFF" d="M23.923,53.737c0,1.531,1.242,2.774,2.774,2.774l14.901,0.017c1.533,0,2.775-1.241,2.775-2.773
			l-0.024-8.939h1.644v8.957c0,2.415-1.958,4.373-4.373,4.373l-15.102-0.019c-2.303,0-4.17-1.867-4.17-4.169l-0.022-15.08
			c0-2.415,1.958-4.373,4.373-4.373l13.863-0.022v1.646L26.72,36.121c-1.532,0-2.774,1.242-2.774,2.775L23.923,53.737z"/>
	</g>
</g>
</svg>
