<?xml version="1.0" encoding="utf-8"?>
<!-- Generator: Adobe Illustrator 16.0.3, SVG Export Plug-In . SVG Version: 6.00 Build 0)  -->
<!DOCTYPE svg PUBLIC "-//W3C//DTD SVG 1.1//EN" "http://www.w3.org/Graphics/SVG/1.1/DTD/svg11.dtd">
<svg version="1.1" id="Capa_1" xmlns="http://www.w3.org/2000/svg" xmlns:xlink="http://www.w3.org/1999/xlink" x="0px" y="0px"
	 width="246.748px" height="91.559px" viewBox="0 0 246.748 91.559" enable-background="new 0 0 246.748 91.559"
	 xml:space="preserve">
<path fill="#7E9CB0" d="M-16.481-18.769c0,0.253-0.214,0.458-0.479,0.458h-246.248c-0.265,0-0.479-0.205-0.479-0.458v-90.642
	c0-0.253,0.214-0.458,0.479-0.458H-16.96c0.265,0,0.479,0.205,0.479,0.458V-18.769z"/>
<g>
	<path fill="#FFFFFF" d="M-181.895-52.514l-2.815-8.596h-9.647l-2.815,8.596h-1.877l8.408-25.9h2.665l8.408,25.9H-181.895z
		 M-189.478-76.012h-0.075l-4.242,13.175h8.521L-189.478-76.012z"/>
	<path fill="#FFFFFF" d="M-162.112-71.357c0.038-3.528-2.177-5.743-5.706-5.743c-5.781,0-6.907,6.644-6.907,11.148
		c0,4.955,1.314,12.124,7.62,12.124c1.839,0,3.716-0.563,5.03-1.876v-9.459h-6.457v-1.727h8.784v12.274
		c-1.839,1.877-5.143,2.515-7.695,2.515c-7.958,0-9.834-7.395-9.834-13.964c0-6.156,2.139-12.762,9.421-12.762
		c3.303,0,6.344,1.238,7.845,4.354c0.488,0.976,0.751,2.027,0.751,3.116H-162.112z"/>
	<path fill="#FFFFFF" d="M-153.628-52.514v-25.9h11.486v1.727h-9.159v9.759h8.708v1.727h-8.708v10.886h9.497v1.802H-153.628z"/>
	<path fill="#FFFFFF" d="M-123.636-52.514l-11.073-23.047h-0.075v23.047h-2.14v-25.9h2.89l11.261,23.235h0.075v-23.235h2.14v25.9
		H-123.636z"/>
	<path fill="#FFFFFF" d="M-109.07-52.514h-4.88v-25.9h4.429c8.934,0,11.899,4.467,11.899,12.95
		C-97.622-57.432-100.399-52.514-109.07-52.514z M-105.129-76.05c-1.464-0.525-3.041-0.638-4.58-0.638h-1.915v22.372h1.915
		c7.583,0,9.534-3.829,9.534-10.848C-100.174-69.255-100.737-74.398-105.129-76.05z"/>
	<path fill="#FFFFFF" d="M-78.214-52.514l-2.815-8.596h-9.647l-2.815,8.596h-1.877l8.408-25.9h2.665l8.408,25.9H-78.214z
		 M-85.797-76.012h-0.075l-4.242,13.175h8.521L-85.797-76.012z"/>
</g>
<g>
	<path fill="none" stroke="#FFFFFF" stroke-miterlimit="10" d="M-209.153-65.912c0,12.266-9.945,22.209-22.214,22.209
		c-12.264,0-22.207-9.943-22.207-22.209c0-12.267,9.942-22.209,22.207-22.209C-219.098-88.122-209.153-78.179-209.153-65.912z"/>
	<g>
		<g>
			<path fill="#FFFFFF" d="M-222.431-78.385h-3.573c0-0.821-0.669-1.488-1.491-1.488h-7.744c-0.819,0-1.487,0.667-1.487,1.488
				h-3.577c-0.984,0-1.785,0.801-1.785,1.788v19.953c0,0.985,0.801,1.787,1.785,1.787h17.871c0.987,0,1.785-0.802,1.785-1.787
				v-19.953C-220.646-77.583-221.444-78.385-222.431-78.385z M-234.939-78.086h7.147v1.191h-7.147V-78.086z M-222.431-56.645
				h-17.871v-19.953h3.577c0,0.821,0.667,1.489,1.487,1.489h7.744c0.822,0,1.491-0.668,1.491-1.489h3.573V-56.645z"/>
		</g>
		<rect x="-231.068" y="-71.833" fill="#FFFFFF" width="6.255" height="1.49"/>
		<rect x="-231.068" y="-67.067" fill="#FFFFFF" width="6.255" height="1.488"/>
		<rect x="-231.068" y="-62.301" fill="#FFFFFF" width="6.255" height="1.487"/>
		<polygon fill="#FFFFFF" points="-237.919,-71.238 -236.131,-68.855 -232.558,-73.619 -236.131,-70.343 		"/>
		<polygon fill="#FFFFFF" points="-237.919,-66.472 -236.131,-64.09 -232.558,-68.855 -236.131,-65.579 		"/>
		<polygon fill="#FFFFFF" points="-237.919,-61.708 -236.131,-59.325 -232.558,-64.09 -236.131,-60.814 		"/>
	</g>
</g>
<path fill="#8E95A7" d="M247.205-18.769c0,0.253-0.213,0.458-0.479,0.458H0.479C0.213-18.312,0-18.516,0-18.769v-90.642
	c0-0.253,0.213-0.458,0.479-0.458h246.248c0.266,0,0.479,0.205,0.479,0.458V-18.769z"/>
<path fill="#8DB4AE" d="M246.748,91.101c0,0.253-0.215,0.458-0.479,0.458H0.479C0.213,91.559,0,91.354,0,91.101V0.459
	C0,0.205,0.213,0,0.479,0H246.27c0.264,0,0.479,0.205,0.479,0.459V91.101z"/>
<g>
	<path fill="#FFFFFF" d="M90.041,58.271h-3.152l-5.781-23.348h-0.074L75.29,58.271H72.1l-4.43-25.9h2.327l3.866,23.123h0.075
		l5.855-23.123h2.815l5.743,23.123h0.075l3.979-23.123h2.103L90.041,58.271z"/>
	<path fill="#FFFFFF" d="M112.678,58.271V45.734H101.68v12.537h-2.327v-25.9h2.327v11.637h10.998V32.371h2.328v25.9H112.678z"/>
	<path fill="#FFFFFF" d="M121.612,58.271v-25.9h11.486v1.727h-9.159v9.76h8.709v1.727h-8.709V56.47h9.497v1.802H121.612z"/>
	<path fill="#FFFFFF" d="M152.506,58.271l-2.815-8.596h-9.647l-2.814,8.596h-1.877l8.408-25.9h2.665l8.408,25.9H152.506z
		 M144.924,34.773h-0.076l-4.241,13.176h8.521L144.924,34.773z"/>
	<path fill="#FFFFFF" d="M162.98,34.098v24.174h-2.328V34.098h-6.118v-1.727h14.563v1.727H162.98z"/>
	<path fill="#FFFFFF" d="M185.728,58.271V45.734h-10.999v12.537h-2.326v-25.9h2.326v11.637h10.999V32.371h2.327v25.9H185.728z"/>
	<path fill="#FFFFFF" d="M194.662,58.271v-25.9h11.486v1.727h-9.16v9.76h8.709v1.727h-8.709V56.47h9.498v1.802H194.662z"/>
	<path fill="#FFFFFF" d="M223.266,58.271c-0.451-2.215-0.901-4.43-1.352-6.644c-0.826-4.055-2.215-5.256-6.381-5.256h-1.84v11.899
		h-2.327v-25.9h5.181c4.616,0,8.596,1.576,8.596,6.832c0,3.565-2.59,5.893-6.006,6.269v0.075c3.754,0.487,4.429,2.402,5.104,5.743
		l1.427,6.981H223.266z M216.358,34.098h-2.665v10.548h1.464c3.528,0,7.433-1.051,7.433-5.33
		C222.59,35.337,219.925,34.098,216.358,34.098z"/>
</g>
<path fill="#967B53" d="M-16.481,91.101c0,0.253-0.215,0.458-0.479,0.458h-246.248c-0.265,0-0.479-0.205-0.479-0.458V0.459
	c0-0.254,0.215-0.459,0.479-0.459H-16.96c0.265,0,0.479,0.205,0.479,0.459V91.101z"/>
<g>
	<path fill="#FFFFFF" d="M-177.252,56.893V44.355h-10.999v12.537h-2.327v-25.9h2.327v11.637h10.999V30.992h2.327v25.9H-177.252z"/>
	<path fill="#FFFFFF" d="M-160.773,57.306c-7.47,0-8.934-7.433-8.934-13.4c0-5.894,1.576-13.326,8.934-13.326
		c7.245,0,8.784,7.545,8.784,13.326C-151.989,49.911-153.153,57.306-160.773,57.306z M-160.886,32.306
		c-5.668,0-6.269,7.583-6.269,11.749c0,4.129,0.976,11.524,6.457,11.524c5.706,0,6.156-7.357,6.156-11.524
		C-154.542,39.964-155.405,32.306-160.886,32.306z"/>
	<path fill="#FFFFFF" d="M-142.266,32.719v24.174h-2.328V32.719h-6.118v-1.727h14.564v1.727H-142.266z"/>
	<path fill="#FFFFFF" d="M-132.844,56.893v-25.9h11.486v1.727h-9.159v9.76h8.708v1.727h-8.708v10.886h9.497v1.802H-132.844z"/>
	<path fill="#FFFFFF" d="M-116.14,56.893v-25.9h2.327v24.099h9.122v1.802H-116.14z"/>
</g>
<g>
	<circle fill="none" stroke="#FFFFFF" stroke-miterlimit="10" cx="-226.473" cy="43.492" r="22.436"/>
	<g id="Your_Icon_1_">
		<path fill="#FFFFFF" d="M-212.386,47.278c-1.059-0.186-1.651-2.147-1.679-2.243c-3.981,0.947-8.136,1.449-12.407,1.449
			c-4.271,0-8.424-0.502-12.407-1.449c-0.027,0.096-0.62,2.058-1.679,2.243c0,0-1.235,0.325-1.235,1.303v1.354
			c4.853,1.449,9.997,2.23,15.321,2.23c5.324,0,10.467-0.781,15.322-2.23V48.58C-211.151,47.604-212.386,47.278-212.386,47.278z"/>
		<g>
			<path fill="#FFFFFF" d="M-214.648,41.333c-1.013-0.361-0.797-1.879-0.797-1.879c0-6.68-8.453-7.235-10.558-7.268v-1.45
				c0.906-0.063,1.602-0.303,1.719-0.602h0.018v-0.479c0-0.389-0.989-0.705-2.206-0.705c-1.219,0-2.205,0.316-2.205,0.705v0.419
				h0.006c0.035,0.326,0.763,0.596,1.729,0.662v1.45c-2.102,0.032-10.557,0.588-10.557,7.268c0,0,0.217,1.518-0.795,1.879
				c0,0-0.649,0.969-0.578,2.057c3.98,0.946,8.131,1.447,12.399,1.447c4.27,0,8.421-0.501,12.401-1.447
				C-214.002,42.302-214.648,41.333-214.648,41.333z M-217.603,40.772c-0.262,0-0.475-0.213-0.475-0.476
				c0-1.907-0.802-3.352-2.38-4.295c-1.204-0.72-2.411-0.867-2.423-0.868c-0.261-0.03-0.446-0.266-0.416-0.526
				c0.029-0.262,0.268-0.446,0.527-0.418c0.056,0.009,5.643,0.72,5.643,6.107C-217.129,40.56-217.339,40.772-217.603,40.772z"/>
		</g>
	</g>
</g>
<g>
	<path fill="#FFFFFF" d="M71.644-52.095c-1.914,0-3.866-0.15-5.743-0.601v-2.666c1.803,0.864,3.904,1.464,5.894,1.464
		c3.266,0,5.894-1.614,5.894-5.143c0-6.606-11.938-5.255-11.938-13.363c0-4.542,3.792-6.418,7.846-6.418
		c1.727,0,3.453,0.188,5.143,0.601v2.59c-1.802-0.826-3.717-1.464-5.705-1.464c-2.591,0-4.993,1.351-4.993,4.204
		c0,2.928,2.027,3.904,4.317,5.105c1.201,0.601,2.439,1.239,3.604,1.952c2.777,1.652,4.279,3.116,4.279,6.532
		C80.24-54.235,76.223-52.095,71.644-52.095z"/>
	<path fill="#FFFFFF" d="M98.483-52.508l-2.815-8.596h-9.646l-2.815,8.596h-1.877l8.408-25.9h2.665l8.408,25.9H98.483z M90.9-76.006
		h-0.074l-4.242,13.175h8.521L90.9-76.006z"/>
	<path fill="#FFFFFF" d="M117.103-52.508l-11.073-23.047h-0.075v23.047h-2.14v-25.9h2.891l11.261,23.235h0.075v-23.235h2.14v25.9
		H117.103z"/>
	<path fill="#FFFFFF" d="M139.627-64.333h-2.816v11.824h-2.326v-25.9h5.143c4.842,0,8.783,1.577,8.783,7.095
		C148.41-65.721,144.506-64.333,139.627-64.333z M138.764-76.682h-1.953v10.623h1.953c3.753,0,7.094-0.638,7.094-5.18
		S142.629-76.682,138.764-76.682z"/>
	<path fill="#FFFFFF" d="M151.901-52.508v-25.9h11.486v1.727h-9.159v9.759h8.709v1.727h-8.709v10.886h9.497v1.802H151.901z"/>
	<path fill="#FFFFFF" d="M172.811-52.508h-4.881v-25.9h4.43c8.934,0,11.899,4.467,11.899,12.95
		C184.259-57.426,181.48-52.508,172.811-52.508z M176.752-76.044c-1.465-0.525-3.041-0.638-4.58-0.638h-1.914v22.372h1.914
		c7.582,0,9.534-3.829,9.534-10.848C181.706-69.25,181.143-74.392,176.752-76.044z"/>
	<path fill="#FFFFFF" d="M200.7-52.508c-0.45-2.215-0.901-4.429-1.351-6.644c-0.826-4.054-2.215-5.255-6.382-5.255h-1.839v11.899
		h-2.328v-25.9h5.181c4.616,0,8.596,1.577,8.596,6.832c0,3.566-2.59,5.894-6.006,6.269v0.075c3.754,0.488,4.429,2.402,5.104,5.743
		l1.427,6.982H200.7z M193.793-76.682h-2.664v10.547h1.463c3.529,0,7.434-1.051,7.434-5.33
		C200.025-75.443,197.359-76.682,193.793-76.682z"/>
	<path fill="#FFFFFF" d="M215.866-52.095c-7.47,0-8.934-7.433-8.934-13.401c0-5.893,1.576-13.325,8.934-13.325
		c7.245,0,8.784,7.545,8.784,13.325C224.65-59.49,223.486-52.095,215.866-52.095z M215.754-77.095c-5.668,0-6.27,7.583-6.27,11.749
		c0,4.129,0.977,11.523,6.457,11.523c5.705,0,6.156-7.357,6.156-11.523C222.098-69.438,221.234-77.095,215.754-77.095z"/>
</g>
<g>
	<g>
		<path fill="#FFFFFF" d="M21.057-75.359h1.268c0.846,0,0.846-2.114,1.691-2.114h0.846h0.002h0.006h0.012h0.007h0.008h0.017h0.01
			h0.013h0.021h0.006h0.028l0,0h0.032l0,0h0.032h0.005h0.027h0.012h0.021h0.022h0.008h0.029h0.008h0.021h0.025h0.002h0.029h0.02
			h0.009h0.027h0.016h0.009h0.025h0.022h0.003h0.023h0.022h0.011h0.012h0.021h0.021h0.004h0.016h0.019h0.017h0.012h0.004h0.018
			h0.016h0.014h0.012h0.002h0.01h0.012h0.01h0.008h0.01h0.006h0.006h0.004h0.002l0,0h0.003l0,0h2.958
			c0.847,0,0.847,2.114,1.692,2.114h8.03c0-0.466,0.379-0.846,0.847-0.846h0.845c0.467,0,0.846,0.379,0.846,0.846h1.268
			c1.168,0,2.114,0.946,2.114,2.114v12.681c0,1.168-0.946,2.114-2.114,2.114H21.057c-1.166,0-2.113-0.946-2.113-2.114v-12.681
			C18.943-74.414,19.891-75.359,21.057-75.359L21.057-75.359z M35.851-73.246c-3.501,0-6.34,2.839-6.34,6.34s2.839,6.34,6.34,6.34
			c3.502,0,6.342-2.839,6.342-6.34C42.191-70.407,39.353-73.246,35.851-73.246L35.851-73.246z M24.016-71.132h2.537
			c0.466,0,0.844-0.379,0.844-0.845v-0.423c0-0.466-0.378-0.845-0.844-0.845h-2.537c-0.467,0-0.846,0.378-0.846,0.845v0.423
			C23.17-71.511,23.549-71.132,24.016-71.132z"/>
		<path fill="none" stroke="#FFFFFF" stroke-miterlimit="10" d="M35.851-71.556c-2.566,0-4.649,2.083-4.649,4.65
			c0,2.568,2.083,4.65,4.649,4.65c2.569,0,4.651-2.083,4.651-4.65C40.502-69.473,38.42-71.556,35.851-71.556L35.851-71.556z"/>
	</g>
	<g>
		<circle fill="none" stroke="#FFFFFF" stroke-miterlimit="10" cx="31.947" cy="-67.086" r="22.162"/>
	</g>
</g>
<g>
	<g>
		<circle fill="none" stroke="#FFFFFF" stroke-miterlimit="10" cx="32.323" cy="44.873" r="22.21"/>
	</g>
	<path fill="#FFFFFF" d="M27.232,37.571c0.146,0.222,0.368,0.368,0.589,0.368c0.147,0,0.221,0,0.368-0.073
		c0.369-0.22,0.443-0.662,0.295-0.957l-1.693-2.946c-0.223-0.369-0.664-0.441-0.958-0.294c-0.369,0.221-0.442,0.662-0.296,0.958
		L27.232,37.571z"/>
	<path fill="#FFFFFF" d="M24.139,44.863c0-0.368-0.295-0.736-0.735-0.736h-3.391c-0.366,0-0.735,0.296-0.735,0.736
		c0,0.368,0.295,0.736,0.735,0.736h3.391C23.77,45.6,24.139,45.231,24.139,44.863z"/>
	<path fill="#FFFFFF" d="M24.949,39.854l-2.947-1.693c-0.367-0.222-0.811-0.074-0.956,0.294c-0.221,0.368-0.074,0.812,0.294,0.958
		l2.947,1.694c0.146,0.073,0.221,0.073,0.367,0.073c0.221,0,0.516-0.147,0.589-0.368C25.391,40.444,25.243,40.003,24.949,39.854z"/>
	<path fill="#FFFFFF" d="M24.213,48.693l-2.947,1.694c-0.368,0.222-0.44,0.663-0.294,0.958c0.146,0.221,0.368,0.368,0.589,0.368
		c0.148,0,0.221,0,0.367-0.075l2.947-1.693c0.368-0.22,0.441-0.663,0.295-0.956C25.023,48.619,24.58,48.473,24.213,48.693z"/>
	<path fill="#FFFFFF" d="M39.901,41.181c0.146,0,0.222,0,0.366-0.073l2.947-1.694c0.367-0.221,0.441-0.663,0.295-0.958
		c-0.221-0.368-0.664-0.441-0.957-0.294l-2.947,1.693c-0.367,0.223-0.44,0.663-0.295,0.958
		C39.385,41.033,39.68,41.181,39.901,41.181z"/>
	<path fill="#FFFFFF" d="M32.241,36.762c0.367,0,0.736-0.296,0.736-0.736v-3.388c0-0.368-0.295-0.737-0.736-0.737
		c-0.368,0-0.737,0.295-0.737,0.737v3.388C31.504,36.393,31.873,36.762,32.241,36.762z"/>
	<path fill="#FFFFFF" d="M36.291,37.866c0.148,0.073,0.223,0.073,0.369,0.073c0.22,0,0.516-0.146,0.59-0.368l1.693-2.944
		c0.222-0.37,0.074-0.812-0.295-0.958c-0.367-0.221-0.811-0.075-0.958,0.294l-1.694,2.946
		C35.849,37.204,35.922,37.646,36.291,37.866z"/>
	<path fill="#FFFFFF" d="M44.468,44.127H41.08c-0.369,0-0.738,0.296-0.738,0.736c0,0.368,0.295,0.736,0.738,0.736h3.388
		c0.368,0,0.736-0.294,0.736-0.736C45.204,44.495,44.836,44.127,44.468,44.127z"/>
	<path fill="none" stroke="#FFFFFF" stroke-width="2" stroke-miterlimit="10" d="M32.241,51.714c3.755,0,6.851-3.095,6.851-6.851
		s-3.096-6.85-6.851-6.85c-3.757,0-6.851,3.094-6.851,6.85S28.484,51.714,32.241,51.714z"/>
	<path fill="#FFFFFF" d="M43.215,50.388l-2.947-1.694c-0.366-0.221-0.809-0.074-0.957,0.296c-0.219,0.367-0.072,0.808,0.295,0.956
		l2.947,1.693c0.147,0.075,0.221,0.075,0.367,0.075c0.221,0,0.517-0.147,0.59-0.368C43.656,50.977,43.51,50.534,43.215,50.388z"/>
	<path fill="#FFFFFF" d="M28.189,51.935c-0.368-0.221-0.811-0.073-0.957,0.293l-1.695,2.947c-0.221,0.368-0.073,0.81,0.296,0.958
		c0.147,0.073,0.22,0.073,0.366,0.073c0.223,0,0.518-0.147,0.592-0.368l1.693-2.945C28.633,52.524,28.484,52.081,28.189,51.935z"/>
	<path fill="#FFFFFF" d="M37.25,52.154c-0.223-0.366-0.664-0.44-0.959-0.293c-0.369,0.22-0.442,0.663-0.295,0.956l1.694,2.947
		c0.147,0.22,0.368,0.368,0.591,0.368c0.146,0,0.221,0,0.367-0.074c0.369-0.221,0.443-0.662,0.295-0.957L37.25,52.154z"/>
	<path fill="#FFFFFF" d="M32.241,53.039c-0.368,0-0.737,0.294-0.737,0.736v3.389c0,0.367,0.295,0.735,0.737,0.735
		c0.367,0,0.736-0.294,0.736-0.735v-3.389C32.978,53.333,32.608,53.039,32.241,53.039z"/>
</g>
<polygon fill="#FFFFFF" points="-36.624,-109.641 -16.481,-109.641 -16.71,-89.956 "/>
<polygon fill="#FFFFFF" points="-36.624,0 -16.481,0 -16.71,19.685 "/>
<polygon fill="#FFFFFF" points="226.834,-109.641 246.977,-109.641 246.748,-89.956 "/>
<polygon fill="#FFFFFF" points="226.834,0 246.977,0 246.748,19.685 "/>
</svg>
