<?xml version="1.0" encoding="utf-8"?>
<!-- Generator: Adobe Illustrator 16.0.3, SVG Export Plug-In . SVG Version: 6.00 Build 0)  -->
<!DOCTYPE svg PUBLIC "-//W3C//DTD SVG 1.1//EN" "http://www.w3.org/Graphics/SVG/1.1/DTD/svg11.dtd">
<svg version="1.1" id="Capa_1" xmlns="http://www.w3.org/2000/svg" xmlns:xlink="http://www.w3.org/1999/xlink" x="0px" y="0px"
	 width="246.748px" height="92.63px" viewBox="0 0 246.748 92.63" enable-background="new 0 0 246.748 92.63" xml:space="preserve">
<g>
	<path fill="#8DB3AE" d="M246.748,92.172c0,0.253-0.214,0.458-0.478,0.458H0.479C0.214,92.63,0,92.425,0,92.172V1.531
		c0-0.254,0.214-0.459,0.479-0.459h245.792c0.264,0,0.478,0.205,0.478,0.459V92.172z"/>
	<polygon fill="#FFFFFF" points="226.834,0 246.978,0 246.748,19.684 	"/>
</g>
<g>
	<path fill="#FFFFFF" d="M23.45,69.917v-25.9h11.486v1.727h-9.159v9.76h8.708v1.727h-8.708v10.886h9.497v1.802H23.45z"/>
	<path fill="#FFFFFF" d="M59.749,69.917V46.006h-0.075l-7.62,23.911h-2.252l-7.62-23.911h-0.075v23.911h-1.952v-25.9h3.453
		l7.357,23.085h0.075l7.432-23.085h3.604v25.9H59.749z"/>
	<path fill="#FFFFFF" d="M68.684,69.917v-25.9H80.17v1.727h-9.159v9.76h8.708v1.727h-8.708v10.886h9.497v1.802H68.684z"/>
	<path fill="#FFFFFF" d="M97.287,69.917c-0.45-2.215-0.901-4.43-1.351-6.644c-0.826-4.055-2.215-5.256-6.381-5.256h-1.839v11.899
		h-2.327v-25.9h5.18c4.617,0,8.596,1.576,8.596,6.832c0,3.565-2.59,5.893-6.006,6.269v0.075c3.754,0.487,4.429,2.402,5.105,5.743
		l1.426,6.981H97.287z M90.38,45.744h-2.665v10.548h1.464c3.529,0,7.433-1.051,7.433-5.33C96.612,46.983,93.946,45.744,90.38,45.744
		z"/>
	<path fill="#FFFFFF" d="M119.36,51.074c0.038-3.528-2.177-5.743-5.706-5.743c-5.781,0-6.907,6.645-6.907,11.148
		c0,4.955,1.314,12.125,7.62,12.125c1.839,0,3.716-0.563,5.03-1.877v-9.459h-6.456v-1.728h8.783v12.275
		c-1.839,1.876-5.143,2.515-7.695,2.515c-7.958,0-9.834-7.395-9.834-13.964c0-6.156,2.14-12.763,9.421-12.763
		c3.303,0,6.344,1.239,7.845,4.354c0.488,0.976,0.751,2.027,0.751,3.115H119.36z"/>
	<path fill="#FFFFFF" d="M127.844,69.917v-25.9h11.486v1.727h-9.159v9.76h8.708v1.727h-8.708v10.886h9.497v1.802H127.844z"/>
	<path fill="#FFFFFF" d="M157.836,69.917L146.764,46.87h-0.076v23.048h-2.139v-25.9h2.89l11.261,23.235h0.076V44.017h2.139v25.9
		H157.836z"/>
	<path fill="#FFFFFF" d="M180.284,51.037c0-3.19-1.688-5.706-5.067-5.706c-5.48,0-6.531,6.457-6.531,10.698
		c0,4.917,1.276,12.575,7.62,12.575c2.402,0,4.054-0.938,5.817-2.44v2.44c-1.764,1.238-3.979,1.727-6.117,1.727
		c-7.846,0-9.873-7.545-9.873-14.001c0-5.894,2.064-12.726,9.159-12.726c4.354,0,7.845,2.928,7.845,7.433H180.284z"/>
	<path fill="#FFFFFF" d="M187.042,69.917v-25.9h2.327v25.9H187.042z"/>
	<path fill="#FFFFFF" d="M196.051,69.917v-25.9h11.486v1.727h-9.158v9.76h8.708v1.727h-8.708v10.886h9.496v1.802H196.051z"/>
	<path fill="#FFFFFF" d="M216.81,70.331c-1.914,0-3.866-0.15-5.743-0.601v-2.665c1.803,0.863,3.904,1.464,5.894,1.464
		c3.266,0,5.894-1.614,5.894-5.143c0-6.606-11.938-5.255-11.938-13.363c0-4.542,3.792-6.419,7.846-6.419
		c1.727,0,3.453,0.188,5.143,0.601v2.59c-1.802-0.825-3.717-1.464-5.705-1.464c-2.591,0-4.993,1.352-4.993,4.204
		c0,2.929,2.027,3.904,4.317,5.105c1.201,0.601,2.439,1.238,3.604,1.952c2.777,1.651,4.279,3.115,4.279,6.531
		C225.406,68.191,221.389,70.331,216.81,70.331z"/>
</g>
<g>
	<rect x="117.314" y="30.199" fill="#FFFFFF" width="12.528" height="1.841"/>
	<path fill="#FFFFFF" d="M128.784,25.158c0-2.92-2.368-5.288-5.289-5.288c-2.922,0-5.29,2.368-5.29,5.288v4.567h10.58
		L128.784,25.158L128.784,25.158z M128.17,29.153h-1.764v-4.036c0-2.281-1.633-4.178-3.794-4.59
		c0.286-0.054,0.581-0.087,0.883-0.087c2.583,0,4.675,2.095,4.675,4.678V29.153z"/>
	<path fill="#FFFFFF" d="M123.488,15.534c0.318,0,0.576-0.256,0.576-0.575v-4.754c0-0.319-0.257-0.575-0.576-0.575
		c-0.318,0-0.575,0.256-0.575,0.575v4.754C122.913,15.278,123.17,15.534,123.488,15.534z"/>
	<path fill="#FFFFFF" d="M114.976,22.898h-4.755c-0.318,0-0.576,0.258-0.576,0.577c0,0.315,0.258,0.574,0.576,0.574h4.755
		c0.317,0,0.575-0.259,0.575-0.574C115.551,23.156,115.293,22.898,114.976,22.898z"/>
	<path fill="#FFFFFF" d="M136.758,22.898h-4.756c-0.316,0-0.575,0.258-0.575,0.577c0,0.315,0.259,0.574,0.575,0.574h4.756
		c0.318,0,0.575-0.259,0.575-0.574C137.333,23.156,137.076,22.898,136.758,22.898z"/>
	<path fill="#FFFFFF" d="M117.875,17.86c0.225-0.226,0.225-0.588,0-0.813l-3.363-3.361c-0.224-0.226-0.588-0.226-0.813,0
		c-0.224,0.224-0.224,0.587,0,0.813l3.363,3.362C117.286,18.083,117.65,18.086,117.875,17.86z"/>
	<path fill="#FFFFFF" d="M133.278,13.685c-0.225-0.226-0.589-0.226-0.813,0l-3.362,3.361c-0.225,0.226-0.225,0.588,0,0.813
		c0.225,0.227,0.587,0.227,0.813,0l3.362-3.362C133.503,14.273,133.503,13.909,133.278,13.685z"/>
</g>
</svg>
