<?xml version="1.0" encoding="utf-8"?>
<!-- Generator: Adobe Illustrator 16.0.3, SVG Export Plug-In . SVG Version: 6.00 Build 0)  -->
<!DOCTYPE svg PUBLIC "-//W3C//DTD SVG 1.1//EN" "http://www.w3.org/Graphics/SVG/1.1/DTD/svg11.dtd">
<svg version="1.1" id="Capa_1" xmlns="http://www.w3.org/2000/svg" xmlns:xlink="http://www.w3.org/1999/xlink" x="0px" y="0px"
	 width="246.748px" height="91.558px" viewBox="0 0 246.748 91.558" enable-background="new 0 0 246.748 91.558"
	 xml:space="preserve">
<path fill="#7E9CB0" d="M-16.481,91.1c0,0.253-0.214,0.458-0.479,0.458h-246.248c-0.265,0-0.479-0.205-0.479-0.458V0.458
	c0-0.253,0.214-0.458,0.479-0.458H-16.96c0.265,0,0.479,0.205,0.479,0.458V91.1z"/>
<g>
	<path fill="#FFFFFF" d="M-181.895,57.355l-2.815-8.596h-9.647l-2.815,8.596h-1.877l8.408-25.9h2.665l8.408,25.9H-181.895z
		 M-189.478,33.857h-0.075l-4.242,13.175h8.521L-189.478,33.857z"/>
	<path fill="#FFFFFF" d="M-162.112,38.512c0.038-3.528-2.177-5.743-5.706-5.743c-5.781,0-6.907,6.644-6.907,11.148
		c0,4.955,1.314,12.124,7.62,12.124c1.839,0,3.716-0.563,5.03-1.876v-9.459h-6.457v-1.727h8.784v12.274
		c-1.839,1.877-5.143,2.515-7.695,2.515c-7.958,0-9.834-7.395-9.834-13.964c0-6.156,2.139-12.762,9.421-12.762
		c3.303,0,6.344,1.238,7.845,4.354c0.488,0.976,0.751,2.027,0.751,3.116H-162.112z"/>
	<path fill="#FFFFFF" d="M-153.628,57.355v-25.9h11.486v1.727h-9.159v9.759h8.708v1.727h-8.708v10.886h9.497v1.802H-153.628z"/>
	<path fill="#FFFFFF" d="M-123.636,57.355l-11.073-23.047h-0.075v23.047h-2.14v-25.9h2.89l11.261,23.235h0.075V31.455h2.14v25.9
		H-123.636z"/>
	<path fill="#FFFFFF" d="M-109.07,57.355h-4.88v-25.9h4.429c8.934,0,11.899,4.467,11.899,12.95
		C-97.622,52.438-100.399,57.355-109.07,57.355z M-105.129,33.819c-1.464-0.525-3.041-0.638-4.58-0.638h-1.915v22.372h1.915
		c7.583,0,9.534-3.829,9.534-10.848C-100.174,40.614-100.737,35.471-105.129,33.819z"/>
	<path fill="#FFFFFF" d="M-78.214,57.355l-2.815-8.596h-9.647l-2.815,8.596h-1.877l8.408-25.9h2.665l8.408,25.9H-78.214z
		 M-85.797,33.857h-0.075l-4.242,13.175h8.521L-85.797,33.857z"/>
</g>
<g>
	<path fill="none" stroke="#FFFFFF" stroke-miterlimit="10" d="M-209.153,43.957c0,12.266-9.945,22.209-22.214,22.209
		c-12.264,0-22.207-9.943-22.207-22.209c0-12.267,9.942-22.209,22.207-22.209C-219.098,21.748-209.153,31.69-209.153,43.957z"/>
	<g>
		<g>
			<path fill="#FFFFFF" d="M-222.431,31.484h-3.573c0-0.821-0.669-1.488-1.491-1.488h-7.744c-0.819,0-1.487,0.667-1.487,1.488
				h-3.577c-0.984,0-1.785,0.801-1.785,1.788v19.953c0,0.985,0.801,1.787,1.785,1.787h17.871c0.987,0,1.785-0.802,1.785-1.787
				V33.272C-220.646,32.286-221.444,31.484-222.431,31.484z M-234.939,31.783h7.147v1.191h-7.147V31.783z M-222.431,53.225h-17.871
				V33.272h3.577c0,0.821,0.667,1.489,1.487,1.489h7.744c0.822,0,1.491-0.668,1.491-1.489h3.573V53.225z"/>
		</g>
		<rect x="-231.068" y="38.036" fill="#FFFFFF" width="6.255" height="1.49"/>
		<rect x="-231.068" y="42.802" fill="#FFFFFF" width="6.255" height="1.488"/>
		<rect x="-231.068" y="47.568" fill="#FFFFFF" width="6.255" height="1.487"/>
		<polygon fill="#FFFFFF" points="-237.919,38.631 -236.131,41.014 -232.558,36.25 -236.131,39.526 		"/>
		<polygon fill="#FFFFFF" points="-237.919,43.397 -236.131,45.779 -232.558,41.014 -236.131,44.291 		"/>
		<polygon fill="#FFFFFF" points="-237.919,48.162 -236.131,50.544 -232.558,45.779 -236.131,49.055 		"/>
	</g>
</g>
<path fill="#8E95A7" d="M247.205,91.1c0,0.253-0.213,0.458-0.479,0.458H0.479C0.213,91.558,0,91.353,0,91.1V0.458
	C0,0.205,0.213,0,0.479,0h246.248c0.266,0,0.479,0.205,0.479,0.458V91.1z"/>
<path fill="#8DB4AE" d="M246.748,200.97c0,0.253-0.215,0.458-0.479,0.458H0.479c-0.266,0-0.479-0.205-0.479-0.458v-90.642
	c0-0.254,0.213-0.459,0.479-0.459H246.27c0.264,0,0.479,0.205,0.479,0.459V200.97z"/>
<g>
	<path fill="#FFFFFF" d="M90.041,168.141h-3.152l-5.781-23.348h-0.074l-5.743,23.348H72.1l-4.43-25.9h2.327l3.866,23.123h0.075
		l5.855-23.123h2.815l5.743,23.123h0.075l3.979-23.123h2.103L90.041,168.141z"/>
	<path fill="#FFFFFF" d="M112.678,168.141v-12.537H101.68v12.537h-2.327v-25.9h2.327v11.637h10.998V142.24h2.328v25.9H112.678z"/>
	<path fill="#FFFFFF" d="M121.612,168.141v-25.9h11.486v1.727h-9.159v9.76h8.709v1.727h-8.709v10.886h9.497v1.802H121.612z"/>
	<path fill="#FFFFFF" d="M152.506,168.141l-2.815-8.596h-9.647l-2.814,8.596h-1.877l8.408-25.9h2.665l8.408,25.9H152.506z
		 M144.924,144.643h-0.076l-4.241,13.176h8.521L144.924,144.643z"/>
	<path fill="#FFFFFF" d="M162.98,143.967v24.174h-2.328v-24.174h-6.118v-1.727h14.563v1.727H162.98z"/>
	<path fill="#FFFFFF" d="M185.728,168.141v-12.537h-10.999v12.537h-2.326v-25.9h2.326v11.637h10.999V142.24h2.327v25.9H185.728z"/>
	<path fill="#FFFFFF" d="M194.662,168.141v-25.9h11.486v1.727h-9.16v9.76h8.709v1.727h-8.709v10.886h9.498v1.802H194.662z"/>
	<path fill="#FFFFFF" d="M223.266,168.141c-0.451-2.215-0.901-4.43-1.352-6.644c-0.826-4.055-2.215-5.256-6.381-5.256h-1.84v11.899
		h-2.327v-25.9h5.181c4.616,0,8.596,1.576,8.596,6.832c0,3.565-2.59,5.893-6.006,6.269v0.075c3.754,0.487,4.429,2.402,5.104,5.743
		l1.427,6.981H223.266z M216.358,143.967h-2.665v10.548h1.464c3.528,0,7.433-1.051,7.433-5.33
		C222.59,145.206,219.925,143.967,216.358,143.967z"/>
</g>
<path fill="#967B53" d="M-16.481,200.97c0,0.253-0.215,0.458-0.479,0.458h-246.248c-0.265,0-0.479-0.205-0.479-0.458v-90.642
	c0-0.254,0.215-0.459,0.479-0.459H-16.96c0.265,0,0.479,0.205,0.479,0.459V200.97z"/>
<g>
	<path fill="#FFFFFF" d="M-177.252,166.762v-12.537h-10.999v12.537h-2.327v-25.9h2.327v11.637h10.999v-11.637h2.327v25.9H-177.252z"
		/>
	<path fill="#FFFFFF" d="M-160.773,167.175c-7.47,0-8.934-7.433-8.934-13.4c0-5.894,1.576-13.326,8.934-13.326
		c7.245,0,8.784,7.545,8.784,13.326C-151.989,159.78-153.153,167.175-160.773,167.175z M-160.886,142.175
		c-5.668,0-6.269,7.583-6.269,11.749c0,4.129,0.976,11.524,6.457,11.524c5.706,0,6.156-7.357,6.156-11.524
		C-154.542,149.833-155.405,142.175-160.886,142.175z"/>
	<path fill="#FFFFFF" d="M-142.266,142.588v24.174h-2.328v-24.174h-6.118v-1.727h14.564v1.727H-142.266z"/>
	<path fill="#FFFFFF" d="M-132.844,166.762v-25.9h11.486v1.727h-9.159v9.76h8.708v1.727h-8.708v10.886h9.497v1.802H-132.844z"/>
	<path fill="#FFFFFF" d="M-116.14,166.762v-25.9h2.327v24.099h9.122v1.802H-116.14z"/>
</g>
<g>
	<circle fill="none" stroke="#FFFFFF" stroke-miterlimit="10" cx="-226.473" cy="153.361" r="22.436"/>
	<g id="Your_Icon_1_">
		<path fill="#FFFFFF" d="M-212.386,157.147c-1.059-0.186-1.651-2.147-1.679-2.243c-3.981,0.947-8.136,1.449-12.407,1.449
			c-4.271,0-8.424-0.502-12.407-1.449c-0.027,0.096-0.62,2.058-1.679,2.243c0,0-1.235,0.325-1.235,1.303v1.354
			c4.853,1.449,9.997,2.23,15.321,2.23c5.324,0,10.467-0.781,15.322-2.23v-1.355C-211.151,157.473-212.386,157.147-212.386,157.147z
			"/>
		<g>
			<path fill="#FFFFFF" d="M-214.648,151.202c-1.013-0.361-0.797-1.879-0.797-1.879c0-6.68-8.453-7.235-10.558-7.268v-1.45
				c0.906-0.063,1.602-0.303,1.719-0.602h0.018v-0.479c0-0.389-0.989-0.705-2.206-0.705c-1.219,0-2.205,0.316-2.205,0.705v0.419
				h0.006c0.035,0.326,0.763,0.596,1.729,0.662v1.45c-2.102,0.032-10.557,0.588-10.557,7.268c0,0,0.217,1.518-0.795,1.879
				c0,0-0.649,0.969-0.578,2.057c3.98,0.946,8.131,1.447,12.399,1.447c4.27,0,8.421-0.501,12.401-1.447
				C-214.002,152.171-214.648,151.202-214.648,151.202z M-217.603,150.642c-0.262,0-0.475-0.213-0.475-0.476
				c0-1.907-0.802-3.352-2.38-4.295c-1.204-0.72-2.411-0.867-2.423-0.868c-0.261-0.03-0.446-0.266-0.416-0.526
				c0.029-0.262,0.268-0.446,0.527-0.418c0.056,0.009,5.643,0.72,5.643,6.107C-217.129,150.429-217.339,150.642-217.603,150.642z"/>
		</g>
	</g>
</g>
<g>
	<path fill="#FFFFFF" d="M71.644,57.774c-1.914,0-3.866-0.15-5.743-0.601v-2.666c1.803,0.864,3.904,1.464,5.894,1.464
		c3.266,0,5.894-1.614,5.894-5.143c0-6.606-11.938-5.255-11.938-13.363c0-4.542,3.792-6.418,7.846-6.418
		c1.727,0,3.453,0.188,5.143,0.601v2.59c-1.802-0.826-3.717-1.464-5.705-1.464c-2.591,0-4.993,1.351-4.993,4.204
		c0,2.928,2.027,3.904,4.317,5.105c1.201,0.601,2.439,1.239,3.604,1.952c2.777,1.652,4.279,3.116,4.279,6.532
		C80.24,55.634,76.223,57.774,71.644,57.774z"/>
	<path fill="#FFFFFF" d="M98.483,57.361l-2.815-8.596h-9.646l-2.815,8.596h-1.877l8.408-25.9h2.665l8.408,25.9H98.483z M90.9,33.863
		h-0.074l-4.242,13.175h8.521L90.9,33.863z"/>
	<path fill="#FFFFFF" d="M117.103,57.361l-11.073-23.047h-0.075v23.047h-2.14v-25.9h2.891l11.261,23.235h0.075V31.46h2.14v25.9
		H117.103z"/>
	<path fill="#FFFFFF" d="M139.627,45.537h-2.816v11.824h-2.326v-25.9h5.143c4.842,0,8.783,1.577,8.783,7.095
		C148.41,44.148,144.506,45.537,139.627,45.537z M138.764,33.188h-1.953V43.81h1.953c3.753,0,7.094-0.638,7.094-5.18
		S142.629,33.188,138.764,33.188z"/>
	<path fill="#FFFFFF" d="M151.901,57.361v-25.9h11.486v1.727h-9.159v9.759h8.709v1.727h-8.709v10.886h9.497v1.802H151.901z"/>
	<path fill="#FFFFFF" d="M172.811,57.361h-4.881v-25.9h4.43c8.934,0,11.899,4.467,11.899,12.95
		C184.259,52.443,181.48,57.361,172.811,57.361z M176.752,33.825c-1.465-0.525-3.041-0.638-4.58-0.638h-1.914v22.372h1.914
		c7.582,0,9.534-3.829,9.534-10.848C181.706,40.62,181.143,35.477,176.752,33.825z"/>
	<path fill="#FFFFFF" d="M200.7,57.361c-0.45-2.215-0.901-4.429-1.351-6.644c-0.826-4.054-2.215-5.255-6.382-5.255h-1.839v11.899
		h-2.328v-25.9h5.181c4.616,0,8.596,1.577,8.596,6.832c0,3.566-2.59,5.894-6.006,6.269v0.075c3.754,0.488,4.429,2.402,5.104,5.743
		l1.427,6.982H200.7z M193.793,33.188h-2.664v10.547h1.463c3.529,0,7.434-1.051,7.434-5.33
		C200.025,34.426,197.359,33.188,193.793,33.188z"/>
	<path fill="#FFFFFF" d="M215.866,57.774c-7.47,0-8.934-7.433-8.934-13.401c0-5.893,1.576-13.325,8.934-13.325
		c7.245,0,8.784,7.545,8.784,13.325C224.65,50.379,223.486,57.774,215.866,57.774z M215.754,32.774c-5.668,0-6.27,7.583-6.27,11.749
		c0,4.129,0.977,11.523,6.457,11.523c5.705,0,6.156-7.357,6.156-11.523C222.098,40.432,221.234,32.774,215.754,32.774z"/>
</g>
<g>
	<g>
		<path fill="#FFFFFF" d="M21.057,34.51h1.268c0.846,0,0.846-2.114,1.691-2.114h0.846h0.002h0.006h0.012h0.007h0.008h0.017h0.01
			h0.013h0.021h0.006h0.028l0,0h0.032l0,0h0.032h0.005h0.027h0.012h0.021h0.022h0.008h0.029h0.008h0.021h0.025h0.002h0.029h0.02
			h0.009h0.027h0.016h0.009h0.025h0.022h0.003h0.023h0.022h0.011h0.012h0.021h0.021h0.004h0.016h0.019h0.017h0.012h0.004h0.018
			h0.016h0.014h0.012h0.002h0.01h0.012h0.01h0.008h0.01h0.006h0.006h0.004h0.002l0,0h0.003l0,0h2.958
			c0.847,0,0.847,2.114,1.692,2.114h8.03c0-0.466,0.379-0.846,0.847-0.846h0.845c0.467,0,0.846,0.379,0.846,0.846h1.268
			c1.168,0,2.114,0.946,2.114,2.114v12.681c0,1.168-0.946,2.114-2.114,2.114H21.057c-1.166,0-2.113-0.946-2.113-2.114V36.624
			C18.943,35.456,19.891,34.51,21.057,34.51L21.057,34.51z M35.851,36.624c-3.501,0-6.34,2.839-6.34,6.34s2.839,6.34,6.34,6.34
			c3.502,0,6.342-2.839,6.342-6.34C42.191,39.462,39.353,36.624,35.851,36.624L35.851,36.624z M24.016,38.737h2.537
			c0.466,0,0.844-0.379,0.844-0.845v-0.423c0-0.466-0.378-0.845-0.844-0.845h-2.537c-0.467,0-0.846,0.378-0.846,0.845v0.423
			C23.17,38.358,23.549,38.737,24.016,38.737z"/>
		<path fill="none" stroke="#FFFFFF" stroke-miterlimit="10" d="M35.851,38.313c-2.566,0-4.649,2.083-4.649,4.65
			c0,2.568,2.083,4.65,4.649,4.65c2.569,0,4.651-2.083,4.651-4.65C40.502,40.396,38.42,38.313,35.851,38.313L35.851,38.313z"/>
	</g>
	<g>
		<circle fill="none" stroke="#FFFFFF" stroke-miterlimit="10" cx="31.947" cy="42.783" r="22.162"/>
	</g>
</g>
<g>
	<g>
		<circle fill="none" stroke="#FFFFFF" stroke-miterlimit="10" cx="32.323" cy="154.742" r="22.21"/>
	</g>
	<path fill="#FFFFFF" d="M27.232,147.44c0.146,0.222,0.368,0.368,0.589,0.368c0.147,0,0.221,0,0.368-0.073
		c0.369-0.22,0.443-0.662,0.295-0.957l-1.693-2.946c-0.223-0.369-0.664-0.441-0.958-0.294c-0.369,0.221-0.442,0.662-0.296,0.958
		L27.232,147.44z"/>
	<path fill="#FFFFFF" d="M24.139,154.732c0-0.368-0.295-0.736-0.735-0.736h-3.391c-0.366,0-0.735,0.296-0.735,0.736
		c0,0.368,0.295,0.736,0.735,0.736h3.391C23.77,155.469,24.139,155.101,24.139,154.732z"/>
	<path fill="#FFFFFF" d="M24.949,149.724l-2.947-1.693c-0.367-0.222-0.811-0.074-0.956,0.294c-0.221,0.368-0.074,0.812,0.294,0.958
		l2.947,1.694c0.146,0.073,0.221,0.073,0.367,0.073c0.221,0,0.516-0.147,0.589-0.368C25.391,150.313,25.243,149.872,24.949,149.724z
		"/>
	<path fill="#FFFFFF" d="M24.213,158.563l-2.947,1.694c-0.368,0.222-0.44,0.663-0.294,0.958c0.146,0.221,0.368,0.368,0.589,0.368
		c0.148,0,0.221,0,0.367-0.075l2.947-1.693c0.368-0.22,0.441-0.663,0.295-0.956C25.023,158.488,24.58,158.342,24.213,158.563z"/>
	<path fill="#FFFFFF" d="M39.901,151.05c0.146,0,0.222,0,0.366-0.073l2.947-1.694c0.367-0.221,0.441-0.663,0.295-0.958
		c-0.221-0.368-0.664-0.441-0.957-0.294l-2.947,1.693c-0.367,0.223-0.44,0.663-0.295,0.958
		C39.385,150.902,39.68,151.05,39.901,151.05z"/>
	<path fill="#FFFFFF" d="M32.241,146.631c0.367,0,0.736-0.296,0.736-0.736v-3.388c0-0.368-0.295-0.737-0.736-0.737
		c-0.368,0-0.737,0.295-0.737,0.737v3.388C31.504,146.262,31.873,146.631,32.241,146.631z"/>
	<path fill="#FFFFFF" d="M36.291,147.735c0.148,0.073,0.223,0.073,0.369,0.073c0.22,0,0.516-0.146,0.59-0.368l1.693-2.944
		c0.222-0.37,0.074-0.812-0.295-0.958c-0.367-0.221-0.811-0.075-0.958,0.294l-1.694,2.946
		C35.849,147.073,35.922,147.516,36.291,147.735z"/>
	<path fill="#FFFFFF" d="M44.468,153.996H41.08c-0.369,0-0.738,0.296-0.738,0.736c0,0.368,0.295,0.736,0.738,0.736h3.388
		c0.368,0,0.736-0.294,0.736-0.736C45.204,154.364,44.836,153.996,44.468,153.996z"/>
	<path fill="none" stroke="#FFFFFF" stroke-width="2" stroke-miterlimit="10" d="M32.241,161.583c3.755,0,6.851-3.095,6.851-6.851
		s-3.096-6.85-6.851-6.85c-3.757,0-6.851,3.094-6.851,6.85S28.484,161.583,32.241,161.583z"/>
	<path fill="#FFFFFF" d="M43.215,160.257l-2.947-1.694c-0.366-0.221-0.809-0.074-0.957,0.296c-0.219,0.367-0.072,0.808,0.295,0.956
		l2.947,1.693c0.147,0.075,0.221,0.075,0.367,0.075c0.221,0,0.517-0.147,0.59-0.368C43.656,160.846,43.51,160.403,43.215,160.257z"
		/>
	<path fill="#FFFFFF" d="M28.189,161.804c-0.368-0.221-0.811-0.073-0.957,0.293l-1.695,2.947c-0.221,0.368-0.073,0.81,0.296,0.958
		c0.147,0.073,0.22,0.073,0.366,0.073c0.223,0,0.518-0.147,0.592-0.368l1.693-2.945C28.633,162.394,28.484,161.95,28.189,161.804z"
		/>
	<path fill="#FFFFFF" d="M37.25,162.023c-0.223-0.366-0.664-0.44-0.959-0.293c-0.369,0.22-0.442,0.663-0.295,0.956l1.694,2.947
		c0.147,0.22,0.368,0.368,0.591,0.368c0.146,0,0.221,0,0.367-0.074c0.369-0.221,0.443-0.662,0.295-0.957L37.25,162.023z"/>
	<path fill="#FFFFFF" d="M32.241,162.908c-0.368,0-0.737,0.294-0.737,0.736v3.389c0,0.367,0.295,0.735,0.737,0.735
		c0.367,0,0.736-0.294,0.736-0.735v-3.389C32.978,163.202,32.608,162.908,32.241,162.908z"/>
</g>
<polygon fill="#FFFFFF" points="-36.624,0.229 -16.481,0.229 -16.71,19.914 "/>
<polygon fill="#FFFFFF" points="-36.624,109.869 -16.481,109.869 -16.71,129.554 "/>
<polygon fill="#FFFFFF" points="226.834,0.229 246.977,0.229 246.748,19.914 "/>
<polygon fill="#FFFFFF" points="226.834,109.869 246.977,109.869 246.748,129.554 "/>
</svg>
