<?xml version="1.0" encoding="utf-8"?>
<!-- Generator: Adobe Illustrator 16.0.3, SVG Export Plug-In . SVG Version: 6.00 Build 0)  -->
<!DOCTYPE svg PUBLIC "-//W3C//DTD SVG 1.1//EN" "http://www.w3.org/Graphics/SVG/1.1/DTD/svg11.dtd">
<svg version="1.1" xmlns="http://www.w3.org/2000/svg" xmlns:xlink="http://www.w3.org/1999/xlink" x="0px" y="0px"
	 width="247.207px" height="91.559px" viewBox="0 0 247.207 91.559" enable-background="new 0 0 247.207 91.559"
	 xml:space="preserve">
<g id="Capa_1" display="none">
	<path display="inline" fill="#8D94A6" d="M247.207,91.101c0,0.253-0.215,0.458-0.48,0.458H0.479C0.215,91.559,0,91.354,0,91.101
		V0.459C0,0.205,0.215,0,0.479,0h246.247c0.266,0,0.48,0.205,0.48,0.459V91.101z"/>
	<polygon display="inline" fill="#FFFFFF" points="227.064,0 247.207,0 246.978,19.685 	"/>
	<g display="inline">
		<path fill="#FFFFFF" d="M93.872,22.7c0-3.19-1.689-5.706-5.067-5.706c-5.48,0-6.531,6.457-6.531,10.698
			c0,4.917,1.276,12.575,7.62,12.575c2.402,0,4.054-0.938,5.818-2.44v2.44c-1.764,1.238-3.979,1.727-6.118,1.727
			c-7.845,0-9.872-7.545-9.872-14.001c0-5.894,2.064-12.726,9.159-12.726c4.354,0,7.845,2.928,7.845,7.433H93.872z"/>
		<path fill="#FFFFFF" d="M113.918,41.581V29.044h-10.999v12.537h-2.327v-25.9h2.327v11.637h10.999V15.681h2.327v25.9H113.918z"/>
		<path fill="#FFFFFF" d="M122.89,41.581v-25.9h2.327v25.9H122.89z"/>
		<path fill="#FFFFFF" d="M131.898,41.581v-25.9h2.328v24.099h9.121v1.802H131.898z"/>
		<path fill="#FFFFFF" d="M146.501,41.581v-25.9h11.486v1.727h-9.159v9.76h8.709v1.727h-8.709v10.886h9.497v1.802H146.501z"/>
		<path fill="#FFFFFF" d="M186.441,41.581l-2.815-8.596h-9.647l-2.814,8.596h-1.877l8.408-25.9h2.665l8.408,25.9H186.441z
			 M178.859,18.083h-0.076l-4.241,13.176h8.521L178.859,18.083z"/>
		<path fill="#FFFFFF" d="M196.916,17.407v24.174h-2.328V17.407h-6.118v-1.727h14.563v1.727H196.916z"/>
		<path fill="#FFFFFF" d="M94.886,56.613c0.038-3.528-2.177-5.743-5.706-5.743c-5.781,0-6.907,6.645-6.907,11.148
			c0,4.955,1.314,12.125,7.62,12.125c1.839,0,3.716-0.563,5.03-1.877v-9.459h-6.457V61.08h8.784v12.275
			c-1.839,1.876-5.143,2.515-7.695,2.515c-7.958,0-9.834-7.395-9.834-13.964c0-6.156,2.139-12.763,9.421-12.763
			c3.303,0,6.344,1.239,7.845,4.354c0.488,0.976,0.751,2.027,0.751,3.115H94.886z"/>
		<path fill="#FFFFFF" d="M103.37,75.457v-25.9h2.327v24.099h9.122v1.802H103.37z"/>
		<path fill="#FFFFFF" d="M132.16,75.457l-2.814-8.596h-9.647l-2.815,8.596h-1.877l8.408-25.9h2.666l8.408,25.9H132.16z
			 M124.578,51.959h-0.075l-4.242,13.176h8.521L124.578,51.959z"/>
		<path fill="#FFFFFF" d="M151.455,75.457l-11.072-23.048h-0.076v23.048h-2.139v-25.9h2.89l11.261,23.235h0.076V49.557h2.139v25.9
			H151.455z"/>
		<path fill="#FFFFFF" d="M173.903,56.576c0-3.19-1.688-5.706-5.067-5.706c-5.48,0-6.531,6.457-6.531,10.698
			c0,4.917,1.276,12.575,7.62,12.575c2.402,0,4.054-0.938,5.817-2.44v2.44c-1.764,1.238-3.979,1.727-6.117,1.727
			c-7.846,0-9.873-7.545-9.873-14.001c0-5.894,2.064-12.726,9.159-12.726c4.354,0,7.845,2.928,7.845,7.433H173.903z"/>
		<path fill="#FFFFFF" d="M180.623,75.457v-25.9h11.486v1.727h-9.158v9.76h8.708v1.727h-8.708v10.886h9.496v1.802H180.623z"/>
	</g>
	<circle display="inline" fill="none" stroke="#FFFFFF" stroke-miterlimit="10" cx="38.215" cy="45.182" r="22.436"/>
	<g display="inline">
		<path fill="#FFFFFF" d="M41.828,45.341c-0.127-0.126-0.437-0.07-0.62,0.111c-0.157,0.157-0.45,0.45-0.732,0.732
			c-0.282,0.283-0.574,0.574-0.731,0.731c-0.184,0.183-0.239,0.493-0.112,0.622c0.577,0.576,1.677,1.31,2.726,2.359
			c2.657,2.657,5.976,6.341,6.938,7.306c0.127,0.126,0.438,0.069,0.62-0.113c0.137-0.136,0.425-0.424,0.733-0.731
			c0.308-0.309,0.595-0.597,0.732-0.732c0.183-0.183,0.239-0.493,0.111-0.621c-0.963-0.962-4.647-4.28-7.305-6.938
			C43.14,47.019,42.406,45.918,41.828,45.341z"/>
		<path fill="#FFFFFF" d="M39.668,34.353c-3.256-3.255-8.536-3.255-11.792,0c-3.256,3.256-3.256,8.534,0,11.792
			c3.256,3.255,8.535,3.255,11.792,0C42.925,42.887,42.925,37.608,39.668,34.353z M38.115,44.592c-2.399,2.397-6.288,2.397-8.686,0
			c-2.399-2.399-2.399-6.287,0-8.687c2.398-2.397,6.287-2.397,8.686,0C40.514,38.305,40.514,42.192,38.115,44.592z"/>
	</g>
</g>
<g id="Capa_2">
	<path fill="#7F9BB0" d="M246.748,91.101c0,0.253-0.215,0.458-0.479,0.458H0.479C0.214,91.559,0,91.354,0,91.101V0.459
		C0,0.205,0.214,0,0.479,0H246.27c0.264,0,0.479,0.205,0.479,0.459V91.101z"/>
	<g>
		<path fill="#FFFFFF" d="M78.314,44.271h-4.88v-25.9h4.429c8.934,0,11.899,4.467,11.899,12.95
			C89.763,39.354,86.985,44.271,78.314,44.271z M82.256,20.736c-1.464-0.525-3.041-0.639-4.58-0.639h-1.915V42.47h1.915
			c7.583,0,9.534-3.829,9.534-10.848C87.21,27.53,86.647,22.388,82.256,20.736z"/>
		<path fill="#FFFFFF" d="M94.981,44.271v-25.9h11.486v1.727h-9.159v9.76h8.708v1.727h-8.708V42.47h9.497v1.802H94.981z"/>
		<path fill="#FFFFFF" d="M111.686,44.271v-25.9h2.327V42.47h9.122v1.802H111.686z"/>
		<path fill="#FFFFFF" d="M126.288,44.271v-25.9h11.485v1.727h-9.158v9.76h8.709v1.727h-8.709V42.47h9.496v1.802H126.288z"/>
		<path fill="#FFFFFF" d="M156.768,25.428c0.039-3.528-2.176-5.743-5.705-5.743c-5.781,0-6.906,6.645-6.906,11.148
			c0,4.955,1.314,12.125,7.619,12.125c1.84,0,3.717-0.563,5.031-1.877v-9.459h-6.457v-1.728h8.783V42.17
			c-1.84,1.876-5.143,2.515-7.695,2.515c-7.957,0-9.834-7.395-9.834-13.964c0-6.156,2.141-12.763,9.422-12.763
			c3.303,0,6.344,1.239,7.846,4.354c0.488,0.976,0.75,2.027,0.75,3.115H156.768z"/>
		<path fill="#FFFFFF" d="M179.441,44.271l-2.816-8.596h-9.646l-2.814,8.596h-1.877l8.408-25.9h2.664l8.408,25.9H179.441z
			 M171.859,20.773h-0.076l-4.242,13.176h8.521L171.859,20.773z"/>
		<path fill="#FFFFFF" d="M189.916,20.098v24.174h-2.328V20.098h-6.119v-1.727h14.564v1.727H189.916z"/>
		<path fill="#FFFFFF" d="M199.338,44.271v-25.9h11.486v1.727h-9.16v9.76h8.709v1.727h-8.709V42.47h9.498v1.802H199.338z"/>
		<path fill="#FFFFFF" d="M220.096,44.685c-1.914,0-3.867-0.15-5.742-0.601v-2.665c1.801,0.863,3.902,1.464,5.893,1.464
			c3.266,0,5.893-1.614,5.893-5.143c0-6.606-11.936-5.255-11.936-13.363c0-4.542,3.791-6.419,7.844-6.419
			c1.727,0,3.455,0.188,5.143,0.601v2.59c-1.801-0.825-3.715-1.464-5.705-1.464c-2.59,0-4.992,1.352-4.992,4.204
			c0,2.929,2.027,3.904,4.316,5.105c1.201,0.601,2.439,1.238,3.604,1.952c2.777,1.651,4.279,3.115,4.279,6.531
			C228.691,42.545,224.676,44.685,220.096,44.685z"/>
		<path fill="#FFFFFF" d="M73.435,76.271v-25.9h2.327V74.47h9.122v1.802H73.435z"/>
		<path fill="#FFFFFF" d="M88.074,76.271v-25.9h2.327v25.9H88.074z"/>
		<path fill="#FFFFFF" d="M101.137,76.685c-1.914,0-3.866-0.15-5.743-0.601v-2.665c1.802,0.863,3.904,1.464,5.893,1.464
			c3.266,0,5.893-1.614,5.893-5.143c0-6.606-11.937-5.255-11.937-13.363c0-4.542,3.792-6.419,7.845-6.419
			c1.727,0,3.453,0.188,5.143,0.601v2.59c-1.802-0.825-3.716-1.464-5.706-1.464c-2.59,0-4.993,1.352-4.993,4.204
			c0,2.929,2.027,3.904,4.317,5.105c1.201,0.601,2.44,1.238,3.604,1.952c2.778,1.651,4.279,3.115,4.279,6.531
			C109.733,74.545,105.717,76.685,101.137,76.685z"/>
		<path fill="#FFFFFF" d="M119.644,52.098v24.174h-2.327V52.098h-6.119v-1.727h14.563v1.727H119.644z"/>
	</g>
	<polygon fill="#FFFFFF" points="226.834,0 246.977,0 246.748,19.685 	"/>
	<g>
		<g>
			<circle fill="none" stroke="#FFFFFF" stroke-miterlimit="10" cx="35.324" cy="44.873" r="22.21"/>
		</g>
		<g>
			<path fill="#FFFFFF" d="M48.859,30.312c-3.172,1.205-14.652,17.823-14.652,17.823l-4.052-6.537l-3.493,2.102l6.149,9.447h2.728
				c0,0,9.335-13.222,13.32-16.492V30.312z"/>
			<path fill="#FFFFFF" d="M23.923,53.737c0,1.531,1.242,2.774,2.774,2.774l14.901,0.017c1.533,0,2.775-1.241,2.775-2.773
				l-0.024-8.939h1.644v8.957c0,2.415-1.958,4.373-4.373,4.373l-15.102-0.019c-2.303,0-4.17-1.867-4.17-4.169l-0.022-15.08
				c0-2.415,1.958-4.373,4.373-4.373l13.863-0.022v1.646L26.72,36.121c-1.532,0-2.774,1.242-2.774,2.775L23.923,53.737z"/>
		</g>
	</g>
</g>
</svg>
