<?xml version="1.0" encoding="utf-8"?>
<!-- Generator: Adobe Illustrator 16.0.3, SVG Export Plug-In . SVG Version: 6.00 Build 0)  -->
<!DOCTYPE svg PUBLIC "-//W3C//DTD SVG 1.1//EN" "http://www.w3.org/Graphics/SVG/1.1/DTD/svg11.dtd">
<svg version="1.1" id="Capa_1" xmlns="http://www.w3.org/2000/svg" xmlns:xlink="http://www.w3.org/1999/xlink" x="0px" y="0px"
	 width="246.749px" height="91.559px" viewBox="0 0 246.749 91.559" enable-background="new 0 0 246.749 91.559"
	 xml:space="preserve">
<g>
	<path fill="#7F9BB0" d="M246.749,91.101c0,0.253-0.214,0.458-0.478,0.458H0.479C0.214,91.559,0,91.354,0,91.101V0.459
		C0,0.205,0.214,0,0.479,0h245.792c0.264,0,0.478,0.205,0.478,0.459V91.101z"/>
	<polygon fill="#FFFFFF" points="226.834,-1.072 246.978,-1.072 246.749,18.612 	"/>
</g>
<g>
	<path fill="#FFFFFF" d="M23.45,73.846v-25.9h11.486v1.727h-9.159v9.76h8.708v1.727h-8.708v10.886h9.497v1.802H23.45z"/>
	<path fill="#FFFFFF" d="M59.749,73.846V49.935h-0.075l-7.62,23.911h-2.252l-7.62-23.911h-0.075v23.911h-1.952v-25.9h3.453
		l7.357,23.085h0.075l7.432-23.085h3.604v25.9H59.749z"/>
	<path fill="#FFFFFF" d="M68.684,73.846v-25.9H80.17v1.727h-9.159v9.76h8.708v1.727h-8.708v10.886h9.497v1.802H68.684z"/>
	<path fill="#FFFFFF" d="M97.287,73.846c-0.45-2.215-0.901-4.43-1.351-6.644c-0.826-4.055-2.215-5.256-6.381-5.256h-1.839v11.899
		h-2.327v-25.9h5.18c4.617,0,8.596,1.576,8.596,6.832c0,3.565-2.59,5.893-6.006,6.269v0.075c3.754,0.487,4.429,2.402,5.105,5.743
		l1.426,6.981H97.287z M90.38,49.672h-2.665V60.22h1.464c3.529,0,7.433-1.051,7.433-5.33C96.612,50.911,93.946,49.672,90.38,49.672z
		"/>
	<path fill="#FFFFFF" d="M119.36,55.002c0.038-3.528-2.177-5.743-5.706-5.743c-5.781,0-6.907,6.645-6.907,11.148
		c0,4.955,1.314,12.125,7.62,12.125c1.839,0,3.716-0.563,5.03-1.877v-9.459h-6.456v-1.728h8.783v12.275
		c-1.839,1.876-5.143,2.515-7.695,2.515c-7.958,0-9.834-7.395-9.834-13.964c0-6.156,2.14-12.763,9.421-12.763
		c3.303,0,6.344,1.239,7.845,4.354c0.488,0.976,0.751,2.027,0.751,3.115H119.36z"/>
	<path fill="#FFFFFF" d="M127.843,73.846v-25.9h11.486v1.727h-9.158v9.76h8.708v1.727h-8.708v10.886h9.496v1.802H127.843z"/>
	<path fill="#FFFFFF" d="M157.836,73.846l-11.073-23.048h-0.075v23.048h-2.14v-25.9h2.891L158.7,71.181h0.075V47.945h2.139v25.9
		H157.836z"/>
	<path fill="#FFFFFF" d="M180.285,54.965c0-3.19-1.689-5.706-5.068-5.706c-5.479,0-6.531,6.457-6.531,10.698
		c0,4.917,1.277,12.575,7.621,12.575c2.402,0,4.053-0.938,5.817-2.44v2.44c-1.765,1.238-3.979,1.727-6.118,1.727
		c-7.846,0-9.872-7.545-9.872-14.001c0-5.894,2.064-12.726,9.159-12.726c4.354,0,7.845,2.928,7.845,7.433H180.285z"/>
	<path fill="#FFFFFF" d="M187.042,73.846v-25.9h2.326v25.9H187.042z"/>
	<path fill="#FFFFFF" d="M196.051,73.846v-25.9h11.486v1.727h-9.159v9.76h8.709v1.727h-8.709v10.886h9.497v1.802H196.051z"/>
	<path fill="#FFFFFF" d="M216.81,74.259c-1.914,0-3.867-0.15-5.743-0.601v-2.665c1.802,0.863,3.903,1.464,5.894,1.464
		c3.266,0,5.893-1.614,5.893-5.143c0-6.606-11.937-5.255-11.937-13.363c0-4.542,3.792-6.419,7.845-6.419
		c1.727,0,3.453,0.188,5.143,0.601v2.59c-1.801-0.825-3.716-1.464-5.705-1.464c-2.59,0-4.992,1.352-4.992,4.204
		c0,2.929,2.027,3.904,4.316,5.105c1.201,0.601,2.439,1.238,3.604,1.952c2.777,1.651,4.279,3.115,4.279,6.531
		C225.406,72.119,221.389,74.259,216.81,74.259z"/>
</g>
<g>
	<rect x="113.691" y="33.794" fill="#FFFFFF" width="14.795" height="2.174"/>
	<path fill="#FFFFFF" d="M127.237,27.841c0-3.448-2.796-6.245-6.246-6.245c-3.451,0-6.247,2.797-6.247,6.245v5.394h12.494
		L127.237,27.841L127.237,27.841z M126.512,32.559h-2.083v-4.767c0-2.694-1.929-4.934-4.48-5.421
		c0.338-0.063,0.686-0.103,1.042-0.103c3.05,0,5.521,2.475,5.521,5.524V32.559z"/>
	<path fill="#FFFFFF" d="M120.983,16.475c0.376,0,0.68-0.302,0.68-0.679v-5.614c0-0.378-0.304-0.68-0.68-0.68
		c-0.375,0-0.68,0.302-0.68,0.68v5.614C120.303,16.173,120.607,16.475,120.983,16.475z"/>
	<path fill="#FFFFFF" d="M110.93,25.172h-5.616c-0.375,0-0.68,0.305-0.68,0.682c0,0.372,0.305,0.678,0.68,0.678h5.616
		c0.375,0,0.679-0.306,0.679-0.678C111.609,25.477,111.305,25.172,110.93,25.172z"/>
	<path fill="#FFFFFF" d="M136.654,25.172h-5.616c-0.374,0-0.68,0.305-0.68,0.682c0,0.372,0.306,0.678,0.68,0.678h5.616
		c0.375,0,0.68-0.306,0.68-0.678C137.333,25.477,137.029,25.172,136.654,25.172z"/>
	<path fill="#FFFFFF" d="M114.353,19.222c0.265-0.267,0.265-0.694,0-0.96l-3.971-3.97c-0.265-0.267-0.695-0.267-0.961,0
		c-0.265,0.264-0.265,0.692,0,0.959l3.971,3.971C113.658,19.486,114.088,19.489,114.353,19.222z"/>
	<path fill="#FFFFFF" d="M132.544,14.292c-0.266-0.267-0.695-0.267-0.961,0l-3.971,3.97c-0.266,0.266-0.266,0.693,0,0.96
		c0.266,0.268,0.693,0.268,0.961,0l3.971-3.971C132.81,14.986,132.81,14.556,132.544,14.292z"/>
</g>
</svg>
