<?xml version="1.0" encoding="utf-8"?>
<!-- Generator: Adobe Illustrator 16.0.3, SVG Export Plug-In . SVG Version: 6.00 Build 0)  -->
<!DOCTYPE svg PUBLIC "-//W3C//DTD SVG 1.1//EN" "http://www.w3.org/Graphics/SVG/1.1/DTD/svg11.dtd">
<svg version="1.1" id="Capa_1" xmlns="http://www.w3.org/2000/svg" xmlns:xlink="http://www.w3.org/1999/xlink" x="0px" y="0px"
	 width="694px" height="123.333px" viewBox="0 0 694 123.333" enable-background="new 0 0 694 123.333" xml:space="preserve">
<g>
	<path fill="#FFFFFF" d="M14.353,12.378h-1.35v5.672h-1.117V5.626h2.467c2.323,0,4.214,0.756,4.214,3.403
		C18.567,11.712,16.694,12.378,14.353,12.378z M13.939,6.455h-0.936v5.096h0.936c1.801,0,3.403-0.307,3.403-2.484
		C17.342,6.887,15.793,6.455,13.939,6.455z"/>
	<path fill="#FFFFFF" d="M26.27,18.05c-0.216-1.063-0.432-2.125-0.648-3.188c-0.396-1.943-1.062-2.52-3.061-2.52h-0.882v5.707
		h-1.117V5.626h2.485c2.215,0,4.123,0.756,4.123,3.277c0,1.711-1.242,2.826-2.881,3.007v0.036c1.801,0.234,2.125,1.152,2.449,2.754
		l0.684,3.35H26.27z M22.958,6.455h-1.278v5.06h0.702c1.692,0,3.564-0.504,3.564-2.557C25.946,7.048,24.667,6.455,22.958,6.455z"/>
	<path fill="#FFFFFF" d="M37.052,18.05l-1.351-4.123h-4.627l-1.351,4.123h-0.9l4.033-12.424h1.278l4.033,12.424H37.052z
		 M33.416,6.779h-0.036l-2.035,6.32h4.087L33.416,6.779z"/>
	<path fill="#FFFFFF" d="M46.051,8.994c0-1.53-0.81-2.736-2.431-2.736c-2.629,0-3.133,3.096-3.133,5.131
		c0,2.359,0.612,6.031,3.655,6.031c1.152,0,1.944-0.449,2.791-1.17v1.17c-0.847,0.595-1.909,0.829-2.936,0.829
		c-3.763,0-4.735-3.619-4.735-6.716c0-2.827,0.99-6.104,4.394-6.104c2.089,0,3.763,1.404,3.763,3.564H46.051z"/>
	<path fill="#FFFFFF" d="M53.465,20.5h-1.009l3.115-16.151h1.026L53.465,20.5z"/>
	<path fill="#FFFFFF" d="M65.688,18.249c-1.692,0-2.863-0.702-3.151-2.448h1.333c0.09,1.043,0.828,1.656,1.854,1.656
		c1.692,0,2.322-1.207,2.322-2.737c0-1.368-0.647-2.719-2.196-2.719c-0.666,0-1.494,0.343-1.765,0.99h-1.044l0.306-6.356h5.294
		v0.829h-4.304l-0.252,4.321c0.54-0.396,1.261-0.576,1.927-0.576c2.017,0,3.259,1.566,3.259,3.511
		C69.271,16.953,67.903,18.249,65.688,18.249z"/>
	<path fill="#FFFFFF" d="M74.814,18.249c-3.349,0-3.619-3.241-3.619-5.815c0-2.665,0.45-5.996,3.854-5.996
		c1.08,0,2.053,0.45,2.593,1.404c0.18,0.324,0.288,0.666,0.306,1.026h-1.314c0-0.919-0.702-1.639-1.62-1.639
		c-2.539,0-2.647,3.655-2.647,5.474h0.036c0.522-1.026,1.603-1.512,2.719-1.512c2.107,0,3.098,1.512,3.098,3.475
		C78.217,16.808,77.029,18.249,74.814,18.249z M74.814,11.982c-1.332,0-2.251,1.369-2.251,2.594c0,1.35,0.738,2.881,2.269,2.881
		c1.513,0,2.161-1.459,2.161-2.773C76.993,13.405,76.254,11.982,74.814,11.982z"/>
	<path fill="#FFFFFF" d="M81.343,12.171c-0.83,0-1.418-0.23-1.418-1.165V7.49h-0.818V7.059h0.818V5.894l0.578-0.357v1.522h1.312
		V7.49h-1.312v3.181c0,0.661,0.157,1.092,0.902,1.092c0.157,0,0.305-0.021,0.451-0.073v0.451
		C81.689,12.151,81.511,12.171,81.343,12.171z"/>
	<path fill="#FFFFFF" d="M85.908,12.056V8.718c0-0.557-0.063-1.25-0.787-1.25c-0.756,0-1.229,0.914-1.428,1.533
		c-0.073,0.221-0.146,0.493-0.146,0.725v2.33h-0.578V4.812h0.578v3.611h0.021c0.241-0.703,0.84-1.479,1.659-1.479
		c0.997,0,1.26,0.714,1.26,1.585v3.527H85.908z"/>
	<path fill="#FFFFFF" d="M91.487,18.05V5.626h1.116V18.05H91.487z"/>
	<path fill="#FFFFFF" d="M100.758,18.05v-5.726c0-0.973-0.09-2.143-1.351-2.143c-1.603,0-2.701,2.646-2.701,3.997v3.871h-0.99V9.48
		h0.99v2.34h0.036c0.433-1.242,1.404-2.538,2.845-2.538c1.747,0,2.161,1.296,2.161,2.791v5.978H100.758z"/>
	<path fill="#FFFFFF" d="M107.741,18.249c-1.422,0-2.431-0.396-2.431-1.999v-6.031h-1.404V9.48h1.404V7.481l0.99-0.612V9.48h2.251
		v0.738H106.3v5.455c0,1.135,0.271,1.873,1.549,1.873c0.271,0,0.522-0.036,0.774-0.127v0.775
		C108.335,18.212,108.029,18.249,107.741,18.249z"/>
	<path fill="#FFFFFF" d="M110.962,12.703c0,1.656,0.378,3.745,2.034,4.52c0.414,0.197,0.864,0.288,1.314,0.288
		c0.522,0,1.045-0.036,1.549-0.216v0.756c-0.595,0.145-1.188,0.198-1.801,0.198c-3.007,0-4.195-1.891-4.195-4.7
		c0-2.232,0.738-4.267,3.313-4.267c2.053,0,2.845,1.566,2.845,3.421H110.962z M113.033,9.984c-1.26,0-1.908,0.828-1.998,2.017h3.889
		C114.923,10.794,114.293,9.984,113.033,9.984z"/>
	<path fill="#FFFFFF" d="M121.673,10.578c-1.765,0-2.396,1.639-2.396,3.151v4.321h-0.99V9.48h0.99v1.908h0.036
		c0.559-1.063,1.369-2.017,2.647-2.106v1.296H121.673z"/>
	<path fill="#FFFFFF" d="M129,18.05v-5.726c0-0.973-0.09-2.143-1.351-2.143c-1.603,0-2.701,2.646-2.701,3.997v3.871h-0.99V9.48h0.99
		v2.34h0.036c0.433-1.242,1.404-2.538,2.845-2.538c1.747,0,2.161,1.296,2.161,2.791v5.978H129z"/>
	<path fill="#FFFFFF" d="M137.008,18.05v-1.332h-0.036c-0.396,0.9-1.494,1.53-2.467,1.53c-1.242,0-2.286-0.9-2.286-2.179
		c0-2.395,2.971-2.791,4.789-2.791v-0.576c0-1.351,0-2.719-1.746-2.719c-1.08,0-1.566,0.521-1.603,1.584h-1.242
		c0.216-1.674,1.368-2.286,2.953-2.286c2.016,0,2.628,1.08,2.628,2.952v5.816H137.008z M137.008,13.981
		c-1.314,0-3.69,0.181-3.69,1.963c0,0.864,0.666,1.404,1.494,1.404c1.549,0,2.196-1.548,2.196-2.881V13.981z"/>
	<path fill="#FFFFFF" d="M143.992,18.249c-1.422,0-2.431-0.396-2.431-1.999v-6.031h-1.404V9.48h1.404V7.481l0.99-0.612V9.48h2.251
		v0.738h-2.251v5.455c0,1.135,0.271,1.873,1.549,1.873c0.271,0,0.522-0.036,0.774-0.127v0.775
		C144.586,18.212,144.28,18.249,143.992,18.249z"/>
	<path fill="#FFFFFF" d="M146.655,7.085V5.626h1.261v1.459H146.655z M146.799,18.05V9.48h0.99v8.57H146.799z"/>
	<path fill="#FFFFFF" d="M153.64,18.249c-2.683,0-3.529-2.215-3.529-4.538c0-2.196,0.918-4.429,3.457-4.429
		c2.683,0,3.583,2.269,3.583,4.591C157.151,16.142,156.214,18.249,153.64,18.249z M153.568,9.984c-1.908,0-2.358,2.035-2.358,3.564
		c0,1.604,0.342,3.998,2.412,3.998c2.017,0,2.431-1.999,2.431-3.619C156.052,12.271,155.693,9.984,153.568,9.984z"/>
	<path fill="#FFFFFF" d="M164.495,18.05v-5.726c0-0.973-0.09-2.143-1.351-2.143c-1.603,0-2.701,2.646-2.701,3.997v3.871h-0.99V9.48
		h0.99v2.34h0.036c0.433-1.242,1.404-2.538,2.845-2.538c1.747,0,2.161,1.296,2.161,2.791v5.978H164.495z"/>
	<path fill="#FFFFFF" d="M172.503,18.05v-1.332h-0.036c-0.396,0.9-1.494,1.53-2.466,1.53c-1.243,0-2.287-0.9-2.287-2.179
		c0-2.395,2.971-2.791,4.789-2.791v-0.576c0-1.351,0-2.719-1.746-2.719c-1.08,0-1.566,0.521-1.603,1.584h-1.242
		c0.216-1.674,1.368-2.286,2.952-2.286c2.018,0,2.629,1.08,2.629,2.952v5.816H172.503z M172.503,13.981
		c-1.314,0-3.69,0.181-3.69,1.963c0,0.864,0.666,1.404,1.494,1.404c1.549,0,2.196-1.548,2.196-2.881V13.981z"/>
	<path fill="#FFFFFF" d="M176.499,18.05V5.626h0.99V18.05H176.499z"/>
	<path fill="#FFFFFF" d="M191.026,8.994c0-1.53-0.81-2.736-2.431-2.736c-2.629,0-3.133,3.096-3.133,5.131
		c0,2.359,0.612,6.031,3.655,6.031c1.152,0,1.944-0.449,2.791-1.17v1.17c-0.847,0.595-1.909,0.829-2.936,0.829
		c-3.763,0-4.735-3.619-4.735-6.716c0-2.827,0.99-6.104,4.394-6.104c2.089,0,3.763,1.404,3.763,3.564H191.026z"/>
	<path fill="#FFFFFF" d="M197.019,18.249c-2.683,0-3.529-2.215-3.529-4.538c0-2.196,0.918-4.429,3.457-4.429
		c2.683,0,3.583,2.269,3.583,4.591C200.53,16.142,199.593,18.249,197.019,18.249z M196.947,9.984c-1.908,0-2.358,2.035-2.358,3.564
		c0,1.604,0.342,3.998,2.412,3.998c2.017,0,2.431-1.999,2.431-3.619C199.431,12.271,199.072,9.984,196.947,9.984z"/>
	<path fill="#FFFFFF" d="M207.874,18.05v-5.726c0-0.973-0.09-2.143-1.351-2.143c-1.603,0-2.701,2.646-2.701,3.997v3.871h-0.99V9.48
		h0.99v2.34h0.036c0.433-1.242,1.404-2.538,2.845-2.538c1.747,0,2.161,1.296,2.161,2.791v5.978H207.874z"/>
	<path fill="#FFFFFF" d="M215.144,6.275c-1.44,0-1.692,0.9-1.692,2.143c0,0.342,0.019,0.702,0.019,1.063h2.395v0.738h-2.395v7.832
		h-0.99v-7.832h-1.459V9.48h1.459V8.219c0-1.818,0.936-2.646,2.719-2.646c0.378,0,0.756,0.071,1.134,0.144v0.883
		C215.918,6.455,215.594,6.275,215.144,6.275z"/>
	<path fill="#FFFFFF" d="M217.916,12.703c0,1.656,0.378,3.745,2.034,4.52c0.414,0.197,0.864,0.288,1.314,0.288
		c0.522,0,1.045-0.036,1.549-0.216v0.756c-0.595,0.145-1.188,0.198-1.801,0.198c-3.007,0-4.195-1.891-4.195-4.7
		c0-2.232,0.738-4.267,3.313-4.267c2.053,0,2.845,1.566,2.845,3.421H217.916z M219.986,9.984c-1.26,0-1.908,0.828-1.998,2.017h3.889
		C221.876,10.794,221.247,9.984,219.986,9.984z"/>
	<path fill="#FFFFFF" d="M228.626,10.578c-1.765,0-2.396,1.639-2.396,3.151v4.321h-0.99V9.48h0.99v1.908h0.036
		c0.559-1.063,1.369-2.017,2.647-2.106v1.296H228.626z"/>
	<path fill="#FFFFFF" d="M231.001,12.703c0,1.656,0.378,3.745,2.034,4.52c0.414,0.197,0.864,0.288,1.314,0.288
		c0.522,0,1.045-0.036,1.549-0.216v0.756c-0.595,0.145-1.188,0.198-1.801,0.198c-3.007,0-4.195-1.891-4.195-4.7
		c0-2.232,0.738-4.267,3.313-4.267c2.053,0,2.845,1.566,2.845,3.421H231.001z M233.072,9.984c-1.26,0-1.908,0.828-1.998,2.017h3.889
		C234.962,10.794,234.333,9.984,233.072,9.984z"/>
	<path fill="#FFFFFF" d="M243.369,18.05v-5.726c0-0.973-0.09-2.143-1.351-2.143c-1.603,0-2.701,2.646-2.701,3.997v3.871h-0.99V9.48
		h0.99v2.34h0.036c0.433-1.242,1.404-2.538,2.845-2.538c1.747,0,2.161,1.296,2.161,2.791v5.978H243.369z"/>
	<path fill="#FFFFFF" d="M251.414,12.019c0.019-1.152-0.27-2.035-1.603-2.035c-1.765,0-2.053,2.035-2.053,3.385
		c0,2.053,0.937,4.142,3.277,4.142c0.433,0,0.882-0.054,1.296-0.198v0.738c-0.504,0.145-1.044,0.198-1.566,0.198
		c-3.007,0-4.104-1.891-4.104-4.682c0-2.161,0.738-4.285,3.259-4.285c1.675,0,2.736,1.044,2.736,2.737H251.414z"/>
	<path fill="#FFFFFF" d="M255.121,12.703c0,1.656,0.378,3.745,2.034,4.52c0.414,0.197,0.864,0.288,1.314,0.288
		c0.522,0,1.045-0.036,1.549-0.216v0.756c-0.595,0.145-1.188,0.198-1.801,0.198c-3.007,0-4.195-1.891-4.195-4.7
		c0-2.232,0.738-4.267,3.313-4.267c2.053,0,2.845,1.566,2.845,3.421H255.121z M257.191,9.984c-1.26,0-1.908,0.828-1.998,2.017h3.889
		C259.082,10.794,258.452,9.984,257.191,9.984z"/>
	<path fill="#FFFFFF" d="M266.406,18.05v-0.918c1.818-1.765,5.042-5.222,5.042-7.869c0-1.152-0.757-2.034-1.945-2.034
		c-1.224,0-1.674,0.811-1.818,1.909h-1.314c0.198-1.819,1.44-2.701,3.205-2.701c1.909,0,3.043,1.206,3.043,3.097
		c0,2.791-3.079,5.69-4.88,7.599h5.114v0.918H266.406z"/>
	<path fill="#FFFFFF" d="M278.395,18.249c-3.421,0-3.817-3.386-3.817-6.05c0-2.521,0.45-5.762,3.673-5.762
		c3.313,0,3.781,3.547,3.781,6.104C282.032,15.025,281.582,18.249,278.395,18.249z M278.233,7.229c-2.197,0-2.431,3.276-2.431,4.861
		c0,1.692,0.162,5.366,2.538,5.366c2.323,0,2.467-3.295,2.467-4.952C280.807,10.758,280.664,7.229,278.233,7.229z"/>
	<path fill="#FFFFFF" d="M286.405,18.05V7.824l-2.035,1.458V8.166l2.232-1.531h0.919V18.05H286.405z"/>
	<path fill="#FFFFFF" d="M297.025,14.666v3.385h-0.99v-3.385h-4.52v-0.883l4.43-7.148h1.08v7.113h2.017v0.918H297.025z
		 M296.035,8.238h-0.036l-3.385,5.51h3.421V8.238z"/>
</g>
<g>
	<path fill="#FFFFFF" d="M14.418,43.248c-0.919,0-1.854-0.072-2.755-0.287v-1.279c0.864,0.414,1.872,0.703,2.827,0.703
		c1.566,0,2.826-0.775,2.826-2.467c0-3.17-5.726-2.521-5.726-6.41c0-2.18,1.818-3.079,3.763-3.079c0.829,0,1.657,0.09,2.467,0.288
		v1.242c-0.864-0.396-1.782-0.702-2.736-0.702c-1.242,0-2.395,0.647-2.395,2.017c0,1.404,0.972,1.873,2.07,2.449
		c0.576,0.287,1.17,0.594,1.729,0.936c1.332,0.793,2.053,1.494,2.053,3.133C18.542,42.222,16.615,43.248,14.418,43.248z"/>
	<path fill="#FFFFFF" d="M27.614,43.05l-1.351-4.123h-4.627l-1.351,4.123h-0.9l4.033-12.424h1.278L28.73,43.05H27.614z
		 M23.977,31.779h-0.036l-2.035,6.319h4.087L23.977,31.779z"/>
	<path fill="#FFFFFF" d="M36.865,43.05l-5.312-11.056h-0.036V43.05h-1.026V30.626h1.387l5.401,11.145h0.036V30.626h1.026V43.05
		H36.865z"/>
	<path fill="#FFFFFF" d="M48.311,37.378h-1.35v5.672h-1.117V30.626h2.467c2.323,0,4.214,0.756,4.214,3.402
		C52.525,36.712,50.652,37.378,48.311,37.378z M47.897,31.455h-0.936v5.096h0.936c1.801,0,3.403-0.307,3.403-2.485
		S49.751,31.455,47.897,31.455z"/>
	<path fill="#FFFFFF" d="M54.52,43.05V30.626h5.51v0.828h-4.393v4.682h4.177v0.828h-4.177v5.221h4.555v0.865H54.52z"/>
	<path fill="#FFFFFF" d="M64.871,43.05H62.53V30.626h2.125c4.285,0,5.708,2.143,5.708,6.211C70.363,40.691,69.03,43.05,64.871,43.05
		z M66.761,31.76c-0.702-0.252-1.458-0.306-2.196-0.306h-0.918v10.73h0.918c3.637,0,4.573-1.836,4.573-5.203
		C69.138,35.019,68.868,32.552,66.761,31.76z"/>
	<path fill="#FFFFFF" d="M78.57,43.05c-0.216-1.063-0.432-2.125-0.648-3.188c-0.396-1.944-1.062-2.521-3.061-2.521h-0.882v5.708
		h-1.117V30.626h2.485c2.215,0,4.123,0.756,4.123,3.276c0,1.711-1.242,2.827-2.881,3.007v0.036c1.801,0.234,2.125,1.152,2.449,2.755
		l0.684,3.35H78.57z M75.257,31.455h-1.278v5.059h0.702c1.692,0,3.564-0.504,3.564-2.557C78.246,32.048,76.967,31.455,75.257,31.455
		z"/>
	<path fill="#FFFFFF" d="M86.165,43.248c-3.583,0-4.285-3.564-4.285-6.428c0-2.826,0.757-6.392,4.285-6.392
		c3.476,0,4.214,3.619,4.214,6.392C90.378,39.701,89.82,43.248,86.165,43.248z M86.111,31.256c-2.719,0-3.007,3.638-3.007,5.636
		c0,1.98,0.468,5.527,3.097,5.527c2.737,0,2.953-3.529,2.953-5.527C89.154,34.929,88.74,31.256,86.111,31.256z"/>
	<path fill="#FFFFFF" d="M99.574,43.05h-2.341V30.626h2.125c4.285,0,5.708,2.143,5.708,6.211
		C105.066,40.691,103.733,43.05,99.574,43.05z M101.464,31.76c-0.702-0.252-1.458-0.306-2.196-0.306H98.35v10.73h0.918
		c3.637,0,4.573-1.836,4.573-5.203C103.841,35.019,103.571,32.552,101.464,31.76z"/>
	<path fill="#FFFFFF" d="M107.565,43.05V30.626h5.51v0.828h-4.393v4.682h4.177v0.828h-4.177v5.221h4.555v0.865H107.565z"/>
	<path fill="#FFFFFF" d="M126.719,43.05l-1.351-4.123h-4.627l-1.351,4.123h-0.9l4.033-12.424h1.278l4.033,12.424H126.719z
		 M123.083,31.779h-0.036l-2.035,6.319h4.087L123.083,31.779z"/>
	<path fill="#FFFFFF" d="M131.74,31.455V43.05h-1.116V31.455h-2.936v-0.828h6.986v0.828H131.74z"/>
	<path fill="#FFFFFF" d="M142.721,43.05l-1.351-4.123h-4.627l-1.351,4.123h-0.9l4.033-12.424h1.278l4.033,12.424H142.721z
		 M139.084,31.779h-0.036l-2.035,6.319h4.087L139.084,31.779z"/>
	<path fill="#FFFFFF" d="M151.72,33.994c0-1.531-0.81-2.737-2.431-2.737c-2.629,0-3.133,3.097-3.133,5.132
		c0,2.358,0.612,6.031,3.655,6.031c1.152,0,1.944-0.45,2.791-1.17v1.17c-0.847,0.594-1.909,0.828-2.936,0.828
		c-3.763,0-4.735-3.619-4.735-6.716c0-2.827,0.99-6.104,4.394-6.104c2.089,0,3.763,1.404,3.763,3.565H151.72z"/>
	<path fill="#FFFFFF" d="M161.747,43.05l-1.351-4.123h-4.627l-1.351,4.123h-0.9l4.033-12.424h1.278l4.033,12.424H161.747z
		 M158.11,31.779h-0.036l-2.035,6.319h4.087L158.11,31.779z"/>
	<path fill="#FFFFFF" d="M174.023,43.05v-11.47h-0.036l-3.655,11.47h-1.08l-3.655-11.47h-0.036v11.47h-0.937V30.626h1.657
		l3.528,11.072h0.036l3.565-11.072h1.729V43.05H174.023z"/>
	<path fill="#FFFFFF" d="M185.11,43.05l-1.351-4.123h-4.627l-1.351,4.123h-0.9l4.033-12.424h1.278l4.033,12.424H185.11z
		 M181.473,31.779h-0.036l-2.035,6.319h4.087L181.473,31.779z"/>
	<path fill="#FFFFFF" d="M191.767,39.179V38.17h4.951v1.009H191.767z"/>
	<path fill="#FFFFFF" d="M209.787,33.994c0-1.531-0.81-2.737-2.431-2.737c-2.629,0-3.133,3.097-3.133,5.132
		c0,2.358,0.612,6.031,3.655,6.031c1.152,0,1.944-0.45,2.791-1.17v1.17c-0.847,0.594-1.909,0.828-2.936,0.828
		c-3.763,0-4.735-3.619-4.735-6.716c0-2.827,0.99-6.104,4.394-6.104c2.089,0,3.763,1.404,3.763,3.565H209.787z"/>
	<path fill="#FFFFFF" d="M219.399,43.05v-6.014h-5.275v6.014h-1.117V30.626h1.117v5.581h5.275v-5.581h1.116V43.05H219.399z"/>
	<path fill="#FFFFFF" d="M223.699,43.05V30.626h1.116V43.05H223.699z"/>
	<path fill="#FFFFFF" d="M228.018,43.05V30.626h1.117v11.559h4.375v0.865H228.018z"/>
	<path fill="#FFFFFF" d="M235.02,43.05V30.626h5.51v0.828h-4.393v4.682h4.177v0.828h-4.177v5.221h4.555v0.865H235.02z"/>
</g>
<g>
	<g>
		<path fill="#FFFFFF" d="M558.138,108.656h1.889c0,0,3.554-14.553,7.406-30.316h-1.923
			C561.671,94.103,558.138,108.656,558.138,108.656z"/>
		<path fill="#FFFFFF" d="M560.337,109.054h-2.701l0.119-0.493c0,0,3.531-14.549,7.369-30.317l0.075-0.3h2.734L560.337,109.054z
			 M558.644,108.26h1.072l7.217-29.527h-1.112C562.421,92.692,559.285,105.625,558.644,108.26z"/>
	</g>
	<g>
		<g>
			<path fill="#FFFFFF" d="M594.087,80.104h0.947v5.571h-0.828c-0.789-0.833-1.424-1.541-2.291-2.253
				c-2.449-1.981-5.412-3.046-8.614-3.046c-7.468,0-13.55,6.166-13.55,13.598c0,4.346,2.094,7.426,3.076,8.608
				c2.533,3.163,6.521,5.062,10.593,5.096c0.712,0,2.057-0.075,3.794-0.551c3.99-1.185,6.084-3.795,7.114-4.938h1.145
				c-0.635,0.788-1.347,1.658-2.056,2.369c-1.383,1.306-4.782,4.03-10.035,4.03c-4.82,0-8.141-2.366-9.441-3.475
				c-3.2-2.728-5.097-6.955-5.097-11.182c0-1.58,0.311-5.531,3.159-9.09c1.383-1.732,5.016-5.372,11.18-5.372
				c1.342,0,4.859,0.235,8.098,2.294c0.754,0.47,1.424,0.986,2.807,2.209V80.104z"/>
			<path fill="#FFFFFF" d="M583.382,109.145c-4.838,0-8.219-2.264-9.802-3.611c-3.313-2.822-5.295-7.158-5.295-11.602
				c0-1.604,0.325-5.731,3.286-9.435c1.334-1.677,5.142-5.581,11.611-5.581c1.396,0,5.016,0.234,8.395,2.381
				c0.602,0.375,1.158,0.789,1.958,1.466V79.55h2.056v6.675h-1.622l-0.56-0.588c-0.617-0.653-1.152-1.22-1.845-1.786
				c-2.366-1.909-5.224-2.919-8.264-2.919c-7.163,0-12.998,5.848-12.998,13.042c0,4.254,2.065,7.19,2.952,8.255
				c2.428,3.034,6.226,4.862,10.17,4.898c0.77,0,2.031-0.096,3.64-0.533c3.56-1.056,5.552-3.307,6.622-4.517l0.391-0.44h2.545
				l-0.719,0.898c-0.662,0.828-1.379,1.691-2.098,2.415C592.143,106.522,588.597,109.145,583.382,109.145z M594.445,85.12h0.037
				v-0.06l-0.582-0.515c0.103,0.111,0.209,0.223,0.313,0.334L594.445,85.12z"/>
		</g>
		<g>
			<path fill="#FFFFFF" d="M618.281,87.688h0.99l-0.006,0.951l0,0v18.291l0,0l0.006,0.947h-0.99v-5.648
				c-0.791,1.379-1.184,1.973-1.701,2.567c-0.949,1.104-3.594,3.479-7.861,3.479c-2.057,0-3.517-0.598-4.266-0.949
				c-3.756-1.698-6.169-5.454-6.169-9.603c0-2.529,0.991-5.096,2.692-6.993c1.972-2.214,4.896-3.477,7.897-3.435
				c1.427,0,5.063,0.351,7.747,3.514c0.551,0.673,0.908,1.188,1.66,2.649V87.688z M601.486,104.006
				c2.531,3.001,5.929,3.356,7.314,3.356c1.262,0,2.451-0.277,3.594-0.712c3.594-1.5,5.887-4.974,5.887-8.927
				c0-3.039-1.386-5.137-2.098-5.966c-1.773-2.212-4.578-3.558-7.425-3.558c-3.001,0-5.058,1.422-5.888,2.098
				c-3.201,2.488-3.635,6.004-3.635,7.385C599.197,99.975,600.027,102.229,601.486,104.006z"/>
			<path fill="#FFFFFF" d="M608.718,108.83c-1.578,0-3.095-0.339-4.504-1.003c-3.933-1.78-6.481-5.746-6.481-10.103
				c0-2.668,1.032-5.354,2.832-7.364c2.052-2.299,5.031-3.62,8.171-3.62h0.148c1.498,0,5.312,0.364,8.156,3.714
				c0.256,0.305,0.468,0.579,0.685,0.91v-4.227h2.101l-0.006,1.502l0.006,19.794h-2.101v-4.225c-0.248,0.367-0.471,0.655-0.726,0.95
				C616.261,106.017,613.478,108.83,608.718,108.83z M608.758,88.756c-2.702,0-4.629,1.231-5.538,1.97
				c-3.183,2.476-3.432,5.952-3.432,6.957c-0.037,2.142,0.719,4.259,2.124,5.972c2.401,2.848,5.613,3.157,6.888,3.157
				c1.09,0,2.202-0.223,3.397-0.676c3.353-1.401,5.527-4.706,5.527-8.412c0-3.076-1.501-5.067-1.96-5.607
				C614.069,90.005,611.455,88.756,608.758,88.756z M618.712,99.297c-0.098,0.642-0.252,1.269-0.462,1.867l0.462-0.812V99.297z
				 M617.991,93.66c0.302,0.699,0.573,1.538,0.722,2.503v-2.678L617.991,93.66z"/>
		</g>
		<g>
			<path fill="#FFFFFF" d="M628.553,92.156c0.435-0.833,0.831-1.506,1.028-1.737c1.895-2.531,5.136-2.73,5.967-2.806v0.983
				c-1.818,0.196-3.043,0.396-4.465,1.583c-2.375,2.013-2.45,4.857-2.53,5.807v10.944h3.753v0.908h-7.928v-0.908h3.229V88.596h-3.27
				v-0.83h4.216V92.156z"/>
			<path fill="#FFFFFF" d="M632.861,108.392h-9.036v-2.017h3.226V89.152h-3.266v-1.939h5.322v2.912
				c0.018-0.021,0.031-0.044,0.049-0.065c1.955-2.606,5.179-2.895,6.236-2.989l0.709-0.065v2.091l-0.494,0.052
				c-1.725,0.187-2.85,0.357-4.17,1.456c-2.051,1.741-2.24,4.188-2.32,5.233l-0.012,0.197l0.002,10.342h3.754V108.392z
				 M628.159,92.192v2.29c0.106-0.632,0.288-1.372,0.626-2.135L628.159,92.192z"/>
		</g>
		<g>
			<path fill="#FFFFFF" d="M638.329,97.766c0.118,1.184,0.157,3.235,1.819,5.529c1.773,2.486,4.66,4.067,7.824,4.067
				c3.592,0,5.962-1.895,6.834-2.766c0.902-0.869,1.578-2.134,1.773-2.408h1.027c-0.943,1.658-1.42,2.331-2.092,3.001
				c-1.936,1.976-4.822,3.086-7.623,3.086c-1.268,0-3.955-0.237-6.561-2.375c-1.268-1.026-3.872-3.712-3.872-8.257
				c0-2.016,0.551-3.395,0.869-4.104c1.696-3.954,5.411-6.363,9.759-6.363c1.344,0,2.527,0.232,3.713,0.67
				c2.804,1.066,5.059,3.477,6.084,6.243c0.395,1.023,0.553,1.661,0.713,3.677H638.329z M657.607,96.894
				c-0.313-1.977-0.555-2.645-1.027-3.557c-1.539-3.079-5.057-5.212-8.607-5.212c-3.643,0-7.075,2.133-8.658,5.37
				c-0.668,1.422-0.905,2.927-0.985,3.398H657.607z"/>
			<path fill="#FFFFFF" d="M647.892,108.83c-1.764,0-4.393-0.435-6.91-2.499c-1.226-0.996-4.078-3.835-4.078-8.687
				c0-2.033,0.524-3.446,0.919-4.331c1.776-4.125,5.708-6.69,10.265-6.69c1.355,0,2.596,0.227,3.904,0.703
				c2.899,1.104,5.292,3.557,6.412,6.57c0.416,1.083,0.584,1.791,0.742,3.827l0.047,0.597h-20.26
				c0.109,1.169,0.337,2.827,1.658,4.653c1.721,2.403,4.476,3.839,7.381,3.839c3.557,0,5.83-1.995,6.44-2.604
				c0.667-0.641,1.213-1.53,1.507-2.007c0.092-0.152,0.164-0.27,0.213-0.336l0.164-0.229h2.268l-0.477,0.826
				c-0.975,1.703-1.461,2.4-2.186,3.119C653.917,107.614,650.919,108.83,647.892,108.83z M638.991,96.34h17.964
				c-0.269-1.48-0.493-2.031-0.865-2.749c-1.447-2.895-4.786-4.914-8.117-4.914c-3.406,0-6.682,2.035-8.158,5.062
				C639.365,94.685,639.123,95.67,638.991,96.34z"/>
		</g>
		<g>
			<path fill="#FFFFFF" d="M668.042,88.677h-4.232c0.439,0.987,0.871,1.973,1.268,2.962c0.75,1.938,1.459,3.911,2.25,5.889
				c1.227,3.278,2.53,6.519,3.873,9.719l7.785-18.529h-4.151v-0.951h8.812v0.951h-3.674l-10.98,25.918h3.908v0.867h-8.811v-0.867
				h3.988l2.611-6.322l-7.707-19.521h-3.869v-1.026h8.93V88.677z"/>
			<path fill="#FFFFFF" d="M673.453,116.055h-9.916v-1.973h4.172l2.382-5.775l-7.481-18.958h-4.053v-2.137h10.039v2.018h-3.937
				c0.333,0.765,0.643,1.482,0.931,2.204c0.307,0.786,0.604,1.572,0.899,2.364c0.44,1.169,0.884,2.345,1.355,3.524
				c0.983,2.637,2.086,5.425,3.356,8.49l6.95-16.543h-3.87v-2.058h9.919v2.058h-3.863l-10.51,24.813h3.626V116.055z"/>
		</g>
	</g>
</g>
<line fill="none" stroke="#FFFFFF" stroke-width="0.75" stroke-miterlimit="10" x1="8.324" y1="61.804" x2="688.175" y2="61.804"/>
<g>
	<path fill="#FFFFFF" d="M17.375,91.594c-0.288-1.319-1.379-2.075-2.626-2.075c-2.267,0-3.226,1.896-3.226,3.767
		c0,1.87,0.959,3.766,3.226,3.766c1.583,0,2.59-1.224,2.747-2.746h0.815c-0.228,2.099-1.559,3.441-3.562,3.441
		c-2.699,0-4.042-2.123-4.042-4.461c0-2.339,1.343-4.462,4.042-4.462c1.619,0,3.226,0.972,3.442,2.771H17.375z"/>
	<path fill="#FFFFFF" d="M19.419,91.378h0.695v1.451h0.024c0.384-0.995,1.223-1.583,2.338-1.535v0.756
		c-1.367-0.072-2.303,0.936-2.303,2.219v3.298h-0.755V91.378z"/>
	<path fill="#FFFFFF" d="M23.427,94.676c0.012,1.104,0.587,2.435,2.039,2.435c1.104,0,1.703-0.647,1.943-1.583h0.756
		c-0.324,1.403-1.14,2.219-2.699,2.219c-1.967,0-2.794-1.511-2.794-3.274c0-1.631,0.828-3.273,2.794-3.273
		c1.991,0,2.783,1.738,2.723,3.478H23.427z M27.432,94.041c-0.036-1.139-0.743-2.206-1.967-2.206c-1.235,0-1.919,1.079-2.039,2.206
		H27.432z"/>
	<path fill="#FFFFFF" d="M29.139,93.273c0.072-1.451,1.092-2.074,2.507-2.074c1.091,0,2.279,0.336,2.279,1.99v3.286
		c0,0.288,0.144,0.456,0.444,0.456c0.084,0,0.18-0.023,0.24-0.048v0.636c-0.168,0.036-0.288,0.048-0.492,0.048
		c-0.768,0-0.888-0.432-0.888-1.079h-0.024c-0.528,0.804-1.067,1.259-2.255,1.259c-1.139,0-2.075-0.563-2.075-1.811
		c0-1.739,1.691-1.799,3.322-1.991c0.624-0.072,0.971-0.156,0.971-0.84c0-1.02-0.731-1.271-1.619-1.271
		c-0.935,0-1.631,0.432-1.655,1.438H29.139z M33.168,94.185h-0.024c-0.096,0.18-0.432,0.239-0.636,0.275
		c-1.283,0.228-2.878,0.216-2.878,1.428c0,0.755,0.672,1.223,1.379,1.223c1.151,0,2.171-0.731,2.159-1.942V94.185z"/>
	<path fill="#FFFFFF" d="M36.638,91.378h1.259v0.636h-1.259v4.174c0,0.491,0.072,0.779,0.612,0.815c0.216,0,0.432-0.013,0.647-0.036
		v0.647c-0.228,0-0.444,0.024-0.671,0.024c-1.008,0-1.355-0.336-1.343-1.392v-4.233h-1.08v-0.636h1.08v-1.859h0.755V91.378z"/>
	<path fill="#FFFFFF" d="M39.435,94.676c0.012,1.104,0.587,2.435,2.039,2.435c1.104,0,1.703-0.647,1.943-1.583h0.756
		c-0.324,1.403-1.14,2.219-2.699,2.219c-1.967,0-2.794-1.511-2.794-3.274c0-1.631,0.828-3.273,2.794-3.273
		c1.991,0,2.783,1.738,2.723,3.478H39.435z M43.44,94.041c-0.036-1.139-0.743-2.206-1.967-2.206c-1.235,0-1.919,1.079-2.039,2.206
		H43.44z"/>
	<path fill="#FFFFFF" d="M50.664,97.567h-0.696v-1.176h-0.024c-0.324,0.804-1.307,1.355-2.207,1.355
		c-1.883,0-2.783-1.523-2.783-3.274s0.9-3.273,2.783-3.273c0.923,0,1.823,0.468,2.147,1.354h0.024v-3.55h0.755V97.567z
		 M47.737,97.111c1.607,0,2.171-1.354,2.171-2.639c0-1.283-0.564-2.638-2.171-2.638c-1.439,0-2.027,1.354-2.027,2.638
		C45.71,95.756,46.298,97.111,47.737,97.111z"/>
	<path fill="#FFFFFF" d="M55.442,89.003h0.755v3.55h0.024c0.324-0.887,1.224-1.354,2.147-1.354c1.883,0,2.783,1.522,2.783,3.273
		s-0.9,3.274-2.783,3.274c-0.996,0-1.859-0.516-2.207-1.355h-0.024v1.176h-0.695V89.003z M58.369,91.834
		c-1.607,0-2.171,1.354-2.171,2.638c0,1.284,0.564,2.639,2.171,2.639c1.439,0,2.027-1.354,2.027-2.639
		C60.396,93.189,59.808,91.834,58.369,91.834z"/>
	<path fill="#FFFFFF" d="M61.634,91.378h0.804l2.039,5.277l1.907-5.277h0.755l-2.687,7.136c-0.432,1.044-0.684,1.344-1.631,1.344
		c-0.3-0.013-0.456-0.013-0.576-0.061v-0.636c0.18,0.036,0.348,0.061,0.516,0.061c0.672,0,0.828-0.396,1.08-0.972l0.264-0.708
		L61.634,91.378z"/>
	<path fill="#FFFFFF" d="M77.626,91.594c-0.288-1.319-1.379-2.075-2.626-2.075c-2.267,0-3.226,1.896-3.226,3.767
		c0,1.87,0.959,3.766,3.226,3.766c1.583,0,2.59-1.224,2.747-2.746h0.815c-0.228,2.099-1.559,3.441-3.562,3.441
		c-2.699,0-4.042-2.123-4.042-4.461c0-2.339,1.343-4.462,4.042-4.462c1.619,0,3.226,0.972,3.442,2.771H77.626z"/>
	<path fill="#FFFFFF" d="M79.598,93.273c0.072-1.451,1.092-2.074,2.507-2.074c1.091,0,2.279,0.336,2.279,1.99v3.286
		c0,0.288,0.144,0.456,0.444,0.456c0.084,0,0.18-0.023,0.24-0.048v0.636c-0.168,0.036-0.288,0.048-0.492,0.048
		c-0.768,0-0.888-0.432-0.888-1.079h-0.024c-0.528,0.804-1.067,1.259-2.255,1.259c-1.139,0-2.075-0.563-2.075-1.811
		c0-1.739,1.691-1.799,3.322-1.991c0.624-0.072,0.971-0.156,0.971-0.84c0-1.02-0.731-1.271-1.619-1.271
		c-0.935,0-1.631,0.432-1.655,1.438H79.598z M83.627,94.185h-0.024c-0.096,0.18-0.432,0.239-0.636,0.275
		c-1.283,0.228-2.878,0.216-2.878,1.428c0,0.755,0.672,1.223,1.379,1.223c1.151,0,2.171-0.731,2.159-1.942V94.185z"/>
	<path fill="#FFFFFF" d="M85.898,91.378h0.695v1.451h0.024c0.384-0.995,1.224-1.583,2.339-1.535v0.756
		c-1.367-0.072-2.303,0.936-2.303,2.219v3.298h-0.755V91.378z"/>
	<path fill="#FFFFFF" d="M89.906,94.676c0.012,1.104,0.587,2.435,2.039,2.435c1.104,0,1.703-0.647,1.943-1.583h0.756
		c-0.324,1.403-1.14,2.219-2.699,2.219c-1.967,0-2.794-1.511-2.794-3.274c0-1.631,0.828-3.273,2.794-3.273
		c1.991,0,2.783,1.738,2.723,3.478H89.906z M93.911,94.041c-0.036-1.139-0.743-2.206-1.967-2.206c-1.235,0-1.919,1.079-2.039,2.206
		H93.911z"/>
	<path fill="#FFFFFF" d="M94.994,91.378h0.804l2.039,5.277l1.907-5.277h0.755l-2.687,7.136c-0.432,1.044-0.684,1.344-1.631,1.344
		c-0.3-0.013-0.456-0.013-0.576-0.061v-0.636c0.18,0.036,0.348,0.061,0.516,0.061c0.671,0,0.828-0.396,1.08-0.972l0.264-0.708
		L94.994,91.378z"/>
	<path fill="#FFFFFF" d="M101.534,90.515h-0.611l1.259-1.691h0.936L101.534,90.515z"/>
	<path fill="#FFFFFF" d="M107.172,93.189c-0.036-0.936-0.756-1.354-1.619-1.354c-0.672,0-1.463,0.264-1.463,1.067
		c0,0.671,0.768,0.911,1.283,1.043l1.007,0.228c0.864,0.133,1.763,0.636,1.763,1.716c0,1.343-1.331,1.858-2.482,1.858
		c-1.439,0-2.423-0.672-2.543-2.183h0.756c0.06,1.02,0.815,1.547,1.823,1.547c0.708,0,1.691-0.312,1.691-1.175
		c0-0.72-0.672-0.96-1.355-1.128l-0.971-0.216c-0.984-0.264-1.727-0.6-1.727-1.655c0-1.259,1.235-1.738,2.327-1.738
		c1.235,0,2.219,0.647,2.267,1.99H107.172z"/>
	<path fill="#FFFFFF" d="M118.978,91.594c-0.288-1.319-1.379-2.075-2.626-2.075c-2.267,0-3.226,1.896-3.226,3.767
		c0,1.87,0.959,3.766,3.226,3.766c1.583,0,2.59-1.224,2.747-2.746h0.815c-0.228,2.099-1.559,3.441-3.562,3.441
		c-2.699,0-4.042-2.123-4.042-4.461c0-2.339,1.343-4.462,4.042-4.462c1.619,0,3.226,0.972,3.442,2.771H118.978z"/>
	<path fill="#FFFFFF" d="M126.563,94.472c0,1.775-1.032,3.274-2.927,3.274c-1.895,0-2.926-1.499-2.926-3.274
		c0-1.774,1.032-3.273,2.926-3.273C125.531,91.199,126.563,92.698,126.563,94.472z M121.465,94.472c0,1.319,0.719,2.639,2.17,2.639
		s2.171-1.319,2.171-2.639s-0.72-2.638-2.171-2.638S121.465,93.153,121.465,94.472z"/>
	<path fill="#FFFFFF" d="M127.693,91.378h0.695v1.043h0.036c0.396-0.743,1.043-1.223,2.027-1.223c0.815,0,1.547,0.396,1.775,1.211
		c0.372-0.815,1.151-1.211,1.967-1.211c1.355,0,2.051,0.707,2.051,2.171v4.197h-0.756v-4.162c0-1.02-0.384-1.57-1.463-1.57
		c-1.308,0-1.679,1.079-1.679,2.23v3.502h-0.755V93.37c0.012-0.84-0.336-1.535-1.295-1.535c-1.308,0-1.835,0.983-1.847,2.278v3.454
		h-0.755V91.378z"/>
	<path fill="#FFFFFF" d="M137.689,91.378h0.695v1.043h0.036c0.396-0.743,1.043-1.223,2.027-1.223c0.815,0,1.547,0.396,1.775,1.211
		c0.372-0.815,1.151-1.211,1.967-1.211c1.355,0,2.051,0.707,2.051,2.171v4.197h-0.756v-4.162c0-1.02-0.384-1.57-1.463-1.57
		c-1.308,0-1.679,1.079-1.679,2.23v3.502h-0.755V93.37c0.012-0.84-0.336-1.535-1.295-1.535c-1.308,0-1.835,0.983-1.847,2.278v3.454
		h-0.755V91.378z"/>
	<path fill="#FFFFFF" d="M152.699,97.567h-0.696v-1.115h-0.024c-0.396,0.827-1.211,1.295-2.135,1.295
		c-1.559,0-2.171-0.911-2.171-2.351v-4.018h0.756v4.029c0.036,1.116,0.456,1.703,1.655,1.703c1.295,0,1.859-1.223,1.859-2.482v-3.25
		h0.756V97.567z"/>
	<path fill="#FFFFFF" d="M154.117,91.378h0.756v1.067h0.024c0.276-0.744,1.103-1.247,1.979-1.247c1.739,0,2.267,0.911,2.267,2.387
		v3.981h-0.756v-3.862c0-1.067-0.348-1.87-1.571-1.87c-1.2,0-1.919,0.911-1.943,2.122v3.61h-0.756V91.378z"/>
	<path fill="#FFFFFF" d="M160.585,89.003h0.756v1.212h-0.756V89.003z M160.585,91.378h0.756v6.188h-0.756V91.378z"/>
	<path fill="#FFFFFF" d="M167.158,93.321c-0.204-0.923-0.768-1.486-1.751-1.486c-1.451,0-2.17,1.318-2.17,2.638
		s0.719,2.639,2.17,2.639c0.936,0,1.703-0.731,1.799-1.763h0.755c-0.204,1.487-1.175,2.398-2.555,2.398
		c-1.895,0-2.926-1.499-2.926-3.274c0-1.774,1.032-3.273,2.926-3.273c1.319,0,2.339,0.707,2.507,2.122H167.158z"/>
	<path fill="#FFFFFF" d="M168.949,93.273c0.072-1.451,1.092-2.074,2.507-2.074c1.091,0,2.279,0.336,2.279,1.99v3.286
		c0,0.288,0.144,0.456,0.444,0.456c0.084,0,0.18-0.023,0.24-0.048v0.636c-0.168,0.036-0.288,0.048-0.492,0.048
		c-0.768,0-0.888-0.432-0.888-1.079h-0.024c-0.528,0.804-1.067,1.259-2.255,1.259c-1.139,0-2.075-0.563-2.075-1.811
		c0-1.739,1.691-1.799,3.322-1.991c0.624-0.072,0.971-0.156,0.971-0.84c0-1.02-0.731-1.271-1.619-1.271
		c-0.935,0-1.631,0.432-1.655,1.438H168.949z M172.979,94.185h-0.024c-0.096,0.18-0.432,0.239-0.636,0.275
		c-1.283,0.228-2.878,0.216-2.878,1.428c0,0.755,0.672,1.223,1.379,1.223c1.151,0,2.171-0.731,2.159-1.942V94.185z"/>
	<path fill="#FFFFFF" d="M176.448,91.378h1.259v0.636h-1.259v4.174c0,0.491,0.072,0.779,0.612,0.815
		c0.216,0,0.432-0.013,0.647-0.036v0.647c-0.228,0-0.444,0.024-0.671,0.024c-1.008,0-1.355-0.336-1.343-1.392v-4.233h-1.08v-0.636
		h1.08v-1.859h0.755V91.378z"/>
	<path fill="#FFFFFF" d="M178.813,89.003h0.756v1.212h-0.756V89.003z M178.813,91.378h0.756v6.188h-0.756V91.378z"/>
	<path fill="#FFFFFF" d="M186.562,94.472c0,1.775-1.032,3.274-2.927,3.274c-1.895,0-2.926-1.499-2.926-3.274
		c0-1.774,1.032-3.273,2.926-3.273C185.53,91.199,186.562,92.698,186.562,94.472z M181.464,94.472c0,1.319,0.719,2.639,2.17,2.639
		s2.171-1.319,2.171-2.639s-0.72-2.638-2.171-2.638S181.464,93.153,181.464,94.472z"/>
	<path fill="#FFFFFF" d="M187.68,91.378h0.756v1.067h0.024c0.276-0.744,1.104-1.247,1.979-1.247c1.739,0,2.267,0.911,2.267,2.387
		v3.981h-0.756v-3.862c0-1.067-0.348-1.87-1.571-1.87c-1.199,0-1.919,0.911-1.943,2.122v3.61h-0.756V91.378z"/>
	<path fill="#FFFFFF" d="M197.842,93.189c-0.036-0.936-0.756-1.354-1.619-1.354c-0.672,0-1.463,0.264-1.463,1.067
		c0,0.671,0.768,0.911,1.283,1.043l1.007,0.228c0.864,0.133,1.763,0.636,1.763,1.716c0,1.343-1.331,1.858-2.482,1.858
		c-1.439,0-2.423-0.672-2.543-2.183h0.756c0.06,1.02,0.815,1.547,1.823,1.547c0.708,0,1.691-0.312,1.691-1.175
		c0-0.72-0.672-0.96-1.355-1.128l-0.971-0.216c-0.984-0.264-1.727-0.6-1.727-1.655c0-1.259,1.235-1.738,2.327-1.738
		c1.235,0,2.219,0.647,2.267,1.99H197.842z"/>
	<path fill="#FFFFFF" d="M203.172,93.273c0.072-1.451,1.092-2.074,2.507-2.074c1.091,0,2.279,0.336,2.279,1.99v3.286
		c0,0.288,0.144,0.456,0.444,0.456c0.084,0,0.18-0.023,0.24-0.048v0.636c-0.168,0.036-0.288,0.048-0.492,0.048
		c-0.768,0-0.888-0.432-0.888-1.079h-0.024c-0.528,0.804-1.067,1.259-2.255,1.259c-1.139,0-2.075-0.563-2.075-1.811
		c0-1.739,1.691-1.799,3.322-1.991c0.624-0.072,0.971-0.156,0.971-0.84c0-1.02-0.731-1.271-1.619-1.271
		c-0.935,0-1.631,0.432-1.655,1.438H203.172z M207.202,94.185h-0.024c-0.096,0.18-0.432,0.239-0.636,0.275
		c-1.283,0.228-2.878,0.216-2.878,1.428c0,0.755,0.672,1.223,1.379,1.223c1.151,0,2.171-0.731,2.159-1.942V94.185z"/>
	<path fill="#FFFFFF" d="M209.46,91.378h0.756v1.067h0.024c0.276-0.744,1.103-1.247,1.979-1.247c1.739,0,2.267,0.911,2.267,2.387
		v3.981h-0.756v-3.862c0-1.067-0.348-1.87-1.571-1.87c-1.2,0-1.919,0.911-1.943,2.122v3.61h-0.756V91.378z"/>
	<path fill="#FFFFFF" d="M221.361,97.567h-0.696v-1.176h-0.024c-0.324,0.804-1.307,1.355-2.207,1.355
		c-1.883,0-2.783-1.523-2.783-3.274s0.9-3.273,2.783-3.273c0.923,0,1.823,0.468,2.147,1.354h0.024v-3.55h0.755V97.567z
		 M218.435,97.111c1.607,0,2.171-1.354,2.171-2.639c0-1.283-0.564-2.638-2.171-2.638c-1.439,0-2.027,1.354-2.027,2.638
		C216.408,95.756,216.995,97.111,218.435,97.111z"/>
	<path fill="#FFFFFF" d="M226.283,89.003h2.962c2.579,0.061,3.934,1.476,3.934,4.282c0,2.806-1.355,4.222-3.934,4.281h-2.962V89.003
		z M227.099,96.872h1.739c2.459,0.012,3.526-1.031,3.526-3.586s-1.067-3.599-3.526-3.586h-1.739V96.872z"/>
	<path fill="#FFFFFF" d="M234.803,94.676c0.012,1.104,0.587,2.435,2.039,2.435c1.104,0,1.703-0.647,1.943-1.583h0.756
		c-0.324,1.403-1.14,2.219-2.699,2.219c-1.967,0-2.794-1.511-2.794-3.274c0-1.631,0.828-3.273,2.794-3.273
		c1.991,0,2.783,1.738,2.723,3.478H234.803z M238.809,94.041c-0.036-1.139-0.743-2.206-1.967-2.206
		c-1.235,0-1.919,1.079-2.039,2.206H238.809z"/>
	<path fill="#FFFFFF" d="M244.293,93.189c-0.036-0.936-0.756-1.354-1.619-1.354c-0.672,0-1.463,0.264-1.463,1.067
		c0,0.671,0.768,0.911,1.283,1.043l1.007,0.228c0.864,0.133,1.763,0.636,1.763,1.716c0,1.343-1.331,1.858-2.482,1.858
		c-1.439,0-2.423-0.672-2.543-2.183h0.756c0.06,1.02,0.815,1.547,1.823,1.547c0.708,0,1.691-0.312,1.691-1.175
		c0-0.72-0.672-0.96-1.355-1.128l-0.971-0.216c-0.984-0.264-1.727-0.6-1.727-1.655c0-1.259,1.235-1.738,2.327-1.738
		c1.235,0,2.219,0.647,2.267,1.99H244.293z"/>
	<path fill="#FFFFFF" d="M246.371,89.003h0.756v1.212h-0.756V89.003z M246.371,91.378h0.756v6.188h-0.756V91.378z"/>
	<path fill="#FFFFFF" d="M253.808,97.063c-0.012,1.848-0.72,2.975-2.747,2.975c-1.235,0-2.458-0.552-2.566-1.871h0.755
		c0.168,0.911,0.972,1.235,1.811,1.235c1.391,0,1.991-0.827,1.991-2.339v-0.84h-0.024c-0.348,0.756-1.079,1.271-1.967,1.271
		c-1.979,0-2.794-1.415-2.794-3.178c0-1.703,1.007-3.118,2.794-3.118c0.899,0,1.667,0.563,1.967,1.247h0.024v-1.067h0.755V97.063z
		 M253.053,94.401c0-1.212-0.564-2.566-1.991-2.566c-1.439,0-2.039,1.283-2.039,2.566c0,1.247,0.647,2.458,2.039,2.458
		C252.369,96.859,253.053,95.66,253.053,94.401z"/>
	<path fill="#FFFFFF" d="M255.239,91.378h0.756v1.067h0.024c0.276-0.744,1.104-1.247,1.979-1.247c1.739,0,2.267,0.911,2.267,2.387
		v3.981h-0.756v-3.862c0-1.067-0.348-1.87-1.571-1.87c-1.199,0-1.919,0.911-1.943,2.122v3.61h-0.756V91.378z"/>
	<path fill="#FFFFFF" d="M265.175,89.003h2.962c2.579,0.061,3.934,1.476,3.934,4.282c0,2.806-1.355,4.222-3.934,4.281h-2.962V89.003
		z M265.99,96.872h1.739c2.459,0.012,3.526-1.031,3.526-3.586s-1.067-3.599-3.526-3.586h-1.739V96.872z"/>
	<path fill="#FFFFFF" d="M273.695,94.676c0.012,1.104,0.587,2.435,2.039,2.435c1.104,0,1.703-0.647,1.943-1.583h0.756
		c-0.324,1.403-1.14,2.219-2.699,2.219c-1.967,0-2.794-1.511-2.794-3.274c0-1.631,0.828-3.273,2.794-3.273
		c1.991,0,2.783,1.738,2.723,3.478H273.695z M277.7,94.041c-0.036-1.139-0.743-2.206-1.967-2.206c-1.235,0-1.919,1.079-2.039,2.206
		H277.7z"/>
	<path fill="#FFFFFF" d="M279.479,91.378h0.695v1.175h0.024c0.348-0.839,1.211-1.354,2.207-1.354c1.883,0,2.782,1.522,2.782,3.273
		s-0.899,3.274-2.782,3.274c-0.923,0-1.823-0.468-2.147-1.355h-0.024v3.467h-0.755V91.378z M282.405,91.834
		c-1.667,0-2.171,1.235-2.171,2.638c0,1.284,0.564,2.639,2.171,2.639c1.439,0,2.027-1.354,2.027-2.639
		C284.432,93.189,283.845,91.834,282.405,91.834z"/>
	<path fill="#FFFFFF" d="M286.294,93.273c0.072-1.451,1.092-2.074,2.507-2.074c1.091,0,2.279,0.336,2.279,1.99v3.286
		c0,0.288,0.144,0.456,0.444,0.456c0.084,0,0.18-0.023,0.24-0.048v0.636c-0.168,0.036-0.288,0.048-0.492,0.048
		c-0.768,0-0.888-0.432-0.888-1.079h-0.024c-0.528,0.804-1.067,1.259-2.255,1.259c-1.139,0-2.075-0.563-2.075-1.811
		c0-1.739,1.691-1.799,3.322-1.991c0.624-0.072,0.971-0.156,0.971-0.84c0-1.02-0.731-1.271-1.619-1.271
		c-0.935,0-1.631,0.432-1.655,1.438H286.294z M290.324,94.185H290.3c-0.096,0.18-0.432,0.239-0.636,0.275
		c-1.283,0.228-2.878,0.216-2.878,1.428c0,0.755,0.672,1.223,1.379,1.223c1.151,0,2.171-0.731,2.159-1.942V94.185z"/>
	<path fill="#FFFFFF" d="M292.595,91.378h0.695v1.451h0.024c0.384-0.995,1.223-1.583,2.338-1.535v0.756
		c-1.367-0.072-2.303,0.936-2.303,2.219v3.298h-0.755V91.378z"/>
	<path fill="#FFFFFF" d="M297.574,91.378h1.259v0.636h-1.259v4.174c0,0.491,0.072,0.779,0.612,0.815
		c0.216,0,0.432-0.013,0.647-0.036v0.647c-0.228,0-0.444,0.024-0.671,0.024c-1.008,0-1.355-0.336-1.343-1.392v-4.233h-1.08v-0.636
		h1.08v-1.859h0.755V91.378z"/>
	<path fill="#FFFFFF" d="M299.926,91.378h0.695v1.043h0.036c0.396-0.743,1.043-1.223,2.027-1.223c0.815,0,1.547,0.396,1.775,1.211
		c0.372-0.815,1.151-1.211,1.967-1.211c1.355,0,2.051,0.707,2.051,2.171v4.197h-0.756v-4.162c0-1.02-0.384-1.57-1.463-1.57
		c-1.308,0-1.679,1.079-1.679,2.23v3.502h-0.755V93.37c0.012-0.84-0.336-1.535-1.295-1.535c-1.307,0-1.835,0.983-1.847,2.278v3.454
		h-0.755V91.378z"/>
	<path fill="#FFFFFF" d="M310.366,94.676c0.012,1.104,0.587,2.435,2.039,2.435c1.104,0,1.703-0.647,1.943-1.583h0.756
		c-0.324,1.403-1.14,2.219-2.699,2.219c-1.967,0-2.794-1.511-2.794-3.274c0-1.631,0.828-3.273,2.794-3.273
		c1.991,0,2.783,1.738,2.723,3.478H310.366z M314.372,94.041c-0.036-1.139-0.743-2.206-1.967-2.206
		c-1.235,0-1.919,1.079-2.039,2.206H314.372z"/>
	<path fill="#FFFFFF" d="M316.138,91.378h0.756v1.067h0.024c0.276-0.744,1.104-1.247,1.979-1.247c1.739,0,2.267,0.911,2.267,2.387
		v3.981h-0.756v-3.862c0-1.067-0.348-1.87-1.571-1.87c-1.199,0-1.919,0.911-1.943,2.122v3.61h-0.756V91.378z"/>
	<path fill="#FFFFFF" d="M323.793,91.378h1.259v0.636h-1.259v4.174c0,0.491,0.072,0.779,0.612,0.815
		c0.216,0,0.432-0.013,0.647-0.036v0.647c-0.228,0-0.444,0.024-0.671,0.024c-1.008,0-1.355-0.336-1.343-1.392v-4.233h-1.08v-0.636
		h1.08v-1.859h0.755V91.378z"/>
	<path fill="#FFFFFF" d="M327.597,96.295v1.283c-0.012,0.696-0.336,1.428-1.056,1.632v-0.517c0.396-0.144,0.576-0.731,0.552-1.127
		h-0.503v-1.271H327.597z"/>
	<path fill="#FFFFFF" d="M333.346,94.749c-0.036,1.763,1.235,2.303,2.794,2.303c0.899,0,2.267-0.492,2.267-1.739
		c0-0.972-0.972-1.355-1.763-1.547l-1.907-0.468c-1.007-0.252-1.931-0.731-1.931-2.063c0-0.84,0.54-2.411,2.951-2.411
		c1.691,0,3.178,0.911,3.166,2.662h-0.815c-0.048-1.307-1.127-1.967-2.339-1.967c-1.115,0-2.147,0.432-2.147,1.703
		c0,0.804,0.6,1.14,1.295,1.308l2.087,0.516c1.211,0.324,2.219,0.852,2.219,2.255c0,0.588-0.24,2.446-3.274,2.446
		c-2.027,0-3.514-0.911-3.418-2.998H333.346z"/>
	<path fill="#FFFFFF" d="M340.306,93.273c0.072-1.451,1.092-2.074,2.507-2.074c1.091,0,2.279,0.336,2.279,1.99v3.286
		c0,0.288,0.144,0.456,0.444,0.456c0.084,0,0.18-0.023,0.24-0.048v0.636c-0.168,0.036-0.288,0.048-0.492,0.048
		c-0.768,0-0.888-0.432-0.888-1.079h-0.024c-0.528,0.804-1.067,1.259-2.255,1.259c-1.139,0-2.075-0.563-2.075-1.811
		c0-1.739,1.691-1.799,3.322-1.991c0.624-0.072,0.971-0.156,0.971-0.84c0-1.02-0.731-1.271-1.619-1.271
		c-0.935,0-1.631,0.432-1.655,1.438H340.306z M344.335,94.185h-0.024c-0.096,0.18-0.432,0.239-0.636,0.275
		c-1.283,0.228-2.878,0.216-2.878,1.428c0,0.755,0.672,1.223,1.379,1.223c1.151,0,2.171-0.731,2.159-1.942V94.185z"/>
	<path fill="#FFFFFF" d="M346.594,91.378h0.756v1.067h0.024c0.276-0.744,1.103-1.247,1.979-1.247c1.738,0,2.266,0.911,2.266,2.387
		v3.981h-0.756v-3.862c0-1.067-0.348-1.87-1.57-1.87c-1.2,0-1.919,0.911-1.943,2.122v3.61h-0.756V91.378z"/>
	<path fill="#FFFFFF" d="M354.25,91.378h1.259v0.636h-1.259v4.174c0,0.491,0.071,0.779,0.611,0.815c0.216,0,0.432-0.013,0.647-0.036
		v0.647c-0.228,0-0.444,0.024-0.671,0.024c-1.008,0-1.355-0.336-1.344-1.392v-4.233h-1.08v-0.636h1.08v-1.859h0.756V91.378z"/>
	<path fill="#FFFFFF" d="M356.613,89.003h0.756v1.212h-0.756V89.003z M356.613,91.378h0.756v6.188h-0.756V91.378z"/>
	<path fill="#FFFFFF" d="M358.75,93.273c0.072-1.451,1.092-2.074,2.506-2.074c1.092,0,2.279,0.336,2.279,1.99v3.286
		c0,0.288,0.145,0.456,0.443,0.456c0.084,0,0.18-0.023,0.24-0.048v0.636c-0.168,0.036-0.288,0.048-0.492,0.048
		c-0.768,0-0.887-0.432-0.887-1.079h-0.024c-0.528,0.804-1.067,1.259-2.255,1.259c-1.139,0-2.074-0.563-2.074-1.811
		c0-1.739,1.69-1.799,3.322-1.991c0.623-0.072,0.971-0.156,0.971-0.84c0-1.02-0.731-1.271-1.619-1.271
		c-0.936,0-1.631,0.432-1.654,1.438H358.75z M362.779,94.185h-0.023c-0.096,0.18-0.432,0.239-0.637,0.275
		c-1.283,0.228-2.878,0.216-2.878,1.428c0,0.755,0.672,1.223,1.38,1.223c1.15,0,2.17-0.731,2.158-1.942V94.185z"/>
	<path fill="#FFFFFF" d="M370.279,97.063c-0.013,1.848-0.721,2.975-2.747,2.975c-1.235,0-2.458-0.552-2.566-1.871h0.755
		c0.168,0.911,0.973,1.235,1.812,1.235c1.392,0,1.991-0.827,1.991-2.339v-0.84h-0.024c-0.348,0.756-1.079,1.271-1.967,1.271
		c-1.979,0-2.794-1.415-2.794-3.178c0-1.703,1.007-3.118,2.794-3.118c0.899,0,1.667,0.563,1.967,1.247h0.024v-1.067h0.756V97.063z
		 M369.523,94.401c0-1.212-0.564-2.566-1.991-2.566c-1.438,0-2.038,1.283-2.038,2.566c0,1.247,0.646,2.458,2.038,2.458
		C368.839,96.859,369.523,95.66,369.523,94.401z"/>
	<path fill="#FFFFFF" d="M377.262,94.472c0,1.775-1.032,3.274-2.927,3.274s-2.926-1.499-2.926-3.274
		c0-1.774,1.031-3.273,2.926-3.273S377.262,92.698,377.262,94.472z M372.166,94.472c0,1.319,0.719,2.639,2.17,2.639
		s2.171-1.319,2.171-2.639s-0.72-2.638-2.171-2.638S372.166,93.153,372.166,94.472z"/>
	<path fill="#FFFFFF" d="M379.844,96.295v1.283c-0.013,0.696-0.336,1.428-1.056,1.632v-0.517c0.396-0.144,0.576-0.731,0.552-1.127
		h-0.503v-1.271H379.844z"/>
	<path fill="#FFFFFF" d="M391.469,91.594c-0.288-1.319-1.38-2.075-2.626-2.075c-2.268,0-3.227,1.896-3.227,3.767
		c0,1.87,0.959,3.766,3.227,3.766c1.582,0,2.59-1.224,2.746-2.746h0.815c-0.228,2.099-1.56,3.441-3.562,3.441
		c-2.699,0-4.043-2.123-4.043-4.461c0-2.339,1.344-4.462,4.043-4.462c1.619,0,3.226,0.972,3.441,2.771H391.469z"/>
	<path fill="#FFFFFF" d="M393.5,89.003h0.756v3.442h0.024c0.275-0.744,1.104-1.247,1.979-1.247c1.738,0,2.267,0.911,2.267,2.387
		v3.981h-0.756v-3.862c0-1.067-0.348-1.87-1.571-1.87c-1.199,0-1.918,0.911-1.942,2.122v3.61H393.5V89.003z"/>
	<path fill="#FFFFFF" d="M399.968,89.003h0.756v1.212h-0.756V89.003z M399.968,91.378h0.756v6.188h-0.756V91.378z"/>
	<path fill="#FFFFFF" d="M402.189,89.003h0.756v8.563h-0.756V89.003z"/>
	<path fill="#FFFFFF" d="M404.84,94.676c0.012,1.104,0.587,2.435,2.038,2.435c1.104,0,1.703-0.647,1.943-1.583h0.756
		c-0.324,1.403-1.14,2.219-2.699,2.219c-1.967,0-2.794-1.511-2.794-3.274c0-1.631,0.827-3.273,2.794-3.273
		c1.992,0,2.783,1.738,2.723,3.478H404.84z M408.845,94.041c-0.035-1.139-0.742-2.206-1.967-2.206c-1.234,0-1.918,1.079-2.038,2.206
		H408.845z"/>
</g>
</svg>
