<?xml version="1.0" encoding="utf-8"?>
<!-- Generator: Adobe Illustrator 16.0.3, SVG Export Plug-In . SVG Version: 6.00 Build 0)  -->
<!DOCTYPE svg PUBLIC "-//W3C//DTD SVG 1.1//EN" "http://www.w3.org/Graphics/SVG/1.1/DTD/svg11.dtd">
<svg version="1.1" id="Capa_1" xmlns="http://www.w3.org/2000/svg" xmlns:xlink="http://www.w3.org/1999/xlink" x="0px" y="0px"
	 width="684.783px" height="54.347px" viewBox="0 0 684.783 54.347" enable-background="new 0 0 684.783 54.347"
	 xml:space="preserve">
<g>
	<path fill="#FFFFFF" d="M9.672,14.436h-1.35v5.672H7.205V7.684h2.467c2.323,0,4.214,0.756,4.214,3.403
		C13.886,13.77,12.013,14.436,9.672,14.436z M9.258,8.512H8.322v5.096h0.936c1.801,0,3.403-0.307,3.403-2.484
		C12.661,8.945,11.112,8.512,9.258,8.512z"/>
	<path fill="#FFFFFF" d="M21.589,20.108c-0.216-1.063-0.432-2.125-0.648-3.188c-0.396-1.943-1.062-2.52-3.061-2.52h-0.882v5.707
		h-1.117V7.684h2.485c2.215,0,4.123,0.756,4.123,3.277c0,1.711-1.242,2.826-2.881,3.007v0.036c1.801,0.234,2.125,1.152,2.449,2.754
		l0.684,3.35H21.589z M18.276,8.512h-1.278v5.06H17.7c1.692,0,3.564-0.504,3.564-2.557C21.265,9.106,19.986,8.512,18.276,8.512z"/>
	<path fill="#FFFFFF" d="M32.371,20.108l-1.351-4.123h-4.627l-1.351,4.123h-0.9l4.033-12.424h1.278l4.033,12.424H32.371z
		 M28.734,8.836h-0.036l-2.035,6.32h4.087L28.734,8.836z"/>
	<path fill="#FFFFFF" d="M41.37,11.051c0-1.53-0.81-2.736-2.431-2.736c-2.629,0-3.133,3.096-3.133,5.131
		c0,2.359,0.612,6.031,3.655,6.031c1.152,0,1.944-0.449,2.791-1.17v1.17c-0.847,0.595-1.909,0.829-2.936,0.829
		c-3.763,0-4.735-3.619-4.735-6.716c0-2.827,0.99-6.104,4.394-6.104c2.089,0,3.763,1.404,3.763,3.564H41.37z"/>
	<path fill="#FFFFFF" d="M48.784,22.557h-1.009l3.115-16.151h1.026L48.784,22.557z"/>
	<path fill="#FFFFFF" d="M61.007,20.306c-1.692,0-2.863-0.702-3.151-2.448h1.333c0.09,1.043,0.828,1.656,1.854,1.656
		c1.692,0,2.322-1.207,2.322-2.737c0-1.368-0.647-2.719-2.196-2.719c-0.666,0-1.494,0.343-1.765,0.99H58.36l0.306-6.356h5.294v0.829
		h-4.304l-0.252,4.321c0.54-0.396,1.261-0.576,1.927-0.576c2.017,0,3.259,1.566,3.259,3.511
		C64.59,19.01,63.222,20.306,61.007,20.306z"/>
	<path fill="#FFFFFF" d="M70.133,20.306c-3.349,0-3.619-3.241-3.619-5.815c0-2.665,0.45-5.996,3.854-5.996
		c1.08,0,2.053,0.45,2.593,1.404c0.18,0.324,0.288,0.666,0.306,1.026h-1.314c0-0.919-0.702-1.639-1.62-1.639
		c-2.539,0-2.647,3.655-2.647,5.474h0.036c0.522-1.026,1.603-1.512,2.719-1.512c2.107,0,3.098,1.512,3.098,3.475
		C73.536,18.866,72.348,20.306,70.133,20.306z M70.133,14.04c-1.332,0-2.251,1.369-2.251,2.594c0,1.35,0.738,2.881,2.269,2.881
		c1.513,0,2.161-1.459,2.161-2.773C72.312,15.462,71.573,14.04,70.133,14.04z"/>
	<path fill="#FFFFFF" d="M78.538,20.306c-1.422,0-2.431-0.396-2.431-1.999v-6.031h-1.404v-0.738h1.404V9.539l0.99-0.612v2.611h2.251
		v0.738h-2.251v5.455c0,1.135,0.271,1.873,1.549,1.873c0.271,0,0.522-0.036,0.774-0.127v0.775
		C79.133,20.27,78.826,20.306,78.538,20.306z"/>
	<path fill="#FFFFFF" d="M86.369,20.108v-5.726c0-0.954-0.108-2.143-1.351-2.143c-1.296,0-2.106,1.566-2.448,2.628
		c-0.127,0.379-0.253,0.847-0.253,1.243v3.997h-0.99V7.684h0.99v6.193h0.036c0.414-1.205,1.44-2.538,2.845-2.538
		c1.711,0,2.161,1.224,2.161,2.719v6.05H86.369z"/>
	<path fill="#FFFFFF" d="M94.791,20.108V7.684h1.116v12.424H94.791z"/>
	<path fill="#FFFFFF" d="M104.063,20.108v-5.726c0-0.973-0.09-2.143-1.351-2.143c-1.603,0-2.701,2.646-2.701,3.997v3.871h-0.99
		v-8.57h0.99v2.34h0.036c0.433-1.242,1.404-2.538,2.845-2.538c1.747,0,2.161,1.296,2.161,2.791v5.978H104.063z"/>
	<path fill="#FFFFFF" d="M111.045,20.306c-1.422,0-2.431-0.396-2.431-1.999v-6.031h-1.404v-0.738h1.404V9.539l0.99-0.612v2.611
		h2.251v0.738h-2.251v5.455c0,1.135,0.271,1.873,1.549,1.873c0.271,0,0.522-0.036,0.774-0.127v0.775
		C111.64,20.27,111.333,20.306,111.045,20.306z"/>
	<path fill="#FFFFFF" d="M114.267,14.76c0,1.656,0.378,3.745,2.034,4.52c0.414,0.197,0.864,0.288,1.314,0.288
		c0.522,0,1.045-0.036,1.549-0.216v0.756c-0.595,0.145-1.188,0.198-1.801,0.198c-3.007,0-4.195-1.891-4.195-4.7
		c0-2.232,0.738-4.267,3.313-4.267c2.052,0,2.845,1.566,2.845,3.421H114.267z M116.337,12.042c-1.261,0-1.908,0.828-1.998,2.017
		h3.889C118.228,12.852,117.598,12.042,116.337,12.042z"/>
	<path fill="#FFFFFF" d="M124.978,12.635c-1.765,0-2.396,1.639-2.396,3.151v4.321h-0.99v-8.57h0.99v1.908h0.036
		c0.559-1.063,1.368-2.017,2.647-2.106v1.296H124.978z"/>
	<path fill="#FFFFFF" d="M132.304,20.108v-5.726c0-0.973-0.09-2.143-1.351-2.143c-1.603,0-2.701,2.646-2.701,3.997v3.871h-0.99
		v-8.57h0.99v2.34h0.036c0.433-1.242,1.404-2.538,2.845-2.538c1.747,0,2.161,1.296,2.161,2.791v5.978H132.304z"/>
	<path fill="#FFFFFF" d="M140.313,20.108v-1.332h-0.036c-0.396,0.9-1.494,1.53-2.466,1.53c-1.243,0-2.287-0.9-2.287-2.179
		c0-2.395,2.971-2.791,4.789-2.791V14.76c0-1.351,0-2.719-1.746-2.719c-1.08,0-1.566,0.521-1.603,1.584h-1.242
		c0.216-1.674,1.368-2.286,2.952-2.286c2.018,0,2.629,1.08,2.629,2.952v5.816H140.313z M140.313,16.039
		c-1.314,0-3.69,0.181-3.69,1.963c0,0.864,0.666,1.404,1.494,1.404c1.549,0,2.196-1.548,2.196-2.881V16.039z"/>
	<path fill="#FFFFFF" d="M147.296,20.306c-1.422,0-2.431-0.396-2.431-1.999v-6.031h-1.404v-0.738h1.404V9.539l0.99-0.612v2.611
		h2.251v0.738h-2.251v5.455c0,1.135,0.271,1.873,1.549,1.873c0.271,0,0.522-0.036,0.774-0.127v0.775
		C147.891,20.27,147.584,20.306,147.296,20.306z"/>
	<path fill="#FFFFFF" d="M149.959,9.143V7.684h1.261v1.459H149.959z M150.104,20.108v-8.57h0.99v8.57H150.104z"/>
	<path fill="#FFFFFF" d="M156.944,20.306c-2.683,0-3.529-2.215-3.529-4.538c0-2.196,0.918-4.429,3.457-4.429
		c2.683,0,3.583,2.269,3.583,4.591C160.455,18.2,159.519,20.306,156.944,20.306z M156.872,12.042c-1.908,0-2.358,2.035-2.358,3.564
		c0,1.604,0.342,3.998,2.412,3.998c2.017,0,2.432-1.999,2.432-3.619C159.357,14.329,158.997,12.042,156.872,12.042z"/>
	<path fill="#FFFFFF" d="M167.799,20.108v-5.726c0-0.973-0.09-2.143-1.351-2.143c-1.603,0-2.701,2.646-2.701,3.997v3.871h-0.99
		v-8.57h0.99v2.34h0.036c0.433-1.242,1.404-2.538,2.845-2.538c1.747,0,2.161,1.296,2.161,2.791v5.978H167.799z"/>
	<path fill="#FFFFFF" d="M175.808,20.108v-1.332h-0.036c-0.396,0.9-1.494,1.53-2.467,1.53c-1.242,0-2.286-0.9-2.286-2.179
		c0-2.395,2.971-2.791,4.789-2.791V14.76c0-1.351,0-2.719-1.746-2.719c-1.08,0-1.566,0.521-1.603,1.584h-1.242
		c0.216-1.674,1.368-2.286,2.953-2.286c2.016,0,2.628,1.08,2.628,2.952v5.816H175.808z M175.808,16.039
		c-1.314,0-3.69,0.181-3.69,1.963c0,0.864,0.666,1.404,1.494,1.404c1.549,0,2.196-1.548,2.196-2.881V16.039z"/>
	<path fill="#FFFFFF" d="M179.803,20.108V7.684h0.99v12.424H179.803z"/>
	<path fill="#FFFFFF" d="M194.33,11.051c0-1.53-0.81-2.736-2.431-2.736c-2.629,0-3.133,3.096-3.133,5.131
		c0,2.359,0.612,6.031,3.655,6.031c1.152,0,1.944-0.449,2.791-1.17v1.17c-0.847,0.595-1.909,0.829-2.936,0.829
		c-3.763,0-4.735-3.619-4.735-6.716c0-2.827,0.99-6.104,4.394-6.104c2.089,0,3.764,1.404,3.764,3.564H194.33z"/>
	<path fill="#FFFFFF" d="M200.323,20.306c-2.683,0-3.529-2.215-3.529-4.538c0-2.196,0.918-4.429,3.457-4.429
		c2.683,0,3.583,2.269,3.583,4.591C203.834,18.2,202.897,20.306,200.323,20.306z M200.251,12.042c-1.908,0-2.358,2.035-2.358,3.564
		c0,1.604,0.342,3.998,2.412,3.998c2.017,0,2.432-1.999,2.432-3.619C202.736,14.329,202.376,12.042,200.251,12.042z"/>
	<path fill="#FFFFFF" d="M211.178,20.108v-5.726c0-0.973-0.09-2.143-1.351-2.143c-1.603,0-2.701,2.646-2.701,3.997v3.871h-0.99
		v-8.57h0.99v2.34h0.036c0.433-1.242,1.404-2.538,2.845-2.538c1.747,0,2.161,1.296,2.161,2.791v5.978H211.178z"/>
	<path fill="#FFFFFF" d="M218.448,8.333c-1.44,0-1.692,0.9-1.692,2.143c0,0.342,0.019,0.702,0.019,1.063h2.395v0.738h-2.395v7.832
		h-0.99v-7.832h-1.459v-0.738h1.459v-1.261c0-1.818,0.936-2.646,2.719-2.646c0.378,0,0.756,0.071,1.134,0.144v0.883
		C219.223,8.512,218.898,8.333,218.448,8.333z"/>
	<path fill="#FFFFFF" d="M221.22,14.76c0,1.656,0.378,3.745,2.034,4.52c0.414,0.197,0.864,0.288,1.314,0.288
		c0.522,0,1.045-0.036,1.549-0.216v0.756c-0.595,0.145-1.188,0.198-1.801,0.198c-3.007,0-4.195-1.891-4.195-4.7
		c0-2.232,0.738-4.267,3.313-4.267c2.052,0,2.845,1.566,2.845,3.421H221.22z M223.29,12.042c-1.261,0-1.908,0.828-1.998,2.017h3.889
		C225.181,12.852,224.551,12.042,223.29,12.042z"/>
	<path fill="#FFFFFF" d="M231.931,12.635c-1.765,0-2.396,1.639-2.396,3.151v4.321h-0.99v-8.57h0.99v1.908h0.036
		c0.559-1.063,1.368-2.017,2.647-2.106v1.296H231.931z"/>
	<path fill="#FFFFFF" d="M234.306,14.76c0,1.656,0.378,3.745,2.034,4.52c0.414,0.197,0.864,0.288,1.314,0.288
		c0.522,0,1.045-0.036,1.549-0.216v0.756c-0.595,0.145-1.188,0.198-1.801,0.198c-3.007,0-4.195-1.891-4.195-4.7
		c0-2.232,0.738-4.267,3.313-4.267c2.052,0,2.845,1.566,2.845,3.421H234.306z M236.376,12.042c-1.261,0-1.908,0.828-1.998,2.017
		h3.889C238.267,12.852,237.637,12.042,236.376,12.042z"/>
	<path fill="#FFFFFF" d="M246.673,20.108v-5.726c0-0.973-0.09-2.143-1.351-2.143c-1.603,0-2.701,2.646-2.701,3.997v3.871h-0.99
		v-8.57h0.99v2.34h0.036c0.433-1.242,1.404-2.538,2.845-2.538c1.747,0,2.161,1.296,2.161,2.791v5.978H246.673z"/>
	<path fill="#FFFFFF" d="M254.718,14.077c0.019-1.152-0.27-2.035-1.603-2.035c-1.765,0-2.053,2.035-2.053,3.385
		c0,2.053,0.937,4.142,3.277,4.142c0.432,0,0.882-0.054,1.297-0.198v0.738c-0.505,0.145-1.045,0.198-1.567,0.198
		c-3.007,0-4.104-1.891-4.104-4.682c0-2.161,0.738-4.285,3.259-4.285c1.675,0,2.736,1.044,2.736,2.737H254.718z"/>
	<path fill="#FFFFFF" d="M258.425,14.76c0,1.656,0.378,3.745,2.034,4.52c0.414,0.197,0.864,0.288,1.314,0.288
		c0.522,0,1.045-0.036,1.549-0.216v0.756c-0.595,0.145-1.188,0.198-1.801,0.198c-3.007,0-4.195-1.891-4.195-4.7
		c0-2.232,0.738-4.267,3.313-4.267c2.052,0,2.845,1.566,2.845,3.421H258.425z M260.495,12.042c-1.261,0-1.908,0.828-1.998,2.017
		h3.889C262.386,12.852,261.756,12.042,260.495,12.042z"/>
	<path fill="#FFFFFF" d="M269.71,20.108V19.19c1.818-1.765,5.042-5.222,5.042-7.869c0-1.152-0.757-2.034-1.945-2.034
		c-1.224,0-1.674,0.811-1.818,1.909h-1.314c0.198-1.819,1.44-2.701,3.205-2.701c1.908,0,3.043,1.206,3.043,3.097
		c0,2.791-3.079,5.69-4.879,7.599h5.113v0.918H269.71z"/>
	<path fill="#FFFFFF" d="M281.699,20.306c-3.422,0-3.817-3.386-3.817-6.05c0-2.521,0.45-5.762,3.673-5.762
		c3.313,0,3.781,3.547,3.781,6.104C285.336,17.083,284.886,20.306,281.699,20.306z M281.537,9.287c-2.197,0-2.431,3.276-2.431,4.861
		c0,1.692,0.162,5.366,2.538,5.366c2.323,0,2.467-3.295,2.467-4.952C284.111,12.816,283.968,9.287,281.537,9.287z"/>
	<path fill="#FFFFFF" d="M289.709,20.108V9.881l-2.035,1.458v-1.116l2.232-1.531h0.919v11.416H289.709z"/>
	<path fill="#FFFFFF" d="M300.329,16.723v3.385h-0.99v-3.385h-4.52V15.84l4.43-7.148h1.08v7.113h2.017v0.918H300.329z
		 M299.339,10.295h-0.036l-3.385,5.51h3.421V10.295z"/>
</g>
<g>
	<path fill="#FFFFFF" d="M9.737,42.305c-0.919,0-1.854-0.072-2.755-0.287v-1.279c0.864,0.414,1.872,0.703,2.827,0.703
		c1.566,0,2.826-0.775,2.826-2.467c0-3.17-5.726-2.521-5.726-6.41c0-2.18,1.818-3.079,3.763-3.079c0.829,0,1.657,0.09,2.467,0.288
		v1.242c-0.864-0.396-1.782-0.702-2.736-0.702c-1.242,0-2.395,0.647-2.395,2.017c0,1.404,0.972,1.873,2.07,2.449
		c0.576,0.287,1.17,0.594,1.729,0.936c1.332,0.793,2.053,1.494,2.053,3.133C13.86,41.28,11.934,42.305,9.737,42.305z"/>
	<path fill="#FFFFFF" d="M22.933,42.108l-1.351-4.123h-4.627l-1.351,4.123h-0.9l4.033-12.424h1.278l4.033,12.424H22.933z
		 M19.296,30.836H19.26l-2.035,6.319h4.087L19.296,30.836z"/>
	<path fill="#FFFFFF" d="M32.184,42.108l-5.312-11.056h-0.036v11.056H25.81V29.684h1.387l5.401,11.145h0.036V29.684h1.026v12.424
		H32.184z"/>
	<path fill="#FFFFFF" d="M43.63,36.436h-1.35v5.672h-1.117V29.684h2.467c2.323,0,4.214,0.756,4.214,3.402
		C47.844,35.77,45.971,36.436,43.63,36.436z M43.216,30.512H42.28v5.096h0.936c1.801,0,3.403-0.307,3.403-2.485
		S45.07,30.512,43.216,30.512z"/>
	<path fill="#FFFFFF" d="M49.839,42.108V29.684h5.51v0.828h-4.393v4.682h4.177v0.828h-4.177v5.221h4.555v0.865H49.839z"/>
	<path fill="#FFFFFF" d="M60.189,42.108h-2.341V29.684h2.125c4.285,0,5.708,2.143,5.708,6.211
		C65.682,39.749,64.349,42.108,60.189,42.108z M62.08,30.818c-0.702-0.252-1.458-0.306-2.196-0.306h-0.918v10.73h0.918
		c3.637,0,4.573-1.836,4.573-5.203C64.457,34.077,64.187,31.61,62.08,30.818z"/>
	<path fill="#FFFFFF" d="M73.889,42.108c-0.216-1.063-0.432-2.125-0.648-3.188c-0.396-1.944-1.062-2.521-3.061-2.521h-0.882v5.708
		h-1.117V29.684h2.485c2.215,0,4.123,0.756,4.123,3.276c0,1.711-1.242,2.827-2.881,3.007v0.036c1.801,0.234,2.125,1.152,2.449,2.755
		l0.684,3.35H73.889z M70.576,30.512h-1.278v5.059H70c1.692,0,3.564-0.504,3.564-2.557C73.564,31.106,72.286,30.512,70.576,30.512z"
		/>
	<path fill="#FFFFFF" d="M81.483,42.305c-3.583,0-4.285-3.564-4.285-6.428c0-2.826,0.757-6.392,4.285-6.392
		c3.476,0,4.214,3.619,4.214,6.392C85.697,38.758,85.139,42.305,81.483,42.305z M81.43,30.314c-2.719,0-3.007,3.638-3.007,5.636
		c0,1.98,0.468,5.527,3.097,5.527c2.737,0,2.953-3.529,2.953-5.527C84.473,33.987,84.059,30.314,81.43,30.314z"/>
	<path fill="#FFFFFF" d="M94.893,42.108h-2.341V29.684h2.125c4.285,0,5.708,2.143,5.708,6.211
		C100.385,39.749,99.052,42.108,94.893,42.108z M96.783,30.818c-0.702-0.252-1.458-0.306-2.196-0.306h-0.918v10.73h0.918
		c3.637,0,4.573-1.836,4.573-5.203C99.16,34.077,98.89,31.61,96.783,30.818z"/>
	<path fill="#FFFFFF" d="M102.884,42.108V29.684h5.51v0.828h-4.393v4.682h4.177v0.828h-4.177v5.221h4.555v0.865H102.884z"/>
	<path fill="#FFFFFF" d="M122.038,42.108l-1.351-4.123h-4.627l-1.351,4.123h-0.9l4.033-12.424h1.278l4.033,12.424H122.038z
		 M118.401,30.836h-0.036l-2.035,6.319h4.087L118.401,30.836z"/>
	<path fill="#FFFFFF" d="M127.059,30.512v11.596h-1.116V30.512h-2.936v-0.828h6.986v0.828H127.059z"/>
	<path fill="#FFFFFF" d="M138.04,42.108l-1.351-4.123h-4.627l-1.351,4.123h-0.9l4.033-12.424h1.278l4.033,12.424H138.04z
		 M134.403,30.836h-0.036l-2.035,6.319h4.087L134.403,30.836z"/>
	<path fill="#FFFFFF" d="M147.039,33.051c0-1.531-0.81-2.737-2.431-2.737c-2.629,0-3.133,3.097-3.133,5.132
		c0,2.358,0.612,6.031,3.655,6.031c1.152,0,1.944-0.45,2.791-1.17v1.17c-0.847,0.594-1.909,0.828-2.936,0.828
		c-3.763,0-4.735-3.619-4.735-6.716c0-2.827,0.99-6.104,4.394-6.104c2.089,0,3.763,1.404,3.763,3.565H147.039z"/>
	<path fill="#FFFFFF" d="M157.065,42.108l-1.351-4.123h-4.627l-1.351,4.123h-0.9l4.033-12.424h1.278l4.033,12.424H157.065z
		 M153.429,30.836h-0.036l-2.035,6.319h4.087L153.429,30.836z"/>
	<path fill="#FFFFFF" d="M169.342,42.108v-11.47h-0.036l-3.655,11.47h-1.08l-3.655-11.47h-0.036v11.47h-0.937V29.684h1.657
		l3.528,11.072h0.036l3.565-11.072h1.729v12.424H169.342z"/>
	<path fill="#FFFFFF" d="M180.429,42.108l-1.351-4.123h-4.627l-1.351,4.123h-0.9l4.033-12.424h1.278l4.033,12.424H180.429z
		 M176.792,30.836h-0.036l-2.035,6.319h4.087L176.792,30.836z"/>
	<path fill="#FFFFFF" d="M187.086,38.237v-1.009h4.951v1.009H187.086z"/>
	<path fill="#FFFFFF" d="M205.105,33.051c0-1.531-0.81-2.737-2.431-2.737c-2.629,0-3.133,3.097-3.133,5.132
		c0,2.358,0.612,6.031,3.655,6.031c1.152,0,1.944-0.45,2.791-1.17v1.17c-0.847,0.594-1.909,0.828-2.936,0.828
		c-3.763,0-4.735-3.619-4.735-6.716c0-2.827,0.99-6.104,4.394-6.104c2.089,0,3.763,1.404,3.763,3.565H205.105z"/>
	<path fill="#FFFFFF" d="M214.718,42.108v-6.014h-5.275v6.014h-1.117V29.684h1.117v5.581h5.275v-5.581h1.116v12.424H214.718z"/>
	<path fill="#FFFFFF" d="M219.018,42.108V29.684h1.116v12.424H219.018z"/>
	<path fill="#FFFFFF" d="M223.337,42.108V29.684h1.117v11.559h4.375v0.865H223.337z"/>
	<path fill="#FFFFFF" d="M230.339,42.108V29.684h5.51v0.828h-4.393v4.682h4.177v0.828h-4.177v5.221h4.555v0.865H230.339z"/>
</g>
<g>
	<g>
		<path fill="#FFFFFF" d="M552.59,40.234h1.889c0,0,3.555-14.553,7.407-30.316h-1.923C556.123,25.681,552.59,40.234,552.59,40.234z"
			/>
		<path fill="#FFFFFF" d="M554.789,40.632h-2.701l0.119-0.493c0,0,3.531-14.549,7.369-30.317l0.076-0.3h2.734L554.789,40.632z
			 M553.096,39.838h1.072l7.217-29.527h-1.111C556.873,24.27,553.736,37.203,553.096,39.838z"/>
	</g>
	<g>
		<g>
			<path fill="#FFFFFF" d="M588.54,11.682h0.946v5.571h-0.827c-0.79-0.833-1.424-1.541-2.292-2.253
				c-2.449-1.981-5.411-3.046-8.613-3.046c-7.469,0-13.551,6.166-13.551,13.598c0,4.346,2.094,7.426,3.077,8.608
				c2.532,3.163,6.521,5.062,10.593,5.096c0.711,0,2.057-0.075,3.793-0.551c3.99-1.185,6.084-3.795,7.115-4.938h1.145
				c-0.635,0.788-1.347,1.658-2.057,2.369c-1.383,1.306-4.781,4.03-10.035,4.03c-4.82,0-8.141-2.366-9.441-3.475
				c-3.199-2.728-5.096-6.955-5.096-11.182c0-1.58,0.311-5.531,3.158-9.09c1.384-1.732,5.016-5.372,11.181-5.372
				c1.341,0,4.859,0.235,8.098,2.294c0.753,0.47,1.423,0.986,2.807,2.209V11.682z"/>
			<path fill="#FFFFFF" d="M577.834,40.723c-4.838,0-8.219-2.264-9.801-3.611c-3.314-2.822-5.295-7.158-5.295-11.602
				c0-1.604,0.324-5.731,3.286-9.435c1.333-1.677,5.142-5.581,11.611-5.581c1.396,0,5.015,0.234,8.394,2.381
				c0.602,0.375,1.158,0.789,1.959,1.466v-3.213h2.055v6.675h-1.621l-0.56-0.588c-0.618-0.653-1.153-1.22-1.845-1.786
				c-2.366-1.909-5.225-2.919-8.264-2.919c-7.164,0-12.998,5.848-12.998,13.042c0,4.254,2.064,7.19,2.951,8.255
				c2.429,3.034,6.227,4.862,10.171,4.898c0.77,0,2.03-0.096,3.64-0.533c3.559-1.056,5.551-3.307,6.621-4.517l0.391-0.44h2.546
				l-0.72,0.898c-0.662,0.828-1.378,1.691-2.098,2.415C586.596,38.1,583.049,40.723,577.834,40.723z M588.896,16.698h0.037v-0.06
				l-0.582-0.515c0.104,0.111,0.209,0.223,0.313,0.334L588.896,16.698z"/>
		</g>
		<g>
			<path fill="#FFFFFF" d="M612.732,19.266h0.99l-0.006,0.951l0,0v18.291l0,0l0.006,0.947h-0.99v-5.648
				c-0.791,1.379-1.184,1.973-1.701,2.567c-0.949,1.104-3.593,3.479-7.861,3.479c-2.056,0-3.516-0.598-4.265-0.949
				c-3.756-1.698-6.169-5.454-6.169-9.603c0-2.529,0.99-5.096,2.692-6.993c1.972-2.214,4.896-3.477,7.897-3.435
				c1.426,0,5.063,0.351,7.746,3.514c0.552,0.673,0.908,1.188,1.66,2.649V19.266z M595.938,35.584
				c2.531,3.001,5.93,3.356,7.314,3.356c1.262,0,2.451-0.277,3.594-0.712c3.594-1.5,5.887-4.974,5.887-8.927
				c0-3.039-1.385-5.137-2.097-5.966c-1.774-2.212-4.579-3.558-7.425-3.558c-3.002,0-5.059,1.422-5.889,2.098
				c-3.2,2.488-3.635,6.004-3.635,7.385C593.648,31.553,594.479,33.807,595.938,35.584z"/>
			<path fill="#FFFFFF" d="M603.17,40.408c-1.577,0-3.094-0.339-4.504-1.003c-3.932-1.78-6.48-5.746-6.48-10.103
				c0-2.668,1.031-5.354,2.832-7.364c2.051-2.299,5.031-3.62,8.17-3.62h0.148c1.499,0,5.313,0.364,8.157,3.714
				c0.255,0.305,0.468,0.579,0.685,0.91v-4.227h2.1l-0.006,1.502l0.006,19.794h-2.1v-4.225c-0.248,0.367-0.471,0.655-0.726,0.95
				C610.713,37.595,607.93,40.408,603.17,40.408z M603.211,20.334c-2.702,0-4.629,1.231-5.539,1.97
				c-3.182,2.476-3.431,5.952-3.431,6.957c-0.038,2.142,0.718,4.259,2.124,5.972c2.4,2.848,5.613,3.157,6.887,3.157
				c1.09,0,2.203-0.223,3.398-0.676c3.352-1.401,5.527-4.706,5.527-8.412c0-3.076-1.502-5.067-1.961-5.607
				C608.521,21.583,605.907,20.334,603.211,20.334z M613.164,30.875c-0.097,0.642-0.252,1.269-0.461,1.867l0.461-0.812V30.875z
				 M612.443,25.238c0.301,0.699,0.572,1.538,0.721,2.503v-2.678L612.443,25.238z"/>
		</g>
		<g>
			<path fill="#FFFFFF" d="M623.006,23.734c0.434-0.833,0.83-1.506,1.027-1.737c1.895-2.531,5.137-2.73,5.967-2.806v0.983
				c-1.818,0.196-3.042,0.396-4.465,1.583c-2.375,2.013-2.449,4.857-2.529,5.807v10.944h3.753v0.908h-7.929v-0.908h3.229V20.174
				h-3.27v-0.83h4.217V23.734z"/>
			<path fill="#FFFFFF" d="M627.313,39.97h-9.035v-2.017h3.225V20.73h-3.266v-1.939h5.322v2.912
				c0.019-0.021,0.031-0.044,0.049-0.065c1.955-2.606,5.18-2.895,6.237-2.989l0.708-0.065v2.091l-0.493,0.052
				c-1.726,0.187-2.851,0.357-4.17,1.456c-2.052,1.741-2.24,4.188-2.32,5.233l-0.012,0.197l0.001,10.342h3.754V39.97z
				 M622.611,23.77v2.29c0.105-0.632,0.288-1.372,0.625-2.135L622.611,23.77z"/>
		</g>
		<g>
			<path fill="#FFFFFF" d="M632.781,29.344c0.118,1.184,0.157,3.235,1.818,5.529c1.773,2.486,4.66,4.067,7.824,4.067
				c3.593,0,5.963-1.895,6.834-2.766c0.902-0.869,1.578-2.134,1.774-2.408h1.026c-0.943,1.658-1.42,2.331-2.092,3.001
				c-1.936,1.976-4.822,3.086-7.623,3.086c-1.268,0-3.955-0.237-6.561-2.375c-1.268-1.026-3.871-3.712-3.871-8.257
				c0-2.016,0.551-3.395,0.869-4.104c1.696-3.954,5.41-6.363,9.758-6.363c1.344,0,2.528,0.232,3.713,0.67
				c2.805,1.066,5.059,3.477,6.084,6.243c0.395,1.023,0.554,1.661,0.714,3.677H632.781z M652.059,28.472
				c-0.313-1.977-0.555-2.645-1.026-3.557c-1.539-3.079-5.058-5.212-8.608-5.212c-3.643,0-7.074,2.133-8.658,5.37
				c-0.667,1.422-0.904,2.927-0.984,3.398H652.059z"/>
			<path fill="#FFFFFF" d="M642.344,40.408c-1.764,0-4.393-0.435-6.909-2.499c-1.226-0.996-4.079-3.835-4.079-8.687
				c0-2.033,0.525-3.446,0.92-4.331c1.775-4.125,5.707-6.69,10.264-6.69c1.356,0,2.596,0.227,3.904,0.703
				c2.9,1.104,5.293,3.557,6.412,6.57c0.417,1.083,0.585,1.791,0.742,3.827l0.047,0.597h-20.259
				c0.108,1.169,0.337,2.827,1.658,4.653c1.72,2.403,4.476,3.839,7.38,3.839c3.557,0,5.83-1.995,6.441-2.604
				c0.667-0.641,1.213-1.53,1.506-2.007c0.092-0.152,0.164-0.27,0.214-0.336l0.164-0.229h2.267l-0.477,0.826
				c-0.974,1.703-1.46,2.4-2.185,3.119C648.369,39.192,645.371,40.408,642.344,40.408z M633.443,27.918h17.963
				c-0.268-1.48-0.492-2.031-0.865-2.749c-1.446-2.895-4.785-4.914-8.117-4.914c-3.405,0-6.682,2.035-8.157,5.062
				C633.816,26.263,633.574,27.249,633.443,27.918z"/>
		</g>
		<g>
			<path fill="#FFFFFF" d="M662.494,20.255h-4.232c0.44,0.987,0.872,1.973,1.268,2.962c0.75,1.938,1.459,3.911,2.251,5.889
				c1.226,3.278,2.53,6.519,3.872,9.719l7.786-18.529h-4.151v-0.951h8.811v0.951h-3.674l-10.98,25.918h3.908v0.867h-8.811v-0.867
				h3.989l2.611-6.322l-7.707-19.521h-3.87v-1.026h8.93V20.255z"/>
			<path fill="#FFFFFF" d="M667.905,47.633h-9.916v-1.973h4.171l2.383-5.775l-7.482-18.958h-4.052v-2.137h10.038v2.018h-3.936
				c0.333,0.765,0.643,1.482,0.931,2.204c0.306,0.786,0.603,1.572,0.899,2.364c0.44,1.169,0.883,2.345,1.355,3.524
				c0.983,2.637,2.086,5.425,3.355,8.49l6.951-16.543h-3.871v-2.058h9.92v2.058h-3.863l-10.51,24.813h3.626V47.633z"/>
		</g>
	</g>
</g>
</svg>
