<?xml version="1.0" encoding="utf-8"?>
<!-- Generator: Adobe Illustrator 16.0.3, SVG Export Plug-In . SVG Version: 6.00 Build 0)  -->
<!DOCTYPE svg PUBLIC "-//W3C//DTD SVG 1.1//EN" "http://www.w3.org/Graphics/SVG/1.1/DTD/svg11.dtd">
<svg version="1.1" id="Capa_1" xmlns="http://www.w3.org/2000/svg" xmlns:xlink="http://www.w3.org/1999/xlink" x="0px" y="0px"
	 width="679.851px" height="126.5px" viewBox="0 0 679.851 126.5" enable-background="new 0 0 679.851 126.5" xml:space="preserve">
<g>
	<path fill="#FFFFFF" d="M6.029,15.045h-1.35v5.672H3.562V8.293h2.467c2.323,0,4.214,0.756,4.214,3.403
		C10.243,14.379,8.37,15.045,6.029,15.045z M5.615,9.121H4.679v5.096h0.936c1.801,0,3.403-0.307,3.403-2.484
		C9.018,9.554,7.469,9.121,5.615,9.121z"/>
	<path fill="#FFFFFF" d="M17.946,20.717c-0.216-1.063-0.432-2.125-0.648-3.188c-0.396-1.943-1.062-2.52-3.061-2.52h-0.882v5.707
		h-1.117V8.293h2.485c2.215,0,4.123,0.756,4.123,3.277c0,1.711-1.242,2.826-2.881,3.007v0.036c1.801,0.234,2.125,1.152,2.449,2.754
		l0.684,3.35H17.946z M14.633,9.121h-1.278v5.06h0.702c1.692,0,3.564-0.504,3.564-2.557C17.622,9.715,16.343,9.121,14.633,9.121z"/>
	<path fill="#FFFFFF" d="M28.728,20.717l-1.351-4.123H22.75L21.4,20.717h-0.9l4.033-12.424h1.278l4.033,12.424H28.728z
		 M25.091,9.445h-0.036l-2.035,6.32h4.087L25.091,9.445z"/>
	<path fill="#FFFFFF" d="M37.727,11.66c0-1.53-0.81-2.736-2.431-2.736c-2.629,0-3.133,3.096-3.133,5.131
		c0,2.359,0.612,6.031,3.655,6.031c1.152,0,1.944-0.449,2.791-1.17v1.17c-0.847,0.595-1.909,0.829-2.936,0.829
		c-3.763,0-4.735-3.619-4.735-6.716c0-2.827,0.99-6.104,4.394-6.104c2.089,0,3.763,1.404,3.763,3.564H37.727z"/>
	<path fill="#FFFFFF" d="M45.141,23.166h-1.009l3.115-16.151h1.026L45.141,23.166z"/>
	<path fill="#FFFFFF" d="M57.364,20.915c-1.692,0-2.863-0.702-3.151-2.448h1.333c0.09,1.043,0.828,1.656,1.854,1.656
		c1.692,0,2.322-1.207,2.322-2.737c0-1.368-0.647-2.719-2.196-2.719c-0.666,0-1.494,0.343-1.765,0.99h-1.044l0.306-6.356h5.294
		v0.829h-4.304l-0.252,4.321c0.54-0.396,1.261-0.576,1.927-0.576c2.017,0,3.259,1.566,3.259,3.511
		C60.947,19.619,59.579,20.915,57.364,20.915z"/>
	<path fill="#FFFFFF" d="M66.49,20.915c-3.349,0-3.619-3.241-3.619-5.815c0-2.665,0.45-5.996,3.854-5.996
		c1.08,0,2.053,0.45,2.593,1.404c0.18,0.324,0.288,0.666,0.306,1.026h-1.314c0-0.919-0.702-1.639-1.62-1.639
		c-2.539,0-2.647,3.655-2.647,5.474h0.036c0.522-1.026,1.603-1.512,2.719-1.512c2.107,0,3.098,1.512,3.098,3.475
		C69.893,19.475,68.705,20.915,66.49,20.915z M66.49,14.648c-1.332,0-2.251,1.369-2.251,2.594c0,1.35,0.738,2.881,2.269,2.881
		c1.513,0,2.161-1.459,2.161-2.773C68.668,16.071,67.93,14.648,66.49,14.648z"/>
	<path fill="#FFFFFF" d="M73.019,14.838c-0.83,0-1.418-0.23-1.418-1.165v-3.517h-0.818V9.726h0.818V8.561l0.578-0.357v1.522h1.312
		v0.431h-1.312v3.181c0,0.661,0.157,1.092,0.902,1.092c0.157,0,0.305-0.021,0.451-0.073v0.451
		C73.365,14.817,73.187,14.838,73.019,14.838z"/>
	<path fill="#FFFFFF" d="M77.583,14.723v-3.338c0-0.557-0.063-1.25-0.787-1.25c-0.756,0-1.229,0.914-1.428,1.533
		c-0.073,0.221-0.146,0.493-0.146,0.725v2.33h-0.578V7.479h0.578v3.611h0.021c0.241-0.703,0.84-1.479,1.659-1.479
		c0.997,0,1.26,0.714,1.26,1.585v3.527H77.583z"/>
	<path fill="#FFFFFF" d="M83.163,20.717V8.293h1.116v12.424H83.163z"/>
	<path fill="#FFFFFF" d="M92.434,20.717v-5.726c0-0.973-0.09-2.143-1.351-2.143c-1.603,0-2.701,2.646-2.701,3.997v3.871h-0.99v-8.57
		h0.99v2.34h0.036c0.433-1.242,1.404-2.538,2.845-2.538c1.747,0,2.161,1.296,2.161,2.791v5.978H92.434z"/>
	<path fill="#FFFFFF" d="M99.417,20.915c-1.422,0-2.431-0.396-2.431-1.999v-6.031h-1.404v-0.738h1.404v-1.999l0.99-0.612v2.611
		h2.251v0.738h-2.251v5.455c0,1.135,0.271,1.873,1.549,1.873c0.271,0,0.522-0.036,0.774-0.127v0.775
		C100.011,20.879,99.705,20.915,99.417,20.915z"/>
	<path fill="#FFFFFF" d="M102.638,15.369c0,1.656,0.378,3.745,2.034,4.52c0.414,0.197,0.864,0.288,1.314,0.288
		c0.522,0,1.045-0.036,1.549-0.216v0.756c-0.595,0.145-1.188,0.198-1.801,0.198c-3.007,0-4.195-1.891-4.195-4.7
		c0-2.232,0.738-4.267,3.313-4.267c2.053,0,2.845,1.566,2.845,3.421H102.638z M104.708,12.65c-1.26,0-1.908,0.828-1.998,2.017h3.889
		C106.599,13.461,105.969,12.65,104.708,12.65z"/>
	<path fill="#FFFFFF" d="M113.349,13.244c-1.765,0-2.396,1.639-2.396,3.151v4.321h-0.99v-8.57h0.99v1.908h0.036
		c0.559-1.063,1.369-2.017,2.647-2.106v1.296H113.349z"/>
	<path fill="#FFFFFF" d="M120.675,20.717v-5.726c0-0.973-0.09-2.143-1.351-2.143c-1.603,0-2.701,2.646-2.701,3.997v3.871h-0.99
		v-8.57h0.99v2.34h0.036c0.433-1.242,1.404-2.538,2.845-2.538c1.747,0,2.161,1.296,2.161,2.791v5.978H120.675z"/>
	<path fill="#FFFFFF" d="M128.684,20.717v-1.332h-0.036c-0.396,0.9-1.494,1.53-2.467,1.53c-1.242,0-2.286-0.9-2.286-2.179
		c0-2.395,2.971-2.791,4.789-2.791v-0.576c0-1.351,0-2.719-1.746-2.719c-1.08,0-1.566,0.521-1.603,1.584h-1.242
		c0.216-1.674,1.368-2.286,2.953-2.286c2.016,0,2.628,1.08,2.628,2.952v5.816H128.684z M128.684,16.647
		c-1.314,0-3.69,0.181-3.69,1.963c0,0.864,0.666,1.404,1.494,1.404c1.549,0,2.196-1.548,2.196-2.881V16.647z"/>
	<path fill="#FFFFFF" d="M135.667,20.915c-1.422,0-2.431-0.396-2.431-1.999v-6.031h-1.404v-0.738h1.404v-1.999l0.99-0.612v2.611
		h2.251v0.738h-2.251v5.455c0,1.135,0.271,1.873,1.549,1.873c0.271,0,0.522-0.036,0.774-0.127v0.775
		C136.262,20.879,135.956,20.915,135.667,20.915z"/>
	<path fill="#FFFFFF" d="M138.331,9.752V8.293h1.261v1.459H138.331z M138.475,20.717v-8.57h0.99v8.57H138.475z"/>
	<path fill="#FFFFFF" d="M145.316,20.915c-2.683,0-3.529-2.215-3.529-4.538c0-2.196,0.918-4.429,3.457-4.429
		c2.683,0,3.583,2.269,3.583,4.591C148.827,18.809,147.89,20.915,145.316,20.915z M145.244,12.65c-1.908,0-2.358,2.035-2.358,3.564
		c0,1.604,0.342,3.998,2.412,3.998c2.017,0,2.431-1.999,2.431-3.619C147.728,14.938,147.369,12.65,145.244,12.65z"/>
	<path fill="#FFFFFF" d="M156.17,20.717v-5.726c0-0.973-0.09-2.143-1.351-2.143c-1.603,0-2.701,2.646-2.701,3.997v3.871h-0.99v-8.57
		h0.99v2.34h0.036c0.433-1.242,1.404-2.538,2.845-2.538c1.747,0,2.161,1.296,2.161,2.791v5.978H156.17z"/>
	<path fill="#FFFFFF" d="M164.179,20.717v-1.332h-0.036c-0.396,0.9-1.494,1.53-2.466,1.53c-1.243,0-2.287-0.9-2.287-2.179
		c0-2.395,2.971-2.791,4.789-2.791v-0.576c0-1.351,0-2.719-1.746-2.719c-1.08,0-1.566,0.521-1.603,1.584h-1.242
		c0.216-1.674,1.368-2.286,2.952-2.286c2.018,0,2.629,1.08,2.629,2.952v5.816H164.179z M164.179,16.647
		c-1.314,0-3.69,0.181-3.69,1.963c0,0.864,0.666,1.404,1.494,1.404c1.549,0,2.196-1.548,2.196-2.881V16.647z"/>
	<path fill="#FFFFFF" d="M168.174,20.717V8.293h0.99v12.424H168.174z"/>
	<path fill="#FFFFFF" d="M182.702,11.66c0-1.53-0.81-2.736-2.431-2.736c-2.629,0-3.133,3.096-3.133,5.131
		c0,2.359,0.612,6.031,3.655,6.031c1.152,0,1.944-0.449,2.791-1.17v1.17c-0.847,0.595-1.909,0.829-2.936,0.829
		c-3.763,0-4.735-3.619-4.735-6.716c0-2.827,0.99-6.104,4.394-6.104c2.089,0,3.763,1.404,3.763,3.564H182.702z"/>
	<path fill="#FFFFFF" d="M188.695,20.915c-2.683,0-3.529-2.215-3.529-4.538c0-2.196,0.918-4.429,3.457-4.429
		c2.683,0,3.583,2.269,3.583,4.591C192.206,18.809,191.269,20.915,188.695,20.915z M188.623,12.65c-1.908,0-2.358,2.035-2.358,3.564
		c0,1.604,0.342,3.998,2.412,3.998c2.017,0,2.431-1.999,2.431-3.619C191.107,14.938,190.748,12.65,188.623,12.65z"/>
	<path fill="#FFFFFF" d="M199.549,20.717v-5.726c0-0.973-0.09-2.143-1.351-2.143c-1.603,0-2.701,2.646-2.701,3.997v3.871h-0.99
		v-8.57h0.99v2.34h0.036c0.433-1.242,1.404-2.538,2.845-2.538c1.747,0,2.161,1.296,2.161,2.791v5.978H199.549z"/>
	<path fill="#FFFFFF" d="M206.82,8.941c-1.44,0-1.692,0.9-1.692,2.143c0,0.342,0.019,0.702,0.019,1.063h2.395v0.738h-2.395v7.832
		h-0.99v-7.832h-1.459v-0.738h1.459v-1.261c0-1.818,0.936-2.646,2.719-2.646c0.378,0,0.756,0.071,1.134,0.144v0.883
		C207.594,9.121,207.27,8.941,206.82,8.941z"/>
	<path fill="#FFFFFF" d="M209.591,15.369c0,1.656,0.378,3.745,2.034,4.52c0.414,0.197,0.864,0.288,1.314,0.288
		c0.522,0,1.045-0.036,1.549-0.216v0.756c-0.595,0.145-1.188,0.198-1.801,0.198c-3.007,0-4.195-1.891-4.195-4.7
		c0-2.232,0.738-4.267,3.313-4.267c2.053,0,2.845,1.566,2.845,3.421H209.591z M211.662,12.65c-1.26,0-1.908,0.828-1.998,2.017h3.889
		C213.552,13.461,212.922,12.65,211.662,12.65z"/>
	<path fill="#FFFFFF" d="M220.302,13.244c-1.765,0-2.396,1.639-2.396,3.151v4.321h-0.99v-8.57h0.99v1.908h0.036
		c0.559-1.063,1.369-2.017,2.647-2.106v1.296H220.302z"/>
	<path fill="#FFFFFF" d="M222.677,15.369c0,1.656,0.378,3.745,2.034,4.52c0.414,0.197,0.864,0.288,1.314,0.288
		c0.522,0,1.045-0.036,1.549-0.216v0.756c-0.595,0.145-1.188,0.198-1.801,0.198c-3.007,0-4.195-1.891-4.195-4.7
		c0-2.232,0.738-4.267,3.313-4.267c2.053,0,2.845,1.566,2.845,3.421H222.677z M224.748,12.65c-1.26,0-1.908,0.828-1.998,2.017h3.889
		C226.638,13.461,226.008,12.65,224.748,12.65z"/>
	<path fill="#FFFFFF" d="M235.044,20.717v-5.726c0-0.973-0.09-2.143-1.351-2.143c-1.603,0-2.701,2.646-2.701,3.997v3.871h-0.99
		v-8.57h0.99v2.34h0.036c0.433-1.242,1.404-2.538,2.845-2.538c1.747,0,2.161,1.296,2.161,2.791v5.978H235.044z"/>
	<path fill="#FFFFFF" d="M243.089,14.686c0.019-1.152-0.27-2.035-1.603-2.035c-1.765,0-2.053,2.035-2.053,3.385
		c0,2.053,0.937,4.142,3.277,4.142c0.433,0,0.882-0.054,1.296-0.198v0.738c-0.504,0.145-1.044,0.198-1.566,0.198
		c-3.007,0-4.104-1.891-4.104-4.682c0-2.161,0.738-4.285,3.259-4.285c1.675,0,2.736,1.044,2.736,2.737H243.089z"/>
	<path fill="#FFFFFF" d="M246.796,15.369c0,1.656,0.378,3.745,2.034,4.52c0.414,0.197,0.864,0.288,1.314,0.288
		c0.522,0,1.045-0.036,1.549-0.216v0.756c-0.595,0.145-1.188,0.198-1.801,0.198c-3.007,0-4.195-1.891-4.195-4.7
		c0-2.232,0.738-4.267,3.313-4.267c2.053,0,2.845,1.566,2.845,3.421H246.796z M248.867,12.65c-1.26,0-1.908,0.828-1.998,2.017h3.889
		C250.757,13.461,250.127,12.65,248.867,12.65z"/>
	<path fill="#FFFFFF" d="M258.082,20.717v-0.918c1.818-1.765,5.042-5.222,5.042-7.869c0-1.152-0.757-2.034-1.945-2.034
		c-1.224,0-1.674,0.811-1.818,1.909h-1.314c0.198-1.819,1.44-2.701,3.205-2.701c1.909,0,3.043,1.206,3.043,3.097
		c0,2.791-3.079,5.69-4.88,7.599h5.114v0.918H258.082z"/>
	<path fill="#FFFFFF" d="M270.071,20.915c-3.421,0-3.817-3.386-3.817-6.05c0-2.521,0.45-5.762,3.673-5.762
		c3.313,0,3.781,3.547,3.781,6.104C273.708,17.691,273.257,20.915,270.071,20.915z M269.909,9.896c-2.197,0-2.431,3.276-2.431,4.861
		c0,1.692,0.162,5.366,2.538,5.366c2.323,0,2.467-3.295,2.467-4.952C272.483,13.425,272.339,9.896,269.909,9.896z"/>
	<path fill="#FFFFFF" d="M278.081,20.717V10.49l-2.035,1.458v-1.116l2.232-1.531h0.919v11.416H278.081z"/>
	<path fill="#FFFFFF" d="M288.701,17.332v3.385h-0.99v-3.385h-4.52v-0.883l4.43-7.148h1.08v7.113h2.017v0.918H288.701z
		 M287.71,10.904h-0.036l-3.385,5.51h3.421V10.904z"/>
</g>
<g>
	<path fill="#FFFFFF" d="M6.094,45.914c-0.919,0-1.854-0.072-2.755-0.287v-1.279c0.864,0.414,1.872,0.703,2.827,0.703
		c1.566,0,2.826-0.775,2.826-2.467c0-3.17-5.726-2.521-5.726-6.41c0-2.18,1.818-3.079,3.763-3.079c0.829,0,1.657,0.09,2.467,0.288
		v1.242c-0.864-0.396-1.782-0.702-2.736-0.702c-1.242,0-2.395,0.647-2.395,2.017c0,1.404,0.972,1.873,2.07,2.449
		c0.576,0.287,1.17,0.594,1.729,0.936c1.332,0.793,2.053,1.494,2.053,3.133C10.217,44.889,8.291,45.914,6.094,45.914z"/>
	<path fill="#FFFFFF" d="M19.29,45.717l-1.351-4.123h-4.627l-1.351,4.123h-0.9l4.033-12.424h1.278l4.033,12.424H19.29z
		 M15.653,34.445h-0.036l-2.035,6.319h4.087L15.653,34.445z"/>
	<path fill="#FFFFFF" d="M28.541,45.717l-5.312-11.056h-0.036v11.056h-1.026V33.293h1.387l5.401,11.145h0.036V33.293h1.026v12.424
		H28.541z"/>
	<path fill="#FFFFFF" d="M39.987,40.045h-1.35v5.672H37.52V33.293h2.467c2.323,0,4.214,0.756,4.214,3.402
		C44.201,39.379,42.328,40.045,39.987,40.045z M39.573,34.121h-0.936v5.096h0.936c1.801,0,3.403-0.307,3.403-2.485
		S41.427,34.121,39.573,34.121z"/>
	<path fill="#FFFFFF" d="M46.196,45.717V33.293h5.51v0.828h-4.393v4.682h4.177v0.828h-4.177v5.221h4.555v0.865H46.196z"/>
	<path fill="#FFFFFF" d="M56.546,45.717h-2.341V33.293h2.125c4.285,0,5.708,2.143,5.708,6.211
		C62.039,43.357,60.706,45.717,56.546,45.717z M58.437,34.427c-0.702-0.252-1.458-0.306-2.196-0.306h-0.918v10.73h0.918
		c3.637,0,4.573-1.836,4.573-5.203C60.814,37.686,60.543,35.219,58.437,34.427z"/>
	<path fill="#FFFFFF" d="M70.246,45.717c-0.216-1.063-0.432-2.125-0.648-3.188c-0.396-1.944-1.062-2.521-3.061-2.521h-0.882v5.708
		h-1.117V33.293h2.485c2.215,0,4.123,0.756,4.123,3.276c0,1.711-1.242,2.827-2.881,3.007v0.036c1.801,0.234,2.125,1.152,2.449,2.755
		l0.684,3.35H70.246z M66.933,34.121h-1.278v5.059h0.702c1.692,0,3.564-0.504,3.564-2.557
		C69.921,34.715,68.643,34.121,66.933,34.121z"/>
	<path fill="#FFFFFF" d="M77.84,45.914c-3.583,0-4.285-3.564-4.285-6.428c0-2.826,0.757-6.392,4.285-6.392
		c3.476,0,4.214,3.619,4.214,6.392C82.054,42.367,81.496,45.914,77.84,45.914z M77.787,33.923c-2.719,0-3.007,3.638-3.007,5.636
		c0,1.98,0.468,5.527,3.097,5.527c2.737,0,2.953-3.529,2.953-5.527C80.83,37.596,80.416,33.923,77.787,33.923z"/>
	<path fill="#FFFFFF" d="M91.25,45.717h-2.341V33.293h2.125c4.285,0,5.708,2.143,5.708,6.211
		C96.742,43.357,95.409,45.717,91.25,45.717z M93.14,34.427c-0.702-0.252-1.458-0.306-2.196-0.306h-0.918v10.73h0.918
		c3.637,0,4.573-1.836,4.573-5.203C95.517,37.686,95.247,35.219,93.14,34.427z"/>
	<path fill="#FFFFFF" d="M99.241,45.717V33.293h5.51v0.828h-4.393v4.682h4.177v0.828h-4.177v5.221h4.555v0.865H99.241z"/>
	<path fill="#FFFFFF" d="M118.395,45.717l-1.351-4.123h-4.627l-1.351,4.123h-0.9l4.033-12.424h1.278l4.033,12.424H118.395z
		 M114.758,34.445h-0.036l-2.035,6.319h4.087L114.758,34.445z"/>
	<path fill="#FFFFFF" d="M123.416,34.121v11.596h-1.116V34.121h-2.936v-0.828h6.986v0.828H123.416z"/>
	<path fill="#FFFFFF" d="M134.397,45.717l-1.351-4.123h-4.627l-1.351,4.123h-0.9l4.033-12.424h1.278l4.033,12.424H134.397z
		 M130.76,34.445h-0.036l-2.035,6.319h4.087L130.76,34.445z"/>
	<path fill="#FFFFFF" d="M143.396,36.66c0-1.531-0.81-2.737-2.431-2.737c-2.629,0-3.133,3.097-3.133,5.132
		c0,2.358,0.612,6.031,3.655,6.031c1.152,0,1.944-0.45,2.791-1.17v1.17c-0.847,0.594-1.909,0.828-2.936,0.828
		c-3.763,0-4.735-3.619-4.735-6.716c0-2.827,0.99-6.104,4.394-6.104c2.089,0,3.763,1.404,3.763,3.565H143.396z"/>
	<path fill="#FFFFFF" d="M153.422,45.717l-1.351-4.123h-4.627l-1.351,4.123h-0.9l4.033-12.424h1.278l4.033,12.424H153.422z
		 M149.786,34.445h-0.036l-2.035,6.319h4.087L149.786,34.445z"/>
	<path fill="#FFFFFF" d="M165.699,45.717v-11.47h-0.036l-3.655,11.47h-1.08l-3.655-11.47h-0.036v11.47h-0.937V33.293h1.657
		l3.528,11.072h0.036l3.565-11.072h1.729v12.424H165.699z"/>
	<path fill="#FFFFFF" d="M176.786,45.717l-1.351-4.123h-4.627l-1.351,4.123h-0.9l4.033-12.424h1.278l4.033,12.424H176.786z
		 M173.149,34.445h-0.036l-2.035,6.319h4.087L173.149,34.445z"/>
	<path fill="#FFFFFF" d="M183.443,41.846v-1.009h4.951v1.009H183.443z"/>
	<path fill="#FFFFFF" d="M201.462,36.66c0-1.531-0.81-2.737-2.431-2.737c-2.629,0-3.133,3.097-3.133,5.132
		c0,2.358,0.612,6.031,3.655,6.031c1.152,0,1.944-0.45,2.791-1.17v1.17c-0.847,0.594-1.909,0.828-2.936,0.828
		c-3.763,0-4.735-3.619-4.735-6.716c0-2.827,0.99-6.104,4.394-6.104c2.089,0,3.763,1.404,3.763,3.565H201.462z"/>
	<path fill="#FFFFFF" d="M211.075,45.717v-6.014h-5.275v6.014h-1.117V33.293h1.117v5.581h5.275v-5.581h1.116v12.424H211.075z"/>
	<path fill="#FFFFFF" d="M215.375,45.717V33.293h1.116v12.424H215.375z"/>
	<path fill="#FFFFFF" d="M219.694,45.717V33.293h1.117v11.559h4.375v0.865H219.694z"/>
	<path fill="#FFFFFF" d="M226.696,45.717V33.293h5.51v0.828h-4.393v4.682h4.177v0.828h-4.177v5.221h4.555v0.865H226.696z"/>
</g>
<g>
	<g>
		<path fill="#FFFFFF" d="M550.167,115.322h1.888c0,0,3.554-14.553,7.407-30.316h-1.924
			C553.701,100.77,550.167,115.322,550.167,115.322z"/>
		<path fill="#FFFFFF" d="M552.366,115.721h-2.7l0.119-0.493c0,0,3.53-14.549,7.369-30.317l0.074-0.3h2.734L552.366,115.721z
			 M550.672,114.927h1.072l7.217-29.527h-1.112C554.451,99.358,551.313,112.291,550.672,114.927z"/>
	</g>
	<g>
		<g>
			<path fill="#FFFFFF" d="M586.117,86.771h0.947v5.571h-0.828c-0.79-0.833-1.424-1.541-2.292-2.253
				c-2.449-1.981-5.411-3.046-8.614-3.046c-7.467,0-13.55,6.166-13.55,13.598c0,4.346,2.095,7.426,3.077,8.608
				c2.532,3.163,6.521,5.062,10.592,5.096c0.712,0,2.057-0.075,3.794-0.551c3.99-1.185,6.084-3.795,7.114-4.938h1.145
				c-0.635,0.788-1.346,1.658-2.056,2.369c-1.383,1.306-4.782,4.03-10.035,4.03c-4.82,0-8.141-2.366-9.441-3.475
				c-3.2-2.728-5.097-6.955-5.097-11.182c0-1.58,0.311-5.531,3.159-9.09c1.384-1.732,5.016-5.372,11.181-5.372
				c1.342,0,4.859,0.235,8.098,2.294c0.753,0.47,1.423,0.986,2.807,2.209V86.771z"/>
			<path fill="#FFFFFF" d="M575.411,115.812c-4.837,0-8.218-2.264-9.802-3.611c-3.313-2.822-5.295-7.158-5.295-11.602
				c0-1.604,0.325-5.731,3.287-9.435c1.334-1.677,5.141-5.581,11.611-5.581c1.396,0,5.015,0.234,8.395,2.381
				c0.602,0.375,1.157,0.789,1.957,1.466v-3.213h2.056v6.675h-1.622l-0.559-0.588c-0.618-0.653-1.153-1.22-1.846-1.786
				c-2.365-1.909-5.224-2.919-8.264-2.919c-7.163,0-12.998,5.848-12.998,13.042c0,4.254,2.066,7.19,2.952,8.255
				c2.429,3.034,6.226,4.862,10.171,4.898c0.77,0,2.03-0.096,3.639-0.533c3.561-1.056,5.552-3.307,6.623-4.517l0.391-0.44h2.545
				l-0.719,0.898c-0.662,0.828-1.379,1.691-2.098,2.415C584.171,113.188,580.625,115.812,575.411,115.812z M586.474,91.786h0.036
				v-0.06l-0.582-0.515c0.103,0.111,0.21,0.223,0.313,0.334L586.474,91.786z"/>
		</g>
		<g>
			<path fill="#FFFFFF" d="M610.309,94.354h0.991l-0.007,0.951l0,0v18.291l0,0l0.007,0.947h-0.991v-5.648
				c-0.79,1.379-1.184,1.973-1.7,2.567c-0.95,1.104-3.594,3.479-7.861,3.479c-2.057,0-3.518-0.598-4.266-0.949
				c-3.756-1.698-6.17-5.454-6.17-9.603c0-2.529,0.991-5.096,2.693-6.993c1.971-2.214,4.895-3.477,7.896-3.435
				c1.428,0,5.063,0.351,7.748,3.514c0.551,0.673,0.908,1.188,1.659,2.649V94.354z M593.515,110.673
				c2.531,3.001,5.928,3.356,7.313,3.356c1.263,0,2.451-0.277,3.595-0.712c3.593-1.5,5.886-4.974,5.886-8.927
				c0-3.039-1.386-5.137-2.097-5.966c-1.774-2.212-4.578-3.558-7.426-3.558c-3.001,0-5.058,1.422-5.888,2.098
				c-3.2,2.488-3.635,6.004-3.635,7.385C591.226,106.642,592.056,108.896,593.515,110.673z"/>
			<path fill="#FFFFFF" d="M600.748,115.496c-1.578,0-3.096-0.339-4.505-1.003c-3.933-1.78-6.481-5.746-6.481-10.103
				c0-2.668,1.032-5.354,2.832-7.364c2.052-2.299,5.031-3.62,8.171-3.62h0.148c1.499,0,5.312,0.364,8.157,3.714
				c0.255,0.305,0.467,0.579,0.684,0.91v-4.227h2.102l-0.007,1.502l0.007,19.794h-2.102v-4.225c-0.248,0.367-0.471,0.655-0.725,0.95
				C608.291,112.684,605.507,115.496,600.748,115.496z M600.787,95.423c-2.701,0-4.629,1.231-5.537,1.97
				c-3.184,2.476-3.432,5.952-3.432,6.957c-0.037,2.142,0.718,4.259,2.123,5.972c2.401,2.848,5.613,3.157,6.888,3.157
				c1.091,0,2.202-0.223,3.397-0.676c3.353-1.401,5.527-4.706,5.527-8.412c0-3.076-1.501-5.067-1.96-5.607
				C606.097,96.672,603.484,95.423,600.787,95.423z M610.742,105.964c-0.098,0.642-0.253,1.269-0.463,1.867l0.463-0.812V105.964z
				 M610.019,100.326c0.302,0.699,0.573,1.538,0.723,2.503v-2.678L610.019,100.326z"/>
		</g>
		<g>
			<path fill="#FFFFFF" d="M620.582,98.822c0.436-0.833,0.831-1.506,1.029-1.737c1.895-2.531,5.135-2.73,5.966-2.806v0.983
				c-1.818,0.196-3.042,0.396-4.465,1.583c-2.374,2.013-2.45,4.857-2.53,5.807v10.944h3.754v0.908h-7.928v-0.908h3.228V95.263h-3.27
				v-0.83h4.216V98.822z"/>
			<path fill="#FFFFFF" d="M624.889,115.059h-9.036v-2.017h3.227V95.818h-3.266v-1.939h5.322v2.912
				c0.018-0.021,0.03-0.044,0.049-0.065c1.954-2.606,5.178-2.895,6.236-2.989l0.709-0.065v2.091l-0.494,0.052
				c-1.726,0.187-2.851,0.357-4.17,1.456c-2.051,1.741-2.24,4.188-2.32,5.233l-0.012,0.197l0.002,10.342h3.753V115.059z
				 M620.187,98.858v2.29c0.106-0.632,0.289-1.372,0.627-2.135L620.187,98.858z"/>
		</g>
		<g>
			<path fill="#FFFFFF" d="M630.357,104.433c0.119,1.184,0.158,3.235,1.82,5.529c1.773,2.486,4.66,4.067,7.823,4.067
				c3.593,0,5.962-1.895,6.834-2.766c0.903-0.869,1.578-2.134,1.774-2.408h1.027c-0.944,1.658-1.42,2.331-2.093,3.001
				c-1.935,1.976-4.821,3.086-7.623,3.086c-1.268,0-3.955-0.237-6.56-2.375c-1.268-1.026-3.873-3.712-3.873-8.257
				c0-2.016,0.551-3.395,0.869-4.104c1.697-3.954,5.412-6.363,9.759-6.363c1.344,0,2.528,0.232,3.713,0.67
				c2.804,1.066,5.059,3.477,6.084,6.243c0.395,1.023,0.554,1.661,0.714,3.677H630.357z M649.636,103.561
				c-0.313-1.977-0.555-2.645-1.027-3.557c-1.539-3.079-5.057-5.212-8.608-5.212c-3.642,0-7.075,2.133-8.657,5.37
				c-0.668,1.422-0.906,2.927-0.986,3.398H649.636z"/>
			<path fill="#FFFFFF" d="M639.92,115.496c-1.763,0-4.393-0.435-6.909-2.499c-1.227-0.996-4.079-3.835-4.079-8.687
				c0-2.033,0.524-3.446,0.919-4.331c1.776-4.125,5.708-6.69,10.265-6.69c1.356,0,2.596,0.227,3.904,0.703
				c2.899,1.104,5.292,3.557,6.413,6.57c0.416,1.083,0.584,1.791,0.742,3.827l0.047,0.597h-20.26
				c0.109,1.169,0.336,2.827,1.658,4.653c1.721,2.403,4.475,3.839,7.38,3.839c3.557,0,5.831-1.995,6.44-2.604
				c0.668-0.641,1.213-1.53,1.508-2.007c0.092-0.152,0.164-0.27,0.213-0.336l0.164-0.229h2.268l-0.478,0.826
				c-0.974,1.703-1.46,2.4-2.185,3.119C645.946,114.28,642.949,115.496,639.92,115.496z M631.019,103.007h17.964
				c-0.269-1.48-0.493-2.031-0.865-2.749c-1.446-2.895-4.786-4.914-8.117-4.914c-3.405,0-6.682,2.035-8.157,5.062
				C631.393,101.352,631.152,102.337,631.019,103.007z"/>
		</g>
		<g>
			<path fill="#FFFFFF" d="M660.071,95.344h-4.231c0.439,0.987,0.871,1.973,1.268,2.962c0.75,1.938,1.459,3.911,2.25,5.889
				c1.227,3.278,2.529,6.519,3.872,9.719l7.786-18.529h-4.152v-0.951h8.813v0.951H672l-10.98,25.918h3.909v0.867h-8.811v-0.867
				h3.988l2.611-6.322l-7.707-19.521h-3.869v-1.026h8.929V95.344z"/>
			<path fill="#FFFFFF" d="M665.482,122.722h-9.916v-1.973h4.171l2.382-5.775l-7.481-18.958h-4.052v-2.137h10.039v2.018h-3.938
				c0.334,0.765,0.643,1.482,0.932,2.204c0.307,0.786,0.603,1.572,0.898,2.364c0.441,1.169,0.884,2.345,1.355,3.524
				c0.984,2.637,2.086,5.425,3.356,8.49l6.95-16.543h-3.869v-2.058h9.918v2.058h-3.863l-10.51,24.813h3.627V122.722z"/>
		</g>
	</g>
</g>
<line fill="none" stroke="#FFFFFF" stroke-width="0.75" stroke-miterlimit="10" x1="0" y1="63.471" x2="679.851" y2="63.471"/>
<g>
	<path fill="#FFFFFF" d="M7.818,109.629c-0.288-1.319-1.379-2.075-2.626-2.075c-2.267,0-3.226,1.896-3.226,3.767
		c0,1.87,0.959,3.766,3.226,3.766c1.583,0,2.59-1.224,2.747-2.746h0.815c-0.228,2.099-1.559,3.441-3.562,3.441
		c-2.699,0-4.042-2.123-4.042-4.461c0-2.339,1.343-4.462,4.042-4.462c1.619,0,3.226,0.972,3.442,2.771H7.818z"/>
	<path fill="#FFFFFF" d="M9.862,109.413h0.695v1.451h0.024c0.384-0.995,1.223-1.583,2.338-1.535v0.756
		c-1.367-0.072-2.303,0.936-2.303,2.219v3.298H9.862V109.413z"/>
	<path fill="#FFFFFF" d="M13.87,112.711c0.012,1.104,0.587,2.435,2.039,2.435c1.104,0,1.703-0.647,1.943-1.583h0.756
		c-0.324,1.403-1.14,2.219-2.699,2.219c-1.967,0-2.794-1.511-2.794-3.274c0-1.631,0.828-3.273,2.794-3.273
		c1.991,0,2.783,1.738,2.723,3.478H13.87z M17.875,112.075c-0.036-1.139-0.743-2.206-1.967-2.206c-1.235,0-1.919,1.079-2.039,2.206
		H17.875z"/>
	<path fill="#FFFFFF" d="M19.582,111.308c0.072-1.451,1.092-2.074,2.507-2.074c1.091,0,2.279,0.336,2.279,1.99v3.286
		c0,0.288,0.144,0.456,0.444,0.456c0.084,0,0.18-0.023,0.24-0.048v0.636c-0.168,0.036-0.288,0.048-0.492,0.048
		c-0.768,0-0.888-0.432-0.888-1.079h-0.024c-0.528,0.804-1.067,1.259-2.255,1.259c-1.139,0-2.075-0.563-2.075-1.811
		c0-1.739,1.691-1.799,3.322-1.991c0.624-0.072,0.971-0.156,0.971-0.84c0-1.02-0.731-1.271-1.619-1.271
		c-0.935,0-1.631,0.432-1.655,1.438H19.582z M23.611,112.22h-0.024c-0.096,0.18-0.432,0.239-0.636,0.275
		c-1.283,0.228-2.878,0.216-2.878,1.428c0,0.755,0.672,1.223,1.379,1.223c1.151,0,2.171-0.731,2.159-1.942V112.22z"/>
	<path fill="#FFFFFF" d="M27.081,109.413h1.259v0.636h-1.259v4.174c0,0.491,0.072,0.779,0.612,0.815
		c0.216,0,0.432-0.013,0.647-0.036v0.647c-0.228,0-0.444,0.024-0.671,0.024c-1.008,0-1.355-0.336-1.343-1.392v-4.233h-1.08v-0.636
		h1.08v-1.859h0.755V109.413z"/>
	<path fill="#FFFFFF" d="M29.877,112.711c0.012,1.104,0.587,2.435,2.039,2.435c1.104,0,1.703-0.647,1.943-1.583h0.756
		c-0.324,1.403-1.14,2.219-2.699,2.219c-1.967,0-2.794-1.511-2.794-3.274c0-1.631,0.828-3.273,2.794-3.273
		c1.991,0,2.783,1.738,2.723,3.478H29.877z M33.883,112.075c-0.036-1.139-0.743-2.206-1.967-2.206c-1.235,0-1.919,1.079-2.039,2.206
		H33.883z"/>
	<path fill="#FFFFFF" d="M41.106,115.602h-0.696v-1.176h-0.024c-0.324,0.804-1.307,1.355-2.207,1.355
		c-1.883,0-2.783-1.523-2.783-3.274s0.9-3.273,2.783-3.273c0.923,0,1.823,0.468,2.147,1.354h0.024v-3.55h0.755V115.602z
		 M38.18,115.146c1.607,0,2.171-1.354,2.171-2.639c0-1.283-0.564-2.638-2.171-2.638c-1.439,0-2.027,1.354-2.027,2.638
		C36.153,113.791,36.741,115.146,38.18,115.146z"/>
	<path fill="#FFFFFF" d="M45.885,107.038h0.755v3.55h0.024c0.324-0.887,1.224-1.354,2.147-1.354c1.883,0,2.783,1.522,2.783,3.273
		s-0.9,3.274-2.783,3.274c-0.996,0-1.859-0.516-2.207-1.355h-0.024v1.176h-0.695V107.038z M48.812,109.869
		c-1.607,0-2.171,1.354-2.171,2.638c0,1.284,0.564,2.639,2.171,2.639c1.439,0,2.027-1.354,2.027-2.639
		C50.838,111.224,50.25,109.869,48.812,109.869z"/>
	<path fill="#FFFFFF" d="M52.077,109.413h0.804l2.039,5.277l1.907-5.277h0.755l-2.687,7.136c-0.432,1.044-0.684,1.344-1.631,1.344
		c-0.3-0.013-0.456-0.013-0.576-0.061v-0.636c0.18,0.036,0.348,0.061,0.516,0.061c0.672,0,0.828-0.396,1.08-0.972l0.264-0.708
		L52.077,109.413z"/>
	<path fill="#FFFFFF" d="M68.069,109.629c-0.288-1.319-1.379-2.075-2.626-2.075c-2.267,0-3.226,1.896-3.226,3.767
		c0,1.87,0.959,3.766,3.226,3.766c1.583,0,2.59-1.224,2.747-2.746h0.815c-0.228,2.099-1.559,3.441-3.562,3.441
		c-2.699,0-4.042-2.123-4.042-4.461c0-2.339,1.343-4.462,4.042-4.462c1.619,0,3.226,0.972,3.442,2.771H68.069z"/>
	<path fill="#FFFFFF" d="M70.041,111.308c0.072-1.451,1.092-2.074,2.507-2.074c1.091,0,2.279,0.336,2.279,1.99v3.286
		c0,0.288,0.144,0.456,0.444,0.456c0.084,0,0.18-0.023,0.24-0.048v0.636c-0.168,0.036-0.288,0.048-0.492,0.048
		c-0.768,0-0.888-0.432-0.888-1.079h-0.024c-0.528,0.804-1.067,1.259-2.255,1.259c-1.139,0-2.075-0.563-2.075-1.811
		c0-1.739,1.691-1.799,3.322-1.991c0.624-0.072,0.971-0.156,0.971-0.84c0-1.02-0.731-1.271-1.619-1.271
		c-0.935,0-1.631,0.432-1.655,1.438H70.041z M74.07,112.22h-0.024c-0.096,0.18-0.432,0.239-0.636,0.275
		c-1.283,0.228-2.878,0.216-2.878,1.428c0,0.755,0.672,1.223,1.379,1.223c1.151,0,2.171-0.731,2.159-1.942V112.22z"/>
	<path fill="#FFFFFF" d="M76.341,109.413h0.695v1.451h0.024c0.384-0.995,1.224-1.583,2.339-1.535v0.756
		c-1.367-0.072-2.303,0.936-2.303,2.219v3.298h-0.755V109.413z"/>
	<path fill="#FFFFFF" d="M80.349,112.711c0.012,1.104,0.587,2.435,2.039,2.435c1.104,0,1.703-0.647,1.943-1.583h0.756
		c-0.324,1.403-1.14,2.219-2.699,2.219c-1.967,0-2.794-1.511-2.794-3.274c0-1.631,0.828-3.273,2.794-3.273
		c1.991,0,2.783,1.738,2.723,3.478H80.349z M84.354,112.075c-0.036-1.139-0.743-2.206-1.967-2.206c-1.235,0-1.919,1.079-2.039,2.206
		H84.354z"/>
	<path fill="#FFFFFF" d="M85.437,109.413h0.804l2.039,5.277l1.907-5.277h0.755l-2.687,7.136c-0.432,1.044-0.684,1.344-1.631,1.344
		c-0.3-0.013-0.456-0.013-0.576-0.061v-0.636c0.18,0.036,0.348,0.061,0.516,0.061c0.671,0,0.828-0.396,1.08-0.972l0.264-0.708
		L85.437,109.413z"/>
	<path fill="#FFFFFF" d="M91.977,108.55h-0.611l1.259-1.691h0.936L91.977,108.55z"/>
	<path fill="#FFFFFF" d="M97.615,111.224c-0.036-0.936-0.756-1.354-1.619-1.354c-0.672,0-1.463,0.264-1.463,1.067
		c0,0.671,0.768,0.911,1.283,1.043l1.007,0.228c0.864,0.133,1.763,0.636,1.763,1.716c0,1.343-1.331,1.858-2.482,1.858
		c-1.439,0-2.423-0.672-2.543-2.183h0.756c0.06,1.02,0.815,1.547,1.823,1.547c0.708,0,1.691-0.312,1.691-1.175
		c0-0.72-0.672-0.96-1.355-1.128l-0.971-0.216c-0.984-0.264-1.727-0.6-1.727-1.655c0-1.259,1.235-1.738,2.327-1.738
		c1.235,0,2.219,0.647,2.267,1.99H97.615z"/>
	<path fill="#FFFFFF" d="M109.421,109.629c-0.288-1.319-1.379-2.075-2.626-2.075c-2.267,0-3.226,1.896-3.226,3.767
		c0,1.87,0.959,3.766,3.226,3.766c1.583,0,2.59-1.224,2.747-2.746h0.815c-0.228,2.099-1.559,3.441-3.562,3.441
		c-2.699,0-4.042-2.123-4.042-4.461c0-2.339,1.343-4.462,4.042-4.462c1.619,0,3.226,0.972,3.442,2.771H109.421z"/>
	<path fill="#FFFFFF" d="M117.005,112.507c0,1.775-1.032,3.274-2.927,3.274c-1.895,0-2.926-1.499-2.926-3.274
		c0-1.774,1.032-3.273,2.926-3.273C115.974,109.233,117.005,110.732,117.005,112.507z M111.908,112.507
		c0,1.319,0.719,2.639,2.17,2.639s2.171-1.319,2.171-2.639s-0.72-2.638-2.171-2.638S111.908,111.188,111.908,112.507z"/>
	<path fill="#FFFFFF" d="M118.136,109.413h0.695v1.043h0.036c0.396-0.743,1.043-1.223,2.027-1.223c0.815,0,1.547,0.396,1.775,1.211
		c0.372-0.815,1.151-1.211,1.967-1.211c1.355,0,2.051,0.707,2.051,2.171v4.197h-0.756v-4.162c0-1.02-0.384-1.57-1.463-1.57
		c-1.308,0-1.679,1.079-1.679,2.23v3.502h-0.755v-4.197c0.012-0.84-0.336-1.535-1.295-1.535c-1.308,0-1.835,0.983-1.847,2.278v3.454
		h-0.755V109.413z"/>
	<path fill="#FFFFFF" d="M128.132,109.413h0.695v1.043h0.036c0.396-0.743,1.043-1.223,2.027-1.223c0.815,0,1.547,0.396,1.775,1.211
		c0.372-0.815,1.151-1.211,1.967-1.211c1.355,0,2.051,0.707,2.051,2.171v4.197h-0.756v-4.162c0-1.02-0.384-1.57-1.463-1.57
		c-1.308,0-1.679,1.079-1.679,2.23v3.502h-0.755v-4.197c0.012-0.84-0.336-1.535-1.295-1.535c-1.308,0-1.835,0.983-1.847,2.278v3.454
		h-0.755V109.413z"/>
	<path fill="#FFFFFF" d="M143.142,115.602h-0.696v-1.115h-0.024c-0.396,0.827-1.211,1.295-2.135,1.295
		c-1.559,0-2.171-0.911-2.171-2.351v-4.018h0.756v4.029c0.036,1.116,0.456,1.703,1.655,1.703c1.295,0,1.859-1.223,1.859-2.482v-3.25
		h0.756V115.602z"/>
	<path fill="#FFFFFF" d="M144.56,109.413h0.756v1.067h0.024c0.276-0.744,1.103-1.247,1.979-1.247c1.739,0,2.267,0.911,2.267,2.387
		v3.981h-0.756v-3.862c0-1.067-0.348-1.87-1.571-1.87c-1.2,0-1.919,0.911-1.943,2.122v3.61h-0.756V109.413z"/>
	<path fill="#FFFFFF" d="M151.028,107.038h0.756v1.212h-0.756V107.038z M151.028,109.413h0.756v6.188h-0.756V109.413z"/>
	<path fill="#FFFFFF" d="M157.601,111.355c-0.204-0.923-0.768-1.486-1.751-1.486c-1.451,0-2.17,1.318-2.17,2.638
		s0.719,2.639,2.17,2.639c0.936,0,1.703-0.731,1.799-1.763h0.755c-0.204,1.487-1.175,2.398-2.555,2.398
		c-1.895,0-2.926-1.499-2.926-3.274c0-1.774,1.032-3.273,2.926-3.273c1.319,0,2.339,0.707,2.507,2.122H157.601z"/>
	<path fill="#FFFFFF" d="M159.392,111.308c0.072-1.451,1.092-2.074,2.507-2.074c1.091,0,2.279,0.336,2.279,1.99v3.286
		c0,0.288,0.144,0.456,0.444,0.456c0.084,0,0.18-0.023,0.24-0.048v0.636c-0.168,0.036-0.288,0.048-0.492,0.048
		c-0.768,0-0.888-0.432-0.888-1.079h-0.024c-0.528,0.804-1.067,1.259-2.255,1.259c-1.139,0-2.075-0.563-2.075-1.811
		c0-1.739,1.691-1.799,3.322-1.991c0.624-0.072,0.971-0.156,0.971-0.84c0-1.02-0.731-1.271-1.619-1.271
		c-0.935,0-1.631,0.432-1.655,1.438H159.392z M163.421,112.22h-0.024c-0.096,0.18-0.432,0.239-0.636,0.275
		c-1.283,0.228-2.878,0.216-2.878,1.428c0,0.755,0.672,1.223,1.379,1.223c1.151,0,2.171-0.731,2.159-1.942V112.22z"/>
	<path fill="#FFFFFF" d="M166.891,109.413h1.259v0.636h-1.259v4.174c0,0.491,0.072,0.779,0.612,0.815
		c0.216,0,0.432-0.013,0.647-0.036v0.647c-0.228,0-0.444,0.024-0.671,0.024c-1.008,0-1.355-0.336-1.343-1.392v-4.233h-1.08v-0.636
		h1.08v-1.859h0.755V109.413z"/>
	<path fill="#FFFFFF" d="M169.255,107.038h0.756v1.212h-0.756V107.038z M169.255,109.413h0.756v6.188h-0.756V109.413z"/>
	<path fill="#FFFFFF" d="M177.004,112.507c0,1.775-1.032,3.274-2.927,3.274c-1.895,0-2.926-1.499-2.926-3.274
		c0-1.774,1.032-3.273,2.926-3.273C175.973,109.233,177.004,110.732,177.004,112.507z M171.907,112.507
		c0,1.319,0.719,2.639,2.17,2.639s2.171-1.319,2.171-2.639s-0.72-2.638-2.171-2.638S171.907,111.188,171.907,112.507z"/>
	<path fill="#FFFFFF" d="M178.123,109.413h0.756v1.067h0.024c0.276-0.744,1.104-1.247,1.979-1.247c1.739,0,2.267,0.911,2.267,2.387
		v3.981h-0.756v-3.862c0-1.067-0.348-1.87-1.571-1.87c-1.199,0-1.919,0.911-1.943,2.122v3.61h-0.756V109.413z"/>
	<path fill="#FFFFFF" d="M188.285,111.224c-0.036-0.936-0.756-1.354-1.619-1.354c-0.672,0-1.463,0.264-1.463,1.067
		c0,0.671,0.768,0.911,1.283,1.043l1.007,0.228c0.864,0.133,1.763,0.636,1.763,1.716c0,1.343-1.331,1.858-2.482,1.858
		c-1.439,0-2.423-0.672-2.543-2.183h0.756c0.06,1.02,0.815,1.547,1.823,1.547c0.708,0,1.691-0.312,1.691-1.175
		c0-0.72-0.672-0.96-1.355-1.128l-0.971-0.216c-0.984-0.264-1.727-0.6-1.727-1.655c0-1.259,1.235-1.738,2.327-1.738
		c1.235,0,2.219,0.647,2.267,1.99H188.285z"/>
	<path fill="#FFFFFF" d="M193.615,111.308c0.072-1.451,1.092-2.074,2.507-2.074c1.091,0,2.279,0.336,2.279,1.99v3.286
		c0,0.288,0.144,0.456,0.444,0.456c0.084,0,0.18-0.023,0.24-0.048v0.636c-0.168,0.036-0.288,0.048-0.492,0.048
		c-0.768,0-0.888-0.432-0.888-1.079h-0.024c-0.528,0.804-1.067,1.259-2.255,1.259c-1.139,0-2.075-0.563-2.075-1.811
		c0-1.739,1.691-1.799,3.322-1.991c0.624-0.072,0.971-0.156,0.971-0.84c0-1.02-0.731-1.271-1.619-1.271
		c-0.935,0-1.631,0.432-1.655,1.438H193.615z M197.645,112.22h-0.024c-0.096,0.18-0.432,0.239-0.636,0.275
		c-1.283,0.228-2.878,0.216-2.878,1.428c0,0.755,0.672,1.223,1.379,1.223c1.151,0,2.171-0.731,2.159-1.942V112.22z"/>
	<path fill="#FFFFFF" d="M199.903,109.413h0.756v1.067h0.024c0.276-0.744,1.103-1.247,1.979-1.247c1.739,0,2.267,0.911,2.267,2.387
		v3.981h-0.756v-3.862c0-1.067-0.348-1.87-1.571-1.87c-1.2,0-1.919,0.911-1.943,2.122v3.61h-0.756V109.413z"/>
	<path fill="#FFFFFF" d="M211.804,115.602h-0.696v-1.176h-0.024c-0.324,0.804-1.307,1.355-2.207,1.355
		c-1.883,0-2.783-1.523-2.783-3.274s0.9-3.273,2.783-3.273c0.923,0,1.823,0.468,2.147,1.354h0.024v-3.55h0.755V115.602z
		 M208.877,115.146c1.607,0,2.171-1.354,2.171-2.639c0-1.283-0.564-2.638-2.171-2.638c-1.439,0-2.027,1.354-2.027,2.638
		C206.851,113.791,207.438,115.146,208.877,115.146z"/>
	<path fill="#FFFFFF" d="M216.726,107.038h2.962c2.579,0.061,3.934,1.476,3.934,4.282c0,2.806-1.355,4.222-3.934,4.281h-2.962
		V107.038z M217.542,114.906h1.739c2.459,0.012,3.526-1.031,3.526-3.586s-1.067-3.599-3.526-3.586h-1.739V114.906z"/>
	<path fill="#FFFFFF" d="M225.246,112.711c0.012,1.104,0.587,2.435,2.039,2.435c1.104,0,1.703-0.647,1.943-1.583h0.756
		c-0.324,1.403-1.14,2.219-2.699,2.219c-1.967,0-2.794-1.511-2.794-3.274c0-1.631,0.828-3.273,2.794-3.273
		c1.991,0,2.783,1.738,2.723,3.478H225.246z M229.251,112.075c-0.036-1.139-0.743-2.206-1.967-2.206
		c-1.235,0-1.919,1.079-2.039,2.206H229.251z"/>
	<path fill="#FFFFFF" d="M234.736,111.224c-0.036-0.936-0.756-1.354-1.619-1.354c-0.672,0-1.463,0.264-1.463,1.067
		c0,0.671,0.768,0.911,1.283,1.043l1.007,0.228c0.864,0.133,1.763,0.636,1.763,1.716c0,1.343-1.331,1.858-2.482,1.858
		c-1.439,0-2.423-0.672-2.543-2.183h0.756c0.06,1.02,0.815,1.547,1.823,1.547c0.708,0,1.691-0.312,1.691-1.175
		c0-0.72-0.672-0.96-1.355-1.128l-0.971-0.216c-0.984-0.264-1.727-0.6-1.727-1.655c0-1.259,1.235-1.738,2.327-1.738
		c1.235,0,2.219,0.647,2.267,1.99H234.736z"/>
	<path fill="#FFFFFF" d="M236.814,107.038h0.756v1.212h-0.756V107.038z M236.814,109.413h0.756v6.188h-0.756V109.413z"/>
	<path fill="#FFFFFF" d="M244.251,115.098c-0.012,1.848-0.72,2.975-2.747,2.975c-1.235,0-2.458-0.552-2.566-1.871h0.755
		c0.168,0.911,0.972,1.235,1.811,1.235c1.391,0,1.991-0.827,1.991-2.339v-0.84h-0.024c-0.348,0.756-1.079,1.271-1.967,1.271
		c-1.979,0-2.794-1.415-2.794-3.178c0-1.703,1.007-3.118,2.794-3.118c0.899,0,1.667,0.563,1.967,1.247h0.024v-1.067h0.755V115.098z
		 M243.496,112.436c0-1.212-0.564-2.566-1.991-2.566c-1.439,0-2.039,1.283-2.039,2.566c0,1.247,0.647,2.458,2.039,2.458
		C242.812,114.894,243.496,113.694,243.496,112.436z"/>
	<path fill="#FFFFFF" d="M245.682,109.413h0.756v1.067h0.024c0.276-0.744,1.104-1.247,1.979-1.247c1.739,0,2.267,0.911,2.267,2.387
		v3.981h-0.756v-3.862c0-1.067-0.348-1.87-1.571-1.87c-1.199,0-1.919,0.911-1.943,2.122v3.61h-0.756V109.413z"/>
	<path fill="#FFFFFF" d="M255.618,107.038h2.962c2.579,0.061,3.934,1.476,3.934,4.282c0,2.806-1.355,4.222-3.934,4.281h-2.962
		V107.038z M256.433,114.906h1.739c2.459,0.012,3.526-1.031,3.526-3.586s-1.067-3.599-3.526-3.586h-1.739V114.906z"/>
	<path fill="#FFFFFF" d="M264.138,112.711c0.012,1.104,0.587,2.435,2.039,2.435c1.104,0,1.703-0.647,1.943-1.583h0.756
		c-0.324,1.403-1.14,2.219-2.699,2.219c-1.967,0-2.794-1.511-2.794-3.274c0-1.631,0.828-3.273,2.794-3.273
		c1.991,0,2.783,1.738,2.723,3.478H264.138z M268.143,112.075c-0.036-1.139-0.743-2.206-1.967-2.206
		c-1.235,0-1.919,1.079-2.039,2.206H268.143z"/>
	<path fill="#FFFFFF" d="M269.922,109.413h0.695v1.175h0.024c0.348-0.839,1.211-1.354,2.207-1.354c1.883,0,2.782,1.522,2.782,3.273
		s-0.899,3.274-2.782,3.274c-0.923,0-1.823-0.468-2.147-1.355h-0.024v3.467h-0.755V109.413z M272.848,109.869
		c-1.667,0-2.171,1.235-2.171,2.638c0,1.284,0.564,2.639,2.171,2.639c1.439,0,2.027-1.354,2.027-2.639
		C274.875,111.224,274.288,109.869,272.848,109.869z"/>
	<path fill="#FFFFFF" d="M276.737,111.308c0.072-1.451,1.092-2.074,2.507-2.074c1.091,0,2.279,0.336,2.279,1.99v3.286
		c0,0.288,0.144,0.456,0.444,0.456c0.084,0,0.18-0.023,0.24-0.048v0.636c-0.168,0.036-0.288,0.048-0.492,0.048
		c-0.768,0-0.888-0.432-0.888-1.079h-0.024c-0.528,0.804-1.067,1.259-2.255,1.259c-1.139,0-2.075-0.563-2.075-1.811
		c0-1.739,1.691-1.799,3.322-1.991c0.624-0.072,0.971-0.156,0.971-0.84c0-1.02-0.731-1.271-1.619-1.271
		c-0.935,0-1.631,0.432-1.655,1.438H276.737z M280.767,112.22h-0.024c-0.096,0.18-0.432,0.239-0.636,0.275
		c-1.283,0.228-2.878,0.216-2.878,1.428c0,0.755,0.672,1.223,1.379,1.223c1.151,0,2.171-0.731,2.159-1.942V112.22z"/>
	<path fill="#FFFFFF" d="M283.038,109.413h0.695v1.451h0.024c0.384-0.995,1.223-1.583,2.338-1.535v0.756
		c-1.367-0.072-2.303,0.936-2.303,2.219v3.298h-0.755V109.413z"/>
	<path fill="#FFFFFF" d="M288.017,109.413h1.259v0.636h-1.259v4.174c0,0.491,0.072,0.779,0.612,0.815
		c0.216,0,0.432-0.013,0.647-0.036v0.647c-0.228,0-0.444,0.024-0.671,0.024c-1.008,0-1.355-0.336-1.343-1.392v-4.233h-1.08v-0.636
		h1.08v-1.859h0.755V109.413z"/>
	<path fill="#FFFFFF" d="M290.369,109.413h0.695v1.043h0.036c0.396-0.743,1.043-1.223,2.027-1.223c0.815,0,1.547,0.396,1.775,1.211
		c0.372-0.815,1.151-1.211,1.967-1.211c1.355,0,2.051,0.707,2.051,2.171v4.197h-0.756v-4.162c0-1.02-0.384-1.57-1.463-1.57
		c-1.308,0-1.679,1.079-1.679,2.23v3.502h-0.755v-4.197c0.012-0.84-0.336-1.535-1.295-1.535c-1.307,0-1.835,0.983-1.847,2.278v3.454
		h-0.755V109.413z"/>
	<path fill="#FFFFFF" d="M300.809,112.711c0.012,1.104,0.587,2.435,2.039,2.435c1.104,0,1.703-0.647,1.943-1.583h0.756
		c-0.324,1.403-1.14,2.219-2.699,2.219c-1.967,0-2.794-1.511-2.794-3.274c0-1.631,0.828-3.273,2.794-3.273
		c1.991,0,2.783,1.738,2.723,3.478H300.809z M304.814,112.075c-0.036-1.139-0.743-2.206-1.967-2.206
		c-1.235,0-1.919,1.079-2.039,2.206H304.814z"/>
	<path fill="#FFFFFF" d="M306.581,109.413h0.756v1.067h0.024c0.276-0.744,1.104-1.247,1.979-1.247c1.739,0,2.267,0.911,2.267,2.387
		v3.981h-0.756v-3.862c0-1.067-0.348-1.87-1.571-1.87c-1.199,0-1.919,0.911-1.943,2.122v3.61h-0.756V109.413z"/>
	<path fill="#FFFFFF" d="M314.236,109.413h1.259v0.636h-1.259v4.174c0,0.491,0.072,0.779,0.612,0.815
		c0.216,0,0.432-0.013,0.647-0.036v0.647c-0.228,0-0.444,0.024-0.671,0.024c-1.008,0-1.355-0.336-1.343-1.392v-4.233h-1.08v-0.636
		h1.08v-1.859h0.755V109.413z"/>
	<path fill="#FFFFFF" d="M318.04,114.33v1.283c-0.012,0.696-0.336,1.428-1.056,1.632v-0.517c0.396-0.144,0.576-0.731,0.552-1.127
		h-0.503v-1.271H318.04z"/>
	<path fill="#FFFFFF" d="M323.789,112.783c-0.036,1.763,1.235,2.303,2.794,2.303c0.899,0,2.267-0.492,2.267-1.739
		c0-0.972-0.972-1.355-1.763-1.547l-1.907-0.468c-1.007-0.252-1.931-0.731-1.931-2.063c0-0.84,0.54-2.411,2.951-2.411
		c1.691,0,3.178,0.911,3.166,2.662h-0.815c-0.048-1.307-1.127-1.967-2.339-1.967c-1.115,0-2.147,0.432-2.147,1.703
		c0,0.804,0.6,1.14,1.295,1.308l2.087,0.516c1.211,0.324,2.219,0.852,2.219,2.255c0,0.588-0.24,2.446-3.274,2.446
		c-2.027,0-3.514-0.911-3.418-2.998H323.789z"/>
	<path fill="#FFFFFF" d="M330.749,111.308c0.072-1.451,1.092-2.074,2.507-2.074c1.091,0,2.279,0.336,2.279,1.99v3.286
		c0,0.288,0.144,0.456,0.444,0.456c0.084,0,0.18-0.023,0.24-0.048v0.636c-0.168,0.036-0.288,0.048-0.492,0.048
		c-0.768,0-0.888-0.432-0.888-1.079h-0.024c-0.528,0.804-1.067,1.259-2.255,1.259c-1.139,0-2.075-0.563-2.075-1.811
		c0-1.739,1.691-1.799,3.322-1.991c0.624-0.072,0.971-0.156,0.971-0.84c0-1.02-0.731-1.271-1.619-1.271
		c-0.935,0-1.631,0.432-1.655,1.438H330.749z M334.778,112.22h-0.024c-0.096,0.18-0.432,0.239-0.636,0.275
		c-1.283,0.228-2.878,0.216-2.878,1.428c0,0.755,0.672,1.223,1.379,1.223c1.151,0,2.171-0.731,2.159-1.942V112.22z"/>
	<path fill="#FFFFFF" d="M337.037,109.413h0.756v1.067h0.024c0.276-0.744,1.103-1.247,1.979-1.247c1.739,0,2.267,0.911,2.267,2.387
		v3.981h-0.756v-3.862c0-1.067-0.348-1.87-1.571-1.87c-1.2,0-1.919,0.911-1.943,2.122v3.61h-0.756V109.413z"/>
	<path fill="#FFFFFF" d="M344.692,109.413h1.259v0.636h-1.259v4.174c0,0.491,0.071,0.779,0.612,0.815
		c0.215,0,0.432-0.013,0.646-0.036v0.647c-0.228,0-0.443,0.024-0.671,0.024c-1.008,0-1.355-0.336-1.343-1.392v-4.233h-1.08v-0.636
		h1.08v-1.859h0.755V109.413z"/>
	<path fill="#FFFFFF" d="M347.056,107.038h0.756v1.212h-0.756V107.038z M347.056,109.413h0.756v6.188h-0.756V109.413z"/>
	<path fill="#FFFFFF" d="M349.192,111.308c0.072-1.451,1.092-2.074,2.507-2.074c1.092,0,2.279,0.336,2.279,1.99v3.286
		c0,0.288,0.144,0.456,0.443,0.456c0.084,0,0.18-0.023,0.24-0.048v0.636c-0.168,0.036-0.289,0.048-0.492,0.048
		c-0.768,0-0.888-0.432-0.888-1.079h-0.024c-0.527,0.804-1.066,1.259-2.254,1.259c-1.14,0-2.075-0.563-2.075-1.811
		c0-1.739,1.69-1.799,3.322-1.991c0.624-0.072,0.972-0.156,0.972-0.84c0-1.02-0.732-1.271-1.619-1.271
		c-0.936,0-1.631,0.432-1.655,1.438H349.192z M353.222,112.22h-0.024c-0.096,0.18-0.432,0.239-0.636,0.275
		c-1.283,0.228-2.879,0.216-2.879,1.428c0,0.755,0.672,1.223,1.38,1.223c1.151,0,2.171-0.731,2.159-1.942V112.22z"/>
	<path fill="#FFFFFF" d="M360.721,115.098c-0.013,1.848-0.72,2.975-2.747,2.975c-1.234,0-2.458-0.552-2.566-1.871h0.756
		c0.168,0.911,0.972,1.235,1.811,1.235c1.392,0,1.992-0.827,1.992-2.339v-0.84h-0.025c-0.348,0.756-1.078,1.271-1.967,1.271
		c-1.979,0-2.794-1.415-2.794-3.178c0-1.703,1.007-3.118,2.794-3.118c0.9,0,1.668,0.563,1.967,1.247h0.025v-1.067h0.755V115.098z
		 M359.966,112.436c0-1.212-0.564-2.566-1.992-2.566c-1.438,0-2.038,1.283-2.038,2.566c0,1.247,0.647,2.458,2.038,2.458
		C359.282,114.894,359.966,113.694,359.966,112.436z"/>
	<path fill="#FFFFFF" d="M367.705,112.507c0,1.775-1.031,3.274-2.926,3.274c-1.896,0-2.927-1.499-2.927-3.274
		c0-1.774,1.031-3.273,2.927-3.273C366.673,109.233,367.705,110.732,367.705,112.507z M362.608,112.507
		c0,1.319,0.72,2.639,2.171,2.639s2.17-1.319,2.17-2.639s-0.719-2.638-2.17-2.638S362.608,111.188,362.608,112.507z"/>
	<path fill="#FFFFFF" d="M370.287,114.33v1.283c-0.012,0.696-0.336,1.428-1.055,1.632v-0.517c0.396-0.144,0.575-0.731,0.551-1.127
		h-0.503v-1.271H370.287z"/>
	<path fill="#FFFFFF" d="M381.912,109.629c-0.287-1.319-1.379-2.075-2.626-2.075c-2.267,0-3.226,1.896-3.226,3.767
		c0,1.87,0.959,3.766,3.226,3.766c1.583,0,2.591-1.224,2.747-2.746h0.814c-0.228,2.099-1.559,3.441-3.562,3.441
		c-2.698,0-4.042-2.123-4.042-4.461c0-2.339,1.344-4.462,4.042-4.462c1.619,0,3.226,0.972,3.442,2.771H381.912z"/>
	<path fill="#FFFFFF" d="M383.943,107.038h0.756v3.442h0.024c0.276-0.744,1.104-1.247,1.979-1.247c1.738,0,2.266,0.911,2.266,2.387
		v3.981h-0.756v-3.862c0-1.067-0.348-1.87-1.57-1.87c-1.199,0-1.919,0.911-1.943,2.122v3.61h-0.756V107.038z"/>
	<path fill="#FFFFFF" d="M390.412,107.038h0.756v1.212h-0.756V107.038z M390.412,109.413h0.756v6.188h-0.756V109.413z"/>
	<path fill="#FFFFFF" d="M392.631,107.038h0.756v8.563h-0.756V107.038z"/>
	<path fill="#FFFFFF" d="M395.283,112.711c0.012,1.104,0.588,2.435,2.039,2.435c1.104,0,1.703-0.647,1.943-1.583h0.756
		c-0.324,1.403-1.141,2.219-2.699,2.219c-1.967,0-2.795-1.511-2.795-3.274c0-1.631,0.828-3.273,2.795-3.273
		c1.991,0,2.783,1.738,2.723,3.478H395.283z M399.289,112.075c-0.035-1.139-0.743-2.206-1.967-2.206
		c-1.235,0-1.919,1.079-2.039,2.206H399.289z"/>
</g>
<rect x="483.905" y="9.878" opacity="0.6" fill="#776A76" width="195.577" height="27.264"/>
<g>
	<path fill="#FFFFFF" d="M538.431,28.252V16.46h6.221v1.128h-4.341v3.965h4.102v1.128h-4.102v4.341h4.478v1.23H538.431z"/>
	<path fill="#FFFFFF" d="M556.325,28.252v-5.246c0-0.701-0.034-1.795-0.991-1.795c-1.486,0-1.812,2.563-1.812,3.657v3.384h-1.726
		v-5.093c0-0.752,0.017-1.948-1.025-1.948c-1.521,0-1.777,2.563-1.777,3.674v3.367h-1.727v-8.135h1.727v1.932h0.033
		c0.342-1.111,1.23-2.119,2.461-2.119c1.197,0,1.949,0.871,2.018,2.016h0.033c0.496-1.094,1.111-2.016,2.461-2.016
		c1.709,0,2.051,1.384,2.051,2.803v5.52H556.325z"/>
	<path fill="#FFFFFF" d="M562.392,23.262c0,1.932,0.906,4.272,3.162,4.272c0.529,0,1.059-0.12,1.555-0.342v0.786
		c-0.82,0.342-1.486,0.461-2.375,0.461c-2.82,0-4.068-1.965-4.068-4.613c0-2.324,0.975-3.896,3.47-3.896
		c2.204,0,3.128,1.247,3.128,3.332H562.392z M564.067,20.646c-1.042,0-1.556,0.889-1.624,1.829h3.128
		C565.571,21.519,565.144,20.646,564.067,20.646z"/>
	<path fill="#FFFFFF" d="M571.587,24.526v3.726h-1.727v-8.135h1.727v2.068h0.033c0.582-1.18,1.197-2.137,2.633-2.256v1.794
		C572.339,21.775,571.587,22.596,571.587,24.526z"/>
	<path fill="#FFFFFF" d="M578.577,32.098c-0.804,0-1.572-0.12-2.341-0.325V30.08c0.82,0.496,1.623,0.992,2.614,0.992
		c2.308,0,2.017-2.291,2.017-3.948h-0.034c-0.479,0.82-1.179,1.128-2.119,1.128c-2.393,0-3.06-2.137-3.06-4.152
		c0-2.086,0.582-4.17,3.06-4.17c1.025,0,1.743,0.598,2.119,1.521h0.034v-1.333h1.727v7.896
		C582.593,30.781,581.431,32.098,578.577,32.098z M579.175,21.023c-1.471,0-1.641,1.999-1.641,3.076
		c0,1.076,0.153,3.161,1.641,3.161c1.572,0,1.641-1.931,1.641-3.076C580.816,23.074,580.696,21.023,579.175,21.023z"/>
	<path fill="#FFFFFF" d="M586.917,23.262c0,1.932,0.905,4.272,3.161,4.272c0.53,0,1.06-0.12,1.556-0.342v0.786
		c-0.82,0.342-1.487,0.461-2.376,0.461c-2.819,0-4.067-1.965-4.067-4.613c0-2.324,0.975-3.896,3.469-3.896
		c2.205,0,3.128,1.247,3.128,3.332H586.917z M588.591,20.646c-1.042,0-1.555,0.889-1.623,1.829h3.127
		C590.095,21.519,589.668,20.646,588.591,20.646z"/>
	<path fill="#FFFFFF" d="M599.325,28.252v-5.093c0-0.718-0.034-1.948-1.025-1.948c-1.606,0-2.188,2.41-2.188,3.674v3.367h-1.726
		v-8.135h1.726v1.932h0.034c0.547-1.197,1.453-2.119,2.854-2.119c1.367,0,2.051,1.11,2.051,2.375v5.947H599.325z"/>
	<path fill="#FFFFFF" d="M608.23,22.766c0-0.837-0.052-2.119-1.18-2.119c-1.248,0-1.504,1.709-1.504,2.633
		c0,1.794,0.734,4.255,2.922,4.255c0.496,0,0.992-0.12,1.453-0.308v0.803c-0.701,0.257-1.436,0.41-2.17,0.41
		c-2.871,0-4.085-1.879-4.085-4.58c0-2.289,0.991-3.93,3.452-3.93c1.914,0,2.922,0.905,2.922,2.836H608.23z"/>
	<path fill="#FFFFFF" d="M614.332,31.909h-1.385l1.196-3.571l-3.128-8.221h1.795l2.137,5.811h0.033l1.914-5.811h1.624
		L614.332,31.909z"/>
	<path fill="#FFFFFF" d="M631.866,19.656c0-1.214-0.513-2.359-1.897-2.359c-2.17,0-2.494,2.906-2.494,4.529
		c0,2.188,0.427,5.383,3.264,5.383c1.145,0,1.965-0.443,2.837-1.127v1.605c-0.94,0.564-2.067,0.752-3.145,0.752
		c-3.691,0-4.956-3.076-4.956-6.306c0-3.042,1.162-5.862,4.648-5.862c2.153,0,3.931,1.061,3.931,3.385H631.866z"/>
	<path fill="#FFFFFF" d="M640.155,28.252v-1.128h-0.034c-0.479,0.82-1.333,1.315-2.29,1.315c-1.162,0-2.222-0.803-2.222-2.033
		c0-2.29,2.82-2.598,4.546-2.684v-0.717c0-0.82,0.017-2.359-1.146-2.359c-1.094,0-1.264,0.889-1.315,1.777h-1.812
		c0.137-1.896,1.316-2.494,3.127-2.494c2.256,0,2.871,0.99,2.871,3.076v5.246H640.155z M640.155,24.441
		c-1.06,0.068-2.666,0.342-2.666,1.709c0,0.598,0.325,1.213,0.991,1.213c0.223,0,0.461-0.068,0.649-0.171
		c0.684-0.358,1.025-1.042,1.025-1.794V24.441z"/>
	<path fill="#FFFFFF" d="M645.146,28.252V16.46h1.726v11.792H645.146z"/>
	<path fill="#FFFFFF" d="M650.273,28.252V16.46h1.726v11.792H650.273z"/>
</g>
<g>
	<rect x="499.429" y="31.202" fill="#FFFFFF" width="12.527" height="1.841"/>
	<path fill="#FFFFFF" d="M510.899,26.161c0-2.92-2.368-5.288-5.289-5.288c-2.923,0-5.29,2.368-5.29,5.288v4.567h10.58
		L510.899,26.161L510.899,26.161z M510.285,30.156h-1.764V26.12c0-2.281-1.633-4.178-3.794-4.59
		c0.286-0.054,0.581-0.087,0.883-0.087c2.583,0,4.675,2.095,4.675,4.678V30.156z"/>
	<path fill="#FFFFFF" d="M505.603,16.537c0.318,0,0.576-0.256,0.576-0.575v-4.754c0-0.319-0.258-0.575-0.576-0.575
		s-0.575,0.256-0.575,0.575v4.754C505.028,16.281,505.285,16.537,505.603,16.537z"/>
	<path fill="#FFFFFF" d="M497.091,23.901h-4.756c-0.317,0-0.576,0.258-0.576,0.577c0,0.315,0.259,0.574,0.576,0.574h4.756
		c0.316,0,0.574-0.259,0.574-0.574C497.666,24.159,497.408,23.901,497.091,23.901z"/>
	<path fill="#FFFFFF" d="M518.873,23.901h-4.756c-0.316,0-0.575,0.258-0.575,0.577c0,0.315,0.259,0.574,0.575,0.574h4.756
		c0.318,0,0.575-0.259,0.575-0.574C519.448,24.159,519.191,23.901,518.873,23.901z"/>
	<path fill="#FFFFFF" d="M499.99,18.863c0.225-0.226,0.225-0.588,0-0.813l-3.363-3.361c-0.225-0.226-0.588-0.226-0.813,0
		c-0.224,0.224-0.224,0.587,0,0.813l3.362,3.362C499.401,19.087,499.765,19.09,499.99,18.863z"/>
	<path fill="#FFFFFF" d="M515.393,14.688c-0.225-0.226-0.589-0.226-0.813,0l-3.362,3.361c-0.225,0.226-0.225,0.588,0,0.813
		c0.225,0.227,0.587,0.227,0.813,0l3.362-3.362C515.618,15.276,515.618,14.912,515.393,14.688z"/>
</g>
<line fill="none" stroke="#FFFFFF" stroke-width="0.75" stroke-miterlimit="10" x1="528.921" y1="8.808" x2="528.921" y2="36.071"/>
<polygon fill="#FFFFFF" points="663.63,9.608 680.023,9.608 679.837,25.628 "/>
</svg>
