<?xml version="1.0" encoding="utf-8"?>
<!-- Generator: Adobe Illustrator 16.0.3, SVG Export Plug-In . SVG Version: 6.00 Build 0)  -->
<!DOCTYPE svg PUBLIC "-//W3C//DTD SVG 1.1//EN" "http://www.w3.org/Graphics/SVG/1.1/DTD/svg11.dtd">
<svg version="1.1" id="Capa_1" xmlns="http://www.w3.org/2000/svg" xmlns:xlink="http://www.w3.org/1999/xlink" x="0px" y="0px"
	 width="129.348px" height="144.565px" viewBox="0 0 129.348 144.565" enable-background="new 0 0 129.348 144.565"
	 xml:space="preserve">
<g>
	<g>
		<path fill="#FFFFFF" d="M90.122,30.953c-0.292,13.869-11.127,25.26-25.127,24.963c-13.166-0.28-22.769-12.302-23.045-25.053
			c-0.289-13.92,11.094-26.17,24.592-24.894C79.356,7.181,89.87,17.961,90.122,30.953c0.012,0.575,1.123,0.405,1.115-0.088
			C90.958,16.629,80.011,5.713,65.793,5.432c-13.748-0.27-24.97,11.032-25.808,24.46c-0.895,14.367,11.487,26.2,25.42,26.494
			c14.162,0.304,25.55-11.689,25.832-25.521C91.249,30.289,90.129,30.46,90.122,30.953z"/>
		<path fill-rule="evenodd" clip-rule="evenodd" fill="#FFFFFF" d="M78.39,21.492c-0.701-0.004-1.399-0.025-2.102-0.035
			c-0.764-0.008-1.147-0.397-1.158-1.153c-0.016-0.894,0-1.787-0.024-2.681c-0.011-0.332,0.085-0.857-0.34-0.878
			c-0.536-0.028-0.438,0.546-0.458,0.897c-0.051,0.851-0.023,1.709-0.065,2.565c-0.017,0.358,0.08,0.914-0.451,0.925
			c-0.636,0.015-0.479-0.589-0.515-0.981c-0.042-0.46,0.035-0.939-0.031-1.396c-0.09-0.603,0.376-1.613-0.372-1.696
			c-0.52-0.058-0.364,1.044-0.372,1.616c-0.085,3.811-0.109,7.618-0.156,11.428c-0.019,1.491-0.17,1.675-1.674,1.739
			c-1.59,0.069-3.183,0.074-4.781,0.09c-2.876,0.024-5.752,0.038-8.628,0.047c-0.699,0-1.393-0.085-1.404-1.006
			c-0.043-2.758-0.098-5.521,0.124-8.273c0.027-0.334,0.044-0.791,0.523-0.765c0.466,0.024,0.459,0.467,0.466,0.809
			c0.019,0.935,0.008,1.867,0.038,2.799c0.013,0.492,0.122,0.978,0.739,1.003c0.697,0.027,0.816-0.496,0.825-1.029
			c0.031-2.566,0.039-5.132,0.077-7.697c0.008-0.904-0.442-1.263-1.304-1.227c-0.348,0.015-0.696,0.002-1.046,0.01
			c-1.724,0.036-1.89,0.165-1.898,1.867c-0.024,4.546-0.008,9.095-0.008,13.641c-0.151,0-0.299,0-0.45,0
			c0,4.433-0.016,8.862,0.019,13.291c0.003,0.692-0.391,1.828,0.8,1.827c1.053-0.004,0.778-1.087,0.802-1.763
			c0.064-2.294,0.058-4.587,0.107-6.88c0.012-0.458-0.201-1.222,0.509-1.212c0.671,0.015,0.494,0.774,0.504,1.243
			c0.011,1.008-0.048,2.02-0.063,3.03c-0.027,1.553-0.059,3.108-0.063,4.664c-0.003,0.452,0.132,0.87,0.66,0.955
			c0.445,0.071,0.771-0.144,0.891-0.571c0.087-0.295,0.109-0.611,0.117-0.922c0.055-2.409,0.136-4.82,0.14-7.227
			c0-1.119,0.422-1.651,1.578-1.641c2.718,0.02,5.442,0.008,8.161-0.018c0.984-0.011,1.43,0.427,1.412,1.404
			c-0.037,1.517-0.047,3.032-0.07,4.546c-0.02,1.165-0.055,2.333-0.055,3.497c0.004,0.525,0.244,0.912,0.828,0.932
			c0.572,0.018,0.852-0.326,0.896-0.862c0.04-0.424,0.051-0.856,0.055-1.281c0.027-2.291,0.035-4.584,0.073-6.88
			c0.005-0.647,0.079-1.317,0.947-1.327c0.882-0.01,0.942,0.652,0.937,1.307c0,1.672-0.019,3.343-0.03,5.015
			c-0.005,0.933-0.011,1.867-0.016,2.802c0,0.589,0.12,1.146,0.846,1.158c0.709,0.015,0.721-0.566,0.756-1.079
			c0.011-0.194,0.019-0.39,0.019-0.586c0.078-5.167,0.156-10.339,0.214-15.509c0.042-3.902-0.282-3.414,3.413-3.611
			c0.751-0.041,1.181-0.321,1.188-1.102c0.017-0.894,0.027-1.786,0.03-2.681C79.548,21.867,79.157,21.492,78.39,21.492z"/>
	</g>
	<g>
		<path fill="#FFFFFF" d="M24.78,105.353c0,0.781-0.948,1.617-2.509,1.617c-2.005,0-3.01,0.678-6.347,0.678
			c-0.838,0-1.67-0.367-1.67-1.67c0-0.938,0.559-10.844,0.559-15.534c0-5.788-0.283-15.328-0.283-20.749
			c0-0.94,0.836-1.409,1.615-1.409c14.373,0,20.94,2.605,20.94,10.478c0,9.488-5.176,10.896-12.639,10.896
			C24.555,96.542,24.78,103.423,24.78,105.353z M19.601,85.541c0,1.355,0.445,1.514,1.057,1.514c1.786,0,5.568-0.313,7.185-0.313
			c4.234,0,6.571-1.825,6.571-6.673c0-3.076-1.611-5.423-4.233-6.413c-2.283-0.887-4.174-1.981-9.801-1.981
			c-0.559,0-1.118,0.47-1.118,1.251C19.262,72.925,19.601,80.382,19.601,85.541z"/>
		<path fill="#FFFFFF" d="M48.506,90.234c0,4.172,0.167,8.289,0.167,11.416c0,3.965-0.724,4.799-0.724,4.799
			s-3.675,1.199-7.626,1.199c-0.617,0-1.284-0.889-1.284-1.879c0-0.834,0.276-10.373,0.276-15.325
			c0-10.584-0.276-16.058-0.276-19.029c0-1.826,0.392-2.607,7.239-2.607c12.589,0,17.489,3.855,17.489,10.008
			c0,6.568-2.73,9.698-8.521,10.793c0.669,2.971,8.521,14.233,8.521,16.84c0,0.469-1.225,1.199-2.563,1.199
			c-1.558,0-7.238-13.19-9.687-17.623L48.506,90.234z M45.11,85.541c0,0.939,0.891,1.67,2.059,1.617l6.125-0.313
			c3.788-0.156,6.406-1.406,6.406-7.975c0-5.789-7.626-6.623-13.923-6.623c-0.611,0-0.945,0.262-0.945,1.146
			C44.831,73.394,45.11,80.328,45.11,85.541z"/>
		<path fill="#FFFFFF" d="M69.616,105.873c0,0.681-0.445,0.939-1.393,0.939c-1.223,0-1.669-0.467-1.615-1.094L69.95,72.04
			c0.168-1.825,1.393-3.075,3.621-3.075h2.283c3.116,0,4.176,2.243,6.014,9.488c1.117,4.432,3.954,14.963,5.791,19.968
			c1.17,3.229,2.23,7.714,2.23,8.55c0,0.417-0.334,0.678-1.227,0.678c-3.9,0-5.458-0.367-5.625-0.992
			c-0.221-0.783-2.063-11.469-4.008-11.625c-2.396-0.209-8.188-0.625-8.188-0.625C70.562,97.792,69.616,104.049,69.616,105.873z
			 M71.733,74.697l-0.612,7.771c-0.112,1.458,0.501,2.033,1.892,1.979l3.396-0.103c1.229-0.054,1.783-0.783,1.729-2.034
			c-0.446-7.715-1.393-10.217-4.234-10.217C72.175,72.093,71.847,73.29,71.733,74.697z"/>
		<path fill="#FFFFFF" d="M117.853,73.133c0,3.859-1.225,6.153-2.954,6.153c-2.783,0-3.175-1.93-8.576-1.93
			c-8.521,0-12.976,4.589-12.976,12.303c0,7.561,4.51,13.973,14.647,13.973c3.396,0,5.345-1.877,6.792-1.877
			c1.059,0,1.67,0.522,1.67,1.825c0,1.46-2.169,3.179-6.57,3.179c-13.31,0-19.439-6.829-19.439-18.507
			c0-14.024,8.079-20.592,22.056-20.592C116.403,67.661,117.853,68.859,117.853,73.133z"/>
	</g>
	<g>
		<g>
			<path fill="#FFFFFF" d="M20.099,126.238c-0.59-0.645-1.557-1.057-2.81-1.057c-2.649,0-4.26,2.094-4.26,5.369
				c0,3.438,1.396,5.316,4.116,5.316c2.041,0,3.365-1.396,3.992-3.078l0.482,0.572c-0.411,2.022-2.094,3.705-4.671,3.705
				c-3.294,0-5.531-2.237-5.531-6.516c0-3.775,2.237-6.496,5.531-6.496c1.396,0,2.523,0.5,3.239,1.217
				c0.144-0.466,0.34-0.932,0.662-1.217h0.573v4.689h-0.716C20.367,128.17,20.152,127.042,20.099,126.238z"/>
			<path fill="#FFFFFF" d="M23.874,124.269h5.244v0.77c-0.286,0.143-1.056,0.268-1.897,0.268v4.618h6.712v-4.618
				c-0.841,0-1.61-0.125-1.879-0.268v-0.77h5.244v0.77c-0.286,0.143-1.056,0.268-1.897,0.268v10.488
				c0.842,0,1.611,0.145,1.897,0.287v0.77h-5.244v-0.77c0.269-0.143,1.038-0.287,1.879-0.287v-4.814h-6.712v4.814
				c0.842,0,1.611,0.145,1.897,0.287v0.77h-5.244v-0.77c0.269-0.143,1.038-0.287,1.879-0.287v-10.488
				c-0.841,0-1.61-0.125-1.879-0.268V124.269z"/>
			<path fill="#FFFFFF" d="M39.604,136.082c0.269-0.143,1.038-0.287,1.88-0.287v-10.488c-0.842,0-1.611-0.125-1.88-0.268v-0.77
				h5.244v0.77c-0.286,0.143-1.056,0.268-1.896,0.268v10.488c0.841,0,1.61,0.145,1.896,0.287v0.77h-5.244V136.082z"/>
			<path fill="#FFFFFF" d="M47.157,136.082c0.269-0.143,0.895-0.287,1.736-0.287h0.143v-10.488c-0.841,0-1.61-0.125-1.879-0.268
				v-0.77h5.244v0.77c-0.286,0.143-1.056,0.268-1.897,0.268v10.488h5.745c0-0.77,0.197-2.309,0.627-3.006h0.77v4.063H47.157V136.082
				z"/>
			<path fill="#FFFFFF" d="M59.255,124.269H69.6v3.919h-0.77c-0.43-0.698-0.626-2.112-0.626-2.882h-5.603v4.762h3.007
				c0.019-0.806,0.287-1.539,0.43-1.809h0.77v4.601h-0.77c-0.143-0.251-0.411-0.984-0.43-1.808h-3.007v4.742h5.871
				c0-0.77,0.215-2.309,0.626-3.006h0.77v4.063H59.255v-0.77c0.269-0.143,0.895-0.287,1.736-0.287h0.143v-10.488
				c-0.841,0-1.61-0.125-1.879-0.268V124.269z"/>
			<path fill="#FFFFFF" d="M75.951,135.939l3.509-3.652c1.396-1.449,2.291-2.666,2.291-4.295c0-1.396-0.77-2.256-2.184-2.256
				c-0.859,0-1.414,0.305-1.808,0.572c0.536,0.107,1.002,0.627,1.002,1.218c0,0.823-0.573,1.181-1.253,1.181
				c-0.733,0-1.235-0.519-1.235-1.377c0-1.576,1.683-3.205,4.1-3.205c2.434,0,4.099,1.325,4.099,3.742c0,2.38-2.31,4.205-4.35,5.834
				l-1.324,1.057h4.582c0.089-0.859,0.322-2.005,0.644-2.523h1.271v4.617h-9.344V135.939z"/>
			<path fill="#FFFFFF" d="M87.369,130.55c0-4.009,1.826-6.426,4.708-6.426c3.096,0,4.688,2.31,4.688,6.426
				c0,4.082-1.735,6.516-4.688,6.516C89.052,137.066,87.369,134.829,87.369,130.55z M94.207,130.55c0-3.006-0.52-4.778-2.13-4.778
				c-1.575,0-2.131,1.772-2.131,4.778c0,2.972,0.52,4.869,2.131,4.869C93.651,135.419,94.207,133.558,94.207,130.55z"/>
			<path fill="#FFFFFF" d="M99.432,135.687c0.357-0.178,1.199-0.321,2.022-0.321h0.626v-8.932c-0.34,0.341-1.503,0.77-2.523,0.626
				l-0.608-1.396c1.468-0.071,3.508-0.841,4.242-1.396h1.629v11.097h0.626c0.823,0,1.665,0.144,2.022,0.321v1.164h-8.036V135.687z"
				/>
			<path fill="#FFFFFF" d="M112.604,135.687c0.376-0.178,1.127-0.321,1.933-0.321v-1.862h-5.119v-0.93l5.746-8.305h1.95v7.553h2.166
				l-0.305,1.682h-1.861v1.862c0.823,0,1.575,0.144,1.915,0.321v1.164h-6.425V135.687z M111.439,131.822h3.097v-4.511
				L111.439,131.822z"/>
		</g>
	</g>
	<polygon fill-rule="evenodd" clip-rule="evenodd" fill="#FFFFFF" points="12.11,116.138 12.099,118.019 121.381,117.517 
		121.389,116.889 	"/>
</g>
</svg>
