<?xml version="1.0" encoding="utf-8"?>
<!-- Generator: Adobe Illustrator 16.0.3, SVG Export Plug-In . SVG Version: 6.00 Build 0)  -->
<!DOCTYPE svg PUBLIC "-//W3C//DTD SVG 1.1//EN" "http://www.w3.org/Graphics/SVG/1.1/DTD/svg11.dtd">
<svg version="1.1" id="Capa_1" xmlns="http://www.w3.org/2000/svg" xmlns:xlink="http://www.w3.org/1999/xlink" x="0px" y="0px"
	 width="166.146px" height="28.667px" viewBox="0 0 166.146 28.667" enable-background="new 0 0 166.146 28.667"
	 xml:space="preserve">
<path opacity="0.4" fill="#F2F2F2" d="M166.405,28.167c0,0.276-0.232,0.5-0.52,0.5H0.26c-0.287,0-0.521-0.224-0.521-0.5V0.5
	c0-0.276,0.233-0.5,0.521-0.5h165.626c0.287,0,0.52,0.224,0.52,0.5V28.167z"/>
<g>
	<g>
		<path fill="#222120" d="M27.52,18.454V8.899H27.49l-3.045,9.555h-0.9L20.5,8.899h-0.03v9.555H19.69V8.104h1.38l2.939,9.225h0.03
			l2.97-9.225h1.439v10.35H27.52z"/>
		<path fill="#222120" d="M34.105,18.619c-2.985,0-3.57-2.97-3.57-5.354c0-2.355,0.63-5.325,3.57-5.325
			c2.895,0,3.51,3.015,3.51,5.325C37.615,15.664,37.15,18.619,34.105,18.619z M34.061,8.63c-2.265,0-2.505,3.029-2.505,4.694
			c0,1.65,0.39,4.604,2.58,4.604c2.279,0,2.46-2.939,2.46-4.604C36.596,11.689,36.25,8.63,34.061,8.63z"/>
		<path fill="#222120" d="M45.025,18.454l-4.425-9.21h-0.03v9.21h-0.854V8.104h1.154l4.5,9.284h0.03V8.104h0.854v10.35H45.025z"/>
		<path fill="#222120" d="M50.845,18.454h-1.949V8.104h1.77c3.57,0,4.755,1.785,4.755,5.175
			C55.42,16.489,54.31,18.454,50.845,18.454z M52.42,9.05c-0.585-0.21-1.215-0.255-1.83-0.255h-0.765v8.939h0.765
			c3.03,0,3.811-1.53,3.811-4.335C54.4,11.765,54.175,9.709,52.42,9.05z"/>
		<path fill="#222120" d="M63.174,18.454L62.05,15.02h-3.855l-1.125,3.435h-0.75l3.36-10.35h1.064l3.36,10.35H63.174z M60.145,9.064
			h-0.03l-1.694,5.265h3.404L60.145,9.064z"/>
		<path fill="#222120" d="M67.735,13.699v4.755h-0.931v-4.755L63.7,8.104h1.035l2.58,4.71l2.64-4.71h0.975L67.735,13.699z"/>
		<path fill="#222120" d="M81.175,18.454l-4.425-9.21h-0.03v9.21h-0.854V8.104h1.154l4.5,9.284h0.03V8.104h0.854v10.35H81.175z"/>
		<path fill="#222120" d="M88.06,18.619c-2.985,0-3.57-2.97-3.57-5.354c0-2.355,0.63-5.325,3.57-5.325
			c2.895,0,3.51,3.015,3.51,5.325C91.569,15.664,91.104,18.619,88.06,18.619z M88.015,8.63c-2.265,0-2.505,3.029-2.505,4.694
			c0,1.65,0.39,4.604,2.58,4.604c2.279,0,2.46-2.939,2.46-4.604C90.55,11.689,90.204,8.63,88.015,8.63z"/>
		<path fill="#222120" d="M96.729,18.454h-1.2l-3.435-10.35h0.96l3.149,9.375h0.03l3-9.375h0.885L96.729,18.454z"/>
		<path fill="#222120" d="M100.614,18.454v-1.245h1.245v1.245H100.614z"/>
		<path fill="#222120" d="M109.93,18.454v-8.52l-1.694,1.215v-0.93l1.859-1.275h0.766v9.51H109.93z"/>
		<path fill="#222120" d="M116.604,18.619c-2.85,0-3.18-2.82-3.18-5.04c0-2.1,0.375-4.8,3.061-4.8c2.76,0,3.149,2.955,3.149,5.085
			C119.635,15.935,119.26,18.619,116.604,18.619z M116.47,9.439c-1.83,0-2.024,2.729-2.024,4.05c0,1.41,0.135,4.47,2.114,4.47
			c1.936,0,2.056-2.745,2.056-4.125C118.615,12.379,118.495,9.439,116.47,9.439z"/>
		<path fill="#222120" d="M121.72,20.449h-0.795l0.165-3.24h1.08L121.72,20.449z"/>
		<path fill="#222120" d="M127.465,18.454v-0.765c1.516-1.471,4.2-4.351,4.2-6.555c0-0.96-0.63-1.695-1.62-1.695
			c-1.02,0-1.395,0.675-1.515,1.59h-1.095c0.165-1.515,1.199-2.25,2.67-2.25c1.59,0,2.534,1.005,2.534,2.58
			c0,2.325-2.564,4.74-4.064,6.33h4.26v0.765H127.465z"/>
		<path fill="#222120" d="M137.454,18.619c-2.85,0-3.18-2.82-3.18-5.04c0-2.1,0.375-4.8,3.061-4.8c2.76,0,3.149,2.955,3.149,5.085
			C140.484,15.935,140.109,18.619,137.454,18.619z M137.319,9.439c-1.83,0-2.024,2.729-2.024,4.05c0,1.41,0.135,4.47,2.114,4.47
			c1.936,0,2.056-2.745,2.056-4.125C139.465,12.379,139.345,9.439,137.319,9.439z"/>
		<path fill="#222120" d="M144.129,18.454v-8.52l-1.694,1.215v-0.93l1.859-1.275h0.766v9.51H144.129z"/>
		<path fill="#222120" d="M152.979,15.634v2.82h-0.825v-2.82h-3.765v-0.734l3.69-5.955h0.899v5.925h1.68v0.765H152.979z
			 M152.153,10.279h-0.029l-2.82,4.59h2.85V10.279z"/>
	</g>
</g>
<polygon fill="#7E9CB0" points="10.446,10.436 4.235,10.436 7.34,15.905 "/>
</svg>
