<?xml version="1.0" encoding="utf-8"?>
<!-- Generator: Adobe Illustrator 16.0.3, SVG Export Plug-In . SVG Version: 6.00 Build 0)  -->
<!DOCTYPE svg PUBLIC "-//W3C//DTD SVG 1.1//EN" "http://www.w3.org/Graphics/SVG/1.1/DTD/svg11.dtd">
<svg version="1.1" xmlns="http://www.w3.org/2000/svg" xmlns:xlink="http://www.w3.org/1999/xlink" x="0px" y="0px"
	 width="166.667px" height="13.754px" viewBox="0 0 166.667 13.754" enable-background="new 0 0 166.667 13.754"
	 xml:space="preserve">
<g id="Capa_3">
	<polygon fill="#7E9CB0" points="13.376,4.765 7.167,4.765 10.272,10.234 	"/>
	<line fill="none" x1="7.167" y1="-8127.667" x2="7.167" y2="8255.333"/>
</g>
<g id="Capa_1">
	<g>
		<g>
			<path fill="#222120" d="M20.215,11.924c-0.765,0-1.545-0.06-2.295-0.24V10.62c0.721,0.345,1.561,0.585,2.355,0.585
				c1.305,0,2.354-0.646,2.354-2.056c0-2.64-4.77-2.1-4.77-5.339c0-1.815,1.515-2.565,3.135-2.565c0.69,0,1.38,0.075,2.055,0.24
				V2.52c-0.72-0.33-1.484-0.585-2.279-0.585c-1.035,0-1.995,0.54-1.995,1.68c0,1.17,0.81,1.56,1.725,2.04
				c0.48,0.239,0.976,0.495,1.44,0.779c1.109,0.66,1.71,1.245,1.71,2.61C23.65,11.069,22.045,11.924,20.215,11.924z"/>
			<path fill="#222120" d="M31.21,11.759l-1.124-3.435H26.23l-1.125,3.435h-0.75l3.36-10.35h1.064l3.36,10.35H31.21z M28.181,2.37
				h-0.03l-1.694,5.265h3.404L28.181,2.37z"/>
			<path fill="#222120" d="M35.396,2.1v9.659h-0.93V2.1h-2.445V1.41h5.82V2.1H35.396z"/>
			<path fill="#222120" d="M42.251,11.924c-2.25,0-3.165-1.515-3.165-3.6V1.41h0.93v6.63c0,1.604,0.345,3.194,2.295,3.194
				c1.935,0,2.265-1.604,2.265-3.194V1.41h0.931v6.915C45.506,10.424,44.485,11.924,42.251,11.924z"/>
			<path fill="#222120" d="M52.811,11.759c-0.181-0.885-0.36-1.77-0.54-2.655c-0.33-1.619-0.886-2.1-2.55-2.1h-0.735v4.755h-0.93
				V1.41h2.069c1.845,0,3.436,0.63,3.436,2.729c0,1.426-1.035,2.355-2.4,2.505v0.03c1.5,0.195,1.77,0.96,2.04,2.295l0.57,2.79
				H52.811z M50.05,2.1h-1.064v4.215h0.585c1.41,0,2.97-0.421,2.97-2.13C52.54,2.594,51.476,2.1,50.05,2.1z"/>
			<path fill="#222120" d="M58.075,11.759h-1.949V1.41h1.77c3.57,0,4.755,1.785,4.755,5.175C62.65,9.794,61.54,11.759,58.075,11.759
				z M59.65,2.355C59.065,2.145,58.436,2.1,57.82,2.1h-0.765v8.939h0.765c3.03,0,3.811-1.53,3.811-4.335
				C61.631,5.07,61.405,3.014,59.65,2.355z"/>
			<path fill="#222120" d="M70.404,11.759L69.28,8.325h-3.855L64.3,11.759h-0.75l3.36-10.35h1.064l3.36,10.35H70.404z M67.375,2.37
				h-0.03L65.65,7.634h3.404L67.375,2.37z"/>
			<path fill="#222120" d="M74.966,7.004v4.755h-0.931V7.004L70.931,1.41h1.035l2.58,4.71l2.64-4.71h0.975L74.966,7.004z"/>
			<path fill="#222120" d="M92.021,11.759l-4.426-9.21h-0.029v9.21H86.71V1.41h1.154l4.5,9.284h0.031V1.41h0.854v10.35H92.021z"/>
			<path fill="#222120" d="M98.905,11.924c-2.986,0-3.57-2.97-3.57-5.354c0-2.355,0.629-5.325,3.57-5.325
				c2.895,0,3.51,3.015,3.51,5.325C102.415,8.969,101.95,11.924,98.905,11.924z M98.86,1.935c-2.266,0-2.506,3.029-2.506,4.694
				c0,1.65,0.391,4.604,2.58,4.604c2.279,0,2.461-2.939,2.461-4.604C101.396,4.995,101.05,1.935,98.86,1.935z"/>
			<path fill="#222120" d="M107.575,11.759h-1.201L102.94,1.41h0.959l3.15,9.375h0.029l3-9.375h0.885L107.575,11.759z"/>
			<path fill="#222120" d="M111.46,11.759v-1.245h1.244v1.245H111.46z"/>
			<path fill="#222120" d="M120.761,11.924c-1.695,0-2.895-0.975-2.895-2.729c0-1.186,0.719-2.13,1.889-2.355v-0.03
				c-1.139-0.239-1.68-1.109-1.68-2.234c0-1.575,1.199-2.49,2.699-2.49s2.551,0.945,2.551,2.476c0,1.02-0.6,2.1-1.68,2.265v0.029
				c1.289,0.256,1.891,1.2,1.891,2.46C123.536,10.979,122.364,11.924,120.761,11.924z M120.716,7.214c-1.125,0-1.83,0.96-1.83,2.025
				c0,1.125,0.705,2.024,1.875,2.024c1.199,0,1.754-0.825,1.754-1.95C122.515,8.205,121.915,7.214,120.716,7.214z M120.7,2.745
				c-1.051,0-1.605,0.945-1.605,1.905c0,0.944,0.525,1.845,1.561,1.845c1.125,0,1.65-0.84,1.65-1.875
				C122.306,3.66,121.751,2.745,120.7,2.745z"/>
			<path fill="#222120" d="M125.89,13.754h-0.795l0.166-3.24h1.08L125.89,13.754z"/>
			<path fill="#222120" d="M131.636,11.759v-0.765c1.516-1.471,4.199-4.351,4.199-6.555c0-0.96-0.629-1.695-1.619-1.695
				c-1.02,0-1.395,0.675-1.516,1.59h-1.094c0.164-1.515,1.199-2.25,2.67-2.25c1.59,0,2.533,1.005,2.533,2.58
				c0,2.325-2.564,4.74-4.064,6.33h4.26v0.765H131.636z"/>
			<path fill="#222120" d="M141.624,11.924c-2.85,0-3.18-2.82-3.18-5.04c0-2.1,0.375-4.8,3.061-4.8c2.76,0,3.15,2.955,3.15,5.085
				C144.655,9.24,144.28,11.924,141.624,11.924z M141.489,2.745c-1.83,0-2.023,2.729-2.023,4.05c0,1.41,0.135,4.47,2.113,4.47
				c1.936,0,2.057-2.745,2.057-4.125C143.636,5.684,143.515,2.745,141.489,2.745z"/>
			<path fill="#222120" d="M148.3,11.759V3.24l-1.695,1.215v-0.93l1.859-1.275h0.766v9.51H148.3z"/>
			<path fill="#222120" d="M157.149,8.939v2.82h-0.826v-2.82h-3.764V8.205l3.689-5.955h0.9v5.925h1.68v0.765H157.149z
				 M156.323,3.584h-0.029l-2.82,4.59h2.85V3.584z"/>
		</g>
	</g>
</g>
<g id="Capa_2" display="none">
	<g display="inline">
		<g>
			<path fill="#222120" d="M19.66,11.924c-0.765,0-1.545-0.06-2.295-0.24V10.62c0.721,0.345,1.561,0.585,2.355,0.585
				c1.305,0,2.354-0.646,2.354-2.056c0-2.64-4.77-2.1-4.77-5.339c0-1.815,1.515-2.565,3.135-2.565c0.69,0,1.38,0.075,2.055,0.24
				V2.52c-0.72-0.33-1.484-0.585-2.279-0.585c-1.035,0-1.995,0.54-1.995,1.68c0,1.17,0.81,1.56,1.725,2.04
				c0.48,0.239,0.976,0.495,1.44,0.779c1.109,0.66,1.71,1.245,1.71,2.61C23.095,11.069,21.49,11.924,19.66,11.924z"/>
			<path fill="#222120" d="M28.076,11.924c-2.25,0-3.165-1.515-3.165-3.6V1.41h0.93v6.63c0,1.604,0.345,3.194,2.295,3.194
				c1.935,0,2.265-1.604,2.265-3.194V1.41h0.931v6.915C31.331,10.424,30.31,11.924,28.076,11.924z"/>
			<path fill="#222120" d="M39.19,11.759l-4.425-9.21h-0.03v9.21H33.88V1.41h1.154l4.5,9.284h0.03V1.41h0.854v10.35H39.19z"/>
			<path fill="#222120" d="M45.009,11.759H43.06V1.41h1.77c3.57,0,4.756,1.785,4.756,5.175
				C49.585,9.794,48.474,11.759,45.009,11.759z M46.585,2.355C45.999,2.145,45.37,2.1,44.755,2.1h-0.766v8.939h0.766
				c3.029,0,3.811-1.53,3.811-4.335C48.565,5.07,48.339,3.014,46.585,2.355z"/>
			<path fill="#222120" d="M57.339,11.759l-1.125-3.435h-3.855l-1.125,3.435h-0.75l3.361-10.35h1.064l3.359,10.35H57.339z
				 M54.31,2.37h-0.031l-1.693,5.265h3.404L54.31,2.37z"/>
			<path fill="#222120" d="M61.899,7.004v4.755h-0.93V7.004L57.864,1.41h1.035l2.58,4.71l2.641-4.71h0.975L61.899,7.004z"/>
			<path fill="#222120" d="M75.339,11.759l-4.424-9.21h-0.031v9.21H70.03V1.41h1.154l4.5,9.284h0.029V1.41h0.855v10.35H75.339z"/>
			<path fill="#222120" d="M82.224,11.924c-2.984,0-3.57-2.97-3.57-5.354c0-2.355,0.631-5.325,3.57-5.325
				c2.895,0,3.51,3.015,3.51,5.325C85.733,8.969,85.269,11.924,82.224,11.924z M82.179,1.935c-2.264,0-2.504,3.029-2.504,4.694
				c0,1.65,0.389,4.604,2.58,4.604c2.279,0,2.459-2.939,2.459-4.604C84.714,4.995,84.368,1.935,82.179,1.935z"/>
			<path fill="#222120" d="M90.894,11.759h-1.199L86.259,1.41h0.961l3.148,9.375h0.031l3-9.375h0.885L90.894,11.759z"/>
			<path fill="#222120" d="M94.778,11.759v-1.245h1.246v1.245H94.778z"/>
			<path fill="#222120" d="M103.659,11.924c-0.975,0-1.859-0.39-2.324-1.29c-0.121-0.24-0.211-0.51-0.225-0.78h1.094
				c0,0.87,0.631,1.41,1.471,1.41c1.994,0,2.145-3.21,2.145-4.62h-0.029c-0.301,0.811-1.41,1.275-2.221,1.275
				c-1.695,0-2.594-1.275-2.594-2.865c0-1.755,1.02-2.97,2.818-2.97c2.641,0,3,2.625,3,4.695
				C106.794,8.955,106.509,11.924,103.659,11.924z M103.749,2.745c-1.244,0-1.754,1.14-1.754,2.22s0.51,2.295,1.754,2.295
				c1.066,0,1.965-0.96,1.965-2.01C105.714,4.11,105.04,2.745,103.749,2.745z"/>
			<path fill="#222120" d="M109.21,13.754h-0.795l0.164-3.24h1.08L109.21,13.754z"/>
			<path fill="#222120" d="M114.954,11.759v-0.765c1.516-1.471,4.201-4.351,4.201-6.555c0-0.96-0.631-1.695-1.621-1.695
				c-1.02,0-1.395,0.675-1.514,1.59h-1.096c0.166-1.515,1.199-2.25,2.67-2.25c1.59,0,2.535,1.005,2.535,2.58
				c0,2.325-2.564,4.74-4.064,6.33h4.26v0.765H114.954z"/>
			<path fill="#222120" d="M124.944,11.924c-2.85,0-3.18-2.82-3.18-5.04c0-2.1,0.375-4.8,3.061-4.8c2.76,0,3.148,2.955,3.148,5.085
				C127.974,9.24,127.599,11.924,124.944,11.924z M124.81,2.745c-1.83,0-2.025,2.729-2.025,4.05c0,1.41,0.135,4.47,2.115,4.47
				c1.936,0,2.055-2.745,2.055-4.125C126.954,5.684,126.835,2.745,124.81,2.745z"/>
			<path fill="#222120" d="M131.618,11.759V3.24l-1.693,1.215v-0.93l1.859-1.275h0.766v9.51H131.618z"/>
			<path fill="#222120" d="M140.468,8.939v2.82h-0.824v-2.82h-3.766V8.205l3.691-5.955h0.898v5.925h1.68v0.765H140.468z
				 M139.644,3.584h-0.029l-2.82,4.59h2.85V3.584z"/>
		</g>
	</g>
</g>
<g id="Capa_4" display="none">
	<g display="inline">
		<g>
			<path fill="#222120" d="M24.842,11.759V2.205h-0.029l-3.045,9.555h-0.9l-3.045-9.555h-0.03v9.555h-0.779V1.41h1.38l2.939,9.225
				h0.03l2.97-9.225h1.439v10.35H24.842z"/>
			<path fill="#222120" d="M31.428,11.924c-2.985,0-3.57-2.97-3.57-5.354c0-2.355,0.63-5.325,3.57-5.325
				c2.895,0,3.51,3.015,3.51,5.325C34.938,8.969,34.473,11.924,31.428,11.924z M31.383,1.935c-2.265,0-2.505,3.029-2.505,4.694
				c0,1.65,0.39,4.604,2.58,4.604c2.279,0,2.46-2.939,2.46-4.604C33.918,4.995,33.572,1.935,31.383,1.935z"/>
			<path fill="#222120" d="M42.348,11.759l-4.425-9.21h-0.03v9.21h-0.854V1.41h1.154l4.5,9.284h0.03V1.41h0.854v10.35H42.348z"/>
			<path fill="#222120" d="M48.167,11.759h-1.949V1.41h1.77c3.57,0,4.755,1.785,4.755,5.175
				C52.742,9.794,51.632,11.759,48.167,11.759z M49.742,2.355c-0.585-0.21-1.215-0.255-1.83-0.255h-0.765v8.939h0.765
				c3.03,0,3.811-1.53,3.811-4.335C51.723,5.07,51.497,3.014,49.742,2.355z"/>
			<path fill="#222120" d="M60.496,11.759l-1.124-3.435h-3.855l-1.125,3.435h-0.75l3.36-10.35h1.064l3.36,10.35H60.496z
				 M57.467,2.37h-0.03l-1.694,5.265h3.404L57.467,2.37z"/>
			<path fill="#222120" d="M65.058,7.004v4.755h-0.931V7.004L61.022,1.41h1.035l2.58,4.71l2.64-4.71h0.975L65.058,7.004z"/>
			<path fill="#222120" d="M78.497,11.759l-4.425-9.21h-0.03v9.21h-0.854V1.41h1.154l4.5,9.284h0.03V1.41h0.854v10.35H78.497z"/>
			<path fill="#222120" d="M85.382,11.924c-2.985,0-3.57-2.97-3.57-5.354c0-2.355,0.63-5.325,3.57-5.325
				c2.895,0,3.51,3.015,3.51,5.325C88.892,8.969,88.427,11.924,85.382,11.924z M85.337,1.935c-2.265,0-2.505,3.029-2.505,4.694
				c0,1.65,0.39,4.604,2.58,4.604c2.279,0,2.46-2.939,2.46-4.604C87.872,4.995,87.526,1.935,85.337,1.935z"/>
			<path fill="#222120" d="M94.052,11.759h-1.2L89.417,1.41h0.96l3.149,9.375h0.03l3-9.375h0.885L94.052,11.759z"/>
			<path fill="#222120" d="M97.937,11.759v-1.245h1.245v1.245H97.937z"/>
			<path fill="#222120" d="M107.252,11.759V3.24l-1.694,1.215v-0.93l1.859-1.275h0.766v9.51H107.252z"/>
			<path fill="#222120" d="M113.927,11.924c-2.85,0-3.18-2.82-3.18-5.04c0-2.1,0.375-4.8,3.061-4.8c2.76,0,3.149,2.955,3.149,5.085
				C116.957,9.24,116.582,11.924,113.927,11.924z M113.792,2.745c-1.83,0-2.024,2.729-2.024,4.05c0,1.41,0.135,4.47,2.114,4.47
				c1.936,0,2.056-2.745,2.056-4.125C115.938,5.684,115.817,2.745,113.792,2.745z"/>
			<path fill="#222120" d="M119.042,13.754h-0.795l0.165-3.24h1.08L119.042,13.754z"/>
			<path fill="#222120" d="M124.787,11.759v-0.765c1.516-1.471,4.2-4.351,4.2-6.555c0-0.96-0.63-1.695-1.62-1.695
				c-1.02,0-1.395,0.675-1.515,1.59h-1.095c0.165-1.515,1.199-2.25,2.67-2.25c1.59,0,2.534,1.005,2.534,2.58
				c0,2.325-2.564,4.74-4.064,6.33h4.26v0.765H124.787z"/>
			<path fill="#222120" d="M134.776,11.924c-2.85,0-3.18-2.82-3.18-5.04c0-2.1,0.375-4.8,3.061-4.8c2.76,0,3.149,2.955,3.149,5.085
				C137.807,9.24,137.432,11.924,134.776,11.924z M134.642,2.745c-1.83,0-2.024,2.729-2.024,4.05c0,1.41,0.135,4.47,2.114,4.47
				c1.936,0,2.056-2.745,2.056-4.125C136.787,5.684,136.667,2.745,134.642,2.745z"/>
			<path fill="#222120" d="M141.451,11.759V3.24l-1.694,1.215v-0.93l1.859-1.275h0.766v9.51H141.451z"/>
			<path fill="#222120" d="M150.301,8.939v2.82h-0.825v-2.82h-3.765V8.205l3.69-5.955h0.899v5.925h1.68v0.765H150.301z
				 M149.476,3.584h-0.029l-2.82,4.59h2.85V3.584z"/>
		</g>
	</g>
</g>
<g id="Capa_5" display="none">
	<g display="inline">
		<g>
			<path fill="#222120" d="M20.343,2.1v9.659h-0.93V2.1h-2.445V1.41h5.82V2.1H20.343z"/>
			<path fill="#222120" d="M27.199,11.924c-2.25,0-3.165-1.515-3.165-3.6V1.41h0.93v6.63c0,1.604,0.345,3.194,2.295,3.194
				c1.935,0,2.265-1.604,2.265-3.194V1.41h0.931v6.915C30.454,10.424,29.433,11.924,27.199,11.924z"/>
			<path fill="#222120" d="M33.003,11.759V1.41h4.59V2.1h-3.66V6h3.479v0.69h-3.479v4.35h3.795v0.72H33.003z"/>
			<path fill="#222120" d="M41.297,11.924c-0.765,0-1.545-0.06-2.295-0.24V10.62c0.721,0.345,1.561,0.585,2.355,0.585
				c1.305,0,2.354-0.646,2.354-2.056c0-2.64-4.77-2.1-4.77-5.339c0-1.815,1.515-2.565,3.135-2.565c0.69,0,1.38,0.075,2.055,0.24
				V2.52c-0.72-0.33-1.484-0.585-2.279-0.585c-1.035,0-1.995,0.54-1.995,1.68c0,1.17,0.81,1.56,1.725,2.04
				c0.48,0.239,0.976,0.495,1.44,0.779c1.109,0.66,1.71,1.245,1.71,2.61C44.733,11.069,43.127,11.924,41.297,11.924z"/>
			<path fill="#222120" d="M48.573,11.759h-1.949V1.41h1.77c3.57,0,4.755,1.785,4.755,5.175
				C53.148,9.794,52.038,11.759,48.573,11.759z M50.148,2.355c-0.585-0.21-1.215-0.255-1.83-0.255h-0.765v8.939h0.765
				c3.03,0,3.811-1.53,3.811-4.335C52.128,5.07,51.903,3.014,50.148,2.355z"/>
			<path fill="#222120" d="M60.902,11.759l-1.124-3.435h-3.855l-1.125,3.435h-0.75l3.36-10.35h1.064l3.36,10.35H60.902z
				 M57.873,2.37h-0.03l-1.694,5.265h3.404L57.873,2.37z"/>
			<path fill="#222120" d="M65.463,7.004v4.755h-0.931V7.004L61.428,1.41h1.035l2.58,4.71l2.64-4.71h0.975L65.463,7.004z"/>
			<path fill="#222120" d="M82.518,11.759l-4.425-9.21h-0.03v9.21h-0.854V1.41h1.154l4.5,9.284h0.03V1.41h0.854v10.35H82.518z"/>
			<path fill="#222120" d="M89.402,11.924c-2.984,0-3.57-2.97-3.57-5.354c0-2.355,0.631-5.325,3.57-5.325
				c2.895,0,3.51,3.015,3.51,5.325C92.912,8.969,92.447,11.924,89.402,11.924z M89.357,1.935c-2.264,0-2.504,3.029-2.504,4.694
				c0,1.65,0.389,4.604,2.58,4.604c2.279,0,2.459-2.939,2.459-4.604C91.893,4.995,91.547,1.935,89.357,1.935z"/>
			<path fill="#222120" d="M98.072,11.759h-1.199L93.438,1.41h0.961l3.148,9.375h0.031l3-9.375h0.885L98.072,11.759z"/>
			<path fill="#222120" d="M101.957,11.759v-1.245h1.246v1.245H101.957z"/>
			<path fill="#222120" d="M107.658,11.759V3.24l-1.695,1.215v-0.93l1.859-1.275h0.766v9.51H107.658z"/>
			<path fill="#222120" d="M113.223,11.759V3.24l-1.695,1.215v-0.93l1.859-1.275h0.766v9.51H113.223z"/>
			<path fill="#222120" d="M118.338,13.754h-0.795l0.164-3.24h1.08L118.338,13.754z"/>
			<path fill="#222120" d="M124.082,11.759v-0.765c1.516-1.471,4.201-4.351,4.201-6.555c0-0.96-0.631-1.695-1.621-1.695
				c-1.02,0-1.395,0.675-1.514,1.59h-1.096c0.166-1.515,1.199-2.25,2.67-2.25c1.59,0,2.535,1.005,2.535,2.58
				c0,2.325-2.564,4.74-4.064,6.33h4.26v0.765H124.082z"/>
			<path fill="#222120" d="M134.072,11.924c-2.85,0-3.18-2.82-3.18-5.04c0-2.1,0.375-4.8,3.061-4.8c2.76,0,3.148,2.955,3.148,5.085
				C137.102,9.24,136.727,11.924,134.072,11.924z M133.938,2.745c-1.83,0-2.025,2.729-2.025,4.05c0,1.41,0.135,4.47,2.115,4.47
				c1.936,0,2.055-2.745,2.055-4.125C136.082,5.684,135.963,2.745,133.938,2.745z"/>
			<path fill="#222120" d="M140.746,11.759V3.24l-1.693,1.215v-0.93l1.859-1.275h0.766v9.51H140.746z"/>
			<path fill="#222120" d="M149.596,8.939v2.82h-0.824v-2.82h-3.766V8.205l3.691-5.955h0.898v5.925h1.68v0.765H149.596z
				 M148.771,3.584h-0.029l-2.82,4.59h2.85V3.584z"/>
		</g>
	</g>
</g>
</svg>
