<?xml version="1.0" encoding="utf-8"?>
<!-- Generator: Adobe Illustrator 16.0.3, SVG Export Plug-In . SVG Version: 6.00 Build 0)  -->
<!DOCTYPE svg PUBLIC "-//W3C//DTD SVG 1.1//EN" "http://www.w3.org/Graphics/SVG/1.1/DTD/svg11.dtd">
<svg version="1.1" id="Capa_1" xmlns="http://www.w3.org/2000/svg" xmlns:xlink="http://www.w3.org/1999/xlink" x="0px" y="0px"
	 width="166.146px" height="28.667px" viewBox="0 0 166.146 28.667" enable-background="new 0 0 166.146 28.667"
	 xml:space="preserve">
<path opacity="0.4" fill="#F2F2F2" d="M166.667,28.167c0,0.276-0.234,0.5-0.521,0.5H0.521c-0.287,0-0.521-0.224-0.521-0.5V0.5
	C0,0.224,0.233,0,0.521,0h165.625c0.287,0,0.521,0.224,0.521,0.5V28.167z"/>
<g>
	<g>
		<path fill="#222120" d="M21.849,19.588c-0.765,0-1.545-0.06-2.295-0.24v-1.064c0.721,0.345,1.561,0.585,2.355,0.585
			c1.305,0,2.354-0.646,2.354-2.056c0-2.64-4.77-2.1-4.77-5.339c0-1.815,1.515-2.565,3.135-2.565c0.69,0,1.38,0.075,2.055,0.24
			v1.035c-0.72-0.33-1.484-0.585-2.279-0.585c-1.035,0-1.995,0.54-1.995,1.68c0,1.17,0.81,1.56,1.725,2.04
			c0.48,0.239,0.976,0.495,1.44,0.779c1.109,0.66,1.71,1.245,1.71,2.61C25.285,18.732,23.679,19.588,21.849,19.588z"/>
		<path fill="#222120" d="M32.844,19.423l-1.124-3.435h-3.855l-1.125,3.435h-0.75l3.36-10.35h1.064l3.36,10.35H32.844z
			 M29.815,10.033h-0.03l-1.694,5.265h3.404L29.815,10.033z"/>
		<path fill="#222120" d="M37.03,9.764v9.659H36.1V9.764h-2.445v-0.69h5.82v0.69H37.03z"/>
		<path fill="#222120" d="M43.885,19.588c-2.25,0-3.165-1.515-3.165-3.6V9.073h0.93v6.63c0,1.604,0.345,3.194,2.295,3.194
			c1.935,0,2.265-1.604,2.265-3.194v-6.63h0.931v6.915C47.14,18.088,46.12,19.588,43.885,19.588z"/>
		<path fill="#222120" d="M54.445,19.423c-0.181-0.885-0.36-1.77-0.54-2.655c-0.33-1.619-0.886-2.1-2.55-2.1H50.62v4.755h-0.93
			V9.073h2.069c1.845,0,3.436,0.63,3.436,2.729c0,1.426-1.035,2.355-2.4,2.505v0.03c1.5,0.195,1.77,0.96,2.04,2.295l0.57,2.79
			H54.445z M51.684,9.764H50.62v4.215h0.585c1.41,0,2.97-0.421,2.97-2.13C54.174,10.258,53.11,9.764,51.684,9.764z"/>
		<path fill="#222120" d="M59.709,19.423H57.76V9.073h1.77c3.57,0,4.755,1.785,4.755,5.175
			C64.285,17.458,63.174,19.423,59.709,19.423z M61.285,10.019c-0.585-0.21-1.215-0.255-1.83-0.255H58.69v8.939h0.765
			c3.03,0,3.811-1.53,3.811-4.335C63.265,12.733,63.04,10.678,61.285,10.019z"/>
		<path fill="#222120" d="M72.039,19.423l-1.124-3.435h-3.855l-1.125,3.435h-0.75l3.36-10.35h1.064l3.36,10.35H72.039z
			 M69.009,10.033h-0.03l-1.694,5.265h3.404L69.009,10.033z"/>
		<path fill="#222120" d="M76.6,14.668v4.755h-0.931v-4.755l-3.104-5.595H73.6l2.58,4.71l2.639-4.71h0.975L76.6,14.668z"/>
		<path fill="#222120" d="M93.655,19.423l-4.426-9.21H89.2v9.21h-0.855V9.073h1.154l4.5,9.284h0.031V9.073h0.854v10.35H93.655z"/>
		<path fill="#222120" d="M100.54,19.588c-2.986,0-3.57-2.97-3.57-5.354c0-2.355,0.629-5.325,3.57-5.325
			c2.895,0,3.51,3.015,3.51,5.325C104.05,16.633,103.585,19.588,100.54,19.588z M100.495,9.599c-2.266,0-2.506,3.029-2.506,4.694
			c0,1.65,0.391,4.604,2.58,4.604c2.279,0,2.461-2.939,2.461-4.604C103.03,12.658,102.685,9.599,100.495,9.599z"/>
		<path fill="#222120" d="M109.21,19.423h-1.201l-3.434-10.35h0.959l3.15,9.375h0.029l3-9.375h0.885L109.21,19.423z"/>
		<path fill="#222120" d="M113.095,19.423v-1.245h1.244v1.245H113.095z"/>
		<path fill="#222120" d="M122.396,19.588c-1.695,0-2.895-0.975-2.895-2.729c0-1.186,0.719-2.13,1.889-2.355v-0.03
			c-1.139-0.239-1.68-1.109-1.68-2.234c0-1.575,1.199-2.49,2.699-2.49s2.551,0.945,2.551,2.476c0,1.02-0.6,2.1-1.68,2.265v0.029
			c1.289,0.256,1.891,1.2,1.891,2.46C125.171,18.643,123.999,19.588,122.396,19.588z M122.351,14.878c-1.125,0-1.83,0.96-1.83,2.025
			c0,1.125,0.705,2.024,1.875,2.024c1.199,0,1.754-0.825,1.754-1.95C124.149,15.868,123.55,14.878,122.351,14.878z M122.335,10.408
			c-1.051,0-1.605,0.945-1.605,1.905c0,0.944,0.525,1.845,1.561,1.845c1.125,0,1.65-0.84,1.65-1.875
			C123.94,11.323,123.386,10.408,122.335,10.408z"/>
		<path fill="#222120" d="M127.524,21.418h-0.795l0.166-3.24h1.08L127.524,21.418z"/>
		<path fill="#222120" d="M133.271,19.423v-0.765c1.516-1.471,4.199-4.351,4.199-6.555c0-0.96-0.629-1.695-1.619-1.695
			c-1.02,0-1.395,0.675-1.516,1.59h-1.094c0.164-1.515,1.199-2.25,2.67-2.25c1.59,0,2.533,1.005,2.533,2.58
			c0,2.325-2.564,4.74-4.064,6.33h4.26v0.765H133.271z"/>
		<path fill="#222120" d="M143.259,19.588c-2.85,0-3.18-2.82-3.18-5.04c0-2.1,0.375-4.8,3.061-4.8c2.76,0,3.15,2.955,3.15,5.085
			C146.29,16.903,145.915,19.588,143.259,19.588z M143.124,10.408c-1.83,0-2.023,2.729-2.023,4.05c0,1.41,0.135,4.47,2.113,4.47
			c1.936,0,2.057-2.745,2.057-4.125C145.271,13.348,145.149,10.408,143.124,10.408z"/>
		<path fill="#222120" d="M149.935,19.423v-8.52l-1.695,1.215v-0.93l1.859-1.275h0.766v9.51H149.935z"/>
		<path fill="#222120" d="M158.784,16.603v2.82h-0.826v-2.82h-3.764v-0.734l3.689-5.955h0.9v5.925h1.68v0.765H158.784z
			 M157.958,11.248h-0.029l-2.82,4.59h2.85V11.248z"/>
	</g>
</g>
<polygon fill="#7E9CB0" points="11.015,9.498 4.806,9.498 7.911,14.967 "/>
</svg>
