<?xml version="1.0" encoding="utf-8"?>
<!-- Generator: Adobe Illustrator 16.0.3, SVG Export Plug-In . SVG Version: 6.00 Build 0)  -->
<!DOCTYPE svg PUBLIC "-//W3C//DTD SVG 1.1//EN" "http://www.w3.org/Graphics/SVG/1.1/DTD/svg11.dtd">
<svg version="1.1" id="Capa_1" xmlns="http://www.w3.org/2000/svg" xmlns:xlink="http://www.w3.org/1999/xlink" x="0px" y="0px"
	 width="166.146px" height="28.667px" viewBox="0 0 166.146 28.667" enable-background="new 0 0 166.146 28.667"
	 xml:space="preserve">
<path opacity="0.4" fill="#F2F2F2" d="M166.405,28.167c0,0.276-0.232,0.5-0.52,0.5H0.26c-0.287,0-0.521-0.224-0.521-0.5V0.5
	c0-0.276,0.233-0.5,0.521-0.5h165.626c0.287,0,0.52,0.224,0.52,0.5V28.167z"/>
<g>
	<g>
		<path fill="#222120" d="M22.589,19.311c-0.765,0-1.545-0.06-2.295-0.24v-1.064c0.721,0.345,1.561,0.585,2.355,0.585
			c1.305,0,2.354-0.646,2.354-2.056c0-2.64-4.77-2.1-4.77-5.339c0-1.815,1.515-2.565,3.135-2.565c0.69,0,1.38,0.075,2.055,0.24
			v1.035c-0.72-0.33-1.484-0.585-2.279-0.585c-1.035,0-1.995,0.54-1.995,1.68c0,1.17,0.81,1.56,1.725,2.04
			c0.48,0.239,0.976,0.495,1.44,0.779c1.109,0.66,1.71,1.245,1.71,2.61C26.025,18.456,24.419,19.311,22.589,19.311z"/>
		<path fill="#222120" d="M31.005,19.311c-2.25,0-3.165-1.515-3.165-3.6V8.796h0.93v6.63c0,1.604,0.345,3.194,2.295,3.194
			c1.934,0,2.264-1.604,2.264-3.194v-6.63h0.932v6.915C34.261,17.811,33.239,19.311,31.005,19.311z"/>
		<path fill="#222120" d="M42.12,19.146l-4.426-9.21h-0.029v9.21H36.81V8.796h1.154l4.5,9.284h0.031V8.796h0.854v10.35H42.12z"/>
		<path fill="#222120" d="M47.938,19.146h-1.949V8.796h1.77c3.57,0,4.756,1.785,4.756,5.175
			C52.515,17.181,51.403,19.146,47.938,19.146z M49.515,9.742c-0.586-0.21-1.215-0.255-1.83-0.255h-0.766v8.939h0.766
			c3.029,0,3.811-1.53,3.811-4.335C51.495,12.457,51.269,10.401,49.515,9.742z"/>
		<path fill="#222120" d="M60.269,19.146l-1.125-3.435h-3.855l-1.125,3.435h-0.75l3.361-10.35h1.064l3.359,10.35H60.269z
			 M57.239,9.756h-0.031l-1.693,5.265h3.404L57.239,9.756z"/>
		<path fill="#222120" d="M64.829,14.391v4.755h-0.93v-4.755l-3.105-5.595h1.035l2.58,4.71l2.641-4.71h0.975L64.829,14.391z"/>
		<path fill="#222120" d="M78.269,19.146l-4.424-9.21h-0.031v9.21H72.96V8.796h1.154l4.5,9.284h0.029V8.796h0.855v10.35H78.269z"/>
		<path fill="#222120" d="M85.153,19.311c-2.984,0-3.57-2.97-3.57-5.354c0-2.355,0.631-5.325,3.57-5.325
			c2.895,0,3.51,3.015,3.51,5.325C88.663,16.356,88.198,19.311,85.153,19.311z M85.108,9.322c-2.264,0-2.504,3.029-2.504,4.694
			c0,1.65,0.389,4.604,2.58,4.604c2.279,0,2.459-2.939,2.459-4.604C87.644,12.381,87.298,9.322,85.108,9.322z"/>
		<path fill="#222120" d="M93.823,19.146h-1.199l-3.436-10.35h0.961l3.148,9.375h0.031l3-9.375h0.885L93.823,19.146z"/>
		<path fill="#222120" d="M97.708,19.146v-1.245h1.246v1.245H97.708z"/>
		<path fill="#222120" d="M106.589,19.311c-0.975,0-1.859-0.39-2.324-1.29c-0.121-0.24-0.211-0.51-0.225-0.78h1.094
			c0,0.87,0.631,1.41,1.471,1.41c1.994,0,2.145-3.21,2.145-4.62h-0.029c-0.301,0.811-1.41,1.275-2.221,1.275
			c-1.695,0-2.594-1.275-2.594-2.865c0-1.755,1.02-2.97,2.818-2.97c2.641,0,3,2.625,3,4.695
			C109.724,16.341,109.438,19.311,106.589,19.311z M106.679,10.131c-1.244,0-1.754,1.14-1.754,2.22s0.51,2.295,1.754,2.295
			c1.066,0,1.965-0.96,1.965-2.01C108.644,11.497,107.97,10.131,106.679,10.131z"/>
		<path fill="#222120" d="M112.14,21.141h-0.795l0.164-3.24h1.08L112.14,21.141z"/>
		<path fill="#222120" d="M117.884,19.146v-0.765c1.516-1.471,4.201-4.351,4.201-6.555c0-0.96-0.631-1.695-1.621-1.695
			c-1.02,0-1.395,0.675-1.514,1.59h-1.096c0.166-1.515,1.199-2.25,2.67-2.25c1.59,0,2.535,1.005,2.535,2.58
			c0,2.325-2.564,4.74-4.064,6.33h4.26v0.765H117.884z"/>
		<path fill="#222120" d="M127.874,19.311c-2.85,0-3.18-2.82-3.18-5.04c0-2.1,0.375-4.8,3.061-4.8c2.76,0,3.148,2.955,3.148,5.085
			C130.903,16.626,130.528,19.311,127.874,19.311z M127.739,10.131c-1.83,0-2.025,2.729-2.025,4.05c0,1.41,0.135,4.47,2.115,4.47
			c1.936,0,2.055-2.745,2.055-4.125C129.884,13.071,129.765,10.131,127.739,10.131z"/>
		<path fill="#222120" d="M134.548,19.146v-8.52l-1.693,1.215v-0.93l1.859-1.275h0.766v9.51H134.548z"/>
		<path fill="#222120" d="M143.397,16.326v2.82h-0.824v-2.82h-3.766v-0.734l3.691-5.955h0.898v5.925h1.68v0.765H143.397z
			 M142.573,10.971h-0.029l-2.82,4.59h2.85V10.971z"/>
	</g>
</g>
<polygon fill="#7E9CB0" points="10.754,10.407 4.545,10.407 7.649,15.876 "/>
</svg>
