<?xml version="1.0" encoding="utf-8"?>
<!-- Generator: Adobe Illustrator 16.0.3, SVG Export Plug-In . SVG Version: 6.00 Build 0)  -->
<!DOCTYPE svg PUBLIC "-//W3C//DTD SVG 1.1//EN" "http://www.w3.org/Graphics/SVG/1.1/DTD/svg11.dtd">
<svg version="1.1" id="Capa_1" xmlns="http://www.w3.org/2000/svg" xmlns:xlink="http://www.w3.org/1999/xlink" x="0px" y="0px"
	 width="771.011px" height="114.174px" viewBox="0 0 771.011 114.174" enable-background="new 0 0 771.011 114.174"
	 xml:space="preserve">
<rect fill="#8DB4AE" width="771.011" height="114.174"/>
<g>
	<g>
		<path fill="#FFFFFF" d="M705.563,30.951c-0.178,8.438-6.771,15.369-15.289,15.188c-8.011-0.17-13.854-7.485-14.021-15.243
			c-0.176-8.47,6.75-15.924,14.963-15.147C699.013,16.486,705.41,23.046,705.563,30.951c0.007,0.35,0.684,0.246,0.679-0.054
			c-0.17-8.662-6.831-15.304-15.481-15.475c-8.365-0.165-15.193,6.712-15.703,14.883c-0.545,8.742,6.989,15.941,15.467,16.12
			c8.617,0.185,15.546-7.112,15.718-15.528C706.249,30.547,705.567,30.651,705.563,30.951z"/>
		<path fill-rule="evenodd" clip-rule="evenodd" fill="#FFFFFF" d="M698.425,25.194c-0.427-0.002-0.852-0.016-1.278-0.021
			c-0.465-0.005-0.698-0.242-0.705-0.702c-0.01-0.544,0-1.087-0.015-1.631c-0.007-0.202,0.052-0.521-0.207-0.534
			c-0.326-0.017-0.267,0.333-0.278,0.546c-0.031,0.518-0.015,1.04-0.04,1.561c-0.01,0.218,0.049,0.556-0.274,0.563
			c-0.387,0.009-0.292-0.358-0.313-0.597c-0.025-0.28,0.021-0.571-0.019-0.849c-0.055-0.367,0.229-0.981-0.227-1.032
			c-0.316-0.035-0.222,0.635-0.227,0.983c-0.052,2.318-0.066,4.635-0.095,6.954c-0.012,0.907-0.104,1.019-1.019,1.058
			c-0.968,0.042-1.937,0.045-2.909,0.055c-1.75,0.015-3.5,0.023-5.25,0.029c-0.426,0-0.848-0.052-0.854-0.612
			c-0.026-1.678-0.06-3.359,0.075-5.034c0.017-0.204,0.026-0.481,0.318-0.465c0.283,0.015,0.279,0.284,0.283,0.492
			c0.012,0.569,0.005,1.136,0.023,1.703c0.008,0.299,0.074,0.595,0.449,0.61c0.424,0.017,0.497-0.301,0.502-0.626
			c0.019-1.561,0.023-3.123,0.047-4.684c0.005-0.55-0.269-0.769-0.793-0.746c-0.212,0.009-0.424,0.001-0.637,0.006
			c-1.049,0.022-1.15,0.101-1.155,1.136c-0.015,2.766-0.005,5.534-0.005,8.3c-0.092,0-0.182,0-0.273,0
			c0,2.697-0.01,5.392,0.012,8.087c0.002,0.421-0.238,1.112,0.486,1.111c0.641-0.002,0.474-0.661,0.488-1.072
			c0.039-1.396,0.035-2.791,0.065-4.187c0.007-0.278-0.122-0.743,0.31-0.737c0.408,0.009,0.301,0.471,0.307,0.756
			c0.007,0.614-0.029,1.229-0.038,1.844c-0.017,0.945-0.036,1.892-0.038,2.838c-0.002,0.275,0.08,0.529,0.401,0.581
			c0.271,0.043,0.47-0.087,0.542-0.347c0.053-0.18,0.066-0.372,0.071-0.561c0.033-1.466,0.083-2.933,0.085-4.397
			c0-0.681,0.257-1.005,0.96-0.999c1.653,0.012,3.312,0.005,4.966-0.011c0.599-0.006,0.87,0.26,0.858,0.854
			c-0.021,0.923-0.028,1.845-0.042,2.766c-0.012,0.709-0.033,1.419-0.033,2.128c0.002,0.319,0.148,0.555,0.504,0.566
			c0.348,0.011,0.518-0.198,0.545-0.524c0.024-0.258,0.031-0.521,0.033-0.78c0.017-1.394,0.021-2.79,0.045-4.186
			c0.003-0.395,0.048-0.802,0.576-0.808c0.537-0.006,0.573,0.396,0.57,0.795c0,1.018-0.012,2.034-0.019,3.051
			c-0.003,0.567-0.007,1.136-0.01,1.705c0,0.358,0.073,0.698,0.515,0.705c0.432,0.009,0.438-0.344,0.46-0.656
			c0.007-0.119,0.012-0.237,0.012-0.356c0.047-3.145,0.095-6.291,0.13-9.437c0.025-2.375-0.172-2.077,2.076-2.197
			c0.457-0.024,0.719-0.195,0.724-0.67c0.01-0.543,0.017-1.086,0.019-1.631C699.13,25.422,698.892,25.194,698.425,25.194z"/>
	</g>
	<g>
		<path fill="#FFFFFF" d="M665.806,76.221c0,0.475-0.576,0.983-1.526,0.983c-1.22,0-1.831,0.412-3.861,0.412
			c-0.51,0-1.017-0.224-1.017-1.017c0-0.57,0.34-6.598,0.34-9.451c0-3.521-0.172-9.327-0.172-12.625
			c0-0.572,0.509-0.857,0.982-0.857c8.745,0,12.741,1.585,12.741,6.375c0,5.772-3.149,6.629-7.69,6.629
			C665.669,70.859,665.806,75.046,665.806,76.221z M662.654,64.165c0,0.825,0.271,0.921,0.644,0.921c1.086,0,3.388-0.19,4.371-0.19
			c2.576,0,3.998-1.11,3.998-4.06c0-1.872-0.98-3.3-2.575-3.902c-1.39-0.539-2.54-1.206-5.964-1.206c-0.34,0-0.68,0.286-0.68,0.761
			C662.448,56.489,662.654,61.025,662.654,64.165z"/>
		<path fill="#FFFFFF" d="M680.242,67.021c0,2.537,0.102,5.043,0.102,6.945c0,2.412-0.44,2.92-0.44,2.92s-2.236,0.729-4.641,0.729
			c-0.375,0-0.781-0.54-0.781-1.143c0-0.508,0.168-6.313,0.168-9.325c0-6.439-0.168-9.771-0.168-11.578
			c0-1.111,0.238-1.586,4.404-1.586c7.66,0,10.642,2.346,10.642,6.09c0,3.996-1.661,5.9-5.185,6.566
			c0.407,1.808,5.185,8.66,5.185,10.246c0,0.285-0.745,0.729-1.56,0.729c-0.948,0-4.404-8.026-5.895-10.723L680.242,67.021z
			 M678.176,64.165c0,0.571,0.542,1.017,1.253,0.983l3.727-0.189c2.305-0.096,3.897-0.855,3.897-4.853
			c0-3.522-4.64-4.029-8.472-4.029c-0.372,0-0.575,0.159-0.575,0.698C678.006,56.775,678.176,60.994,678.176,64.165z"/>
		<path fill="#FFFFFF" d="M693.087,76.537c0,0.413-0.271,0.57-0.848,0.57c-0.744,0-1.016-0.284-0.982-0.666l2.033-20.491
			c0.102-1.11,0.847-1.871,2.203-1.871h1.389c1.896,0,2.541,1.364,3.659,5.772c0.68,2.697,2.406,9.105,3.524,12.15
			c0.712,1.965,1.356,4.693,1.356,5.202c0,0.253-0.203,0.412-0.746,0.412c-2.373,0-3.321-0.224-3.423-0.604
			c-0.134-0.476-1.255-6.979-2.438-7.073c-1.458-0.127-4.982-0.381-4.982-0.381C693.662,71.62,693.087,75.427,693.087,76.537z
			 M694.375,57.567l-0.373,4.728c-0.068,0.887,0.305,1.237,1.151,1.205l2.066-0.063c0.748-0.033,1.085-0.477,1.052-1.238
			c-0.271-4.694-0.847-6.216-2.576-6.216C694.644,55.983,694.443,56.711,694.375,57.567z"/>
		<path fill="#FFFFFF" d="M722.437,56.616c0,2.348-0.745,3.744-1.798,3.744c-1.693,0-1.932-1.174-5.218-1.174
			c-5.185,0-7.896,2.792-7.896,7.485c0,4.601,2.744,8.503,8.912,8.503c2.066,0,3.253-1.143,4.133-1.143
			c0.645,0,1.017,0.317,1.017,1.11c0,0.888-1.32,1.935-3.998,1.935c-8.099,0-11.828-4.156-11.828-11.262
			c0-8.532,4.916-12.528,13.42-12.528C721.555,53.286,722.437,54.015,722.437,56.616z"/>
	</g>
	<g>
		<g>
			<path fill="#FFFFFF" d="M662.961,88.925c-0.359-0.393-0.948-0.644-1.71-0.644c-1.613,0-2.594,1.275-2.594,3.27
				c0,2.092,0.85,3.235,2.506,3.235c1.242,0,2.049-0.851,2.43-1.874l0.295,0.349c-0.252,1.231-1.275,2.255-2.844,2.255
				c-2.005,0-3.367-1.361-3.367-3.965c0-2.299,1.362-3.955,3.367-3.955c0.85,0,1.535,0.305,1.972,0.74
				c0.087-0.283,0.207-0.566,0.403-0.74h0.348v2.854h-0.436C663.124,90.102,662.993,89.415,662.961,88.925z"/>
			<path fill="#FFFFFF" d="M665.256,87.727h3.192v0.469c-0.174,0.086-0.643,0.162-1.154,0.162v2.812h4.085v-2.812
				c-0.513,0-0.98-0.076-1.144-0.162v-0.469h3.191v0.469c-0.174,0.086-0.643,0.162-1.154,0.162v6.385
				c0.512,0,0.98,0.088,1.154,0.175v0.468h-3.191v-0.468c0.163-0.087,0.631-0.175,1.144-0.175v-2.931h-4.085v2.931
				c0.512,0,0.98,0.088,1.154,0.175v0.468h-3.192v-0.468c0.163-0.087,0.632-0.175,1.144-0.175v-6.385
				c-0.512,0-0.98-0.076-1.144-0.162V87.727z"/>
			<path fill="#FFFFFF" d="M674.827,94.917c0.164-0.087,0.632-0.175,1.145-0.175v-6.385c-0.513,0-0.98-0.076-1.145-0.162v-0.469
				h3.192v0.469c-0.175,0.086-0.644,0.162-1.155,0.162v6.385c0.512,0,0.98,0.088,1.155,0.175v0.468h-3.192V94.917z"/>
			<path fill="#FFFFFF" d="M679.423,94.917c0.163-0.087,0.545-0.175,1.057-0.175h0.087v-6.385c-0.513,0-0.98-0.076-1.144-0.162
				v-0.469h3.191v0.469c-0.174,0.086-0.643,0.162-1.154,0.162v6.385h3.497c0-0.469,0.12-1.405,0.382-1.83h0.468v2.473h-6.384V94.917
				z"/>
			<path fill="#FFFFFF" d="M686.783,87.727h6.298v2.386h-0.469c-0.262-0.425-0.382-1.286-0.382-1.755h-3.409v2.898h1.83
				c0.01-0.49,0.174-0.937,0.262-1.1h0.468v2.799h-0.468c-0.088-0.152-0.252-0.599-0.262-1.1h-1.83v2.887h3.572
				c0-0.469,0.131-1.405,0.382-1.83h0.469v2.473h-6.461v-0.468c0.163-0.087,0.545-0.175,1.057-0.175h0.087v-6.385
				c-0.512,0-0.98-0.076-1.144-0.162V87.727z"/>
			<path fill="#FFFFFF" d="M696.941,94.83l2.136-2.223c0.85-0.883,1.395-1.623,1.395-2.615c0-0.85-0.469-1.373-1.329-1.373
				c-0.522,0-0.86,0.186-1.101,0.35c0.327,0.064,0.61,0.381,0.61,0.74c0,0.502-0.349,0.719-0.763,0.719
				c-0.446,0-0.752-0.315-0.752-0.838c0-0.959,1.024-1.951,2.495-1.951c1.481,0,2.495,0.807,2.495,2.277
				c0,1.449-1.405,2.561-2.647,3.552l-0.807,0.643h2.789c0.055-0.522,0.196-1.22,0.393-1.536h0.773v2.811h-5.688V94.83z"/>
			<path fill="#FFFFFF" d="M703.889,91.551c0-2.441,1.111-3.912,2.865-3.912c1.885,0,2.854,1.406,2.854,3.912
				c0,2.483-1.057,3.965-2.854,3.965C704.913,95.516,703.889,94.154,703.889,91.551z M708.051,91.551
				c0-1.831-0.316-2.909-1.297-2.909c-0.959,0-1.297,1.078-1.297,2.909c0,1.809,0.316,2.963,1.297,2.963
				C707.713,94.514,708.051,93.381,708.051,91.551z"/>
			<path fill="#FFFFFF" d="M711.228,94.678c0.218-0.109,0.73-0.197,1.231-0.197h0.381v-5.436c-0.207,0.207-0.915,0.469-1.536,0.381
				l-0.37-0.85c0.894-0.044,2.135-0.512,2.582-0.85h0.991v6.754h0.382c0.501,0,1.013,0.088,1.23,0.197v0.707h-4.892V94.678z"/>
			<path fill="#FFFFFF" d="M719.242,94.678c0.229-0.109,0.687-0.197,1.177-0.197v-1.133h-3.116v-0.566l3.497-5.055h1.188v4.598
				h1.318l-0.186,1.023h-1.133v1.133c0.501,0,0.959,0.088,1.166,0.197v0.707h-3.911V94.678z M718.534,92.324h1.885v-2.746
				L718.534,92.324z"/>
		</g>
	</g>
	<polygon fill-rule="evenodd" clip-rule="evenodd" fill="#FFFFFF" points="658.097,82.783 658.09,83.927 724.583,83.621 
		724.588,83.239 	"/>
</g>
<g>
	<g>
		<circle fill="none" stroke="#FFFFFF" stroke-miterlimit="10" cx="54.065" cy="63.941" r="22.21"/>
	</g>
	<path fill="#FFFFFF" d="M48.975,56.64c0.146,0.222,0.368,0.368,0.589,0.368c0.147,0,0.221,0,0.368-0.073
		c0.369-0.22,0.443-0.662,0.295-0.957l-1.693-2.946c-0.223-0.369-0.664-0.441-0.958-0.294c-0.369,0.221-0.442,0.662-0.296,0.958
		L48.975,56.64z"/>
	<path fill="#FFFFFF" d="M45.881,63.932c0-0.368-0.295-0.736-0.735-0.736h-3.391c-0.366,0-0.735,0.296-0.735,0.736
		c0,0.368,0.295,0.736,0.735,0.736h3.391C45.512,64.668,45.881,64.3,45.881,63.932z"/>
	<path fill="#FFFFFF" d="M46.691,58.923l-2.947-1.693c-0.367-0.222-0.811-0.074-0.956,0.294c-0.221,0.368-0.074,0.812,0.294,0.958
		l2.947,1.694c0.146,0.073,0.221,0.073,0.367,0.073c0.221,0,0.516-0.147,0.589-0.368C47.133,59.513,46.985,59.071,46.691,58.923z"/>
	<path fill="#FFFFFF" d="M45.955,67.762l-2.947,1.694c-0.368,0.222-0.44,0.663-0.294,0.958c0.146,0.221,0.368,0.368,0.589,0.368
		c0.148,0,0.221,0,0.367-0.075l2.947-1.693c0.368-0.22,0.441-0.663,0.295-0.956C46.766,67.688,46.322,67.541,45.955,67.762z"/>
	<path fill="#FFFFFF" d="M61.644,60.249c0.146,0,0.222,0,0.366-0.073l2.947-1.694c0.367-0.221,0.441-0.663,0.295-0.958
		c-0.221-0.368-0.664-0.441-0.957-0.294l-2.947,1.693c-0.367,0.223-0.44,0.663-0.295,0.958
		C61.127,60.102,61.422,60.249,61.644,60.249z"/>
	<path fill="#FFFFFF" d="M53.983,55.83c0.367,0,0.736-0.296,0.736-0.736v-3.388c0-0.368-0.295-0.737-0.736-0.737
		c-0.368,0-0.737,0.295-0.737,0.737v3.388C53.246,55.461,53.615,55.83,53.983,55.83z"/>
	<path fill="#FFFFFF" d="M58.033,56.935c0.148,0.073,0.223,0.073,0.369,0.073c0.22,0,0.516-0.146,0.59-0.368l1.693-2.944
		c0.222-0.37,0.074-0.812-0.295-0.958c-0.367-0.221-0.811-0.075-0.958,0.294l-1.694,2.946
		C57.591,56.272,57.664,56.715,58.033,56.935z"/>
	<path fill="#FFFFFF" d="M66.21,63.195h-3.388c-0.369,0-0.738,0.296-0.738,0.736c0,0.368,0.295,0.736,0.738,0.736h3.388
		c0.368,0,0.736-0.294,0.736-0.736C66.946,63.563,66.578,63.195,66.21,63.195z"/>
	<path fill="none" stroke="#FFFFFF" stroke-width="2" stroke-miterlimit="10" d="M53.983,70.782c3.755,0,6.851-3.095,6.851-6.851
		s-3.096-6.85-6.851-6.85c-3.757,0-6.851,3.094-6.851,6.85S50.227,70.782,53.983,70.782z"/>
	<path fill="#FFFFFF" d="M64.957,69.456l-2.947-1.694c-0.366-0.221-0.809-0.074-0.957,0.296c-0.219,0.367-0.072,0.808,0.295,0.956
		l2.947,1.693c0.147,0.075,0.221,0.075,0.367,0.075c0.221,0,0.517-0.147,0.59-0.368C65.398,70.045,65.252,69.603,64.957,69.456z"/>
	<path fill="#FFFFFF" d="M49.932,71.003c-0.368-0.221-0.811-0.073-0.957,0.293l-1.695,2.947c-0.221,0.368-0.073,0.81,0.296,0.958
		c0.147,0.073,0.22,0.073,0.366,0.073c0.223,0,0.518-0.147,0.592-0.368l1.693-2.945C50.375,71.593,50.227,71.149,49.932,71.003z"/>
	<path fill="#FFFFFF" d="M58.992,71.223c-0.223-0.366-0.664-0.44-0.959-0.293c-0.369,0.22-0.442,0.663-0.295,0.956l1.694,2.947
		c0.147,0.22,0.368,0.368,0.591,0.368c0.146,0,0.221,0,0.367-0.074c0.369-0.221,0.443-0.662,0.295-0.957L58.992,71.223z"/>
	<path fill="#FFFFFF" d="M53.983,72.107c-0.368,0-0.737,0.294-0.737,0.736v3.389c0,0.367,0.295,0.735,0.737,0.735
		c0.367,0,0.736-0.294,0.736-0.735v-3.389C54.72,72.401,54.351,72.107,53.983,72.107z"/>
</g>
<g>
	<path fill="#FFFFFF" d="M111.262,76.729h-3.153l-5.78-23.348h-0.076L96.51,76.729h-3.191l-4.429-25.9h2.327l3.866,23.123h0.075
		l5.855-23.123h2.815l5.743,23.123h0.075l3.979-23.123h2.103L111.262,76.729z"/>
	<path fill="#FFFFFF" d="M120.572,76.729v-25.9h11.486v1.727h-9.159v9.76h8.708v1.727h-8.708v10.886h9.497v1.802H120.572z"/>
	<path fill="#FFFFFF" d="M151.466,76.729l-2.815-8.596h-9.646l-2.815,8.596h-1.877l8.408-25.9h2.665l8.408,25.9H151.466z
		 M143.883,53.23h-0.074l-4.242,13.176h8.521L143.883,53.23z"/>
	<path fill="#FFFFFF" d="M161.939,52.555v24.174h-2.327V52.555h-6.118v-1.727h14.564v1.727H161.939z"/>
	<path fill="#FFFFFF" d="M184.688,76.729V64.191h-10.998v12.537h-2.328v-25.9h2.328v11.637h10.998V50.828h2.327v25.9H184.688z"/>
	<path fill="#FFFFFF" d="M193.621,76.729v-25.9h11.486v1.727h-9.158v9.76h8.708v1.727h-8.708v10.886h9.496v1.802H193.621z"/>
	<path fill="#FFFFFF" d="M222.225,76.729c-0.449-2.215-0.9-4.43-1.351-6.644c-0.825-4.055-2.215-5.256-6.382-5.256h-1.839v11.899
		h-2.327v-25.9h5.18c4.617,0,8.596,1.576,8.596,6.832c0,3.565-2.59,5.893-6.006,6.269v0.075c3.754,0.487,4.43,2.402,5.105,5.743
		l1.426,6.981H222.225z M215.318,52.555h-2.665v10.548h1.464c3.529,0,7.433-1.051,7.433-5.33
		C221.55,53.794,218.885,52.555,215.318,52.555z"/>
</g>
</svg>
