<?xml version="1.0" encoding="utf-8"?>
<!-- Generator: Adobe Illustrator 16.0.3, SVG Export Plug-In . SVG Version: 6.00 Build 0)  -->
<!DOCTYPE svg PUBLIC "-//W3C//DTD SVG 1.1//EN" "http://www.w3.org/Graphics/SVG/1.1/DTD/svg11.dtd">
<svg version="1.1" xmlns="http://www.w3.org/2000/svg" xmlns:xlink="http://www.w3.org/1999/xlink" x="0px" y="0px" width="768px"
	 height="114.174px" viewBox="0 0 768 114.174" enable-background="new 0 0 768 114.174" xml:space="preserve">
<g id="iPad">
	<g>
		<path d="M767-16.053v1022H1v-1022H767 M768-17.053H0v1024h768V-17.053L768-17.053z"/>
	</g>
	<rect x="-0.002" y="2.501" fill="#C1C1CD" width="767.002" height="1005.446"/>
	<g>
		<rect x="0.006" y="-17.053" fill="#1E1E1E" width="767.989" height="20"/>
	</g>
</g>
<g id="Content">
	<rect fill="#8D98AC" width="768" height="114.174"/>
	<g>
		<path fill="#FFFFFF" d="M115.818,65.469c0-3.486-1.846-6.232-5.535-6.232c-5.986,0-7.135,7.052-7.135,11.686
			c0,5.37,1.395,13.734,8.323,13.734c2.624,0,4.429-1.025,6.354-2.665v2.665c-1.926,1.354-4.346,1.887-6.683,1.887
			c-8.569,0-10.783-8.242-10.783-15.294c0-6.437,2.255-13.899,10.005-13.899c4.756,0,8.568,3.198,8.568,8.119H115.818z"/>
		<path fill="#FFFFFF" d="M137.711,86.092V72.396h-12.013v13.695h-2.542V57.801h2.542v12.711h12.013V57.801h2.543v28.291H137.711z"
			/>
		<path fill="#FFFFFF" d="M147.51,86.092V57.801h2.542v28.291H147.51z"/>
		<path fill="#FFFFFF" d="M157.35,86.092V57.801h2.542v26.322h9.964v1.969H157.35z"/>
		<path fill="#FFFFFF" d="M173.299,86.092V57.801h12.546v1.887H175.84v10.66h9.513v1.886h-9.513v11.89h10.373v1.969H173.299z"/>
		<path fill="#FFFFFF" d="M216.922,86.092l-3.074-9.39h-10.537l-3.076,9.39h-2.049l9.184-28.291h2.91l9.186,28.291H216.922z
			 M208.641,60.426h-0.082l-4.634,14.391h9.308L208.641,60.426z"/>
		<path fill="#FFFFFF" d="M228.361,59.688v26.404h-2.543V59.688h-6.683v-1.887h15.908v1.887H228.361z"/>
		<path fill="#FFFFFF" d="M263.58,65.51c0.041-3.854-2.379-6.273-6.232-6.273c-6.314,0-7.545,7.257-7.545,12.177
			c0,5.412,1.436,13.243,8.324,13.243c2.008,0,4.059-0.615,5.494-2.05V72.274h-7.053v-1.886h9.594v13.406
			c-2.009,2.051-5.617,2.748-8.404,2.748c-8.692,0-10.742-8.078-10.742-15.253c0-6.724,2.337-13.94,10.291-13.94
			c3.607,0,6.929,1.354,8.568,4.756c0.533,1.066,0.82,2.215,0.82,3.404H263.58z"/>
		<path fill="#FFFFFF" d="M272.845,86.092V57.801h2.542v26.322h9.963v1.969H272.845z"/>
		<path fill="#FFFFFF" d="M304.291,86.092l-3.074-9.39H290.68l-3.075,9.39h-2.05l9.184-28.291h2.912l9.184,28.291H304.291z
			 M296.01,60.426h-0.082l-4.633,14.391h9.307L296.01,60.426z"/>
		<path fill="#FFFFFF" d="M325.365,86.092L313.27,60.917h-0.082v25.175h-2.336V57.801h3.156l12.301,25.379h0.082V57.801h2.337
			v28.291H325.365z"/>
		<path fill="#FFFFFF" d="M349.883,65.469c0-3.486-1.845-6.232-5.535-6.232c-5.986,0-7.134,7.052-7.134,11.686
			c0,5.37,1.394,13.734,8.323,13.734c2.624,0,4.428-1.025,6.355-2.665v2.665c-1.928,1.354-4.347,1.887-6.684,1.887
			c-8.568,0-10.783-8.242-10.783-15.294c0-6.437,2.256-13.899,10.004-13.899c4.756,0,8.569,3.198,8.569,8.119H349.883z"/>
		<path fill="#FFFFFF" d="M357.222,86.092V57.801h12.546v1.887h-10.004v10.66h9.512v1.886h-9.512v11.89h10.373v1.969H357.222z"/>
	</g>
	<g>
		<circle fill="none" stroke="#FFFFFF" stroke-miterlimit="10" cx="58.147" cy="72.948" r="22.436"/>
		<g>
			<path fill="#FFFFFF" d="M61.761,73.107c-0.127-0.126-0.438-0.07-0.62,0.111c-0.157,0.157-0.45,0.45-0.732,0.732
				c-0.282,0.283-0.574,0.574-0.731,0.731c-0.184,0.183-0.239,0.493-0.111,0.622c0.576,0.576,1.676,1.31,2.726,2.359
				c2.657,2.657,5.976,6.341,6.938,7.306c0.127,0.126,0.438,0.069,0.62-0.113c0.137-0.136,0.425-0.424,0.733-0.731
				c0.307-0.309,0.595-0.597,0.731-0.732c0.183-0.183,0.239-0.493,0.111-0.621c-0.963-0.962-4.647-4.28-7.305-6.938
				C63.072,74.785,62.339,73.685,61.761,73.107z"/>
			<path fill="#FFFFFF" d="M59.601,62.119c-3.256-3.255-8.535-3.255-11.791,0c-3.257,3.256-3.257,8.534,0,11.792
				c3.256,3.255,8.535,3.255,11.791,0C62.857,70.653,62.857,65.375,59.601,62.119z M58.048,72.358c-2.398,2.397-6.287,2.397-8.686,0
				c-2.398-2.399-2.398-6.287,0-8.687c2.398-2.397,6.287-2.397,8.686,0C60.446,66.071,60.446,69.959,58.048,72.358z"/>
		</g>
	</g>
	<g>
		<g>
			<path fill="#FFFFFF" d="M702.553,30.951c-0.178,8.438-6.771,15.369-15.289,15.188c-8.011-0.17-13.854-7.485-14.021-15.243
				c-0.176-8.47,6.75-15.924,14.963-15.146C696.002,16.486,702.399,23.046,702.553,30.951c0.007,0.35,0.684,0.246,0.679-0.054
				c-0.17-8.661-6.831-15.304-15.481-15.475c-8.365-0.165-15.193,6.712-15.703,14.883c-0.545,8.741,6.989,15.941,15.467,16.12
				c8.617,0.186,15.546-7.112,15.718-15.528C703.238,30.547,702.557,30.651,702.553,30.951z"/>
			<path fill-rule="evenodd" clip-rule="evenodd" fill="#FFFFFF" d="M695.414,25.194c-0.427-0.003-0.852-0.016-1.278-0.021
				c-0.465-0.005-0.698-0.242-0.705-0.702c-0.01-0.543,0-1.087-0.015-1.631c-0.007-0.201,0.052-0.521-0.207-0.534
				c-0.326-0.017-0.267,0.333-0.278,0.546c-0.031,0.518-0.015,1.04-0.04,1.561c-0.01,0.219,0.049,0.557-0.274,0.563
				c-0.387,0.009-0.292-0.358-0.313-0.597c-0.025-0.28,0.021-0.572-0.019-0.85c-0.055-0.367,0.229-0.981-0.227-1.032
				c-0.316-0.035-0.222,0.636-0.227,0.983c-0.052,2.318-0.066,4.635-0.095,6.953c-0.012,0.907-0.104,1.02-1.019,1.059
				c-0.968,0.042-1.937,0.045-2.909,0.055c-1.75,0.015-3.5,0.023-5.25,0.029c-0.426,0-0.848-0.053-0.854-0.612
				c-0.026-1.679-0.06-3.359,0.075-5.034c0.017-0.203,0.026-0.48,0.318-0.465c0.283,0.015,0.279,0.284,0.283,0.492
				c0.012,0.568,0.005,1.137,0.023,1.703c0.008,0.299,0.074,0.595,0.449,0.61c0.424,0.017,0.497-0.302,0.502-0.626
				c0.019-1.561,0.023-3.123,0.047-4.684c0.005-0.551-0.269-0.769-0.793-0.746c-0.212,0.009-0.424,0.001-0.637,0.006
				c-1.049,0.021-1.15,0.101-1.155,1.136c-0.015,2.767-0.005,5.534-0.005,8.3c-0.092,0-0.182,0-0.273,0
				c0,2.697-0.01,5.393,0.012,8.087c0.002,0.421-0.238,1.112,0.486,1.111c0.641-0.003,0.474-0.661,0.488-1.072
				c0.039-1.396,0.035-2.791,0.065-4.187c0.007-0.278-0.122-0.743,0.31-0.737c0.408,0.009,0.301,0.471,0.307,0.756
				c0.007,0.614-0.029,1.229-0.038,1.844c-0.017,0.945-0.036,1.892-0.038,2.839c-0.002,0.274,0.08,0.528,0.401,0.58
				c0.271,0.043,0.47-0.088,0.542-0.347c0.053-0.18,0.066-0.372,0.071-0.562c0.033-1.465,0.083-2.933,0.085-4.396
				c0-0.682,0.257-1.006,0.96-0.999c1.653,0.013,3.312,0.005,4.966-0.011c0.599-0.007,0.87,0.26,0.858,0.854
				c-0.021,0.924-0.028,1.846-0.042,2.767c-0.012,0.709-0.033,1.419-0.033,2.128c0.002,0.319,0.148,0.555,0.504,0.566
				c0.348,0.011,0.518-0.198,0.545-0.523c0.024-0.259,0.031-0.521,0.033-0.78c0.017-1.394,0.021-2.79,0.045-4.187
				c0.003-0.395,0.048-0.801,0.576-0.807c0.537-0.007,0.573,0.396,0.57,0.795c0,1.018-0.012,2.033-0.019,3.051
				c-0.003,0.567-0.007,1.136-0.01,1.705c0,0.357,0.073,0.697,0.515,0.704c0.432,0.009,0.438-0.345,0.46-0.656
				c0.007-0.118,0.012-0.237,0.012-0.356c0.047-3.145,0.095-6.291,0.13-9.437c0.025-2.374-0.172-2.077,2.076-2.197
				c0.457-0.024,0.719-0.195,0.724-0.671c0.01-0.543,0.017-1.086,0.019-1.631C696.119,25.422,695.881,25.194,695.414,25.194z"/>
		</g>
		<g>
			<path fill="#FFFFFF" d="M662.795,76.221c0,0.475-0.576,0.983-1.526,0.983c-1.22,0-1.831,0.412-3.861,0.412
				c-0.51,0-1.017-0.224-1.017-1.017c0-0.57,0.34-6.598,0.34-9.451c0-3.521-0.172-9.326-0.172-12.625
				c0-0.572,0.509-0.857,0.982-0.857c8.745,0,12.741,1.586,12.741,6.376c0,5.772-3.149,6.629-7.69,6.629
				C662.658,70.859,662.795,75.046,662.795,76.221z M659.644,64.165c0,0.825,0.271,0.921,0.644,0.921c1.086,0,3.388-0.19,4.371-0.19
				c2.576,0,3.998-1.11,3.998-4.06c0-1.872-0.98-3.3-2.575-3.902c-1.39-0.539-2.54-1.205-5.964-1.205c-0.34,0-0.68,0.285-0.68,0.761
				C659.438,56.489,659.644,61.025,659.644,64.165z"/>
			<path fill="#FFFFFF" d="M677.231,67.021c0,2.537,0.102,5.043,0.102,6.945c0,2.412-0.44,2.92-0.44,2.92s-2.236,0.729-4.641,0.729
				c-0.375,0-0.781-0.54-0.781-1.143c0-0.508,0.168-6.313,0.168-9.325c0-6.439-0.168-9.771-0.168-11.578
				c0-1.111,0.238-1.586,4.404-1.586c7.66,0,10.642,2.346,10.642,6.09c0,3.996-1.661,5.9-5.185,6.566
				c0.407,1.808,5.185,8.66,5.185,10.246c0,0.285-0.745,0.729-1.56,0.729c-0.948,0-4.404-8.026-5.895-10.723L677.231,67.021z
				 M675.165,64.165c0,0.571,0.542,1.017,1.253,0.983l3.727-0.189c2.305-0.096,3.897-0.855,3.897-4.853
				c0-3.522-4.64-4.029-8.472-4.029c-0.372,0-0.575,0.159-0.575,0.698C674.995,56.775,675.165,60.994,675.165,64.165z"/>
			<path fill="#FFFFFF" d="M690.076,76.537c0,0.413-0.271,0.57-0.848,0.57c-0.744,0-1.016-0.284-0.982-0.666l2.033-20.491
				c0.102-1.11,0.847-1.871,2.203-1.871h1.389c1.896,0,2.541,1.364,3.659,5.772c0.68,2.697,2.406,9.105,3.524,12.15
				c0.712,1.965,1.356,4.693,1.356,5.202c0,0.253-0.203,0.412-0.746,0.412c-2.373,0-3.321-0.224-3.423-0.604
				c-0.134-0.476-1.255-6.979-2.438-7.073c-1.458-0.127-4.982-0.381-4.982-0.381C690.651,71.62,690.076,75.427,690.076,76.537z
				 M691.364,57.567l-0.373,4.728c-0.068,0.887,0.305,1.237,1.151,1.205l2.066-0.063c0.748-0.033,1.085-0.477,1.052-1.238
				c-0.271-4.693-0.847-6.217-2.576-6.217C691.633,55.982,691.433,56.711,691.364,57.567z"/>
			<path fill="#FFFFFF" d="M719.426,56.615c0,2.349-0.745,3.744-1.798,3.744c-1.693,0-1.932-1.174-5.218-1.174
				c-5.185,0-7.896,2.792-7.896,7.485c0,4.601,2.744,8.503,8.912,8.503c2.066,0,3.253-1.143,4.133-1.143
				c0.645,0,1.017,0.317,1.017,1.11c0,0.888-1.32,1.935-3.998,1.935c-8.099,0-11.828-4.156-11.828-11.262
				c0-8.532,4.916-12.528,13.42-12.528C718.544,53.286,719.426,54.016,719.426,56.615z"/>
		</g>
		<g>
			<g>
				<path fill="#FFFFFF" d="M659.95,88.925c-0.359-0.393-0.948-0.644-1.71-0.644c-1.613,0-2.594,1.275-2.594,3.27
					c0,2.092,0.85,3.235,2.506,3.235c1.242,0,2.049-0.851,2.43-1.874l0.295,0.349c-0.252,1.231-1.275,2.255-2.844,2.255
					c-2.005,0-3.367-1.361-3.367-3.965c0-2.299,1.362-3.955,3.367-3.955c0.85,0,1.535,0.305,1.972,0.74
					c0.087-0.283,0.207-0.566,0.403-0.74h0.348v2.854h-0.436C660.113,90.102,659.982,89.415,659.95,88.925z"/>
				<path fill="#FFFFFF" d="M662.245,87.727h3.192v0.469c-0.174,0.086-0.643,0.162-1.154,0.162v2.812h4.085v-2.812
					c-0.513,0-0.98-0.076-1.144-0.162v-0.469h3.191v0.469c-0.174,0.086-0.643,0.162-1.154,0.162v6.385
					c0.512,0,0.98,0.088,1.154,0.175v0.468h-3.191v-0.468c0.163-0.087,0.631-0.175,1.144-0.175v-2.931h-4.085v2.931
					c0.512,0,0.98,0.088,1.154,0.175v0.468h-3.192v-0.468c0.163-0.087,0.632-0.175,1.144-0.175v-6.385
					c-0.512,0-0.98-0.076-1.144-0.162V87.727z"/>
				<path fill="#FFFFFF" d="M671.816,94.917c0.164-0.087,0.632-0.175,1.145-0.175v-6.385c-0.513,0-0.98-0.076-1.145-0.162v-0.469
					h3.192v0.469c-0.175,0.086-0.644,0.162-1.155,0.162v6.385c0.512,0,0.98,0.088,1.155,0.175v0.468h-3.192V94.917z"/>
				<path fill="#FFFFFF" d="M676.412,94.917c0.163-0.087,0.545-0.175,1.057-0.175h0.087v-6.385c-0.513,0-0.98-0.076-1.144-0.162
					v-0.469h3.191v0.469c-0.174,0.086-0.643,0.162-1.154,0.162v6.385h3.497c0-0.469,0.12-1.405,0.382-1.83h0.468v2.473h-6.384
					V94.917z"/>
				<path fill="#FFFFFF" d="M683.772,87.727h6.298v2.386h-0.469c-0.262-0.425-0.382-1.286-0.382-1.755h-3.409v2.898h1.83
					c0.01-0.49,0.174-0.937,0.262-1.1h0.468v2.799h-0.468c-0.088-0.152-0.252-0.599-0.262-1.1h-1.83v2.887h3.572
					c0-0.469,0.131-1.405,0.382-1.83h0.469v2.473h-6.461v-0.468c0.163-0.087,0.545-0.175,1.057-0.175h0.087v-6.385
					c-0.512,0-0.98-0.076-1.144-0.162V87.727z"/>
				<path fill="#FFFFFF" d="M693.931,94.83l2.136-2.223c0.85-0.883,1.395-1.623,1.395-2.615c0-0.85-0.469-1.373-1.329-1.373
					c-0.522,0-0.86,0.186-1.101,0.35c0.327,0.064,0.61,0.381,0.61,0.74c0,0.502-0.349,0.719-0.763,0.719
					c-0.446,0-0.752-0.315-0.752-0.838c0-0.959,1.024-1.951,2.495-1.951c1.481,0,2.495,0.807,2.495,2.277
					c0,1.449-1.405,2.561-2.647,3.552l-0.807,0.643h2.789c0.055-0.522,0.196-1.22,0.393-1.536h0.773v2.811h-5.688V94.83z"/>
				<path fill="#FFFFFF" d="M700.878,91.551c0-2.441,1.111-3.912,2.865-3.912c1.885,0,2.854,1.406,2.854,3.912
					c0,2.483-1.057,3.965-2.854,3.965C701.902,95.516,700.878,94.154,700.878,91.551z M705.04,91.551
					c0-1.831-0.316-2.909-1.297-2.909c-0.959,0-1.297,1.078-1.297,2.909c0,1.809,0.316,2.963,1.297,2.963
					C704.702,94.514,705.04,93.381,705.04,91.551z"/>
				<path fill="#FFFFFF" d="M708.217,94.678c0.218-0.109,0.73-0.197,1.231-0.197h0.381v-5.436c-0.207,0.207-0.915,0.469-1.536,0.381
					l-0.37-0.85c0.894-0.044,2.135-0.512,2.582-0.85h0.991v6.754h0.382c0.501,0,1.013,0.088,1.23,0.197v0.707h-4.892V94.678z"/>
				<path fill="#FFFFFF" d="M716.231,94.678c0.229-0.109,0.687-0.197,1.177-0.197v-1.133h-3.116v-0.566l3.497-5.055h1.188v4.598
					h1.318l-0.186,1.023h-1.133v1.133c0.501,0,0.959,0.088,1.166,0.197v0.707h-3.911V94.678z M715.523,92.324h1.885v-2.746
					L715.523,92.324z"/>
			</g>
		</g>
		<polygon fill-rule="evenodd" clip-rule="evenodd" fill="#FFFFFF" points="655.086,82.783 655.079,83.927 721.572,83.621 
			721.577,83.239 		"/>
	</g>
</g>
</svg>
