<?xml version="1.0" encoding="utf-8"?>
<!-- Generator: Adobe Illustrator 16.0.3, SVG Export Plug-In . SVG Version: 6.00 Build 0)  -->
<!DOCTYPE svg PUBLIC "-//W3C//DTD SVG 1.1//EN" "http://www.w3.org/Graphics/SVG/1.1/DTD/svg11.dtd">
<svg version="1.1" xmlns="http://www.w3.org/2000/svg" xmlns:xlink="http://www.w3.org/1999/xlink" x="0px" y="0px" width="768px"
	 height="114.174px" viewBox="0 0 768 114.174" enable-background="new 0 0 768 114.174" xml:space="preserve">
<g id="Capa_1" display="none">
	<rect display="inline" fill="#8E95A7" width="768" height="114.174"/>
	<g display="inline">
		<g>
			<path fill="#FFFFFF" d="M702.553,30.951c-0.178,8.438-6.771,15.369-15.289,15.188c-8.011-0.17-13.854-7.485-14.021-15.243
				c-0.176-8.47,6.75-15.924,14.963-15.147C696.002,16.486,702.399,23.046,702.553,30.951c0.007,0.35,0.684,0.246,0.679-0.054
				c-0.17-8.662-6.831-15.304-15.481-15.475c-8.365-0.165-15.193,6.712-15.703,14.883c-0.545,8.742,6.989,15.941,15.467,16.12
				c8.617,0.185,15.546-7.112,15.718-15.528C703.238,30.547,702.557,30.651,702.553,30.951z"/>
			<path fill-rule="evenodd" clip-rule="evenodd" fill="#FFFFFF" d="M695.414,25.194c-0.427-0.002-0.852-0.016-1.278-0.021
				c-0.465-0.005-0.698-0.242-0.705-0.702c-0.01-0.544,0-1.087-0.015-1.631c-0.007-0.202,0.052-0.521-0.207-0.534
				c-0.326-0.017-0.267,0.333-0.278,0.546c-0.031,0.518-0.015,1.04-0.04,1.561c-0.01,0.218,0.049,0.556-0.274,0.563
				c-0.387,0.009-0.292-0.358-0.313-0.597c-0.025-0.28,0.021-0.571-0.019-0.849c-0.055-0.367,0.229-0.981-0.227-1.032
				c-0.316-0.035-0.222,0.635-0.227,0.983c-0.052,2.318-0.066,4.635-0.095,6.954c-0.012,0.907-0.104,1.019-1.019,1.058
				c-0.968,0.042-1.937,0.045-2.909,0.055c-1.75,0.015-3.5,0.023-5.25,0.029c-0.426,0-0.848-0.052-0.854-0.612
				c-0.026-1.678-0.06-3.359,0.075-5.034c0.017-0.204,0.026-0.481,0.318-0.465c0.283,0.015,0.279,0.284,0.283,0.492
				c0.012,0.569,0.005,1.136,0.023,1.703c0.008,0.299,0.074,0.595,0.449,0.61c0.424,0.017,0.497-0.301,0.502-0.626
				c0.019-1.561,0.023-3.123,0.047-4.684c0.005-0.55-0.269-0.769-0.793-0.746c-0.212,0.009-0.424,0.001-0.637,0.006
				c-1.049,0.022-1.15,0.101-1.155,1.136c-0.015,2.766-0.005,5.534-0.005,8.3c-0.092,0-0.182,0-0.273,0
				c0,2.697-0.01,5.392,0.012,8.087c0.002,0.421-0.238,1.112,0.486,1.111c0.641-0.002,0.474-0.661,0.488-1.072
				c0.039-1.396,0.035-2.791,0.065-4.187c0.007-0.278-0.122-0.743,0.31-0.737c0.408,0.009,0.301,0.471,0.307,0.756
				c0.007,0.614-0.029,1.229-0.038,1.844c-0.017,0.945-0.036,1.892-0.038,2.838c-0.002,0.275,0.08,0.529,0.401,0.581
				c0.271,0.043,0.47-0.087,0.542-0.347c0.053-0.18,0.066-0.372,0.071-0.561c0.033-1.466,0.083-2.933,0.085-4.397
				c0-0.681,0.257-1.005,0.96-0.999c1.653,0.012,3.312,0.005,4.966-0.011c0.599-0.006,0.87,0.26,0.858,0.854
				c-0.021,0.923-0.028,1.845-0.042,2.766c-0.012,0.709-0.033,1.419-0.033,2.128c0.002,0.319,0.148,0.555,0.504,0.566
				c0.348,0.011,0.518-0.198,0.545-0.524c0.024-0.258,0.031-0.521,0.033-0.78c0.017-1.394,0.021-2.79,0.045-4.186
				c0.003-0.395,0.048-0.802,0.576-0.808c0.537-0.006,0.573,0.396,0.57,0.795c0,1.018-0.012,2.034-0.019,3.051
				c-0.003,0.567-0.007,1.136-0.01,1.705c0,0.358,0.073,0.698,0.515,0.705c0.432,0.009,0.438-0.344,0.46-0.656
				c0.007-0.119,0.012-0.237,0.012-0.356c0.047-3.145,0.095-6.291,0.13-9.437c0.025-2.375-0.172-2.077,2.076-2.197
				c0.457-0.024,0.719-0.195,0.724-0.67c0.01-0.543,0.017-1.086,0.019-1.631C696.119,25.422,695.881,25.194,695.414,25.194z"/>
		</g>
		<g>
			<path fill="#FFFFFF" d="M662.795,76.221c0,0.475-0.576,0.983-1.526,0.983c-1.22,0-1.831,0.412-3.861,0.412
				c-0.51,0-1.017-0.224-1.017-1.017c0-0.57,0.34-6.598,0.34-9.451c0-3.521-0.172-9.327-0.172-12.625
				c0-0.572,0.509-0.857,0.982-0.857c8.745,0,12.741,1.585,12.741,6.375c0,5.772-3.149,6.629-7.69,6.629
				C662.658,70.859,662.795,75.046,662.795,76.221z M659.644,64.165c0,0.825,0.271,0.921,0.644,0.921c1.086,0,3.388-0.19,4.371-0.19
				c2.576,0,3.998-1.11,3.998-4.06c0-1.872-0.98-3.3-2.575-3.902c-1.39-0.539-2.54-1.206-5.964-1.206c-0.34,0-0.68,0.286-0.68,0.761
				C659.438,56.489,659.644,61.025,659.644,64.165z"/>
			<path fill="#FFFFFF" d="M677.231,67.021c0,2.537,0.102,5.043,0.102,6.945c0,2.412-0.44,2.92-0.44,2.92s-2.236,0.729-4.641,0.729
				c-0.375,0-0.781-0.54-0.781-1.143c0-0.508,0.168-6.313,0.168-9.325c0-6.439-0.168-9.771-0.168-11.578
				c0-1.111,0.238-1.586,4.404-1.586c7.66,0,10.642,2.346,10.642,6.09c0,3.996-1.661,5.9-5.185,6.566
				c0.407,1.808,5.185,8.66,5.185,10.246c0,0.285-0.745,0.729-1.56,0.729c-0.948,0-4.404-8.026-5.895-10.723L677.231,67.021z
				 M675.165,64.165c0,0.571,0.542,1.017,1.253,0.983l3.727-0.189c2.305-0.096,3.897-0.855,3.897-4.853
				c0-3.522-4.64-4.029-8.472-4.029c-0.372,0-0.575,0.159-0.575,0.698C674.995,56.775,675.165,60.994,675.165,64.165z"/>
			<path fill="#FFFFFF" d="M690.076,76.537c0,0.413-0.271,0.57-0.848,0.57c-0.744,0-1.016-0.284-0.982-0.666l2.033-20.491
				c0.102-1.11,0.847-1.871,2.203-1.871h1.389c1.896,0,2.541,1.364,3.659,5.772c0.68,2.697,2.406,9.105,3.524,12.15
				c0.712,1.965,1.356,4.693,1.356,5.202c0,0.253-0.203,0.412-0.746,0.412c-2.373,0-3.321-0.224-3.423-0.604
				c-0.134-0.476-1.255-6.979-2.438-7.073c-1.458-0.127-4.982-0.381-4.982-0.381C690.651,71.62,690.076,75.427,690.076,76.537z
				 M691.364,57.567l-0.373,4.728c-0.068,0.887,0.305,1.237,1.151,1.205l2.066-0.063c0.748-0.033,1.085-0.477,1.052-1.238
				c-0.271-4.694-0.847-6.216-2.576-6.216C691.633,55.983,691.433,56.711,691.364,57.567z"/>
			<path fill="#FFFFFF" d="M719.426,56.616c0,2.348-0.745,3.744-1.798,3.744c-1.693,0-1.932-1.174-5.218-1.174
				c-5.185,0-7.896,2.792-7.896,7.485c0,4.601,2.744,8.503,8.912,8.503c2.066,0,3.253-1.143,4.133-1.143
				c0.645,0,1.017,0.317,1.017,1.11c0,0.888-1.32,1.935-3.998,1.935c-8.099,0-11.828-4.156-11.828-11.262
				c0-8.532,4.916-12.528,13.42-12.528C718.544,53.286,719.426,54.015,719.426,56.616z"/>
		</g>
		<g>
			<g>
				<path fill="#FFFFFF" d="M659.95,88.925c-0.359-0.393-0.948-0.644-1.711-0.644c-1.612,0-2.593,1.275-2.593,3.27
					c0,2.092,0.85,3.235,2.506,3.235c1.242,0,2.048-0.851,2.43-1.874l0.294,0.349c-0.251,1.231-1.274,2.255-2.844,2.255
					c-2.004,0-3.366-1.361-3.366-3.965c0-2.299,1.362-3.955,3.366-3.955c0.85,0,1.536,0.305,1.973,0.74
					c0.087-0.283,0.207-0.566,0.402-0.74h0.349v2.854h-0.436C660.113,90.102,659.982,89.415,659.95,88.925z"/>
				<path fill="#FFFFFF" d="M662.245,87.727h3.192v0.469c-0.175,0.086-0.644,0.162-1.155,0.162v2.812h4.086v-2.812
					c-0.513,0-0.98-0.076-1.145-0.162v-0.469h3.192v0.469c-0.174,0.086-0.643,0.162-1.155,0.162v6.385
					c0.513,0,0.981,0.088,1.155,0.175v0.468h-3.192v-0.468c0.164-0.087,0.632-0.175,1.145-0.175v-2.931h-4.086v2.931
					c0.512,0,0.98,0.088,1.155,0.175v0.468h-3.192v-0.468c0.163-0.087,0.632-0.175,1.144-0.175v-6.385
					c-0.512,0-0.98-0.076-1.144-0.162V87.727z"/>
				<path fill="#FFFFFF" d="M671.816,94.917c0.163-0.087,0.632-0.175,1.144-0.175v-6.385c-0.512,0-0.98-0.076-1.144-0.162v-0.469
					h3.192v0.469c-0.175,0.086-0.644,0.162-1.155,0.162v6.385c0.512,0,0.98,0.088,1.155,0.175v0.468h-3.192V94.917z"/>
				<path fill="#FFFFFF" d="M676.411,94.917c0.164-0.087,0.545-0.175,1.058-0.175h0.087v-6.385c-0.513,0-0.98-0.076-1.145-0.162
					v-0.469h3.192v0.469c-0.174,0.086-0.643,0.162-1.154,0.162v6.385h3.497c0-0.469,0.119-1.405,0.381-1.83h0.469v2.473h-6.385
					V94.917z"/>
				<path fill="#FFFFFF" d="M683.772,87.727h6.297v2.386h-0.469c-0.261-0.425-0.381-1.286-0.381-1.755h-3.41v2.898h1.83
					c0.011-0.49,0.175-0.937,0.262-1.1h0.469v2.799h-0.469c-0.087-0.152-0.251-0.599-0.262-1.1h-1.83v2.887h3.573
					c0-0.469,0.131-1.405,0.382-1.83h0.469v2.473h-6.461v-0.468c0.163-0.087,0.545-0.175,1.057-0.175h0.087v-6.385
					c-0.512,0-0.98-0.076-1.144-0.162V87.727z"/>
				<path fill="#FFFFFF" d="M693.931,94.83l2.136-2.223c0.85-0.883,1.395-1.623,1.395-2.615c0-0.85-0.469-1.373-1.329-1.373
					c-0.522,0-0.86,0.186-1.101,0.35c0.327,0.064,0.61,0.381,0.61,0.74c0,0.502-0.349,0.719-0.763,0.719
					c-0.446,0-0.752-0.315-0.752-0.838c0-0.959,1.024-1.951,2.495-1.951c1.481,0,2.495,0.807,2.495,2.277
					c0,1.449-1.405,2.561-2.647,3.552l-0.807,0.643h2.789c0.055-0.522,0.196-1.22,0.393-1.536h0.773v2.811h-5.688V94.83z"/>
				<path fill="#FFFFFF" d="M700.878,91.551c0-2.441,1.111-3.912,2.865-3.912c1.885,0,2.854,1.406,2.854,3.912
					c0,2.483-1.057,3.965-2.854,3.965C701.902,95.516,700.878,94.154,700.878,91.551z M705.04,91.551
					c0-1.831-0.316-2.909-1.297-2.909c-0.959,0-1.297,1.078-1.297,2.909c0,1.809,0.316,2.963,1.297,2.963
					C704.702,94.514,705.04,93.381,705.04,91.551z"/>
				<path fill="#FFFFFF" d="M708.217,94.678c0.218-0.109,0.73-0.197,1.231-0.197h0.381v-5.436c-0.207,0.207-0.915,0.469-1.536,0.381
					l-0.37-0.85c0.894-0.044,2.135-0.512,2.582-0.85h0.991v6.754h0.382c0.501,0,1.013,0.088,1.23,0.197v0.707h-4.892V94.678z"/>
				<path fill="#FFFFFF" d="M716.231,94.678c0.229-0.109,0.687-0.197,1.177-0.197v-1.133h-3.116v-0.566l3.497-5.055h1.188v4.598
					h1.318l-0.186,1.023h-1.133v1.133c0.501,0,0.959,0.088,1.166,0.197v0.707h-3.911V94.678z M715.523,92.324h1.885v-2.746
					L715.523,92.324z"/>
			</g>
		</g>
		<polygon fill-rule="evenodd" clip-rule="evenodd" fill="#FFFFFF" points="655.086,82.783 655.079,83.927 721.572,83.621 
			721.577,83.239 		"/>
	</g>
	<g display="inline">
		<path fill="#FFFFFF" d="M101.306,83.542c-2.091,0-4.224-0.164-6.272-0.656v-2.911c1.967,0.943,4.264,1.6,6.437,1.6
			c3.567,0,6.437-1.764,6.437-5.617c0-7.217-13.037-5.74-13.037-14.596c0-4.962,4.141-7.012,8.568-7.012
			c1.887,0,3.771,0.205,5.617,0.656v2.829c-1.969-0.902-4.059-1.599-6.232-1.599c-2.828,0-5.453,1.476-5.453,4.593
			c0,3.197,2.215,4.264,4.715,5.576c1.313,0.655,2.666,1.353,3.937,2.131c3.034,1.805,4.675,3.403,4.675,7.135
			C110.695,81.205,106.308,83.542,101.306,83.542z"/>
		<path fill="#FFFFFF" d="M131.358,83.091l-3.075-9.39h-10.537l-3.074,9.39h-2.051l9.185-28.29h2.911l9.184,28.29H131.358z
			 M123.076,57.425h-0.082l-4.633,14.392h9.307L123.076,57.425z"/>
		<path fill="#FFFFFF" d="M152.432,83.091l-12.095-25.174h-0.082v25.174h-2.337v-28.29h3.157l12.3,25.379h0.082V54.801h2.338v28.29
			H152.432z"/>
		<path fill="#FFFFFF" d="M178.508,70.176h-3.075v12.915h-2.542v-28.29h5.617c5.289,0,9.594,1.722,9.594,7.749
			C188.102,68.658,183.838,70.176,178.508,70.176z M177.564,56.687h-2.132v11.603h2.132c4.101,0,7.75-0.696,7.75-5.657
			C185.314,57.67,181.787,56.687,177.564,56.687z"/>
		<path fill="#FFFFFF" d="M192.652,83.091v-28.29h12.547v1.886h-10.005v10.66h9.513v1.886h-9.513v11.891h10.373v1.968H192.652z"/>
		<path fill="#FFFFFF" d="M216.227,83.091h-5.33v-28.29h4.839c9.758,0,12.997,4.879,12.997,14.145
			C228.732,77.72,225.698,83.091,216.227,83.091z M220.532,57.384c-1.599-0.574-3.321-0.697-5.002-0.697h-2.091v24.437h2.091
			c8.282,0,10.414-4.182,10.414-11.85C225.944,64.805,225.329,59.188,220.532,57.384z"/>
		<path fill="#FFFFFF" d="M247.428,83.091c-0.492-2.419-0.984-4.838-1.477-7.257c-0.901-4.428-2.418-5.74-6.969-5.74h-2.01v12.997
			h-2.542v-28.29h5.658c5.043,0,9.39,1.722,9.39,7.462c0,3.896-2.83,6.437-6.561,6.847v0.082c4.1,0.533,4.838,2.625,5.576,6.273
			l1.558,7.626H247.428z M239.884,56.687h-2.911v11.521h1.6c3.854,0,8.117-1.147,8.117-5.821
			C246.689,58.039,243.779,56.687,239.884,56.687z"/>
		<path fill="#FFFFFF" d="M264.729,83.542c-8.159,0-9.759-8.118-9.759-14.638c0-6.437,1.723-14.555,9.759-14.555
			c7.913,0,9.595,8.241,9.595,14.555C274.324,75.465,273.053,83.542,264.729,83.542z M264.606,56.235
			c-6.19,0-6.847,8.282-6.847,12.833c0,4.51,1.065,12.588,7.052,12.588c6.231,0,6.724-8.037,6.724-12.588
			C271.535,64.6,270.592,56.235,264.606,56.235z"/>
	</g>
	<g display="inline">
		<g>
			<path fill="#FFFFFF" d="M38.909,57.906h1.385c0.923,0,0.923-2.309,1.846-2.309h0.926l0,0h0.008h0.012h0.008h0.009h0.019h0.011
				h0.014h0.022h0.006h0.031l0,0h0.035l0,0h0.035h0.006h0.029h0.012h0.023h0.024h0.009h0.032h0.008h0.024h0.027h0.002h0.033h0.02
				h0.01h0.03h0.018h0.009h0.029h0.023h0.004h0.025h0.023h0.012h0.014h0.022h0.023h0.005h0.017h0.021h0.019h0.014h0.004h0.019h0.017
				h0.015h0.014h0.003h0.011h0.012h0.012h0.008h0.01h0.007h0.007h0.004h0.002l0,0h0.004l0,0h3.23c0.925,0,0.925,2.309,1.848,2.309
				h8.771c0-0.51,0.414-0.924,0.925-0.924h0.923c0.51,0,0.923,0.414,0.923,0.924h1.385c1.275,0,2.31,1.034,2.31,2.309v13.85
				c0,1.275-1.034,2.309-2.31,2.309H38.909c-1.274,0-2.309-1.033-2.309-2.309v-13.85C36.601,58.939,37.635,57.906,38.909,57.906
				L38.909,57.906z M55.067,60.215c-3.824,0-6.925,3.1-6.925,6.924s3.101,6.926,6.925,6.926s6.926-3.102,6.926-6.926
				C61.992,63.314,58.892,60.215,55.067,60.215L55.067,60.215z M42.14,62.521h2.771c0.51,0,0.922-0.412,0.922-0.922v-0.463
				c0-0.51-0.412-0.922-0.922-0.922H42.14c-0.509,0-0.923,0.412-0.923,0.922V61.6C41.217,62.109,41.631,62.521,42.14,62.521z"/>
			<path fill="none" stroke="#FFFFFF" stroke-miterlimit="10" d="M55.067,62.061c-2.804,0-5.078,2.275-5.078,5.078
				c0,2.805,2.274,5.08,5.078,5.08c2.805,0,5.08-2.275,5.08-5.08C60.147,64.336,57.872,62.061,55.067,62.061L55.067,62.061z"/>
		</g>
		<g>
			<circle fill="none" stroke="#FFFFFF" stroke-miterlimit="10" cx="50.804" cy="66.941" r="24.205"/>
		</g>
	</g>
</g>
<g id="Capa_2">
	<rect y="0.053" fill="#967B53" width="768" height="114.174"/>
	<g>
		<g>
			<path fill="#FFFFFF" d="M702.553,31.004c-0.178,8.438-6.771,15.369-15.289,15.188c-8.011-0.17-13.854-7.485-14.021-15.243
				c-0.176-8.47,6.75-15.924,14.963-15.147C696.002,16.539,702.399,23.099,702.553,31.004c0.007,0.35,0.684,0.246,0.679-0.054
				c-0.17-8.662-6.831-15.304-15.481-15.475c-8.365-0.165-15.193,6.712-15.703,14.883c-0.545,8.742,6.989,15.941,15.467,16.12
				c8.617,0.185,15.546-7.112,15.718-15.528C703.238,30.6,702.557,30.704,702.553,31.004z"/>
			<path fill-rule="evenodd" clip-rule="evenodd" fill="#FFFFFF" d="M695.414,25.247c-0.427-0.002-0.852-0.016-1.278-0.021
				c-0.465-0.005-0.698-0.242-0.705-0.702c-0.01-0.544,0-1.087-0.015-1.631c-0.007-0.202,0.052-0.521-0.207-0.534
				c-0.326-0.017-0.267,0.333-0.278,0.546c-0.031,0.518-0.015,1.04-0.04,1.561c-0.01,0.218,0.049,0.556-0.274,0.563
				c-0.387,0.009-0.292-0.358-0.313-0.597c-0.025-0.28,0.021-0.571-0.019-0.849c-0.055-0.367,0.229-0.981-0.227-1.032
				c-0.316-0.035-0.222,0.635-0.227,0.983c-0.052,2.318-0.066,4.635-0.095,6.954c-0.012,0.907-0.104,1.019-1.019,1.058
				c-0.968,0.042-1.937,0.045-2.909,0.055c-1.75,0.015-3.5,0.023-5.25,0.029c-0.426,0-0.848-0.052-0.854-0.612
				c-0.026-1.678-0.06-3.359,0.075-5.034c0.017-0.204,0.026-0.481,0.318-0.465c0.283,0.015,0.279,0.284,0.283,0.492
				c0.012,0.569,0.005,1.136,0.023,1.703c0.008,0.299,0.074,0.595,0.449,0.61c0.424,0.017,0.497-0.301,0.502-0.626
				c0.019-1.561,0.023-3.123,0.047-4.684c0.005-0.55-0.269-0.769-0.793-0.746c-0.212,0.009-0.424,0.001-0.637,0.006
				c-1.049,0.022-1.15,0.101-1.155,1.136c-0.015,2.766-0.005,5.534-0.005,8.3c-0.092,0-0.182,0-0.273,0
				c0,2.697-0.01,5.392,0.012,8.087c0.002,0.421-0.238,1.112,0.486,1.111c0.641-0.002,0.474-0.661,0.488-1.072
				c0.039-1.396,0.035-2.791,0.065-4.187c0.007-0.278-0.122-0.743,0.31-0.737c0.408,0.009,0.301,0.471,0.307,0.756
				c0.007,0.614-0.029,1.229-0.038,1.844c-0.017,0.945-0.036,1.892-0.038,2.838c-0.002,0.275,0.08,0.529,0.401,0.581
				c0.271,0.043,0.47-0.087,0.542-0.347c0.053-0.18,0.066-0.372,0.071-0.561c0.033-1.466,0.083-2.933,0.085-4.397
				c0-0.681,0.257-1.005,0.96-0.999c1.653,0.012,3.312,0.005,4.966-0.011c0.599-0.006,0.87,0.26,0.858,0.854
				c-0.021,0.923-0.028,1.845-0.042,2.766c-0.012,0.709-0.033,1.419-0.033,2.128c0.002,0.319,0.148,0.555,0.504,0.566
				c0.348,0.011,0.518-0.198,0.545-0.524c0.024-0.258,0.031-0.521,0.033-0.78c0.017-1.394,0.021-2.79,0.045-4.186
				c0.003-0.395,0.048-0.802,0.576-0.808c0.537-0.006,0.573,0.396,0.57,0.795c0,1.018-0.012,2.034-0.019,3.051
				c-0.003,0.567-0.007,1.136-0.01,1.705c0,0.358,0.073,0.698,0.515,0.705c0.432,0.009,0.438-0.344,0.46-0.656
				c0.007-0.119,0.012-0.237,0.012-0.356c0.047-3.145,0.095-6.291,0.13-9.437c0.025-2.375-0.172-2.077,2.076-2.197
				c0.457-0.024,0.719-0.195,0.724-0.67c0.01-0.543,0.017-1.086,0.019-1.631C696.119,25.475,695.881,25.247,695.414,25.247z"/>
		</g>
		<g>
			<path fill="#FFFFFF" d="M662.795,76.273c0,0.475-0.576,0.983-1.526,0.983c-1.22,0-1.831,0.412-3.861,0.412
				c-0.51,0-1.017-0.224-1.017-1.017c0-0.57,0.34-6.598,0.34-9.451c0-3.521-0.172-9.327-0.172-12.625
				c0-0.572,0.509-0.857,0.982-0.857c8.745,0,12.741,1.585,12.741,6.375c0,5.772-3.149,6.629-7.69,6.629
				C662.658,70.912,662.795,75.099,662.795,76.273z M659.644,64.218c0,0.825,0.271,0.921,0.644,0.921c1.086,0,3.388-0.19,4.371-0.19
				c2.576,0,3.998-1.11,3.998-4.06c0-1.872-0.98-3.3-2.575-3.902c-1.39-0.539-2.54-1.206-5.964-1.206c-0.34,0-0.68,0.286-0.68,0.761
				C659.438,56.542,659.644,61.078,659.644,64.218z"/>
			<path fill="#FFFFFF" d="M677.231,67.074c0,2.537,0.102,5.043,0.102,6.945c0,2.412-0.44,2.92-0.44,2.92s-2.236,0.729-4.641,0.729
				c-0.375,0-0.781-0.54-0.781-1.143c0-0.508,0.168-6.313,0.168-9.325c0-6.439-0.168-9.771-0.168-11.578
				c0-1.111,0.238-1.586,4.404-1.586c7.66,0,10.642,2.346,10.642,6.09c0,3.996-1.661,5.9-5.185,6.566
				c0.407,1.808,5.185,8.66,5.185,10.246c0,0.285-0.745,0.729-1.56,0.729c-0.948,0-4.404-8.026-5.895-10.723L677.231,67.074z
				 M675.165,64.218c0,0.571,0.542,1.017,1.253,0.983l3.727-0.189c2.305-0.096,3.897-0.855,3.897-4.853
				c0-3.522-4.64-4.029-8.472-4.029c-0.372,0-0.575,0.159-0.575,0.698C674.995,56.828,675.165,61.047,675.165,64.218z"/>
			<path fill="#FFFFFF" d="M690.076,76.59c0,0.413-0.271,0.57-0.848,0.57c-0.744,0-1.016-0.284-0.982-0.666l2.033-20.491
				c0.102-1.11,0.847-1.871,2.203-1.871h1.389c1.896,0,2.541,1.364,3.659,5.772c0.68,2.697,2.406,9.105,3.524,12.15
				c0.712,1.965,1.356,4.693,1.356,5.202c0,0.253-0.203,0.412-0.746,0.412c-2.373,0-3.321-0.224-3.423-0.604
				c-0.134-0.476-1.255-6.979-2.438-7.073c-1.458-0.127-4.982-0.381-4.982-0.381C690.651,71.673,690.076,75.479,690.076,76.59z
				 M691.364,57.62l-0.373,4.728c-0.068,0.887,0.305,1.237,1.151,1.205l2.066-0.063c0.748-0.033,1.085-0.477,1.052-1.238
				c-0.271-4.694-0.847-6.216-2.576-6.216C691.633,56.036,691.433,56.764,691.364,57.62z"/>
			<path fill="#FFFFFF" d="M719.426,56.668c0,2.348-0.745,3.744-1.798,3.744c-1.693,0-1.932-1.174-5.218-1.174
				c-5.185,0-7.896,2.792-7.896,7.485c0,4.601,2.744,8.503,8.912,8.503c2.066,0,3.253-1.143,4.133-1.143
				c0.645,0,1.017,0.317,1.017,1.11c0,0.888-1.32,1.935-3.998,1.935c-8.099,0-11.828-4.156-11.828-11.262
				c0-8.532,4.916-12.528,13.42-12.528C718.544,53.339,719.426,54.068,719.426,56.668z"/>
		</g>
		<g>
			<g>
				<path fill="#FFFFFF" d="M659.95,88.978c-0.359-0.393-0.948-0.644-1.711-0.644c-1.612,0-2.593,1.275-2.593,3.27
					c0,2.092,0.85,3.235,2.506,3.235c1.242,0,2.048-0.851,2.43-1.874l0.294,0.349c-0.251,1.231-1.274,2.255-2.844,2.255
					c-2.004,0-3.366-1.361-3.366-3.965c0-2.299,1.362-3.955,3.366-3.955c0.85,0,1.536,0.305,1.973,0.74
					c0.087-0.283,0.207-0.566,0.402-0.74h0.349v2.854h-0.436C660.113,90.154,659.982,89.468,659.95,88.978z"/>
				<path fill="#FFFFFF" d="M662.245,87.779h3.192v0.469c-0.175,0.086-0.644,0.162-1.155,0.162v2.812h4.086V88.41
					c-0.513,0-0.98-0.076-1.145-0.162v-0.469h3.192v0.469c-0.174,0.086-0.643,0.162-1.155,0.162v6.385
					c0.513,0,0.981,0.088,1.155,0.175v0.468h-3.192V94.97c0.164-0.087,0.632-0.175,1.145-0.175v-2.931h-4.086v2.931
					c0.512,0,0.98,0.088,1.155,0.175v0.468h-3.192V94.97c0.163-0.087,0.632-0.175,1.144-0.175V88.41
					c-0.512,0-0.98-0.076-1.144-0.162V87.779z"/>
				<path fill="#FFFFFF" d="M671.816,94.97c0.163-0.087,0.632-0.175,1.144-0.175V88.41c-0.512,0-0.98-0.076-1.144-0.162v-0.469
					h3.192v0.469c-0.175,0.086-0.644,0.162-1.155,0.162v6.385c0.512,0,0.98,0.088,1.155,0.175v0.468h-3.192V94.97z"/>
				<path fill="#FFFFFF" d="M676.411,94.97c0.164-0.087,0.545-0.175,1.058-0.175h0.087V88.41c-0.513,0-0.98-0.076-1.145-0.162
					v-0.469h3.192v0.469c-0.174,0.086-0.643,0.162-1.154,0.162v6.385h3.497c0-0.469,0.119-1.405,0.381-1.83h0.469v2.473h-6.385
					V94.97z"/>
				<path fill="#FFFFFF" d="M683.772,87.779h6.297v2.386h-0.469c-0.261-0.425-0.381-1.286-0.381-1.755h-3.41v2.898h1.83
					c0.011-0.49,0.175-0.937,0.262-1.1h0.469v2.799h-0.469c-0.087-0.152-0.251-0.599-0.262-1.1h-1.83v2.887h3.573
					c0-0.469,0.131-1.405,0.382-1.83h0.469v2.473h-6.461V94.97c0.163-0.087,0.545-0.175,1.057-0.175h0.087V88.41
					c-0.512,0-0.98-0.076-1.144-0.162V87.779z"/>
				<path fill="#FFFFFF" d="M693.931,94.883l2.136-2.223c0.85-0.883,1.395-1.623,1.395-2.615c0-0.85-0.469-1.373-1.329-1.373
					c-0.522,0-0.86,0.186-1.101,0.35c0.327,0.064,0.61,0.381,0.61,0.74c0,0.502-0.349,0.719-0.763,0.719
					c-0.446,0-0.752-0.315-0.752-0.838c0-0.959,1.024-1.951,2.495-1.951c1.481,0,2.495,0.807,2.495,2.277
					c0,1.449-1.405,2.561-2.647,3.552l-0.807,0.643h2.789c0.055-0.522,0.196-1.22,0.393-1.536h0.773v2.811h-5.688V94.883z"/>
				<path fill="#FFFFFF" d="M700.878,91.604c0-2.441,1.111-3.912,2.865-3.912c1.885,0,2.854,1.406,2.854,3.912
					c0,2.483-1.057,3.965-2.854,3.965C701.902,95.568,700.878,94.207,700.878,91.604z M705.04,91.604
					c0-1.831-0.316-2.909-1.297-2.909c-0.959,0-1.297,1.078-1.297,2.909c0,1.809,0.316,2.963,1.297,2.963
					C704.702,94.566,705.04,93.434,705.04,91.604z"/>
				<path fill="#FFFFFF" d="M708.217,94.73c0.218-0.109,0.73-0.197,1.231-0.197h0.381v-5.436c-0.207,0.207-0.915,0.469-1.536,0.381
					l-0.37-0.85c0.894-0.044,2.135-0.512,2.582-0.85h0.991v6.754h0.382c0.501,0,1.013,0.088,1.23,0.197v0.707h-4.892V94.73z"/>
				<path fill="#FFFFFF" d="M716.231,94.73c0.229-0.109,0.687-0.197,1.177-0.197V93.4h-3.116v-0.566l3.497-5.055h1.188v4.598h1.318
					l-0.186,1.023h-1.133v1.133c0.501,0,0.959,0.088,1.166,0.197v0.707h-3.911V94.73z M715.523,92.377h1.885v-2.746L715.523,92.377z
					"/>
			</g>
		</g>
		<polygon fill-rule="evenodd" clip-rule="evenodd" fill="#FFFFFF" points="655.086,82.836 655.079,83.979 721.572,83.674 
			721.577,83.292 		"/>
	</g>
	<g>
		<path fill="#FFFFFF" d="M108.804,80.259V66.564H96.791v13.694h-2.543v-28.29h2.543v12.71h12.013v-12.71h2.542v28.29H108.804z"/>
		<path fill="#FFFFFF" d="M126.803,80.71c-8.16,0-9.759-8.118-9.759-14.638c0-6.437,1.722-14.555,9.759-14.555
			c7.912,0,9.594,8.241,9.594,14.555C136.396,72.633,135.125,80.71,126.803,80.71z M126.68,53.403
			c-6.191,0-6.848,8.282-6.848,12.833c0,4.51,1.066,12.588,7.053,12.588c6.231,0,6.724-8.037,6.724-12.588
			C133.608,61.768,132.666,53.403,126.68,53.403z"/>
		<path fill="#FFFFFF" d="M147.016,53.854v26.404h-2.543V53.854h-6.683v-1.886h15.908v1.886H147.016z"/>
		<path fill="#FFFFFF" d="M157.306,80.259v-28.29h12.546v1.886h-10.004v10.66h9.512V66.4h-9.512v11.891h10.373v1.968H157.306z"/>
		<path fill="#FFFFFF" d="M175.551,80.259v-28.29h2.541v26.322h9.964v1.968H175.551z"/>
	</g>
	<g>
		<circle fill="none" stroke="#FFFFFF" stroke-miterlimit="10" cx="53.028" cy="63.643" r="24.504"/>
		<g id="Your_Icon_2_">
			<path fill="#FFFFFF" d="M68.413,67.777c-1.156-0.201-1.803-2.345-1.834-2.449c-4.348,1.035-8.886,1.582-13.551,1.582
				c-4.664,0-9.201-0.547-13.552-1.582c-0.029,0.104-0.677,2.248-1.833,2.449c0,0-1.35,0.355-1.35,1.424v1.479
				c5.301,1.585,10.919,2.438,16.734,2.438c5.814,0,11.432-0.853,16.734-2.438v-1.48C69.763,68.133,68.413,67.777,68.413,67.777z"/>
			<g>
				<path fill="#FFFFFF" d="M65.942,61.285c-1.105-0.396-0.87-2.053-0.87-2.053c0-7.295-9.232-7.901-11.531-7.938v-1.583
					c0.989-0.069,1.749-0.331,1.877-0.657h0.02V48.53c0-0.425-1.08-0.77-2.409-0.77c-1.332,0-2.408,0.345-2.408,0.77v0.458h0.006
					c0.038,0.357,0.834,0.65,1.889,0.724v1.583c-2.296,0.037-11.529,0.643-11.529,7.938c0,0,0.236,1.656-0.868,2.053
					c0,0-0.71,1.057-0.632,2.246c4.348,1.033,8.881,1.581,13.543,1.581c4.664,0,9.197-0.548,13.544-1.581
					C66.648,62.342,65.942,61.285,65.942,61.285z M62.716,60.672c-0.286,0-0.518-0.232-0.518-0.518c0-2.084-0.877-3.662-2.6-4.693
					c-1.316-0.785-2.633-0.946-2.646-0.947c-0.285-0.034-0.487-0.29-0.454-0.575c0.032-0.285,0.292-0.487,0.575-0.456
					c0.062,0.008,6.163,0.784,6.163,6.671C63.233,60.439,63.003,60.672,62.716,60.672z"/>
			</g>
		</g>
	</g>
</g>
</svg>
