<?xml version="1.0" encoding="utf-8"?>
<!-- Generator: Adobe Illustrator 16.0.3, SVG Export Plug-In . SVG Version: 6.00 Build 0)  -->
<!DOCTYPE svg PUBLIC "-//W3C//DTD SVG 1.1//EN" "http://www.w3.org/Graphics/SVG/1.1/DTD/svg11.dtd">
<svg version="1.1" xmlns="http://www.w3.org/2000/svg" xmlns:xlink="http://www.w3.org/1999/xlink" x="0px" y="0px"
	 width="767.988px" height="114.174px" viewBox="0 0 767.988 114.174" enable-background="new 0 0 767.988 114.174"
	 xml:space="preserve">
<g id="iPad">
	<rect x="-0.195" y="1.221" fill="#B8DDEC" width="768.189" height="1005.727"/>
	<g>
		<rect y="-17.053" fill="#1E1E1E" width="767.989" height="20"/>
	</g>
</g>
<g id="Content">
	<rect x="-0.006" fill="#74A2B9" width="768" height="114.174"/>
	<g>
		<path fill="#FFFFFF" d="M101.161,90.59h-5.33V62.301h4.838c9.758,0,12.997,4.879,12.997,14.145
			C113.667,85.219,110.632,90.59,101.161,90.59z M105.466,64.883c-1.599-0.574-3.321-0.697-5.002-0.697h-2.091v24.437h2.091
			c8.282,0,10.414-4.182,10.414-11.849C110.878,72.305,110.263,66.688,105.466,64.883z"/>
		<path fill="#FFFFFF" d="M119.365,90.59V62.301h12.546v1.885h-10.004v10.66h9.512v1.887h-9.512v11.89h10.373v1.968H119.365z"/>
		<path fill="#FFFFFF" d="M137.609,90.59V62.301h2.542v26.321h9.963v1.968H137.609z"/>
		<path fill="#FFFFFF" d="M153.558,90.59V62.301h12.546v1.885H156.1v10.66h9.512v1.887H156.1v11.89h10.373v1.968H153.558z"/>
		<path fill="#FFFFFF" d="M186.85,70.008c0.041-3.854-2.378-6.273-6.232-6.273c-6.314,0-7.544,7.258-7.544,12.178
			c0,5.412,1.435,13.243,8.323,13.243c2.009,0,4.059-0.614,5.494-2.05V76.773h-7.052v-1.887h9.594v13.408
			c-2.009,2.049-5.617,2.746-8.405,2.746c-8.692,0-10.742-8.076-10.742-15.252c0-6.725,2.337-13.939,10.292-13.939
			c3.608,0,6.929,1.353,8.569,4.756c0.533,1.065,0.82,2.214,0.82,3.402H186.85z"/>
		<path fill="#FFFFFF" d="M211.613,90.59l-3.075-9.389h-10.537l-3.075,9.389h-2.05l9.184-28.289h2.911l9.185,28.289H211.613z
			 M203.332,64.924h-0.082l-4.633,14.392h9.307L203.332,64.924z"/>
		<path fill="#FFFFFF" d="M223.052,64.186V90.59h-2.542V64.186h-6.683v-1.885h15.908v1.885H223.052z"/>
		<path fill="#FFFFFF" d="M233.343,90.59V62.301h12.546v1.885h-10.004v10.66h9.512v1.887h-9.512v11.89h10.373v1.968H233.343z"/>
		<path fill="#FFFFFF" d="M256.016,91.041c-2.091,0-4.223-0.164-6.273-0.656v-2.91c1.968,0.943,4.264,1.599,6.437,1.599
			c3.567,0,6.437-1.763,6.437-5.617c0-7.216-13.038-5.739-13.038-14.596c0-4.962,4.141-7.011,8.569-7.011
			c1.886,0,3.772,0.205,5.617,0.655v2.829c-1.968-0.902-4.059-1.6-6.232-1.6c-2.829,0-5.453,1.477-5.453,4.593
			c0,3.198,2.214,4.265,4.715,5.576c1.312,0.655,2.665,1.353,3.936,2.132c3.034,1.805,4.674,3.403,4.674,7.135
			C265.405,88.704,261.018,91.041,256.016,91.041z"/>
		<path fill="#FFFFFF" d="M280.451,90.59V62.301h2.542v26.321h9.963v1.968H280.451z"/>
		<path fill="#FFFFFF" d="M296.441,90.59V62.301h2.542V90.59H296.441z"/>
		<path fill="#FFFFFF" d="M310.709,91.041c-2.091,0-4.223-0.164-6.273-0.656v-2.91c1.968,0.943,4.264,1.599,6.437,1.599
			c3.567,0,6.437-1.763,6.437-5.617c0-7.216-13.038-5.739-13.038-14.596c0-4.962,4.141-7.011,8.569-7.011
			c1.886,0,3.772,0.205,5.617,0.655v2.829c-1.968-0.902-4.059-1.6-6.232-1.6c-2.829,0-5.453,1.477-5.453,4.593
			c0,3.198,2.214,4.265,4.715,5.576c1.312,0.655,2.665,1.353,3.936,2.132c3.034,1.805,4.674,3.403,4.674,7.135
			C320.098,88.704,315.711,91.041,310.709,91.041z"/>
		<path fill="#FFFFFF" d="M330.922,64.186V90.59h-2.542V64.186h-6.683v-1.885h15.908v1.885H330.922z"/>
	</g>
	<g>
		<g>
			<circle fill="none" stroke="#FFFFFF" stroke-miterlimit="10" cx="54.13" cy="73.948" r="22.21"/>
		</g>
		<g>
			<path fill="#FFFFFF" d="M67.666,59.387C64.494,60.592,53.014,77.21,53.014,77.21l-4.053-6.537l-3.492,2.102l6.148,9.447h2.729
				c0,0,9.335-13.222,13.319-16.492V59.387z"/>
			<path fill="#FFFFFF" d="M42.73,82.813c0,1.531,1.242,2.774,2.774,2.774l14.901,0.017c1.533,0,2.774-1.241,2.774-2.773
				l-0.023-8.939H64.8v8.957c-0.001,2.415-1.958,4.373-4.373,4.373l-15.102-0.019c-2.304,0-4.17-1.867-4.17-4.169l-0.022-15.08
				c0-2.415,1.959-4.373,4.373-4.373l13.863-0.022v1.646l-13.843-0.007c-1.532,0-2.774,1.242-2.774,2.775L42.73,82.813z"/>
		</g>
	</g>
	<g>
		<g>
			<path fill="#FFFFFF" d="M702.547,30.951c-0.178,8.438-6.771,15.369-15.289,15.188c-8.011-0.17-13.854-7.485-14.021-15.243
				c-0.176-8.47,6.75-15.924,14.963-15.146C695.996,16.486,702.394,23.046,702.547,30.951c0.007,0.35,0.684,0.246,0.679-0.054
				c-0.17-8.661-6.831-15.304-15.481-15.475c-8.365-0.165-15.193,6.712-15.703,14.883c-0.545,8.741,6.989,15.941,15.467,16.12
				c8.617,0.186,15.546-7.112,15.718-15.528C703.232,30.547,702.551,30.651,702.547,30.951z"/>
			<path fill-rule="evenodd" clip-rule="evenodd" fill="#FFFFFF" d="M695.408,25.194c-0.427-0.003-0.852-0.016-1.278-0.021
				c-0.465-0.005-0.698-0.242-0.705-0.702c-0.01-0.543,0-1.087-0.015-1.631c-0.007-0.201,0.052-0.521-0.207-0.534
				c-0.326-0.017-0.267,0.333-0.278,0.546c-0.031,0.518-0.015,1.04-0.04,1.561c-0.01,0.219,0.049,0.557-0.274,0.563
				c-0.387,0.009-0.292-0.358-0.313-0.597c-0.025-0.28,0.021-0.572-0.019-0.85c-0.055-0.367,0.229-0.981-0.227-1.032
				c-0.316-0.035-0.222,0.636-0.227,0.983c-0.052,2.318-0.066,4.635-0.095,6.953c-0.012,0.907-0.104,1.02-1.019,1.059
				c-0.968,0.042-1.937,0.045-2.909,0.055c-1.75,0.015-3.5,0.023-5.25,0.029c-0.426,0-0.848-0.053-0.854-0.612
				c-0.026-1.679-0.06-3.359,0.075-5.034c0.017-0.203,0.026-0.48,0.318-0.465c0.283,0.015,0.279,0.284,0.283,0.492
				c0.012,0.568,0.005,1.137,0.023,1.703c0.008,0.299,0.074,0.595,0.449,0.61c0.424,0.017,0.497-0.302,0.502-0.626
				c0.019-1.561,0.023-3.123,0.047-4.684c0.005-0.551-0.269-0.769-0.793-0.746c-0.212,0.009-0.424,0.001-0.637,0.006
				c-1.049,0.021-1.15,0.101-1.155,1.136c-0.015,2.767-0.005,5.534-0.005,8.3c-0.092,0-0.182,0-0.273,0
				c0,2.697-0.01,5.393,0.012,8.087c0.002,0.421-0.238,1.112,0.486,1.111c0.641-0.003,0.474-0.661,0.488-1.072
				c0.039-1.396,0.035-2.791,0.065-4.187c0.007-0.278-0.122-0.743,0.31-0.737c0.408,0.009,0.301,0.471,0.307,0.756
				c0.007,0.614-0.029,1.229-0.038,1.844c-0.017,0.945-0.036,1.892-0.038,2.839c-0.002,0.274,0.08,0.528,0.401,0.58
				c0.271,0.043,0.47-0.088,0.542-0.347c0.053-0.18,0.066-0.372,0.071-0.562c0.033-1.465,0.083-2.933,0.085-4.396
				c0-0.682,0.257-1.006,0.96-0.999c1.653,0.013,3.312,0.005,4.966-0.011c0.599-0.007,0.87,0.26,0.858,0.854
				c-0.021,0.924-0.028,1.846-0.042,2.767c-0.012,0.709-0.033,1.419-0.033,2.128c0.002,0.319,0.148,0.555,0.504,0.566
				c0.348,0.011,0.518-0.198,0.545-0.523c0.024-0.259,0.031-0.521,0.033-0.78c0.017-1.394,0.021-2.79,0.045-4.187
				c0.003-0.395,0.048-0.801,0.576-0.807c0.537-0.007,0.573,0.396,0.57,0.795c0,1.018-0.012,2.033-0.019,3.051
				c-0.003,0.567-0.007,1.136-0.01,1.705c0,0.357,0.073,0.697,0.515,0.704c0.432,0.009,0.438-0.345,0.46-0.656
				c0.007-0.118,0.012-0.237,0.012-0.356c0.047-3.145,0.095-6.291,0.13-9.437c0.025-2.374-0.172-2.077,2.076-2.197
				c0.457-0.024,0.719-0.195,0.724-0.671c0.01-0.543,0.017-1.086,0.019-1.631C696.113,25.422,695.875,25.194,695.408,25.194z"/>
		</g>
		<g>
			<path fill="#FFFFFF" d="M662.789,76.221c0,0.475-0.576,0.983-1.526,0.983c-1.22,0-1.831,0.412-3.861,0.412
				c-0.51,0-1.017-0.224-1.017-1.017c0-0.57,0.34-6.598,0.34-9.451c0-3.521-0.172-9.326-0.172-12.625
				c0-0.572,0.509-0.857,0.982-0.857c8.745,0,12.741,1.586,12.741,6.376c0,5.772-3.149,6.629-7.69,6.629
				C662.652,70.859,662.789,75.046,662.789,76.221z M659.638,64.165c0,0.825,0.271,0.921,0.644,0.921c1.086,0,3.388-0.19,4.371-0.19
				c2.576,0,3.998-1.11,3.998-4.06c0-1.872-0.98-3.3-2.575-3.902c-1.39-0.539-2.54-1.205-5.964-1.205c-0.34,0-0.68,0.285-0.68,0.761
				C659.432,56.489,659.638,61.025,659.638,64.165z"/>
			<path fill="#FFFFFF" d="M677.226,67.021c0,2.537,0.102,5.043,0.102,6.945c0,2.412-0.44,2.92-0.44,2.92s-2.236,0.729-4.641,0.729
				c-0.375,0-0.781-0.54-0.781-1.143c0-0.508,0.168-6.313,0.168-9.325c0-6.439-0.168-9.771-0.168-11.578
				c0-1.111,0.238-1.586,4.404-1.586c7.66,0,10.642,2.346,10.642,6.09c0,3.996-1.661,5.9-5.185,6.566
				c0.407,1.808,5.185,8.66,5.185,10.246c0,0.285-0.745,0.729-1.56,0.729c-0.948,0-4.404-8.026-5.895-10.723L677.226,67.021z
				 M675.159,64.165c0,0.571,0.542,1.017,1.253,0.983l3.727-0.189c2.305-0.096,3.897-0.855,3.897-4.853
				c0-3.522-4.64-4.029-8.472-4.029c-0.372,0-0.575,0.159-0.575,0.698C674.989,56.775,675.159,60.994,675.159,64.165z"/>
			<path fill="#FFFFFF" d="M690.07,76.537c0,0.413-0.271,0.57-0.848,0.57c-0.744,0-1.016-0.284-0.982-0.666l2.033-20.491
				c0.102-1.11,0.847-1.871,2.203-1.871h1.389c1.896,0,2.541,1.364,3.659,5.772c0.68,2.697,2.406,9.105,3.524,12.15
				c0.712,1.965,1.356,4.693,1.356,5.202c0,0.253-0.203,0.412-0.746,0.412c-2.373,0-3.321-0.224-3.423-0.604
				c-0.134-0.476-1.255-6.979-2.438-7.073c-1.458-0.127-4.982-0.381-4.982-0.381C690.646,71.62,690.07,75.427,690.07,76.537z
				 M691.358,57.567l-0.373,4.728c-0.068,0.887,0.305,1.237,1.151,1.205l2.066-0.063c0.748-0.033,1.085-0.477,1.052-1.238
				c-0.271-4.693-0.847-6.217-2.576-6.217C691.627,55.982,691.427,56.711,691.358,57.567z"/>
			<path fill="#FFFFFF" d="M719.42,56.615c0,2.349-0.745,3.744-1.798,3.744c-1.693,0-1.932-1.174-5.218-1.174
				c-5.185,0-7.896,2.792-7.896,7.485c0,4.601,2.744,8.503,8.912,8.503c2.066,0,3.253-1.143,4.133-1.143
				c0.645,0,1.017,0.317,1.017,1.11c0,0.888-1.32,1.935-3.998,1.935c-8.099,0-11.828-4.156-11.828-11.262
				c0-8.532,4.916-12.528,13.42-12.528C718.538,53.286,719.42,54.016,719.42,56.615z"/>
		</g>
		<g>
			<g>
				<path fill="#FFFFFF" d="M659.944,88.925c-0.359-0.393-0.948-0.644-1.71-0.644c-1.613,0-2.594,1.275-2.594,3.27
					c0,2.092,0.85,3.235,2.506,3.235c1.242,0,2.049-0.851,2.43-1.874l0.295,0.349c-0.252,1.231-1.275,2.255-2.844,2.255
					c-2.005,0-3.367-1.361-3.367-3.965c0-2.299,1.362-3.955,3.367-3.955c0.85,0,1.535,0.305,1.972,0.74
					c0.087-0.283,0.207-0.566,0.403-0.74h0.348v2.854h-0.436C660.107,90.102,659.977,89.415,659.944,88.925z"/>
				<path fill="#FFFFFF" d="M662.239,87.727h3.192v0.469c-0.174,0.086-0.643,0.162-1.154,0.162v2.812h4.085v-2.812
					c-0.513,0-0.98-0.076-1.144-0.162v-0.469h3.191v0.469c-0.174,0.086-0.643,0.162-1.154,0.162v6.385
					c0.512,0,0.98,0.088,1.154,0.175v0.468h-3.191v-0.468c0.163-0.087,0.631-0.175,1.144-0.175v-2.931h-4.085v2.931
					c0.512,0,0.98,0.088,1.154,0.175v0.468h-3.192v-0.468c0.163-0.087,0.632-0.175,1.144-0.175v-6.385
					c-0.512,0-0.98-0.076-1.144-0.162V87.727z"/>
				<path fill="#FFFFFF" d="M671.811,94.917c0.164-0.087,0.632-0.175,1.145-0.175v-6.385c-0.513,0-0.98-0.076-1.145-0.162v-0.469
					h3.192v0.469c-0.175,0.086-0.644,0.162-1.155,0.162v6.385c0.512,0,0.98,0.088,1.155,0.175v0.468h-3.192V94.917z"/>
				<path fill="#FFFFFF" d="M676.406,94.917c0.163-0.087,0.545-0.175,1.057-0.175h0.087v-6.385c-0.513,0-0.98-0.076-1.144-0.162
					v-0.469h3.191v0.469c-0.174,0.086-0.643,0.162-1.154,0.162v6.385h3.497c0-0.469,0.12-1.405,0.382-1.83h0.468v2.473h-6.384
					V94.917z"/>
				<path fill="#FFFFFF" d="M683.767,87.727h6.298v2.386h-0.469c-0.262-0.425-0.382-1.286-0.382-1.755h-3.409v2.898h1.83
					c0.01-0.49,0.174-0.937,0.262-1.1h0.468v2.799h-0.468c-0.088-0.152-0.252-0.599-0.262-1.1h-1.83v2.887h3.572
					c0-0.469,0.131-1.405,0.382-1.83h0.469v2.473h-6.461v-0.468c0.163-0.087,0.545-0.175,1.057-0.175h0.087v-6.385
					c-0.512,0-0.98-0.076-1.144-0.162V87.727z"/>
				<path fill="#FFFFFF" d="M693.925,94.83l2.136-2.223c0.85-0.883,1.395-1.623,1.395-2.615c0-0.85-0.469-1.373-1.329-1.373
					c-0.522,0-0.86,0.186-1.101,0.35c0.327,0.064,0.61,0.381,0.61,0.74c0,0.502-0.349,0.719-0.763,0.719
					c-0.446,0-0.752-0.315-0.752-0.838c0-0.959,1.024-1.951,2.495-1.951c1.481,0,2.495,0.807,2.495,2.277
					c0,1.449-1.405,2.561-2.647,3.552l-0.807,0.643h2.789c0.055-0.522,0.196-1.22,0.393-1.536h0.773v2.811h-5.688V94.83z"/>
				<path fill="#FFFFFF" d="M700.872,91.551c0-2.441,1.111-3.912,2.865-3.912c1.885,0,2.854,1.406,2.854,3.912
					c0,2.483-1.057,3.965-2.854,3.965C701.896,95.516,700.872,94.154,700.872,91.551z M705.034,91.551
					c0-1.831-0.316-2.909-1.297-2.909c-0.959,0-1.297,1.078-1.297,2.909c0,1.809,0.316,2.963,1.297,2.963
					C704.696,94.514,705.034,93.381,705.034,91.551z"/>
				<path fill="#FFFFFF" d="M708.211,94.678c0.218-0.109,0.73-0.197,1.231-0.197h0.381v-5.436c-0.207,0.207-0.915,0.469-1.536,0.381
					l-0.37-0.85c0.894-0.044,2.135-0.512,2.582-0.85h0.991v6.754h0.382c0.501,0,1.013,0.088,1.23,0.197v0.707h-4.892V94.678z"/>
				<path fill="#FFFFFF" d="M716.226,94.678c0.229-0.109,0.687-0.197,1.177-0.197v-1.133h-3.116v-0.566l3.497-5.055h1.188v4.598
					h1.318l-0.186,1.023h-1.133v1.133c0.501,0,0.959,0.088,1.166,0.197v0.707h-3.911V94.678z M715.518,92.324h1.885v-2.746
					L715.518,92.324z"/>
			</g>
		</g>
		<polygon fill-rule="evenodd" clip-rule="evenodd" fill="#FFFFFF" points="655.08,82.783 655.073,83.927 721.566,83.621 
			721.571,83.239 		"/>
	</g>
</g>
</svg>
