<?xml version="1.0" encoding="utf-8"?>
<!-- Generator: Adobe Illustrator 16.0.3, SVG Export Plug-In . SVG Version: 6.00 Build 0)  -->
<!DOCTYPE svg PUBLIC "-//W3C//DTD SVG 1.1//EN" "http://www.w3.org/Graphics/SVG/1.1/DTD/svg11.dtd">
<svg version="1.1" id="Capa_1" xmlns="http://www.w3.org/2000/svg" xmlns:xlink="http://www.w3.org/1999/xlink" x="0px" y="0px"
	 width="768px" height="114.174px" viewBox="0 0 768 114.174" enable-background="new 0 0 768 114.174" xml:space="preserve">
<rect fill="#7E9CB0" width="768" height="114.174"/>
<g>
	<path fill="#FFFFFF" d="M114.335,82.59l-3.075-9.389h-10.537l-3.075,9.389h-2.05l9.184-28.29h2.911l9.185,28.29H114.335z
		 M106.053,56.924h-0.082l-4.633,14.391h9.307L106.053,56.924z"/>
	<path fill="#FFFFFF" d="M135.942,62.008c0.041-3.854-2.378-6.273-6.232-6.273c-6.314,0-7.544,7.257-7.544,12.177
		c0,5.412,1.435,13.243,8.323,13.243c2.009,0,4.059-0.615,5.494-2.05V68.773h-7.052v-1.886h9.594v13.407
		c-2.009,2.05-5.617,2.747-8.405,2.747c-8.692,0-10.742-8.077-10.742-15.252c0-6.724,2.337-13.94,10.292-13.94
		c3.608,0,6.929,1.353,8.569,4.756c0.533,1.066,0.82,2.214,0.82,3.403H135.942z"/>
	<path fill="#FFFFFF" d="M145.207,82.59V54.3h12.546v1.886h-10.004v10.66h9.512v1.886h-9.512v11.89h10.373v1.968H145.207z"/>
	<path fill="#FFFFFF" d="M177.966,82.59l-12.095-25.174h-0.082V82.59h-2.337V54.3h3.157l12.3,25.379h0.082V54.3h2.337v28.29H177.966
		z"/>
	<path fill="#FFFFFF" d="M193.874,82.59h-5.33V54.3h4.838c9.758,0,12.997,4.879,12.997,14.145
		C206.379,77.219,203.345,82.59,193.874,82.59z M198.179,56.883c-1.599-0.574-3.321-0.697-5.002-0.697h-2.091v24.437h2.091
		c8.282,0,10.414-4.182,10.414-11.849C203.591,64.304,202.976,58.687,198.179,56.883z"/>
	<path fill="#FFFFFF" d="M227.575,82.59l-3.075-9.389h-10.537l-3.075,9.389h-2.05l9.184-28.29h2.911l9.185,28.29H227.575z
		 M219.293,56.924h-0.082l-4.633,14.391h9.307L219.293,56.924z"/>
</g>
<g>
	<path fill="none" stroke="#FFFFFF" stroke-miterlimit="10" d="M80.563,70.957c0,13.397-10.862,24.257-24.262,24.257
		c-13.395,0-24.254-10.86-24.254-24.257c0-13.397,10.859-24.257,24.254-24.257C69.7,46.7,80.563,57.56,80.563,70.957z"/>
	<g>
		<g>
			<path fill="#FFFFFF" d="M66.061,57.334h-3.902c0-0.896-0.73-1.625-1.628-1.625h-8.458c-0.895,0-1.624,0.729-1.624,1.625h-3.906
				c-1.075,0-1.95,0.875-1.95,1.952V81.08c0,1.076,0.875,1.952,1.95,1.952h19.519c1.078,0,1.95-0.875,1.95-1.952V59.287
				C68.011,58.209,67.139,57.334,66.061,57.334z M52.398,57.66h7.807v1.301h-7.807V57.66z M66.061,81.08H46.542V59.287h3.906
				c0,0.897,0.729,1.626,1.624,1.626h8.458c0.897,0,1.628-0.729,1.628-1.626h3.902V81.08z"/>
		</g>
		<rect x="56.627" y="64.491" fill="#FFFFFF" width="6.832" height="1.627"/>
		<rect x="56.627" y="69.696" fill="#FFFFFF" width="6.832" height="1.626"/>
		<rect x="56.627" y="74.901" fill="#FFFFFF" width="6.832" height="1.625"/>
		<polygon fill="#FFFFFF" points="49.145,65.141 51.098,67.743 55,62.54 51.098,66.118 		"/>
		<polygon fill="#FFFFFF" points="49.145,70.346 51.098,72.947 55,67.743 51.098,71.322 		"/>
		<polygon fill="#FFFFFF" points="49.145,75.55 51.098,78.152 55,72.947 51.098,76.525 		"/>
	</g>
</g>
<g>
	<g>
		<path fill="#FFFFFF" d="M702.553,30.951c-0.178,8.438-6.771,15.369-15.289,15.188c-8.011-0.17-13.854-7.485-14.021-15.243
			c-0.176-8.47,6.75-15.924,14.963-15.147C696.002,16.486,702.399,23.046,702.553,30.951c0.007,0.35,0.684,0.246,0.679-0.054
			c-0.17-8.662-6.831-15.304-15.481-15.475c-8.365-0.165-15.193,6.712-15.703,14.883c-0.545,8.742,6.989,15.941,15.467,16.12
			c8.617,0.185,15.546-7.112,15.718-15.528C703.238,30.547,702.557,30.651,702.553,30.951z"/>
		<path fill-rule="evenodd" clip-rule="evenodd" fill="#FFFFFF" d="M695.414,25.194c-0.427-0.002-0.852-0.016-1.278-0.021
			c-0.465-0.005-0.698-0.242-0.705-0.702c-0.01-0.544,0-1.087-0.015-1.631c-0.007-0.202,0.052-0.521-0.207-0.534
			c-0.326-0.017-0.267,0.333-0.278,0.546c-0.031,0.518-0.015,1.04-0.04,1.561c-0.01,0.218,0.049,0.556-0.274,0.563
			c-0.387,0.009-0.292-0.358-0.313-0.597c-0.025-0.28,0.021-0.571-0.019-0.849c-0.055-0.367,0.229-0.981-0.227-1.032
			c-0.316-0.035-0.222,0.635-0.227,0.983c-0.052,2.318-0.066,4.635-0.095,6.954c-0.012,0.907-0.104,1.019-1.019,1.058
			c-0.968,0.042-1.937,0.045-2.909,0.055c-1.75,0.015-3.5,0.023-5.25,0.029c-0.426,0-0.848-0.052-0.854-0.612
			c-0.026-1.678-0.06-3.359,0.075-5.034c0.017-0.204,0.026-0.481,0.318-0.465c0.283,0.015,0.279,0.284,0.283,0.492
			c0.012,0.569,0.005,1.136,0.023,1.703c0.008,0.299,0.074,0.595,0.449,0.61c0.424,0.017,0.497-0.301,0.502-0.626
			c0.019-1.561,0.023-3.123,0.047-4.684c0.005-0.55-0.269-0.769-0.793-0.746c-0.212,0.009-0.424,0.001-0.637,0.006
			c-1.049,0.022-1.15,0.101-1.155,1.136c-0.015,2.766-0.005,5.534-0.005,8.3c-0.092,0-0.182,0-0.273,0
			c0,2.697-0.01,5.392,0.012,8.087c0.002,0.421-0.238,1.112,0.486,1.111c0.641-0.002,0.474-0.661,0.488-1.072
			c0.039-1.396,0.035-2.791,0.065-4.187c0.007-0.278-0.122-0.743,0.31-0.737c0.408,0.009,0.301,0.471,0.307,0.756
			c0.007,0.614-0.029,1.229-0.038,1.844c-0.017,0.945-0.036,1.892-0.038,2.838c-0.002,0.275,0.08,0.529,0.401,0.581
			c0.271,0.043,0.47-0.087,0.542-0.347c0.053-0.18,0.066-0.372,0.071-0.561c0.033-1.466,0.083-2.933,0.085-4.397
			c0-0.681,0.257-1.005,0.96-0.999c1.653,0.012,3.312,0.005,4.966-0.011c0.599-0.006,0.87,0.26,0.858,0.854
			c-0.021,0.923-0.028,1.845-0.042,2.766c-0.012,0.709-0.033,1.419-0.033,2.128c0.002,0.319,0.148,0.555,0.504,0.566
			c0.348,0.011,0.518-0.198,0.545-0.524c0.024-0.258,0.031-0.521,0.033-0.78c0.017-1.394,0.021-2.79,0.045-4.186
			c0.003-0.395,0.048-0.802,0.576-0.808c0.537-0.006,0.573,0.396,0.57,0.795c0,1.018-0.012,2.034-0.019,3.051
			c-0.003,0.567-0.007,1.136-0.01,1.705c0,0.358,0.073,0.698,0.515,0.705c0.432,0.009,0.438-0.344,0.46-0.656
			c0.007-0.119,0.012-0.237,0.012-0.356c0.047-3.145,0.095-6.291,0.13-9.437c0.025-2.375-0.172-2.077,2.076-2.197
			c0.457-0.024,0.719-0.195,0.724-0.67c0.01-0.543,0.017-1.086,0.019-1.631C696.119,25.422,695.881,25.194,695.414,25.194z"/>
	</g>
	<g>
		<path fill="#FFFFFF" d="M662.795,76.22c0,0.475-0.576,0.984-1.526,0.984c-1.22,0-1.831,0.412-3.861,0.412
			c-0.51,0-1.017-0.223-1.017-1.016c0-0.571,0.34-6.598,0.34-9.452c0-3.521-0.172-9.327-0.172-12.625
			c0-0.572,0.509-0.857,0.982-0.857c8.745,0,12.741,1.585,12.741,6.375c0,5.773-3.149,6.629-7.69,6.629
			C662.658,70.859,662.795,75.046,662.795,76.22z M659.644,64.165c0,0.825,0.271,0.921,0.644,0.921c1.086,0,3.388-0.19,4.371-0.19
			c2.576,0,3.998-1.11,3.998-4.06c0-1.872-0.98-3.3-2.575-3.902c-1.39-0.539-2.54-1.206-5.964-1.206c-0.34,0-0.68,0.286-0.68,0.761
			C659.438,56.489,659.644,61.026,659.644,64.165z"/>
		<path fill="#FFFFFF" d="M677.231,67.021c0,2.538,0.102,5.043,0.102,6.946c0,2.412-0.44,2.92-0.44,2.92s-2.236,0.729-4.641,0.729
			c-0.375,0-0.781-0.541-0.781-1.143c0-0.508,0.168-6.313,0.168-9.325c0-6.44-0.168-9.771-0.168-11.578
			c0-1.111,0.238-1.586,4.404-1.586c7.66,0,10.642,2.346,10.642,6.09c0,3.997-1.661,5.9-5.185,6.567
			c0.407,1.808,5.185,8.66,5.185,10.246c0,0.285-0.745,0.729-1.56,0.729c-0.948,0-4.404-8.026-5.895-10.723L677.231,67.021z
			 M675.165,64.165c0,0.572,0.542,1.017,1.253,0.984l3.727-0.19c2.305-0.095,3.897-0.855,3.897-4.852
			c0-3.522-4.64-4.029-8.472-4.029c-0.372,0-0.575,0.159-0.575,0.698C674.995,56.775,675.165,60.994,675.165,64.165z"/>
		<path fill="#FFFFFF" d="M690.076,76.537c0,0.414-0.271,0.571-0.848,0.571c-0.744,0-1.016-0.284-0.982-0.666l2.033-20.492
			c0.102-1.11,0.847-1.871,2.203-1.871h1.389c1.896,0,2.541,1.364,3.659,5.773c0.68,2.696,2.406,9.104,3.524,12.15
			c0.712,1.965,1.356,4.693,1.356,5.202c0,0.253-0.203,0.412-0.746,0.412c-2.373,0-3.321-0.223-3.423-0.604
			c-0.134-0.476-1.255-6.979-2.438-7.074c-1.458-0.127-4.982-0.38-4.982-0.38C690.651,71.62,690.076,75.427,690.076,76.537z
			 M691.364,57.567l-0.373,4.728c-0.068,0.887,0.305,1.237,1.151,1.205l2.066-0.063c0.748-0.033,1.085-0.477,1.052-1.238
			c-0.271-4.694-0.847-6.216-2.576-6.216C691.633,55.983,691.433,56.711,691.364,57.567z"/>
		<path fill="#FFFFFF" d="M719.426,56.616c0,2.348-0.745,3.744-1.798,3.744c-1.693,0-1.932-1.174-5.218-1.174
			c-5.185,0-7.896,2.792-7.896,7.485c0,4.601,2.744,8.502,8.912,8.502c2.066,0,3.253-1.142,4.133-1.142
			c0.645,0,1.017,0.317,1.017,1.11c0,0.888-1.32,1.934-3.998,1.934c-8.099,0-11.828-4.155-11.828-11.261
			c0-8.533,4.916-12.529,13.42-12.529C718.544,53.286,719.426,54.015,719.426,56.616z"/>
	</g>
	<g>
		<g>
			<path fill="#FFFFFF" d="M659.95,88.925c-0.359-0.393-0.948-0.643-1.711-0.643c-1.612,0-2.593,1.275-2.593,3.269
				c0,2.092,0.85,3.236,2.506,3.236c1.242,0,2.048-0.85,2.43-1.874l0.294,0.349c-0.251,1.231-1.274,2.255-2.844,2.255
				c-2.004,0-3.366-1.362-3.366-3.966c0-2.299,1.362-3.955,3.366-3.955c0.85,0,1.536,0.305,1.973,0.741
				c0.087-0.283,0.207-0.566,0.402-0.741h0.349v2.854h-0.436C660.113,90.101,659.982,89.415,659.95,88.925z"/>
			<path fill="#FFFFFF" d="M662.245,87.726h3.192v0.469c-0.175,0.087-0.644,0.163-1.155,0.163v2.811h4.086v-2.811
				c-0.513,0-0.98-0.076-1.145-0.163v-0.469h3.192v0.469c-0.174,0.087-0.643,0.163-1.155,0.163v6.385
				c0.513,0,0.981,0.087,1.155,0.174v0.468h-3.192v-0.468c0.164-0.087,0.632-0.174,1.145-0.174v-2.931h-4.086v2.931
				c0.512,0,0.98,0.087,1.155,0.174v0.468h-3.192v-0.468c0.163-0.087,0.632-0.174,1.144-0.174v-6.385
				c-0.512,0-0.98-0.076-1.144-0.163V87.726z"/>
			<path fill="#FFFFFF" d="M671.816,94.917c0.163-0.087,0.632-0.174,1.144-0.174v-6.385c-0.512,0-0.98-0.076-1.144-0.163v-0.469
				h3.192v0.469c-0.175,0.087-0.644,0.163-1.155,0.163v6.385c0.512,0,0.98,0.087,1.155,0.174v0.468h-3.192V94.917z"/>
			<path fill="#FFFFFF" d="M676.411,94.917c0.164-0.087,0.545-0.174,1.058-0.174h0.087v-6.385c-0.513,0-0.98-0.076-1.145-0.163
				v-0.469h3.192v0.469c-0.174,0.087-0.643,0.163-1.154,0.163v6.385h3.497c0-0.469,0.119-1.406,0.381-1.831h0.469v2.473h-6.385
				V94.917z"/>
			<path fill="#FFFFFF" d="M683.772,87.726h6.297v2.386h-0.469c-0.261-0.425-0.381-1.286-0.381-1.754h-3.41v2.898h1.83
				c0.011-0.491,0.175-0.937,0.262-1.101h0.469v2.8h-0.469c-0.087-0.152-0.251-0.599-0.262-1.1h-1.83v2.887h3.573
				c0-0.469,0.131-1.406,0.382-1.831h0.469v2.473h-6.461v-0.468c0.163-0.087,0.545-0.174,1.057-0.174h0.087v-6.385
				c-0.512,0-0.98-0.076-1.144-0.163V87.726z"/>
			<path fill="#FFFFFF" d="M693.931,94.83l2.136-2.223c0.85-0.882,1.395-1.623,1.395-2.615c0-0.85-0.469-1.373-1.329-1.373
				c-0.522,0-0.86,0.185-1.101,0.349c0.327,0.065,0.61,0.381,0.61,0.741c0,0.501-0.349,0.719-0.763,0.719
				c-0.446,0-0.752-0.316-0.752-0.839c0-0.959,1.024-1.95,2.495-1.95c1.481,0,2.495,0.806,2.495,2.277
				c0,1.449-1.405,2.561-2.647,3.552l-0.807,0.643h2.789c0.055-0.523,0.196-1.22,0.393-1.536h0.773v2.811h-5.688V94.83z"/>
			<path fill="#FFFFFF" d="M700.878,91.55c0-2.44,1.111-3.911,2.865-3.911c1.885,0,2.854,1.405,2.854,3.911
				c0,2.484-1.057,3.966-2.854,3.966C701.902,95.516,700.878,94.154,700.878,91.55z M705.04,91.55c0-1.831-0.316-2.909-1.297-2.909
				c-0.959,0-1.297,1.078-1.297,2.909c0,1.809,0.316,2.963,1.297,2.963C704.702,94.514,705.04,93.381,705.04,91.55z"/>
			<path fill="#FFFFFF" d="M708.217,94.677c0.218-0.109,0.73-0.196,1.231-0.196h0.381v-5.437c-0.207,0.207-0.915,0.469-1.536,0.381
				l-0.37-0.85c0.894-0.044,2.135-0.512,2.582-0.85h0.991v6.755h0.382c0.501,0,1.013,0.087,1.23,0.196v0.708h-4.892V94.677z"/>
			<path fill="#FFFFFF" d="M716.231,94.677c0.229-0.109,0.687-0.196,1.177-0.196v-1.133h-3.116v-0.567l3.497-5.055h1.188v4.598
				h1.318l-0.186,1.024h-1.133v1.133c0.501,0,0.959,0.087,1.166,0.196v0.708h-3.911V94.677z M715.523,92.324h1.885v-2.746
				L715.523,92.324z"/>
		</g>
	</g>
	<polygon fill-rule="evenodd" clip-rule="evenodd" fill="#FFFFFF" points="655.086,82.783 655.079,83.927 721.572,83.621 
		721.577,83.239 	"/>
</g>
</svg>
