<?xml version="1.0" encoding="utf-8"?>
<!-- Generator: Adobe Illustrator 16.0.3, SVG Export Plug-In . SVG Version: 6.00 Build 0)  -->
<!DOCTYPE svg PUBLIC "-//W3C//DTD SVG 1.1//EN" "http://www.w3.org/Graphics/SVG/1.1/DTD/svg11.dtd">
<svg version="1.1" id="Capa_1" xmlns="http://www.w3.org/2000/svg" xmlns:xlink="http://www.w3.org/1999/xlink" x="0px" y="0px"
	 width="166.146px" height="28.667px" viewBox="0 0 166.146 28.667" enable-background="new 0 0 166.146 28.667"
	 xml:space="preserve">
<path opacity="0.4" fill="#F2F2F2" d="M166.895,28.832c0,0.276-0.232,0.5-0.52,0.5H0.749c-0.287,0-0.521-0.224-0.521-0.5V1.166
	c0-0.276,0.233-0.5,0.521-0.5h165.626c0.287,0,0.52,0.224,0.52,0.5V28.832z"/>
<g>
	<g>
		<path fill="#222120" d="M22.846,8.348v9.659h-0.93V8.348h-2.445v-0.69h5.82v0.69H22.846z"/>
		<path fill="#222120" d="M29.701,18.172c-2.25,0-3.165-1.515-3.165-3.6V7.658h0.93v6.63c0,1.604,0.345,3.194,2.295,3.194
			c1.935,0,2.265-1.604,2.265-3.194v-6.63h0.931v6.915C32.956,16.672,31.936,18.172,29.701,18.172z"/>
		<path fill="#222120" d="M35.506,18.007V7.658h4.59v0.69h-3.66v3.899h3.479v0.69h-3.479v4.35h3.795v0.72H35.506z"/>
		<path fill="#222120" d="M43.8,18.172c-0.765,0-1.545-0.06-2.295-0.24v-1.064c0.721,0.345,1.561,0.585,2.355,0.585
			c1.305,0,2.354-0.646,2.354-2.056c0-2.64-4.77-2.1-4.77-5.339c0-1.815,1.515-2.565,3.135-2.565c0.69,0,1.38,0.075,2.055,0.24
			v1.035c-0.72-0.33-1.484-0.585-2.279-0.585c-1.035,0-1.995,0.54-1.995,1.68c0,1.17,0.81,1.56,1.725,2.04
			c0.48,0.239,0.976,0.495,1.44,0.779c1.109,0.66,1.71,1.245,1.71,2.61C47.235,17.317,45.63,18.172,43.8,18.172z"/>
		<path fill="#222120" d="M51.075,18.007h-1.949V7.658h1.77c3.57,0,4.755,1.785,4.755,5.175
			C55.65,16.042,54.54,18.007,51.075,18.007z M52.65,8.603c-0.585-0.21-1.215-0.255-1.83-0.255h-0.765v8.939h0.765
			c3.03,0,3.811-1.53,3.811-4.335C54.631,11.318,54.405,9.262,52.65,8.603z"/>
		<path fill="#222120" d="M63.404,18.007l-1.124-3.435h-3.855L57.3,18.007h-0.75l3.36-10.35h1.064l3.36,10.35H63.404z M60.375,8.618
			h-0.03l-1.694,5.265h3.404L60.375,8.618z"/>
		<path fill="#222120" d="M67.966,13.252v4.755h-0.931v-4.755l-3.104-5.595h1.035l2.58,4.71l2.64-4.71h0.975L67.966,13.252z"/>
		<path fill="#222120" d="M85.021,18.007l-4.425-9.21h-0.03v9.21h-0.854V7.658h1.154l4.5,9.284h0.03V7.658h0.854v10.35H85.021z"/>
		<path fill="#222120" d="M91.905,18.172c-2.985,0-3.57-2.97-3.57-5.354c0-2.355,0.63-5.325,3.57-5.325
			c2.895,0,3.51,3.015,3.51,5.325C95.415,15.217,94.95,18.172,91.905,18.172z M91.86,8.183c-2.265,0-2.505,3.029-2.505,4.694
			c0,1.65,0.39,4.604,2.58,4.604c2.279,0,2.46-2.939,2.46-4.604C94.396,11.243,94.05,8.183,91.86,8.183z"/>
		<path fill="#222120" d="M100.575,18.007h-1.2L95.94,7.658h0.96l3.149,9.375h0.03l3-9.375h0.885L100.575,18.007z"/>
		<path fill="#222120" d="M104.46,18.007v-1.245h1.245v1.245H104.46z"/>
		<path fill="#222120" d="M110.16,18.007v-8.52l-1.694,1.215v-0.93l1.859-1.275h0.766v9.51H110.16z"/>
		<path fill="#222120" d="M115.725,18.007v-8.52l-1.694,1.215v-0.93l1.859-1.275h0.766v9.51H115.725z"/>
		<path fill="#222120" d="M120.84,20.002h-0.795l0.165-3.24h1.08L120.84,20.002z"/>
		<path fill="#222120" d="M126.585,18.007v-0.765c1.516-1.471,4.2-4.351,4.2-6.555c0-0.96-0.63-1.695-1.62-1.695
			c-1.02,0-1.395,0.675-1.515,1.59h-1.095c0.165-1.515,1.199-2.25,2.67-2.25c1.59,0,2.534,1.005,2.534,2.58
			c0,2.325-2.564,4.74-4.064,6.33h4.26v0.765H126.585z"/>
		<path fill="#222120" d="M136.574,18.172c-2.85,0-3.18-2.82-3.18-5.04c0-2.1,0.375-4.8,3.061-4.8c2.76,0,3.149,2.955,3.149,5.085
			C139.604,15.488,139.229,18.172,136.574,18.172z M136.439,8.993c-1.83,0-2.024,2.729-2.024,4.05c0,1.41,0.135,4.47,2.114,4.47
			c1.936,0,2.056-2.745,2.056-4.125C138.585,11.932,138.465,8.993,136.439,8.993z"/>
		<path fill="#222120" d="M143.249,18.007v-8.52l-1.694,1.215v-0.93l1.859-1.275h0.766v9.51H143.249z"/>
		<path fill="#222120" d="M152.099,15.187v2.82h-0.825v-2.82h-3.765v-0.734l3.69-5.955h0.899v5.925h1.68v0.765H152.099z
			 M151.273,9.833h-0.029l-2.82,4.59h2.85V9.833z"/>
	</g>
</g>
<polygon fill="#7E9CB0" points="10.532,9.99 4.321,9.99 7.426,15.458 "/>
</svg>
